solid TickTackBoom_Holz
facet normal -0.1305261922200541 0.99144486137381 0.0
  outer loop
    vertex -24.06468570296135 52.75620807046829 43.50000000000001
    vertex -22.900000000000013 52.9095418521675 38.5
    vertex -24.06468570296135 52.75620807046829 38.5
  endloop
endfacet
facet normal -0.1305261922200541 0.99144486137381 0.0
  outer loop
    vertex -22.900000000000013 52.9095418521675 38.5
    vertex -24.06468570296135 52.75620807046829 43.50000000000001
    vertex -22.900000000000013 52.9095418521675 43.50000000000001
  endloop
endfacet
facet normal 0.7933533402912354 0.6087614290087203 0.0
  outer loop
    vertex -19.71801948466054 51.591522367506954 38.5
    vertex -19.002885682970042 50.65954185216749 43.50000000000001
    vertex -19.002885682970042 50.65954185216749 38.5
  endloop
endfacet
facet normal 0.7933533402912354 0.6087614290087203 0.0
  outer loop
    vertex -19.002885682970042 50.65954185216749 43.50000000000001
    vertex -19.71801948466054 51.591522367506954 38.5
    vertex -19.71801948466054 51.591522367506954 43.50000000000001
  endloop
endfacet
facet normal -0.3826834323650902 0.9238795325112867 0.0
  outer loop
    vertex -25.15000000000001 52.30665616919746 43.50000000000001
    vertex -24.06468570296135 52.75620807046829 38.5
    vertex -25.15000000000001 52.30665616919746 38.5
  endloop
endfacet
facet normal -0.3826834323650902 0.9238795325112867 0.0
  outer loop
    vertex -24.06468570296135 52.75620807046829 38.5
    vertex -25.15000000000001 52.30665616919746 43.50000000000001
    vertex -24.06468570296135 52.75620807046829 43.50000000000001
  endloop
endfacet
facet normal -0.6087614290087197 0.7933533402912362 0.0
  outer loop
    vertex -26.081980515339474 51.591522367506954 43.50000000000001
    vertex -25.15000000000001 52.30665616919746 38.5
    vertex -26.081980515339474 51.591522367506954 38.5
  endloop
endfacet
facet normal -0.6087614290087197 0.7933533402912362 0.0
  outer loop
    vertex -25.15000000000001 52.30665616919746 38.5
    vertex -26.081980515339474 51.591522367506954 43.50000000000001
    vertex -25.15000000000001 52.30665616919746 43.50000000000001
  endloop
endfacet
facet normal 0.9238795325112873 -0.3826834323650885 0.0
  outer loop
    vertex -18.55333378169921 47.24485614920615 38.5
    vertex -19.002885682970042 46.15954185216749 43.50000000000001
    vertex -19.002885682970042 46.15954185216749 38.5
  endloop
endfacet
facet normal 0.9238795325112873 -0.3826834323650885 0.0
  outer loop
    vertex -19.002885682970042 46.15954185216749 43.50000000000001
    vertex -18.55333378169921 47.24485614920615 38.5
    vertex -18.55333378169921 47.24485614920615 43.50000000000001
  endloop
endfacet
facet normal 0.13052619222004938 0.9914448613738107 0.0
  outer loop
    vertex -22.900000000000013 52.9095418521675 43.50000000000001
    vertex -21.735314297038666 52.756208070468304 38.5
    vertex -22.900000000000013 52.9095418521675 38.5
  endloop
endfacet
facet normal 0.13052619222004938 0.9914448613738107 0.0
  outer loop
    vertex -21.735314297038666 52.756208070468304 38.5
    vertex -22.900000000000013 52.9095418521675 43.50000000000001
    vertex -21.735314297038666 52.756208070468304 43.50000000000001
  endloop
endfacet
facet normal 0.3826834323650901 0.9238795325112867 0.0
  outer loop
    vertex -21.735314297038666 52.756208070468304 43.50000000000001
    vertex -20.650000000000006 52.30665616919747 38.5
    vertex -21.735314297038666 52.756208070468304 38.5
  endloop
endfacet
facet normal 0.3826834323650901 0.9238795325112867 0.0
  outer loop
    vertex -20.650000000000006 52.30665616919747 38.5
    vertex -21.735314297038666 52.756208070468304 43.50000000000001
    vertex -20.650000000000006 52.30665616919747 43.50000000000001
  endloop
endfacet
facet normal 0.6087614290087225 0.7933533402912339 0.0
  outer loop
    vertex -20.650000000000006 52.30665616919747 43.50000000000001
    vertex -19.71801948466054 51.591522367506954 38.5
    vertex -20.650000000000006 52.30665616919747 38.5
  endloop
endfacet
facet normal 0.6087614290087225 0.7933533402912339 0.0
  outer loop
    vertex -19.71801948466054 51.591522367506954 38.5
    vertex -20.650000000000006 52.30665616919747 43.50000000000001
    vertex -19.71801948466054 51.591522367506954 43.50000000000001
  endloop
endfacet
facet normal 0.9914448613738105 0.13052619222005202 0.0
  outer loop
    vertex -18.55333378169921 49.574227555128836 38.5
    vertex -18.400000000000013 48.40954185216749 43.50000000000001
    vertex -18.400000000000013 48.40954185216749 38.5
  endloop
endfacet
facet normal 0.9914448613738105 0.13052619222005202 0.0
  outer loop
    vertex -18.400000000000013 48.40954185216749 43.50000000000001
    vertex -18.55333378169921 49.574227555128836 38.5
    vertex -18.55333378169921 49.574227555128836 43.50000000000001
  endloop
endfacet
facet normal 0.9914448613738105 -0.13052619222005202 0.0
  outer loop
    vertex -18.400000000000013 48.40954185216749 38.5
    vertex -18.55333378169921 47.24485614920615 43.50000000000001
    vertex -18.55333378169921 47.24485614920615 38.5
  endloop
endfacet
facet normal 0.9914448613738105 -0.13052619222005202 0.0
  outer loop
    vertex -18.55333378169921 47.24485614920615 43.50000000000001
    vertex -18.400000000000013 48.40954185216749 38.5
    vertex -18.400000000000013 48.40954185216749 43.50000000000001
  endloop
endfacet
facet normal 0.9238795325112868 0.3826834323650897 0.0
  outer loop
    vertex -19.002885682970042 50.65954185216749 38.5
    vertex -18.55333378169921 49.574227555128836 43.50000000000001
    vertex -18.55333378169921 49.574227555128836 38.5
  endloop
endfacet
facet normal 0.9238795325112868 0.3826834323650897 0.0
  outer loop
    vertex -18.55333378169921 49.574227555128836 43.50000000000001
    vertex -19.002885682970042 50.65954185216749 38.5
    vertex -19.002885682970042 50.65954185216749 43.50000000000001
  endloop
endfacet
facet normal 0.7933533402912339 -0.6087614290087223 0.0
  outer loop
    vertex -19.002885682970042 46.15954185216749 38.5
    vertex -19.71801948466054 45.22756133682803 43.50000000000001
    vertex -19.71801948466054 45.22756133682803 38.5
  endloop
endfacet
facet normal 0.7933533402912339 -0.6087614290087223 0.0
  outer loop
    vertex -19.71801948466054 45.22756133682803 43.50000000000001
    vertex -19.002885682970042 46.15954185216749 38.5
    vertex -19.002885682970042 46.15954185216749 43.50000000000001
  endloop
endfacet
facet normal 0.3826834323650904 -0.9238795325112867 0.0
  outer loop
    vertex -20.650000000000006 44.51242753513752 43.50000000000001
    vertex -21.735314297038666 44.06287563386669 38.5
    vertex -20.650000000000006 44.51242753513752 38.5
  endloop
endfacet
facet normal 0.3826834323650904 -0.9238795325112867 0.0
  outer loop
    vertex -21.735314297038666 44.06287563386669 38.5
    vertex -20.650000000000006 44.51242753513752 43.50000000000001
    vertex -21.735314297038666 44.06287563386669 43.50000000000001
  endloop
endfacet
facet normal 0.1305261922200495 -0.9914448613738108 0.0
  outer loop
    vertex -21.735314297038666 44.06287563386669 43.50000000000001
    vertex -22.900000000000013 43.9095418521675 38.5
    vertex -21.735314297038666 44.06287563386669 38.5
  endloop
endfacet
facet normal 0.1305261922200495 -0.9914448613738108 0.0
  outer loop
    vertex -22.900000000000013 43.9095418521675 38.5
    vertex -21.735314297038666 44.06287563386669 43.50000000000001
    vertex -22.900000000000013 43.9095418521675 43.50000000000001
  endloop
endfacet
facet normal 0.6087614290087225 -0.7933533402912339 0.0
  outer loop
    vertex -19.71801948466054 45.22756133682803 43.50000000000001
    vertex -20.650000000000006 44.51242753513752 38.5
    vertex -19.71801948466054 45.22756133682803 38.5
  endloop
endfacet
facet normal 0.6087614290087225 -0.7933533402912339 0.0
  outer loop
    vertex -20.650000000000006 44.51242753513752 38.5
    vertex -19.71801948466054 45.22756133682803 43.50000000000001
    vertex -20.650000000000006 44.51242753513752 43.50000000000001
  endloop
endfacet
facet normal -0.13052619222005335 -0.9914448613738102 -0.0
  outer loop
    vertex -22.900000000000013 43.9095418521675 43.50000000000001
    vertex -24.064685702961363 44.062875633866696 38.5
    vertex -22.900000000000013 43.9095418521675 38.5
  endloop
endfacet
facet normal -0.13052619222005335 -0.9914448613738102 -0.0
  outer loop
    vertex -24.064685702961363 44.062875633866696 38.5
    vertex -22.900000000000013 43.9095418521675 43.50000000000001
    vertex -24.064685702961363 44.062875633866696 43.50000000000001
  endloop
endfacet
facet normal -0.9914448613738105 0.1305261922200514 0.0
  outer loop
    vertex -27.24666621830082 49.574227555128836 43.50000000000001
    vertex -27.400000000000006 48.40954185216749 38.5
    vertex -27.400000000000006 48.40954185216749 43.50000000000001
  endloop
endfacet
facet normal -0.9914448613738105 0.1305261922200514 0.0
  outer loop
    vertex -27.400000000000006 48.40954185216749 38.5
    vertex -27.24666621830082 49.574227555128836 43.50000000000001
    vertex -27.24666621830082 49.574227555128836 38.5
  endloop
endfacet
facet normal -0.9914448613738105 -0.1305261922200514 -0.0
  outer loop
    vertex -27.400000000000006 48.40954185216749 43.50000000000001
    vertex -27.24666621830082 47.24485614920615 38.5
    vertex -27.24666621830082 47.24485614920615 43.50000000000001
  endloop
endfacet
facet normal -0.9914448613738105 -0.1305261922200514 -0.0
  outer loop
    vertex -27.24666621830082 47.24485614920615 38.5
    vertex -27.400000000000006 48.40954185216749 43.50000000000001
    vertex -27.400000000000006 48.40954185216749 38.5
  endloop
endfacet
facet normal -0.9238795325112868 0.3826834323650897 0.0
  outer loop
    vertex -26.797114317029987 50.65954185216749 43.50000000000001
    vertex -27.24666621830082 49.574227555128836 38.5
    vertex -27.24666621830082 49.574227555128836 43.50000000000001
  endloop
endfacet
facet normal -0.9238795325112868 0.3826834323650897 0.0
  outer loop
    vertex -27.24666621830082 49.574227555128836 38.5
    vertex -26.797114317029987 50.65954185216749 43.50000000000001
    vertex -26.797114317029987 50.65954185216749 38.5
  endloop
endfacet
facet normal -0.793353340291236 0.6087614290087197 0.0
  outer loop
    vertex -26.081980515339474 51.591522367506954 43.50000000000001
    vertex -26.797114317029987 50.65954185216749 38.5
    vertex -26.797114317029987 50.65954185216749 43.50000000000001
  endloop
endfacet
facet normal -0.793353340291236 0.6087614290087197 0.0
  outer loop
    vertex -26.797114317029987 50.65954185216749 38.5
    vertex -26.081980515339474 51.591522367506954 43.50000000000001
    vertex -26.081980515339474 51.591522367506954 38.5
  endloop
endfacet
facet normal -0.6087614290087203 -0.7933533402912355 -0.0
  outer loop
    vertex -25.15000000000001 44.512427535137526 43.50000000000001
    vertex -26.081980515339474 45.22756133682803 38.5
    vertex -25.15000000000001 44.512427535137526 38.5
  endloop
endfacet
facet normal -0.6087614290087203 -0.7933533402912355 -0.0
  outer loop
    vertex -26.081980515339474 45.22756133682803 38.5
    vertex -25.15000000000001 44.512427535137526 43.50000000000001
    vertex -26.081980515339474 45.22756133682803 43.50000000000001
  endloop
endfacet
facet normal -0.38268343236509084 -0.9238795325112863 -0.0
  outer loop
    vertex -24.064685702961363 44.062875633866696 43.50000000000001
    vertex -25.15000000000001 44.512427535137526 38.5
    vertex -24.064685702961363 44.062875633866696 38.5
  endloop
endfacet
facet normal -0.38268343236509084 -0.9238795325112863 -0.0
  outer loop
    vertex -25.15000000000001 44.512427535137526 38.5
    vertex -24.064685702961363 44.062875633866696 43.50000000000001
    vertex -25.15000000000001 44.512427535137526 43.50000000000001
  endloop
endfacet
facet normal -0.7933533402912363 -0.6087614290087192 -0.0
  outer loop
    vertex -26.797114317029987 46.1595418521675 43.50000000000001
    vertex -26.081980515339474 45.22756133682803 38.5
    vertex -26.081980515339474 45.22756133682803 43.50000000000001
  endloop
endfacet
facet normal -0.7933533402912363 -0.6087614290087192 -0.0
  outer loop
    vertex -26.081980515339474 45.22756133682803 38.5
    vertex -26.797114317029987 46.1595418521675 43.50000000000001
    vertex -26.797114317029987 46.1595418521675 38.5
  endloop
endfacet
facet normal -0.9238795325112871 -0.38268343236508917 -0.0
  outer loop
    vertex -27.24666621830082 47.24485614920615 43.50000000000001
    vertex -26.797114317029987 46.1595418521675 38.5
    vertex -26.797114317029987 46.1595418521675 43.50000000000001
  endloop
endfacet
facet normal -0.9238795325112871 -0.38268343236508917 -0.0
  outer loop
    vertex -26.797114317029987 46.1595418521675 38.5
    vertex -27.24666621830082 47.24485614920615 43.50000000000001
    vertex -27.24666621830082 47.24485614920615 38.5
  endloop
endfacet
facet normal 0.0 0.0 -1.0
  outer loop
    vertex -27.24666621830082 49.574227555128836 38.5
    vertex -27.24666621830082 47.24485614920615 38.5
    vertex -27.400000000000006 48.40954185216749 38.5
  endloop
endfacet
facet normal 0.0 0.0 -1.0
  outer loop
    vertex -27.24666621830082 47.24485614920615 38.5
    vertex -27.24666621830082 49.574227555128836 38.5
    vertex -26.797114317029987 50.65954185216749 38.5
  endloop
endfacet
facet normal 0.0 0.0 -1.0
  outer loop
    vertex -27.24666621830082 47.24485614920615 38.5
    vertex -26.797114317029987 50.65954185216749 38.5
    vertex -26.797114317029987 46.1595418521675 38.5
  endloop
endfacet
facet normal 0.0 0.0 -1.0
  outer loop
    vertex -26.797114317029987 46.1595418521675 38.5
    vertex -26.797114317029987 50.65954185216749 38.5
    vertex -26.081980515339474 51.591522367506954 38.5
  endloop
endfacet
facet normal 0.0 0.0 -1.0
  outer loop
    vertex -26.797114317029987 46.1595418521675 38.5
    vertex -26.081980515339474 51.591522367506954 38.5
    vertex -26.081980515339474 45.22756133682803 38.5
  endloop
endfacet
facet normal 0.0 0.0 -1.0
  outer loop
    vertex -26.081980515339474 45.22756133682803 38.5
    vertex -26.081980515339474 51.591522367506954 38.5
    vertex -25.15000000000001 52.30665616919746 38.5
  endloop
endfacet
facet normal 0.0 0.0 -1.0
  outer loop
    vertex -26.081980515339474 45.22756133682803 38.5
    vertex -25.15000000000001 52.30665616919746 38.5
    vertex -25.15000000000001 44.512427535137526 38.5
  endloop
endfacet
facet normal 0.0 0.0 -1.0
  outer loop
    vertex -25.15000000000001 44.512427535137526 38.5
    vertex -25.15000000000001 52.30665616919746 38.5
    vertex -24.06468570296135 52.75620807046829 38.5
  endloop
endfacet
facet normal 0.0 0.0 -1.0
  outer loop
    vertex -25.15000000000001 44.512427535137526 38.5
    vertex -24.06468570296135 52.75620807046829 38.5
    vertex -24.064685702961363 44.062875633866696 38.5
  endloop
endfacet
facet normal 0.0 0.0 -1.0
  outer loop
    vertex -24.064685702961363 44.062875633866696 38.5
    vertex -24.06468570296135 52.75620807046829 38.5
    vertex -22.900000000000013 43.9095418521675 38.5
  endloop
endfacet
facet normal 0.0 0.0 -1.0
  outer loop
    vertex -22.900000000000013 43.9095418521675 38.5
    vertex -24.06468570296135 52.75620807046829 38.5
    vertex -22.900000000000013 52.9095418521675 38.5
  endloop
endfacet
facet normal 0.0 0.0 -1.0
  outer loop
    vertex -22.900000000000013 43.9095418521675 38.5
    vertex -22.900000000000013 52.9095418521675 38.5
    vertex -21.735314297038666 52.756208070468304 38.5
  endloop
endfacet
facet normal 0.0 0.0 -1.0
  outer loop
    vertex -22.900000000000013 43.9095418521675 38.5
    vertex -21.735314297038666 52.756208070468304 38.5
    vertex -21.735314297038666 44.06287563386669 38.5
  endloop
endfacet
facet normal 0.0 0.0 -1.0
  outer loop
    vertex -21.735314297038666 44.06287563386669 38.5
    vertex -21.735314297038666 52.756208070468304 38.5
    vertex -20.650000000000006 52.30665616919747 38.5
  endloop
endfacet
facet normal 0.0 0.0 -1.0
  outer loop
    vertex -21.735314297038666 44.06287563386669 38.5
    vertex -20.650000000000006 52.30665616919747 38.5
    vertex -20.650000000000006 44.51242753513752 38.5
  endloop
endfacet
facet normal 0.0 0.0 -1.0
  outer loop
    vertex -20.650000000000006 44.51242753513752 38.5
    vertex -20.650000000000006 52.30665616919747 38.5
    vertex -19.71801948466054 51.591522367506954 38.5
  endloop
endfacet
facet normal 0.0 0.0 -1.0
  outer loop
    vertex -20.650000000000006 44.51242753513752 38.5
    vertex -19.71801948466054 51.591522367506954 38.5
    vertex -19.71801948466054 45.22756133682803 38.5
  endloop
endfacet
facet normal 0.0 0.0 -1.0
  outer loop
    vertex -19.71801948466054 45.22756133682803 38.5
    vertex -19.71801948466054 51.591522367506954 38.5
    vertex -19.002885682970042 50.65954185216749 38.5
  endloop
endfacet
facet normal 0.0 0.0 -1.0
  outer loop
    vertex -19.71801948466054 45.22756133682803 38.5
    vertex -19.002885682970042 50.65954185216749 38.5
    vertex -19.002885682970042 46.15954185216749 38.5
  endloop
endfacet
facet normal 0.0 0.0 -1.0
  outer loop
    vertex -19.002885682970042 46.15954185216749 38.5
    vertex -19.002885682970042 50.65954185216749 38.5
    vertex -18.55333378169921 49.574227555128836 38.5
  endloop
endfacet
facet normal 0.0 0.0 -1.0
  outer loop
    vertex -19.002885682970042 46.15954185216749 38.5
    vertex -18.55333378169921 49.574227555128836 38.5
    vertex -18.55333378169921 47.24485614920615 38.5
  endloop
endfacet
facet normal 0.0 0.0 -1.0
  outer loop
    vertex -18.55333378169921 47.24485614920615 38.5
    vertex -18.55333378169921 49.574227555128836 38.5
    vertex -18.400000000000013 48.40954185216749 38.5
  endloop
endfacet
facet normal 0.0 0.0 1.0
  outer loop
    vertex -27.24666621830082 47.24485614920615 43.50000000000001
    vertex -27.24666621830082 49.574227555128836 43.50000000000001
    vertex -27.400000000000006 48.40954185216749 43.50000000000001
  endloop
endfacet
facet normal 0.0 0.0 1.0
  outer loop
    vertex -27.24666621830082 49.574227555128836 43.50000000000001
    vertex -27.24666621830082 47.24485614920615 43.50000000000001
    vertex -26.797114317029987 46.1595418521675 43.50000000000001
  endloop
endfacet
facet normal 0.0 0.0 1.0
  outer loop
    vertex -27.24666621830082 49.574227555128836 43.50000000000001
    vertex -26.797114317029987 46.1595418521675 43.50000000000001
    vertex -26.797114317029987 50.65954185216749 43.50000000000001
  endloop
endfacet
facet normal 0.0 0.0 1.0
  outer loop
    vertex -26.797114317029987 50.65954185216749 43.50000000000001
    vertex -26.797114317029987 46.1595418521675 43.50000000000001
    vertex -26.081980515339474 45.22756133682803 43.50000000000001
  endloop
endfacet
facet normal 0.0 0.0 1.0
  outer loop
    vertex -26.797114317029987 50.65954185216749 43.50000000000001
    vertex -26.081980515339474 45.22756133682803 43.50000000000001
    vertex -26.081980515339474 51.591522367506954 43.50000000000001
  endloop
endfacet
facet normal 0.0 0.0 1.0
  outer loop
    vertex -26.081980515339474 51.591522367506954 43.50000000000001
    vertex -26.081980515339474 45.22756133682803 43.50000000000001
    vertex -25.15000000000001 44.512427535137526 43.50000000000001
  endloop
endfacet
facet normal 0.0 0.0 1.0
  outer loop
    vertex -26.081980515339474 51.591522367506954 43.50000000000001
    vertex -25.15000000000001 44.512427535137526 43.50000000000001
    vertex -25.40000000000001 48.40954185216749 43.50000000000001
  endloop
endfacet
facet normal 0.0 0.0 1.0
  outer loop
    vertex -25.40000000000001 48.40954185216749 43.50000000000001
    vertex -25.15000000000001 44.512427535137526 43.50000000000001
    vertex -25.314814565722678 47.76249423941119 43.50000000000001
  endloop
endfacet
facet normal 0.0 0.0 1.0
  outer loop
    vertex -25.314814565722678 47.76249423941119 43.50000000000001
    vertex -25.15000000000001 44.512427535137526 43.50000000000001
    vertex -25.06506350946111 47.1595418521675 43.50000000000001
  endloop
endfacet
facet normal 0.0 0.0 1.0
  outer loop
    vertex -25.06506350946111 47.1595418521675 43.50000000000001
    vertex -25.15000000000001 44.512427535137526 43.50000000000001
    vertex -24.064685702961363 44.062875633866696 43.50000000000001
  endloop
endfacet
facet normal 0.0 0.0 1.0
  outer loop
    vertex -25.06506350946111 47.1595418521675 43.50000000000001
    vertex -24.064685702961363 44.062875633866696 43.50000000000001
    vertex -24.667766952966378 46.641774899201124 43.50000000000001
  endloop
endfacet
facet normal 0.0 0.0 1.0
  outer loop
    vertex -24.667766952966378 46.641774899201124 43.50000000000001
    vertex -24.064685702961363 44.062875633866696 43.50000000000001
    vertex -24.150000000000013 46.2444783427064 43.50000000000001
  endloop
endfacet
facet normal 0.0 0.0 1.0
  outer loop
    vertex -24.150000000000013 46.2444783427064 43.50000000000001
    vertex -24.064685702961363 44.062875633866696 43.50000000000001
    vertex -23.547047612756316 45.99472728644483 43.50000000000001
  endloop
endfacet
facet normal 0.0 0.0 1.0
  outer loop
    vertex -23.547047612756316 45.99472728644483 43.50000000000001
    vertex -24.064685702961363 44.062875633866696 43.50000000000001
    vertex -22.900000000000013 43.9095418521675 43.50000000000001
  endloop
endfacet
facet normal 0.0 0.0 1.0
  outer loop
    vertex -23.547047612756316 45.99472728644483 43.50000000000001
    vertex -22.900000000000013 43.9095418521675 43.50000000000001
    vertex -22.900000000000013 45.90954185216749 43.50000000000001
  endloop
endfacet
facet normal 0.0 0.0 1.0
  outer loop
    vertex -22.900000000000013 45.90954185216749 43.50000000000001
    vertex -22.900000000000013 43.9095418521675 43.50000000000001
    vertex -21.735314297038666 44.06287563386669 43.50000000000001
  endloop
endfacet
facet normal 0.0 0.0 1.0
  outer loop
    vertex -22.900000000000013 45.90954185216749 43.50000000000001
    vertex -21.735314297038666 44.06287563386669 43.50000000000001
    vertex -22.252952387243703 45.99472728644483 43.50000000000001
  endloop
endfacet
facet normal 0.0 0.0 1.0
  outer loop
    vertex -22.252952387243703 45.99472728644483 43.50000000000001
    vertex -21.735314297038666 44.06287563386669 43.50000000000001
    vertex -21.650000000000006 46.2444783427064 43.50000000000001
  endloop
endfacet
facet normal 0.0 0.0 1.0
  outer loop
    vertex -21.650000000000006 46.2444783427064 43.50000000000001
    vertex -21.735314297038666 44.06287563386669 43.50000000000001
    vertex -20.650000000000006 44.51242753513752 43.50000000000001
  endloop
endfacet
facet normal 0.0 0.0 1.0
  outer loop
    vertex -21.650000000000006 46.2444783427064 43.50000000000001
    vertex -20.650000000000006 44.51242753513752 43.50000000000001
    vertex -21.13223304703364 46.641774899201124 43.50000000000001
  endloop
endfacet
facet normal 0.0 0.0 1.0
  outer loop
    vertex -21.13223304703364 46.641774899201124 43.50000000000001
    vertex -20.650000000000006 44.51242753513752 43.50000000000001
    vertex -20.734936490538907 47.1595418521675 43.50000000000001
  endloop
endfacet
facet normal 0.0 0.0 1.0
  outer loop
    vertex -20.734936490538907 47.1595418521675 43.50000000000001
    vertex -20.650000000000006 44.51242753513752 43.50000000000001
    vertex -20.48518543427734 47.76249423941119 43.50000000000001
  endloop
endfacet
facet normal 0.0 0.0 1.0
  outer loop
    vertex -20.48518543427734 47.76249423941119 43.50000000000001
    vertex -20.650000000000006 44.51242753513752 43.50000000000001
    vertex -19.71801948466054 45.22756133682803 43.50000000000001
  endloop
endfacet
facet normal 0.0 0.0 1.0
  outer loop
    vertex -20.48518543427734 47.76249423941119 43.50000000000001
    vertex -19.71801948466054 45.22756133682803 43.50000000000001
    vertex -20.40000000000001 48.40954185216749 43.50000000000001
  endloop
endfacet
facet normal 0.0 0.0 1.0
  outer loop
    vertex -25.40000000000001 48.40954185216749 43.50000000000001
    vertex -25.15000000000001 52.30665616919746 43.50000000000001
    vertex -26.081980515339474 51.591522367506954 43.50000000000001
  endloop
endfacet
facet normal 0.0 0.0 1.0
  outer loop
    vertex -25.15000000000001 52.30665616919746 43.50000000000001
    vertex -25.40000000000001 48.40954185216749 43.50000000000001
    vertex -25.314814565722678 49.056589464923796 43.50000000000001
  endloop
endfacet
facet normal 0.0 0.0 1.0
  outer loop
    vertex -25.15000000000001 52.30665616919746 43.50000000000001
    vertex -25.314814565722678 49.056589464923796 43.50000000000001
    vertex -25.065063509461098 49.6595418521675 43.50000000000001
  endloop
endfacet
facet normal 0.0 0.0 1.0
  outer loop
    vertex -25.15000000000001 52.30665616919746 43.50000000000001
    vertex -25.065063509461098 49.6595418521675 43.50000000000001
    vertex -24.06468570296135 52.75620807046829 43.50000000000001
  endloop
endfacet
facet normal 0.0 0.0 1.0
  outer loop
    vertex -24.06468570296135 52.75620807046829 43.50000000000001
    vertex -25.065063509461098 49.6595418521675 43.50000000000001
    vertex -24.667766952966378 50.17730880513386 43.50000000000001
  endloop
endfacet
facet normal 0.0 0.0 1.0
  outer loop
    vertex -24.06468570296135 52.75620807046829 43.50000000000001
    vertex -24.667766952966378 50.17730880513386 43.50000000000001
    vertex -24.150000000000002 50.57460536162859 43.50000000000001
  endloop
endfacet
facet normal 0.0 0.0 1.0
  outer loop
    vertex -24.06468570296135 52.75620807046829 43.50000000000001
    vertex -24.150000000000002 50.57460536162859 43.50000000000001
    vertex -23.547047612756305 50.82435641789017 43.50000000000001
  endloop
endfacet
facet normal 0.0 0.0 1.0
  outer loop
    vertex -24.06468570296135 52.75620807046829 43.50000000000001
    vertex -23.547047612756305 50.82435641789017 43.50000000000001
    vertex -22.900000000000013 52.9095418521675 43.50000000000001
  endloop
endfacet
facet normal 0.0 0.0 1.0
  outer loop
    vertex -22.900000000000013 52.9095418521675 43.50000000000001
    vertex -23.547047612756305 50.82435641789017 43.50000000000001
    vertex -22.900000000000013 50.9095418521675 43.50000000000001
  endloop
endfacet
facet normal 0.0 0.0 1.0
  outer loop
    vertex -22.900000000000013 52.9095418521675 43.50000000000001
    vertex -22.900000000000013 50.9095418521675 43.50000000000001
    vertex -22.252952387243703 50.82435641789017 43.50000000000001
  endloop
endfacet
facet normal 0.0 0.0 1.0
  outer loop
    vertex -22.900000000000013 52.9095418521675 43.50000000000001
    vertex -22.252952387243703 50.82435641789017 43.50000000000001
    vertex -21.735314297038666 52.756208070468304 43.50000000000001
  endloop
endfacet
facet normal 0.0 0.0 1.0
  outer loop
    vertex -21.735314297038666 52.756208070468304 43.50000000000001
    vertex -22.252952387243703 50.82435641789017 43.50000000000001
    vertex -21.650000000000006 50.57460536162859 43.50000000000001
  endloop
endfacet
facet normal 0.0 0.0 1.0
  outer loop
    vertex -21.735314297038666 52.756208070468304 43.50000000000001
    vertex -21.650000000000006 50.57460536162859 43.50000000000001
    vertex -20.650000000000006 52.30665616919747 43.50000000000001
  endloop
endfacet
facet normal 0.0 0.0 1.0
  outer loop
    vertex -20.650000000000006 52.30665616919747 43.50000000000001
    vertex -21.650000000000006 50.57460536162859 43.50000000000001
    vertex -21.13223304703364 50.17730880513386 43.50000000000001
  endloop
endfacet
facet normal 0.0 0.0 1.0
  outer loop
    vertex -20.650000000000006 52.30665616919747 43.50000000000001
    vertex -21.13223304703364 50.17730880513386 43.50000000000001
    vertex -20.734936490538907 49.65954185216749 43.50000000000001
  endloop
endfacet
facet normal 0.0 0.0 1.0
  outer loop
    vertex -20.650000000000006 52.30665616919747 43.50000000000001
    vertex -20.734936490538907 49.65954185216749 43.50000000000001
    vertex -20.48518543427734 49.056589464923796 43.50000000000001
  endloop
endfacet
facet normal 0.0 0.0 1.0
  outer loop
    vertex -20.650000000000006 52.30665616919747 43.50000000000001
    vertex -20.48518543427734 49.056589464923796 43.50000000000001
    vertex -19.71801948466054 51.591522367506954 43.50000000000001
  endloop
endfacet
facet normal 0.0 0.0 1.0
  outer loop
    vertex -19.71801948466054 51.591522367506954 43.50000000000001
    vertex -20.48518543427734 49.056589464923796 43.50000000000001
    vertex -20.40000000000001 48.40954185216749 43.50000000000001
  endloop
endfacet
facet normal 0.0 0.0 1.0
  outer loop
    vertex -19.71801948466054 51.591522367506954 43.50000000000001
    vertex -20.40000000000001 48.40954185216749 43.50000000000001
    vertex -19.71801948466054 45.22756133682803 43.50000000000001
  endloop
endfacet
facet normal 0.0 0.0 1.0
  outer loop
    vertex -19.71801948466054 51.591522367506954 43.50000000000001
    vertex -19.71801948466054 45.22756133682803 43.50000000000001
    vertex -19.002885682970042 46.15954185216749 43.50000000000001
  endloop
endfacet
facet normal 0.0 0.0 1.0
  outer loop
    vertex -19.71801948466054 51.591522367506954 43.50000000000001
    vertex -19.002885682970042 46.15954185216749 43.50000000000001
    vertex -19.002885682970042 50.65954185216749 43.50000000000001
  endloop
endfacet
facet normal 0.0 0.0 1.0
  outer loop
    vertex -19.002885682970042 50.65954185216749 43.50000000000001
    vertex -19.002885682970042 46.15954185216749 43.50000000000001
    vertex -18.55333378169921 47.24485614920615 43.50000000000001
  endloop
endfacet
facet normal 0.0 0.0 1.0
  outer loop
    vertex -19.002885682970042 50.65954185216749 43.50000000000001
    vertex -18.55333378169921 47.24485614920615 43.50000000000001
    vertex -18.55333378169921 49.574227555128836 43.50000000000001
  endloop
endfacet
facet normal 0.0 0.0 1.0
  outer loop
    vertex -18.55333378169921 49.574227555128836 43.50000000000001
    vertex -18.55333378169921 47.24485614920615 43.50000000000001
    vertex -18.400000000000013 48.40954185216749 43.50000000000001
  endloop
endfacet
facet normal 0.6087614290087238 -0.7933533402912327 0.0
  outer loop
    vertex -21.13223304703364 46.641774899201124 51.0
    vertex -21.650000000000006 46.2444783427064 43.50000000000001
    vertex -21.13223304703364 46.641774899201124 43.50000000000001
  endloop
endfacet
facet normal 0.6087614290087238 -0.7933533402912327 0.0
  outer loop
    vertex -21.650000000000006 46.2444783427064 43.50000000000001
    vertex -21.13223304703364 46.641774899201124 51.0
    vertex -21.650000000000006 46.2444783427064 51.0
  endloop
endfacet
facet normal -0.9238795325112897 -0.3826834323650829 0.0
  outer loop
    vertex -25.314814565722678 47.76249423941119 51.0
    vertex -25.06506350946111 47.1595418521675 43.50000000000001
    vertex -25.06506350946111 47.1595418521675 51.0
  endloop
endfacet
facet normal -0.9238795325112897 -0.3826834323650829 0.0
  outer loop
    vertex -25.06506350946111 47.1595418521675 43.50000000000001
    vertex -25.314814565722678 47.76249423941119 51.0
    vertex -25.314814565722678 47.76249423941119 43.50000000000001
  endloop
endfacet
facet normal 0.7933533402912317 -0.6087614290087251 0.0
  outer loop
    vertex -20.734936490538907 47.1595418521675 43.50000000000001
    vertex -21.13223304703364 46.641774899201124 51.0
    vertex -21.13223304703364 46.641774899201124 43.50000000000001
  endloop
endfacet
facet normal 0.7933533402912317 -0.6087614290087251 0.0
  outer loop
    vertex -21.13223304703364 46.641774899201124 51.0
    vertex -20.734936490538907 47.1595418521675 43.50000000000001
    vertex -20.734936490538907 47.1595418521675 51.0
  endloop
endfacet
facet normal -0.9914448613738098 -0.13052619222005613 0.0
  outer loop
    vertex -25.40000000000001 48.40954185216749 51.0
    vertex -25.314814565722678 47.76249423941119 43.50000000000001
    vertex -25.314814565722678 47.76249423941119 51.0
  endloop
endfacet
facet normal -0.9914448613738098 -0.13052619222005613 0.0
  outer loop
    vertex -25.314814565722678 47.76249423941119 43.50000000000001
    vertex -25.40000000000001 48.40954185216749 51.0
    vertex -25.40000000000001 48.40954185216749 43.50000000000001
  endloop
endfacet
facet normal 0.3826834323650902 -0.9238795325112865 0.0
  outer loop
    vertex -21.650000000000006 46.2444783427064 51.0
    vertex -22.252952387243703 45.99472728644483 43.50000000000001
    vertex -21.650000000000006 46.2444783427064 43.50000000000001
  endloop
endfacet
facet normal 0.3826834323650902 -0.9238795325112865 0.0
  outer loop
    vertex -22.252952387243703 45.99472728644483 43.50000000000001
    vertex -21.650000000000006 46.2444783427064 51.0
    vertex -22.252952387243703 45.99472728644483 51.0
  endloop
endfacet
facet normal -0.3826834323650902 -0.9238795325112865 0.0
  outer loop
    vertex -23.547047612756316 45.99472728644483 51.0
    vertex -24.150000000000013 46.2444783427064 43.50000000000001
    vertex -23.547047612756316 45.99472728644483 43.50000000000001
  endloop
endfacet
facet normal -0.3826834323650902 -0.9238795325112865 0.0
  outer loop
    vertex -24.150000000000013 46.2444783427064 43.50000000000001
    vertex -23.547047612756316 45.99472728644483 51.0
    vertex -24.150000000000013 46.2444783427064 51.0
  endloop
endfacet
facet normal 0.9238795325112897 0.3826834323650829 0.0
  outer loop
    vertex -20.734936490538907 49.65954185216749 43.50000000000001
    vertex -20.48518543427734 49.056589464923796 51.0
    vertex -20.48518543427734 49.056589464923796 43.50000000000001
  endloop
endfacet
facet normal 0.9238795325112897 0.3826834323650829 0.0
  outer loop
    vertex -20.48518543427734 49.056589464923796 51.0
    vertex -20.734936490538907 49.65954185216749 43.50000000000001
    vertex -20.734936490538907 49.65954185216749 51.0
  endloop
endfacet
facet normal -0.6087614290087238 -0.7933533402912327 0.0
  outer loop
    vertex -24.150000000000013 46.2444783427064 51.0
    vertex -24.667766952966378 46.641774899201124 43.50000000000001
    vertex -24.150000000000013 46.2444783427064 43.50000000000001
  endloop
endfacet
facet normal -0.6087614290087238 -0.7933533402912327 0.0
  outer loop
    vertex -24.667766952966378 46.641774899201124 43.50000000000001
    vertex -24.150000000000013 46.2444783427064 51.0
    vertex -24.667766952966378 46.641774899201124 51.0
  endloop
endfacet
facet normal 0.9914448613738098 -0.13052619222005613 0.0
  outer loop
    vertex -20.40000000000001 48.40954185216749 43.50000000000001
    vertex -20.48518543427734 47.76249423941119 51.0
    vertex -20.48518543427734 47.76249423941119 43.50000000000001
  endloop
endfacet
facet normal 0.9914448613738098 -0.13052619222005613 0.0
  outer loop
    vertex -20.48518543427734 47.76249423941119 51.0
    vertex -20.40000000000001 48.40954185216749 43.50000000000001
    vertex -20.40000000000001 48.40954185216749 51.0
  endloop
endfacet
facet normal 0.13052619222005388 -0.99144486137381 0.0
  outer loop
    vertex -22.252952387243703 45.99472728644483 51.0
    vertex -22.900000000000013 45.90954185216749 43.50000000000001
    vertex -22.252952387243703 45.99472728644483 43.50000000000001
  endloop
endfacet
facet normal 0.13052619222005388 -0.99144486137381 0.0
  outer loop
    vertex -22.900000000000013 45.90954185216749 43.50000000000001
    vertex -22.252952387243703 45.99472728644483 51.0
    vertex -22.900000000000013 45.90954185216749 51.0
  endloop
endfacet
facet normal -0.13052619222005613 -0.9914448613738098 0.0
  outer loop
    vertex -22.900000000000013 45.90954185216749 51.0
    vertex -23.547047612756316 45.99472728644483 43.50000000000001
    vertex -22.900000000000013 45.90954185216749 43.50000000000001
  endloop
endfacet
facet normal -0.13052619222005613 -0.9914448613738098 0.0
  outer loop
    vertex -23.547047612756316 45.99472728644483 43.50000000000001
    vertex -22.900000000000013 45.90954185216749 51.0
    vertex -23.547047612756316 45.99472728644483 51.0
  endloop
endfacet
facet normal 0.9914448613738098 0.13052619222005613 0.0
  outer loop
    vertex -20.48518543427734 49.056589464923796 43.50000000000001
    vertex -20.40000000000001 48.40954185216749 51.0
    vertex -20.40000000000001 48.40954185216749 43.50000000000001
  endloop
endfacet
facet normal 0.9914448613738098 0.13052619222005613 0.0
  outer loop
    vertex -20.40000000000001 48.40954185216749 51.0
    vertex -20.48518543427734 49.056589464923796 43.50000000000001
    vertex -20.48518543427734 49.056589464923796 51.0
  endloop
endfacet
facet normal -0.7933533402912317 -0.6087614290087251 0.0
  outer loop
    vertex -25.06506350946111 47.1595418521675 51.0
    vertex -24.667766952966378 46.641774899201124 43.50000000000001
    vertex -24.667766952966378 46.641774899201124 51.0
  endloop
endfacet
facet normal -0.7933533402912317 -0.6087614290087251 0.0
  outer loop
    vertex -24.667766952966378 46.641774899201124 43.50000000000001
    vertex -25.06506350946111 47.1595418521675 51.0
    vertex -25.06506350946111 47.1595418521675 43.50000000000001
  endloop
endfacet
facet normal 0.9238795325112897 -0.3826834323650829 0.0
  outer loop
    vertex -20.48518543427734 47.76249423941119 43.50000000000001
    vertex -20.734936490538907 47.1595418521675 51.0
    vertex -20.734936490538907 47.1595418521675 43.50000000000001
  endloop
endfacet
facet normal 0.9238795325112897 -0.3826834323650829 0.0
  outer loop
    vertex -20.734936490538907 47.1595418521675 51.0
    vertex -20.48518543427734 47.76249423941119 43.50000000000001
    vertex -20.48518543427734 47.76249423941119 51.0
  endloop
endfacet
facet normal -0.7933533402912369 0.6087614290087184 0.0
  outer loop
    vertex -24.667766952966378 50.17730880513386 51.0
    vertex -25.065063509461098 49.6595418521675 43.50000000000001
    vertex -25.065063509461098 49.6595418521675 51.0
  endloop
endfacet
facet normal -0.7933533402912369 0.6087614290087184 0.0
  outer loop
    vertex -25.065063509461098 49.6595418521675 43.50000000000001
    vertex -24.667766952966378 50.17730880513386 51.0
    vertex -24.667766952966378 50.17730880513386 43.50000000000001
  endloop
endfacet
facet normal 0.3826834323650976 0.9238795325112835 0.0
  outer loop
    vertex -22.252952387243703 50.82435641789017 51.0
    vertex -21.650000000000006 50.57460536162859 43.50000000000001
    vertex -22.252952387243703 50.82435641789017 43.50000000000001
  endloop
endfacet
facet normal 0.3826834323650976 0.9238795325112835 0.0
  outer loop
    vertex -21.650000000000006 50.57460536162859 43.50000000000001
    vertex -22.252952387243703 50.82435641789017 51.0
    vertex -21.650000000000006 50.57460536162859 51.0
  endloop
endfacet
facet normal -0.9238795325112849 0.3826834323650946 0.0
  outer loop
    vertex -25.065063509461098 49.6595418521675 51.0
    vertex -25.314814565722678 49.056589464923796 43.50000000000001
    vertex -25.314814565722678 49.056589464923796 51.0
  endloop
endfacet
facet normal -0.9238795325112849 0.3826834323650946 0.0
  outer loop
    vertex -25.314814565722678 49.056589464923796 43.50000000000001
    vertex -25.065063509461098 49.6595418521675 51.0
    vertex -25.065063509461098 49.6595418521675 43.50000000000001
  endloop
endfacet
facet normal 0.6087614290087238 0.7933533402912327 0.0
  outer loop
    vertex -21.650000000000006 50.57460536162859 51.0
    vertex -21.13223304703364 50.17730880513386 43.50000000000001
    vertex -21.650000000000006 50.57460536162859 43.50000000000001
  endloop
endfacet
facet normal 0.6087614290087238 0.7933533402912327 0.0
  outer loop
    vertex -21.13223304703364 50.17730880513386 43.50000000000001
    vertex -21.650000000000006 50.57460536162859 51.0
    vertex -21.13223304703364 50.17730880513386 51.0
  endloop
endfacet
facet normal -0.6087614290087153 0.7933533402912392 0.0
  outer loop
    vertex -24.667766952966378 50.17730880513386 51.0
    vertex -24.150000000000002 50.57460536162859 43.50000000000001
    vertex -24.667766952966378 50.17730880513386 43.50000000000001
  endloop
endfacet
facet normal -0.6087614290087153 0.7933533402912392 0.0
  outer loop
    vertex -24.150000000000002 50.57460536162859 43.50000000000001
    vertex -24.667766952966378 50.17730880513386 51.0
    vertex -24.150000000000002 50.57460536162859 51.0
  endloop
endfacet
facet normal 0.7933533402912317 0.608761429008725 0.0
  outer loop
    vertex -21.13223304703364 50.17730880513386 43.50000000000001
    vertex -20.734936490538907 49.65954185216749 51.0
    vertex -20.734936490538907 49.65954185216749 43.50000000000001
  endloop
endfacet
facet normal 0.7933533402912317 0.608761429008725 0.0
  outer loop
    vertex -20.734936490538907 49.65954185216749 51.0
    vertex -21.13223304703364 50.17730880513386 43.50000000000001
    vertex -21.13223304703364 50.17730880513386 51.0
  endloop
endfacet
facet normal -0.3826834323650976 0.9238795325112835 0.0
  outer loop
    vertex -24.150000000000002 50.57460536162859 51.0
    vertex -23.547047612756305 50.82435641789017 43.50000000000001
    vertex -24.150000000000002 50.57460536162859 43.50000000000001
  endloop
endfacet
facet normal -0.3826834323650976 0.9238795325112835 0.0
  outer loop
    vertex -23.547047612756305 50.82435641789017 43.50000000000001
    vertex -24.150000000000002 50.57460536162859 51.0
    vertex -23.547047612756305 50.82435641789017 51.0
  endloop
endfacet
facet normal 0.13052619222005388 0.99144486137381 0.0
  outer loop
    vertex -22.900000000000013 50.9095418521675 51.0
    vertex -22.252952387243703 50.82435641789017 43.50000000000001
    vertex -22.900000000000013 50.9095418521675 43.50000000000001
  endloop
endfacet
facet normal 0.13052619222005388 0.99144486137381 0.0
  outer loop
    vertex -22.252952387243703 50.82435641789017 43.50000000000001
    vertex -22.900000000000013 50.9095418521675 51.0
    vertex -22.252952387243703 50.82435641789017 51.0
  endloop
endfacet
facet normal -0.13052619222005835 0.9914448613738096 0.0
  outer loop
    vertex -23.547047612756305 50.82435641789017 51.0
    vertex -22.900000000000013 50.9095418521675 43.50000000000001
    vertex -23.547047612756305 50.82435641789017 43.50000000000001
  endloop
endfacet
facet normal -0.13052619222005835 0.9914448613738096 0.0
  outer loop
    vertex -22.900000000000013 50.9095418521675 43.50000000000001
    vertex -23.547047612756305 50.82435641789017 51.0
    vertex -22.900000000000013 50.9095418521675 51.0
  endloop
endfacet
facet normal -0.7040625922196403 0.09269159872357251 0.7040625922196326
  outer loop
    vertex -24.831851652578152 48.92717994237253 51.49999999999999
    vertex -25.40000000000001 48.40954185216749 51.0
    vertex -24.900000000000013 48.40954185216749 51.49999999999999
  endloop
endfacet
facet normal -0.7040625922196403 0.09269159872357251 0.7040625922196326
  outer loop
    vertex -25.40000000000001 48.40954185216749 51.0
    vertex -24.831851652578152 48.92717994237253 51.49999999999999
    vertex -25.314814565722678 49.056589464923796 51.0
  endloop
endfacet
facet normal -0.7040625922196395 -0.0926915987235735 0.7040625922196333
  outer loop
    vertex -24.831851652578152 47.891903761962446 51.49999999999999
    vertex -25.40000000000001 48.40954185216749 51.0
    vertex -25.314814565722678 47.76249423941119 51.0
  endloop
endfacet
facet normal -0.7040625922196395 -0.0926915987235735 0.7040625922196333
  outer loop
    vertex -25.40000000000001 48.40954185216749 51.0
    vertex -24.831851652578152 47.891903761962446 51.49999999999999
    vertex -24.900000000000013 48.40954185216749 51.49999999999999
  endloop
endfacet
facet normal -0.6560818900783191 -0.27175801689781065 0.7040625922196335
  outer loop
    vertex -25.06506350946111 47.1595418521675 51.0
    vertex -24.831851652578152 47.891903761962446 51.49999999999999
    vertex -25.314814565722678 47.76249423941119 51.0
  endloop
endfacet
facet normal -0.6560818900783191 -0.27175801689781065 0.7040625922196335
  outer loop
    vertex -24.831851652578152 47.891903761962446 51.49999999999999
    vertex -25.06506350946111 47.1595418521675 51.0
    vertex -24.63205080756889 47.40954185216749 51.49999999999999
  endloop
endfacet
facet normal -0.5633902913547472 -0.43230457532182665 0.7040625922196324
  outer loop
    vertex -24.667766952966378 46.641774899201124 51.0
    vertex -24.63205080756889 47.40954185216749 51.49999999999999
    vertex -25.06506350946111 47.1595418521675 51.0
  endloop
endfacet
facet normal -0.5633902913547472 -0.43230457532182665 0.7040625922196324
  outer loop
    vertex -24.63205080756889 47.40954185216749 51.49999999999999
    vertex -24.667766952966378 46.641774899201124 51.0
    vertex -24.314213562373112 46.995328289794394 51.49999999999999
  endloop
endfacet
facet normal -0.43230457532182803 -0.5633902913547472 0.7040625922196316
  outer loop
    vertex -24.150000000000013 46.2444783427064 51.0
    vertex -24.314213562373112 46.995328289794394 51.49999999999999
    vertex -24.667766952966378 46.641774899201124 51.0
  endloop
endfacet
facet normal -0.43230457532182803 -0.5633902913547472 0.7040625922196316
  outer loop
    vertex -24.314213562373112 46.995328289794394 51.49999999999999
    vertex -24.150000000000013 46.2444783427064 51.0
    vertex -23.90000000000002 46.67749104459862 51.49999999999999
  endloop
endfacet
facet normal -0.271758016897814 -0.6560818900783174 0.7040625922196336
  outer loop
    vertex -23.547047612756316 45.99472728644483 51.0
    vertex -23.90000000000002 46.67749104459862 51.49999999999999
    vertex -24.150000000000013 46.2444783427064 51.0
  endloop
endfacet
facet normal -0.271758016897814 -0.6560818900783174 0.7040625922196336
  outer loop
    vertex -23.90000000000002 46.67749104459862 51.49999999999999
    vertex -23.547047612756316 45.99472728644483 51.0
    vertex -23.41763809020506 46.477690199589354 51.49999999999999
  endloop
endfacet
facet normal -0.09269159872357026 -0.7040625922196361 0.7040625922196373
  outer loop
    vertex -22.900000000000013 45.90954185216749 51.0
    vertex -23.41763809020506 46.477690199589354 51.49999999999999
    vertex -23.547047612756316 45.99472728644483 51.0
  endloop
endfacet
facet normal -0.09269159872357026 -0.7040625922196361 0.7040625922196373
  outer loop
    vertex -23.41763809020506 46.477690199589354 51.49999999999999
    vertex -22.900000000000013 45.90954185216749 51.0
    vertex -22.900000000000016 46.4095418521675 51.49999999999999
  endloop
endfacet
facet normal 0.09269159872356916 -0.7040625922196352 0.7040625922196382
  outer loop
    vertex -22.900000000000013 45.90954185216749 51.0
    vertex -22.382361909794973 46.477690199589354 51.49999999999999
    vertex -22.900000000000016 46.4095418521675 51.49999999999999
  endloop
endfacet
facet normal 0.09269159872356916 -0.7040625922196352 0.7040625922196382
  outer loop
    vertex -22.382361909794973 46.477690199589354 51.49999999999999
    vertex -22.900000000000013 45.90954185216749 51.0
    vertex -22.252952387243703 45.99472728644483 51.0
  endloop
endfacet
facet normal 0.2717580168978118 -0.6560818900783137 0.704062592219638
  outer loop
    vertex -22.252952387243703 45.99472728644483 51.0
    vertex -21.900000000000013 46.67749104459862 51.49999999999999
    vertex -22.382361909794973 46.477690199589354 51.49999999999999
  endloop
endfacet
facet normal 0.2717580168978118 -0.6560818900783137 0.704062592219638
  outer loop
    vertex -21.900000000000013 46.67749104459862 51.49999999999999
    vertex -22.252952387243703 45.99472728644483 51.0
    vertex -21.650000000000006 46.2444783427064 51.0
  endloop
endfacet
facet normal 0.43230457532182526 -0.5633902913547397 0.7040625922196393
  outer loop
    vertex -21.650000000000006 46.2444783427064 51.0
    vertex -21.485786437626917 46.9953282897944 51.49999999999999
    vertex -21.900000000000013 46.67749104459862 51.49999999999999
  endloop
endfacet
facet normal 0.43230457532182526 -0.5633902913547397 0.7040625922196393
  outer loop
    vertex -21.485786437626917 46.9953282897944 51.49999999999999
    vertex -21.650000000000006 46.2444783427064 51.0
    vertex -21.13223304703364 46.641774899201124 51.0
  endloop
endfacet
facet normal 0.5633902913547386 -0.4323045753218261 0.7040625922196396
  outer loop
    vertex -21.13223304703364 46.641774899201124 51.0
    vertex -21.167949192431138 47.40954185216749 51.49999999999999
    vertex -21.485786437626917 46.9953282897944 51.49999999999999
  endloop
endfacet
facet normal 0.5633902913547386 -0.4323045753218261 0.7040625922196396
  outer loop
    vertex -21.167949192431138 47.40954185216749 51.49999999999999
    vertex -21.13223304703364 46.641774899201124 51.0
    vertex -20.734936490538907 47.1595418521675 51.0
  endloop
endfacet
facet normal 0.6560818900783133 -0.2717580168978073 0.7040625922196401
  outer loop
    vertex -20.734936490538907 47.1595418521675 51.0
    vertex -20.968148347421877 47.89190376196245 51.49999999999999
    vertex -21.167949192431138 47.40954185216749 51.49999999999999
  endloop
endfacet
facet normal 0.6560818900783133 -0.2717580168978073 0.7040625922196401
  outer loop
    vertex -20.968148347421877 47.89190376196245 51.49999999999999
    vertex -20.734936490538907 47.1595418521675 51.0
    vertex -20.48518543427734 47.76249423941119 51.0
  endloop
endfacet
facet normal 0.7040625922196333 -0.0926915987235731 0.7040625922196397
  outer loop
    vertex -20.48518543427734 47.76249423941119 51.0
    vertex -20.900000000000013 48.40954185216749 51.49999999999999
    vertex -20.968148347421877 47.89190376196245 51.49999999999999
  endloop
endfacet
facet normal 0.7040625922196333 -0.0926915987235731 0.7040625922196397
  outer loop
    vertex -20.900000000000013 48.40954185216749 51.49999999999999
    vertex -20.48518543427734 47.76249423941119 51.0
    vertex -20.40000000000001 48.40954185216749 51.0
  endloop
endfacet
facet normal 0.7040625922196324 0.09269159872357409 0.7040625922196403
  outer loop
    vertex -20.900000000000013 48.40954185216749 51.49999999999999
    vertex -20.48518543427734 49.056589464923796 51.0
    vertex -20.968148347421877 48.92717994237254 51.49999999999999
  endloop
endfacet
facet normal 0.7040625922196324 0.09269159872357409 0.7040625922196403
  outer loop
    vertex -20.48518543427734 49.056589464923796 51.0
    vertex -20.900000000000013 48.40954185216749 51.49999999999999
    vertex -20.40000000000001 48.40954185216749 51.0
  endloop
endfacet
facet normal 0.6560818900783121 0.27175801689780776 0.704062592219641
  outer loop
    vertex -20.968148347421877 48.92717994237254 51.49999999999999
    vertex -20.734936490538907 49.65954185216749 51.0
    vertex -21.167949192431138 49.40954185216749 51.49999999999999
  endloop
endfacet
facet normal 0.6560818900783121 0.27175801689780776 0.704062592219641
  outer loop
    vertex -20.734936490538907 49.65954185216749 51.0
    vertex -20.968148347421877 48.92717994237254 51.49999999999999
    vertex -20.48518543427734 49.056589464923796 51.0
  endloop
endfacet
facet normal 0.5633902913547422 0.4323045753218226 0.7040625922196388
  outer loop
    vertex -21.167949192431138 49.40954185216749 51.49999999999999
    vertex -21.13223304703364 50.17730880513386 51.0
    vertex -21.485786437626917 49.82375541454059 51.49999999999999
  endloop
endfacet
facet normal 0.5633902913547422 0.4323045753218226 0.7040625922196388
  outer loop
    vertex -21.13223304703364 50.17730880513386 51.0
    vertex -21.167949192431138 49.40954185216749 51.49999999999999
    vertex -20.734936490538907 49.65954185216749 51.0
  endloop
endfacet
facet normal 0.43230457532182387 0.5633902913547434 0.7040625922196371
  outer loop
    vertex -21.485786437626917 49.82375541454059 51.49999999999999
    vertex -21.650000000000006 50.57460536162859 51.0
    vertex -21.900000000000013 50.141592659736375 51.49999999999999
  endloop
endfacet
facet normal 0.43230457532182387 0.5633902913547434 0.7040625922196371
  outer loop
    vertex -21.650000000000006 50.57460536162859 51.0
    vertex -21.485786437626917 49.82375541454059 51.49999999999999
    vertex -21.13223304703364 50.17730880513386 51.0
  endloop
endfacet
facet normal 0.27175801689781426 0.6560818900783106 0.7040625922196398
  outer loop
    vertex -21.900000000000013 50.141592659736375 51.49999999999999
    vertex -22.252952387243703 50.82435641789017 51.0
    vertex -22.382361909794973 50.34139350474563 51.49999999999999
  endloop
endfacet
facet normal 0.27175801689781426 0.6560818900783106 0.7040625922196398
  outer loop
    vertex -22.252952387243703 50.82435641789017 51.0
    vertex -21.900000000000013 50.141592659736375 51.49999999999999
    vertex -21.650000000000006 50.57460536162859 51.0
  endloop
endfacet
facet normal 0.09269159872357208 0.704062592219633 0.7040625922196402
  outer loop
    vertex -22.382361909794973 50.34139350474563 51.49999999999999
    vertex -22.900000000000013 50.9095418521675 51.0
    vertex -22.900000000000013 50.40954185216749 51.49999999999999
  endloop
endfacet
facet normal 0.09269159872357208 0.704062592219633 0.7040625922196402
  outer loop
    vertex -22.900000000000013 50.9095418521675 51.0
    vertex -22.382361909794973 50.34139350474563 51.49999999999999
    vertex -22.252952387243703 50.82435641789017 51.0
  endloop
endfacet
facet normal -0.09269159872357394 0.7040625922196337 0.704062592219639
  outer loop
    vertex -23.417638090205056 50.34139350474563 51.49999999999999
    vertex -22.900000000000013 50.9095418521675 51.0
    vertex -23.547047612756305 50.82435641789017 51.0
  endloop
endfacet
facet normal -0.09269159872357394 0.7040625922196337 0.704062592219639
  outer loop
    vertex -22.900000000000013 50.9095418521675 51.0
    vertex -23.417638090205056 50.34139350474563 51.49999999999999
    vertex -22.900000000000013 50.40954185216749 51.49999999999999
  endloop
endfacet
facet normal -0.2717580168978173 0.6560818900783165 0.7040625922196333
  outer loop
    vertex -23.900000000000016 50.141592659736375 51.49999999999999
    vertex -23.547047612756305 50.82435641789017 51.0
    vertex -24.150000000000002 50.57460536162859 51.0
  endloop
endfacet
facet normal -0.2717580168978173 0.6560818900783165 0.7040625922196333
  outer loop
    vertex -23.547047612756305 50.82435641789017 51.0
    vertex -23.900000000000016 50.141592659736375 51.49999999999999
    vertex -23.417638090205056 50.34139350474563 51.49999999999999
  endloop
endfacet
facet normal -0.4323045753218259 0.5633902913547482 0.7040625922196319
  outer loop
    vertex -24.31421356237311 49.823755414540585 51.49999999999999
    vertex -24.150000000000002 50.57460536162859 51.0
    vertex -24.667766952966378 50.17730880513386 51.0
  endloop
endfacet
facet normal -0.4323045753218259 0.5633902913547482 0.7040625922196319
  outer loop
    vertex -24.150000000000002 50.57460536162859 51.0
    vertex -24.31421356237311 49.823755414540585 51.49999999999999
    vertex -23.900000000000016 50.141592659736375 51.49999999999999
  endloop
endfacet
facet normal -0.5633902913547473 0.4323045753218282 0.7040625922196312
  outer loop
    vertex -24.63205080756889 49.4095418521675 51.49999999999999
    vertex -24.667766952966378 50.17730880513386 51.0
    vertex -25.065063509461098 49.6595418521675 51.0
  endloop
endfacet
facet normal -0.5633902913547473 0.4323045753218282 0.7040625922196312
  outer loop
    vertex -24.667766952966378 50.17730880513386 51.0
    vertex -24.63205080756889 49.4095418521675 51.49999999999999
    vertex -24.31421356237311 49.823755414540585 51.49999999999999
  endloop
endfacet
facet normal -0.6560818900783209 0.2717580168978163 0.7040625922196295
  outer loop
    vertex -24.831851652578152 48.92717994237253 51.49999999999999
    vertex -25.065063509461098 49.6595418521675 51.0
    vertex -25.314814565722678 49.056589464923796 51.0
  endloop
endfacet
facet normal -0.6560818900783209 0.2717580168978163 0.7040625922196295
  outer loop
    vertex -25.065063509461098 49.6595418521675 51.0
    vertex -24.831851652578152 48.92717994237253 51.49999999999999
    vertex -24.63205080756889 49.4095418521675 51.49999999999999
  endloop
endfacet
facet normal -0.9914448613738098 0.13052619222005613 0.0
  outer loop
    vertex -25.314814565722678 49.056589464923796 51.0
    vertex -25.40000000000001 48.40954185216749 43.50000000000001
    vertex -25.40000000000001 48.40954185216749 51.0
  endloop
endfacet
facet normal -0.9914448613738098 0.13052619222005613 0.0
  outer loop
    vertex -25.40000000000001 48.40954185216749 43.50000000000001
    vertex -25.314814565722678 49.056589464923796 51.0
    vertex -25.314814565722678 49.056589464923796 43.50000000000001
  endloop
endfacet
facet normal 0.0 0.0 1.0
  outer loop
    vertex -24.831851652578152 47.891903761962446 51.49999999999999
    vertex -24.831851652578152 48.92717994237253 51.49999999999999
    vertex -24.900000000000013 48.40954185216749 51.49999999999999
  endloop
endfacet
facet normal 0.0 0.0 1.0
  outer loop
    vertex -24.831851652578152 48.92717994237253 51.49999999999999
    vertex -24.831851652578152 47.891903761962446 51.49999999999999
    vertex -24.63205080756889 49.4095418521675 51.49999999999999
  endloop
endfacet
facet normal 0.0 0.0 1.0
  outer loop
    vertex -24.63205080756889 49.4095418521675 51.49999999999999
    vertex -24.831851652578152 47.891903761962446 51.49999999999999
    vertex -24.63205080756889 47.40954185216749 51.49999999999999
  endloop
endfacet
facet normal 0.0 0.0 1.0
  outer loop
    vertex -24.63205080756889 49.4095418521675 51.49999999999999
    vertex -24.63205080756889 47.40954185216749 51.49999999999999
    vertex -24.314213562373112 46.995328289794394 51.49999999999999
  endloop
endfacet
facet normal 0.0 0.0 1.0
  outer loop
    vertex -24.63205080756889 49.4095418521675 51.49999999999999
    vertex -24.314213562373112 46.995328289794394 51.49999999999999
    vertex -24.31421356237311 49.823755414540585 51.49999999999999
  endloop
endfacet
facet normal 0.0 0.0 1.0
  outer loop
    vertex -24.31421356237311 49.823755414540585 51.49999999999999
    vertex -24.314213562373112 46.995328289794394 51.49999999999999
    vertex -23.90000000000002 46.67749104459862 51.49999999999999
  endloop
endfacet
facet normal 0.0 0.0 1.0
  outer loop
    vertex -24.31421356237311 49.823755414540585 51.49999999999999
    vertex -23.90000000000002 46.67749104459862 51.49999999999999
    vertex -23.900000000000016 50.141592659736375 51.49999999999999
  endloop
endfacet
facet normal 0.0 0.0 1.0
  outer loop
    vertex -23.900000000000016 50.141592659736375 51.49999999999999
    vertex -23.90000000000002 46.67749104459862 51.49999999999999
    vertex -23.41763809020506 46.477690199589354 51.49999999999999
  endloop
endfacet
facet normal 0.0 0.0 1.0
  outer loop
    vertex -23.900000000000016 50.141592659736375 51.49999999999999
    vertex -23.41763809020506 46.477690199589354 51.49999999999999
    vertex -23.417638090205056 50.34139350474563 51.49999999999999
  endloop
endfacet
facet normal 0.0 0.0 1.0
  outer loop
    vertex -23.417638090205056 50.34139350474563 51.49999999999999
    vertex -23.41763809020506 46.477690199589354 51.49999999999999
    vertex -22.900000000000016 46.4095418521675 51.49999999999999
  endloop
endfacet
facet normal 0.0 0.0 1.0
  outer loop
    vertex -23.417638090205056 50.34139350474563 51.49999999999999
    vertex -22.900000000000016 46.4095418521675 51.49999999999999
    vertex -22.900000000000013 50.40954185216749 51.49999999999999
  endloop
endfacet
facet normal 0.0 0.0 1.0
  outer loop
    vertex -22.900000000000013 50.40954185216749 51.49999999999999
    vertex -22.900000000000016 46.4095418521675 51.49999999999999
    vertex -22.382361909794973 46.477690199589354 51.49999999999999
  endloop
endfacet
facet normal 0.0 0.0 1.0
  outer loop
    vertex -22.900000000000013 50.40954185216749 51.49999999999999
    vertex -22.382361909794973 46.477690199589354 51.49999999999999
    vertex -22.382361909794973 50.34139350474563 51.49999999999999
  endloop
endfacet
facet normal 0.0 0.0 1.0
  outer loop
    vertex -22.382361909794973 50.34139350474563 51.49999999999999
    vertex -22.382361909794973 46.477690199589354 51.49999999999999
    vertex -21.900000000000013 46.67749104459862 51.49999999999999
  endloop
endfacet
facet normal 0.0 0.0 1.0
  outer loop
    vertex -22.382361909794973 50.34139350474563 51.49999999999999
    vertex -21.900000000000013 46.67749104459862 51.49999999999999
    vertex -21.900000000000013 50.141592659736375 51.49999999999999
  endloop
endfacet
facet normal 0.0 0.0 1.0
  outer loop
    vertex -21.900000000000013 50.141592659736375 51.49999999999999
    vertex -21.900000000000013 46.67749104459862 51.49999999999999
    vertex -21.485786437626917 46.9953282897944 51.49999999999999
  endloop
endfacet
facet normal 0.0 0.0 1.0
  outer loop
    vertex -21.900000000000013 50.141592659736375 51.49999999999999
    vertex -21.485786437626917 46.9953282897944 51.49999999999999
    vertex -21.485786437626917 49.82375541454059 51.49999999999999
  endloop
endfacet
facet normal 0.0 0.0 1.0
  outer loop
    vertex -21.485786437626917 49.82375541454059 51.49999999999999
    vertex -21.485786437626917 46.9953282897944 51.49999999999999
    vertex -21.167949192431138 47.40954185216749 51.49999999999999
  endloop
endfacet
facet normal 0.0 0.0 1.0
  outer loop
    vertex -21.485786437626917 49.82375541454059 51.49999999999999
    vertex -21.167949192431138 47.40954185216749 51.49999999999999
    vertex -21.167949192431138 49.40954185216749 51.49999999999999
  endloop
endfacet
facet normal 0.0 0.0 1.0
  outer loop
    vertex -21.167949192431138 49.40954185216749 51.49999999999999
    vertex -21.167949192431138 47.40954185216749 51.49999999999999
    vertex -20.968148347421877 47.89190376196245 51.49999999999999
  endloop
endfacet
facet normal 0.0 0.0 1.0
  outer loop
    vertex -21.167949192431138 49.40954185216749 51.49999999999999
    vertex -20.968148347421877 47.89190376196245 51.49999999999999
    vertex -20.968148347421877 48.92717994237254 51.49999999999999
  endloop
endfacet
facet normal 0.0 0.0 1.0
  outer loop
    vertex -20.968148347421877 48.92717994237254 51.49999999999999
    vertex -20.968148347421877 47.89190376196245 51.49999999999999
    vertex -20.900000000000013 48.40954185216749 51.49999999999999
  endloop
endfacet
endsolid TickTackBoom_Holz
