solid TickTackBoom
facet normal 1.0 0.0 8.881784197001252e-16
  outer loop
    vertex -23.900000000000038 41.339777031933664 18.500000000000004
    vertex -23.900000000000045 14.339777031933664 29.499999999999968
    vertex -23.900000000000038 14.339777031933664 18.500000000000004
  endloop
endfacet
facet normal 1.0 0.0 8.881784197001252e-16
  outer loop
    vertex -23.900000000000045 14.339777031933664 29.499999999999968
    vertex -23.900000000000038 41.339777031933664 18.500000000000004
    vertex -23.900000000000045 41.339777031933664 29.499999999999968
  endloop
endfacet
facet normal 8.881784197001252e-16 0.0 -1.0
  outer loop
    vertex -23.900000000000038 14.339777031933664 18.500000000000004
    vertex -25.200000000000042 28.839777031933668 18.499999999999993
    vertex -23.900000000000038 41.339777031933664 18.500000000000004
  endloop
endfacet
facet normal 8.881784197001252e-16 0.0 -1.0
  outer loop
    vertex -25.200000000000042 28.839777031933668 18.499999999999993
    vertex -23.900000000000038 14.339777031933664 18.500000000000004
    vertex -25.240889008453156 28.529194177810638 18.499999999999993
  endloop
endfacet
facet normal 8.881784197001252e-16 0.0 -1.0
  outer loop
    vertex -25.240889008453156 28.529194177810638 18.499999999999993
    vertex -23.900000000000038 14.339777031933664 18.500000000000004
    vertex -28.900000000000038 14.339777031933664 18.499999999999993
  endloop
endfacet
facet normal 8.881784197001252e-16 0.0 -1.0
  outer loop
    vertex -25.240889008453156 28.529194177810638 18.499999999999993
    vertex -28.900000000000038 14.339777031933664 18.499999999999993
    vertex -25.360769515458713 28.23977703193367 18.499999999999993
  endloop
endfacet
facet normal 8.881784197001252e-16 0.0 -1.0
  outer loop
    vertex -25.360769515458713 28.23977703193367 18.499999999999993
    vertex -28.900000000000038 14.339777031933664 18.499999999999993
    vertex -25.55147186257618 27.991248894509805 18.499999999999993
  endloop
endfacet
facet normal 8.881784197001252e-16 0.0 -1.0
  outer loop
    vertex -25.55147186257618 27.991248894509805 18.499999999999993
    vertex -28.900000000000038 14.339777031933664 18.499999999999993
    vertex -25.800000000000036 27.800546547392344 18.499999999999993
  endloop
endfacet
facet normal 8.881784197001252e-16 0.0 -1.0
  outer loop
    vertex -25.800000000000036 27.800546547392344 18.499999999999993
    vertex -28.900000000000038 14.339777031933664 18.499999999999993
    vertex -26.08941714587701 27.680666040386786 18.499999999999993
  endloop
endfacet
facet normal 8.881784197001252e-16 0.0 -1.0
  outer loop
    vertex -26.08941714587701 27.680666040386786 18.499999999999993
    vertex -28.900000000000038 14.339777031933664 18.499999999999993
    vertex -26.400000000000038 27.639777031933672 18.499999999999986
  endloop
endfacet
facet normal 8.881784197001252e-16 0.0 -1.0
  outer loop
    vertex -26.400000000000038 27.639777031933672 18.499999999999986
    vertex -28.900000000000038 14.339777031933664 18.499999999999993
    vertex -26.71058285412306 27.680666040386786 18.499999999999993
  endloop
endfacet
facet normal 8.881784197001252e-16 0.0 -1.0
  outer loop
    vertex -26.71058285412306 27.680666040386786 18.499999999999993
    vertex -28.900000000000038 14.339777031933664 18.499999999999993
    vertex -27.000000000000036 27.800546547392344 18.5
  endloop
endfacet
facet normal 8.881784197001252e-16 0.0 -1.0
  outer loop
    vertex -27.000000000000036 27.800546547392344 18.5
    vertex -28.900000000000038 14.339777031933664 18.499999999999993
    vertex -27.248528137423893 27.991248894509816 18.5
  endloop
endfacet
facet normal 8.881784197001252e-16 0.0 -1.0
  outer loop
    vertex -27.248528137423893 27.991248894509816 18.5
    vertex -28.900000000000038 14.339777031933664 18.499999999999993
    vertex -27.439230484541362 28.23977703193367 18.5
  endloop
endfacet
facet normal 8.881784197001252e-16 0.0 -1.0
  outer loop
    vertex -27.439230484541362 28.23977703193367 18.5
    vertex -28.900000000000038 14.339777031933664 18.499999999999993
    vertex -27.55911099154692 28.529194177810638 18.5
  endloop
endfacet
facet normal 8.881784197001252e-16 0.0 -1.0
  outer loop
    vertex -27.55911099154692 28.529194177810638 18.5
    vertex -28.900000000000038 14.339777031933664 18.499999999999993
    vertex -27.600000000000033 28.839777031933668 18.5
  endloop
endfacet
facet normal 8.881784197001252e-16 0.0 -1.0
  outer loop
    vertex -23.900000000000038 41.339777031933664 18.500000000000004
    vertex -25.240889008453156 29.150359886056687 18.499999999999993
    vertex -28.900000000000038 41.339777031933664 18.499999999999993
  endloop
endfacet
facet normal 8.881784197001252e-16 0.0 -1.0
  outer loop
    vertex -25.240889008453156 29.150359886056687 18.499999999999993
    vertex -23.900000000000038 41.339777031933664 18.500000000000004
    vertex -25.200000000000042 28.839777031933668 18.499999999999993
  endloop
endfacet
facet normal 8.881784197001252e-16 0.0 -1.0
  outer loop
    vertex -28.900000000000038 41.339777031933664 18.499999999999993
    vertex -25.240889008453156 29.150359886056687 18.499999999999993
    vertex -25.360769515458713 29.439777031933666 18.499999999999993
  endloop
endfacet
facet normal 8.881784197001252e-16 0.0 -1.0
  outer loop
    vertex -28.900000000000038 41.339777031933664 18.499999999999993
    vertex -25.360769515458713 29.439777031933666 18.499999999999993
    vertex -25.55147186257618 29.68830516935752 18.499999999999993
  endloop
endfacet
facet normal 8.881784197001252e-16 0.0 -1.0
  outer loop
    vertex -28.900000000000038 41.339777031933664 18.499999999999993
    vertex -25.55147186257618 29.68830516935752 18.499999999999993
    vertex -25.800000000000036 29.879007516474992 18.499999999999993
  endloop
endfacet
facet normal 8.881784197001252e-16 0.0 -1.0
  outer loop
    vertex -28.900000000000038 41.339777031933664 18.499999999999993
    vertex -25.800000000000036 29.879007516474992 18.499999999999993
    vertex -26.08941714587701 29.99888802348055 18.499999999999993
  endloop
endfacet
facet normal 8.881784197001252e-16 0.0 -1.0
  outer loop
    vertex -28.900000000000038 41.339777031933664 18.499999999999993
    vertex -26.08941714587701 29.99888802348055 18.499999999999993
    vertex -26.400000000000038 30.039777031933667 18.499999999999986
  endloop
endfacet
facet normal 8.881784197001252e-16 0.0 -1.0
  outer loop
    vertex -28.900000000000038 41.339777031933664 18.499999999999993
    vertex -26.400000000000038 30.039777031933667 18.499999999999986
    vertex -26.71058285412306 29.99888802348055 18.499999999999993
  endloop
endfacet
facet normal 8.881784197001252e-16 0.0 -1.0
  outer loop
    vertex -28.900000000000038 41.339777031933664 18.499999999999993
    vertex -26.71058285412306 29.99888802348055 18.499999999999993
    vertex -27.000000000000036 29.879007516474992 18.5
  endloop
endfacet
facet normal 8.881784197001252e-16 0.0 -1.0
  outer loop
    vertex -28.900000000000038 41.339777031933664 18.499999999999993
    vertex -27.000000000000036 29.879007516474992 18.5
    vertex -27.24852813742389 29.68830516935752 18.5
  endloop
endfacet
facet normal 8.881784197001252e-16 0.0 -1.0
  outer loop
    vertex -28.900000000000038 41.339777031933664 18.499999999999993
    vertex -27.24852813742389 29.68830516935752 18.5
    vertex -27.439230484541362 29.439777031933666 18.5
  endloop
endfacet
facet normal 8.881784197001252e-16 0.0 -1.0
  outer loop
    vertex -28.900000000000038 41.339777031933664 18.499999999999993
    vertex -27.439230484541362 29.439777031933666 18.5
    vertex -27.55911099154692 29.150359886056687 18.5
  endloop
endfacet
facet normal 8.881784197001252e-16 0.0 -1.0
  outer loop
    vertex -28.900000000000038 41.339777031933664 18.499999999999993
    vertex -27.55911099154692 29.150359886056687 18.5
    vertex -27.600000000000033 28.839777031933668 18.5
  endloop
endfacet
facet normal 8.881784197001252e-16 0.0 -1.0
  outer loop
    vertex -28.900000000000038 41.339777031933664 18.499999999999993
    vertex -27.600000000000033 28.839777031933668 18.5
    vertex -28.900000000000038 14.339777031933664 18.499999999999993
  endloop
endfacet
facet normal 0.0 -1.0 0.0
  outer loop
    vertex -28.900000000000038 14.339777031933664 18.499999999999993
    vertex -23.900000000000045 14.339777031933664 29.499999999999968
    vertex -28.90000000000005 14.339777031933664 29.499999999999964
  endloop
endfacet
facet normal 0.0 -1.0 0.0
  outer loop
    vertex -23.900000000000045 14.339777031933664 29.499999999999968
    vertex -28.900000000000038 14.339777031933664 18.499999999999993
    vertex -23.900000000000038 14.339777031933664 18.500000000000004
  endloop
endfacet
facet normal 8.881784197001252e-16 0.0 -1.0
  outer loop
    vertex -25.240889008453177 28.529194177810638 28.500000000000004
    vertex -25.240889008453177 29.150359886056687 28.500000000000004
    vertex -25.20000000000006 28.839777031933668 28.500000000000004
  endloop
endfacet
facet normal 8.881784197001252e-16 0.0 -1.0
  outer loop
    vertex -25.240889008453177 29.150359886056687 28.500000000000004
    vertex -25.240889008453177 28.529194177810638 28.500000000000004
    vertex -25.360769515458735 28.23977703193367 28.500000000000004
  endloop
endfacet
facet normal 8.881784197001252e-16 0.0 -1.0
  outer loop
    vertex -25.240889008453177 29.150359886056687 28.500000000000004
    vertex -25.360769515458735 28.23977703193367 28.500000000000004
    vertex -25.360769515458735 29.439777031933666 28.500000000000004
  endloop
endfacet
facet normal 8.881784197001252e-16 0.0 -1.0
  outer loop
    vertex -25.360769515458735 29.439777031933666 28.500000000000004
    vertex -25.360769515458735 28.23977703193367 28.500000000000004
    vertex -25.5514718625762 27.991248894509805 28.500000000000004
  endloop
endfacet
facet normal 8.881784197001252e-16 0.0 -1.0
  outer loop
    vertex -25.360769515458735 29.439777031933666 28.500000000000004
    vertex -25.5514718625762 27.991248894509805 28.500000000000004
    vertex -25.5514718625762 29.68830516935752 28.500000000000004
  endloop
endfacet
facet normal 8.881784197001252e-16 0.0 -1.0
  outer loop
    vertex -25.5514718625762 29.68830516935752 28.500000000000004
    vertex -25.5514718625762 27.991248894509805 28.500000000000004
    vertex -25.80000000000006 27.800546547392344 28.500000000000004
  endloop
endfacet
facet normal 8.881784197001252e-16 0.0 -1.0
  outer loop
    vertex -25.5514718625762 29.68830516935752 28.500000000000004
    vertex -25.80000000000006 27.800546547392344 28.500000000000004
    vertex -25.80000000000006 29.879007516474992 28.500000000000004
  endloop
endfacet
facet normal 8.881784197001252e-16 0.0 -1.0
  outer loop
    vertex -25.80000000000006 29.879007516474992 28.500000000000004
    vertex -25.80000000000006 27.800546547392344 28.500000000000004
    vertex -26.089417145877036 27.680666040386786 28.500000000000004
  endloop
endfacet
facet normal 8.881784197001252e-16 0.0 -1.0
  outer loop
    vertex -25.80000000000006 29.879007516474992 28.500000000000004
    vertex -26.089417145877036 27.680666040386786 28.500000000000004
    vertex -26.089417145877036 29.99888802348055 28.500000000000004
  endloop
endfacet
facet normal 8.881784197001252e-16 0.0 -1.0
  outer loop
    vertex -26.089417145877036 29.99888802348055 28.500000000000004
    vertex -26.089417145877036 27.680666040386786 28.500000000000004
    vertex -26.40000000000006 27.639777031933672 28.500000000000004
  endloop
endfacet
facet normal 8.881784197001252e-16 0.0 -1.0
  outer loop
    vertex -26.089417145877036 29.99888802348055 28.500000000000004
    vertex -26.40000000000006 27.639777031933672 28.500000000000004
    vertex -26.40000000000006 30.039777031933667 28.500000000000004
  endloop
endfacet
facet normal 8.881784197001252e-16 0.0 -1.0
  outer loop
    vertex -26.40000000000006 30.039777031933667 28.500000000000004
    vertex -26.40000000000006 27.639777031933672 28.500000000000004
    vertex -26.710582854123082 27.680666040386786 28.500000000000004
  endloop
endfacet
facet normal 8.881784197001252e-16 0.0 -1.0
  outer loop
    vertex -26.40000000000006 30.039777031933667 28.500000000000004
    vertex -26.710582854123082 27.680666040386786 28.500000000000004
    vertex -26.710582854123082 29.99888802348055 28.500000000000004
  endloop
endfacet
facet normal 8.881784197001252e-16 0.0 -1.0
  outer loop
    vertex -26.710582854123082 29.99888802348055 28.500000000000004
    vertex -26.710582854123082 27.680666040386786 28.500000000000004
    vertex -27.000000000000057 27.800546547392344 28.499999999999993
  endloop
endfacet
facet normal 8.881784197001252e-16 0.0 -1.0
  outer loop
    vertex -26.710582854123082 29.99888802348055 28.500000000000004
    vertex -27.000000000000057 27.800546547392344 28.499999999999993
    vertex -27.000000000000057 29.879007516474992 28.499999999999993
  endloop
endfacet
facet normal 8.881784197001252e-16 0.0 -1.0
  outer loop
    vertex -27.000000000000057 29.879007516474992 28.499999999999993
    vertex -27.000000000000057 27.800546547392344 28.499999999999993
    vertex -27.248528137423918 27.991248894509816 28.499999999999975
  endloop
endfacet
facet normal 8.881784197001252e-16 0.0 -1.0
  outer loop
    vertex -27.000000000000057 29.879007516474992 28.499999999999993
    vertex -27.248528137423918 27.991248894509816 28.499999999999975
    vertex -27.24852813742391 29.68830516935752 28.499999999999975
  endloop
endfacet
facet normal 8.881784197001252e-16 0.0 -1.0
  outer loop
    vertex -27.24852813742391 29.68830516935752 28.499999999999975
    vertex -27.248528137423918 27.991248894509816 28.499999999999975
    vertex -27.439230484541383 29.439777031933666 28.499999999999975
  endloop
endfacet
facet normal 8.881784197001252e-16 0.0 -1.0
  outer loop
    vertex -27.439230484541383 29.439777031933666 28.499999999999975
    vertex -27.248528137423918 27.991248894509816 28.499999999999975
    vertex -27.439230484541383 28.23977703193367 28.499999999999975
  endloop
endfacet
facet normal 8.881784197001252e-16 0.0 -1.0
  outer loop
    vertex -27.439230484541383 29.439777031933666 28.499999999999975
    vertex -27.439230484541383 28.23977703193367 28.499999999999975
    vertex -27.55911099154694 28.529194177810638 28.499999999999975
  endloop
endfacet
facet normal 8.881784197001252e-16 0.0 -1.0
  outer loop
    vertex -27.439230484541383 29.439777031933666 28.499999999999975
    vertex -27.55911099154694 28.529194177810638 28.499999999999975
    vertex -27.55911099154694 29.150359886056687 28.499999999999975
  endloop
endfacet
facet normal 8.881784197001252e-16 0.0 -1.0
  outer loop
    vertex -27.55911099154694 29.150359886056687 28.499999999999975
    vertex -27.55911099154694 28.529194177810638 28.499999999999975
    vertex -27.60000000000006 28.839777031933668 28.499999999999975
  endloop
endfacet
facet normal -0.13052619222004505 0.9914448613738113 -1.159305471354744e-16
  outer loop
    vertex -26.08941714587701 27.680666040386786 18.499999999999993
    vertex -26.40000000000006 27.639777031933672 28.500000000000004
    vertex -26.089417145877036 27.680666040386786 28.500000000000004
  endloop
endfacet
facet normal -0.13052619222004505 0.9914448613738113 -1.159305471354744e-16
  outer loop
    vertex -26.40000000000006 27.639777031933672 28.500000000000004
    vertex -26.08941714587701 27.680666040386786 18.499999999999993
    vertex -26.400000000000038 27.639777031933672 18.499999999999986
  endloop
endfacet
facet normal 0.13052619222004505 0.9914448613738113 1.159305471354744e-16
  outer loop
    vertex -26.400000000000038 27.639777031933672 18.499999999999986
    vertex -26.710582854123082 27.680666040386786 28.500000000000004
    vertex -26.40000000000006 27.639777031933672 28.500000000000004
  endloop
endfacet
facet normal 0.13052619222004505 0.9914448613738113 1.159305471354744e-16
  outer loop
    vertex -26.710582854123082 27.680666040386786 28.500000000000004
    vertex -26.400000000000038 27.639777031933672 18.499999999999986
    vertex -26.71058285412306 27.680666040386786 18.499999999999993
  endloop
endfacet
facet normal 0.3826834323650944 0.9238795325112849 3.398911662034493e-16
  outer loop
    vertex -26.71058285412306 27.680666040386786 18.499999999999993
    vertex -27.000000000000057 27.800546547392344 28.499999999999993
    vertex -26.710582854123082 27.680666040386786 28.500000000000004
  endloop
endfacet
facet normal 0.3826834323650944 0.9238795325112849 3.398911662034493e-16
  outer loop
    vertex -27.000000000000057 27.800546547392344 28.499999999999993
    vertex -26.71058285412306 27.680666040386786 18.499999999999993
    vertex -27.000000000000036 27.800546547392344 18.5
  endloop
endfacet
facet normal 0.6087614290087235 0.7933533402912331 5.4068876399135805e-16
  outer loop
    vertex -27.000000000000036 27.800546547392344 18.5
    vertex -27.248528137423918 27.991248894509816 28.499999999999975
    vertex -27.000000000000057 27.800546547392344 28.499999999999993
  endloop
endfacet
facet normal 0.6087614290087235 0.7933533402912331 5.4068876399135805e-16
  outer loop
    vertex -27.248528137423918 27.991248894509816 28.499999999999975
    vertex -27.000000000000036 27.800546547392344 18.5
    vertex -27.248528137423893 27.991248894509816 18.5
  endloop
endfacet
facet normal 0.7933533402912352 0.6087614290087209 7.046393160436849e-16
  outer loop
    vertex -27.439230484541362 28.23977703193367 18.5
    vertex -27.248528137423918 27.991248894509816 28.499999999999975
    vertex -27.248528137423893 27.991248894509816 18.5
  endloop
endfacet
facet normal 0.7933533402912352 0.6087614290087209 7.046393160436849e-16
  outer loop
    vertex -27.248528137423918 27.991248894509816 28.499999999999975
    vertex -27.439230484541362 28.23977703193367 18.5
    vertex -27.439230484541383 28.23977703193367 28.499999999999975
  endloop
endfacet
facet normal 0.9238795325112849 0.3826834323650944 8.205698631791635e-16
  outer loop
    vertex -27.55911099154692 28.529194177810638 18.5
    vertex -27.439230484541383 28.23977703193367 28.499999999999975
    vertex -27.439230484541362 28.23977703193367 18.5
  endloop
endfacet
facet normal 0.9238795325112849 0.3826834323650944 8.205698631791635e-16
  outer loop
    vertex -27.439230484541383 28.23977703193367 28.499999999999975
    vertex -27.55911099154692 28.529194177810638 18.5
    vertex -27.55911099154694 28.529194177810638 28.499999999999975
  endloop
endfacet
facet normal 0.9914448613738113 0.13052619222004505 8.805799301948014e-16
  outer loop
    vertex -27.600000000000033 28.839777031933668 18.5
    vertex -27.55911099154694 28.529194177810638 28.499999999999975
    vertex -27.55911099154692 28.529194177810638 18.5
  endloop
endfacet
facet normal 0.9914448613738113 0.13052619222004505 8.805799301948014e-16
  outer loop
    vertex -27.55911099154694 28.529194177810638 28.499999999999975
    vertex -27.600000000000033 28.839777031933668 18.5
    vertex -27.60000000000006 28.839777031933668 28.499999999999975
  endloop
endfacet
facet normal 0.9914448613738113 -0.13052619222004505 8.805799301948014e-16
  outer loop
    vertex -27.55911099154692 29.150359886056687 18.5
    vertex -27.60000000000006 28.839777031933668 28.499999999999975
    vertex -27.600000000000033 28.839777031933668 18.5
  endloop
endfacet
facet normal 0.9914448613738113 -0.13052619222004505 8.805799301948014e-16
  outer loop
    vertex -27.60000000000006 28.839777031933668 28.499999999999975
    vertex -27.55911099154692 29.150359886056687 18.5
    vertex -27.55911099154694 29.150359886056687 28.499999999999975
  endloop
endfacet
facet normal 0.9238795325112849 -0.3826834323650944 8.205698631791635e-16
  outer loop
    vertex -27.439230484541362 29.439777031933666 18.5
    vertex -27.55911099154694 29.150359886056687 28.499999999999975
    vertex -27.55911099154692 29.150359886056687 18.5
  endloop
endfacet
facet normal 0.9238795325112849 -0.3826834323650944 8.205698631791635e-16
  outer loop
    vertex -27.55911099154694 29.150359886056687 28.499999999999975
    vertex -27.439230484541362 29.439777031933666 18.5
    vertex -27.439230484541383 29.439777031933666 28.499999999999975
  endloop
endfacet
facet normal 0.7933533402912331 -0.6087614290087235 7.046393160436831e-16
  outer loop
    vertex -27.24852813742389 29.68830516935752 18.5
    vertex -27.439230484541383 29.439777031933666 28.499999999999975
    vertex -27.439230484541362 29.439777031933666 18.5
  endloop
endfacet
facet normal 0.7933533402912331 -0.6087614290087235 7.046393160436831e-16
  outer loop
    vertex -27.439230484541383 29.439777031933666 28.499999999999975
    vertex -27.24852813742389 29.68830516935752 18.5
    vertex -27.24852813742391 29.68830516935752 28.499999999999975
  endloop
endfacet
facet normal 0.6087614290087209 -0.7933533402912352 5.406887639913557e-16
  outer loop
    vertex -27.24852813742391 29.68830516935752 28.499999999999975
    vertex -27.000000000000036 29.879007516474992 18.5
    vertex -27.000000000000057 29.879007516474992 28.499999999999993
  endloop
endfacet
facet normal 0.6087614290087209 -0.7933533402912352 5.406887639913557e-16
  outer loop
    vertex -27.000000000000036 29.879007516474992 18.5
    vertex -27.24852813742391 29.68830516935752 28.499999999999975
    vertex -27.24852813742389 29.68830516935752 18.5
  endloop
endfacet
facet normal 0.3826834323650944 -0.9238795325112849 3.398911662034493e-16
  outer loop
    vertex -27.000000000000057 29.879007516474992 28.499999999999993
    vertex -26.71058285412306 29.99888802348055 18.499999999999993
    vertex -26.710582854123082 29.99888802348055 28.500000000000004
  endloop
endfacet
facet normal 0.3826834323650944 -0.9238795325112849 3.398911662034493e-16
  outer loop
    vertex -26.71058285412306 29.99888802348055 18.499999999999993
    vertex -27.000000000000057 29.879007516474992 28.499999999999993
    vertex -27.000000000000036 29.879007516474992 18.5
  endloop
endfacet
facet normal 0.13052619222004505 -0.9914448613738113 1.159305471354744e-16
  outer loop
    vertex -26.71058285412306 29.99888802348055 18.499999999999993
    vertex -26.40000000000006 30.039777031933667 28.500000000000004
    vertex -26.710582854123082 29.99888802348055 28.500000000000004
  endloop
endfacet
facet normal 0.13052619222004505 -0.9914448613738113 1.159305471354744e-16
  outer loop
    vertex -26.40000000000006 30.039777031933667 28.500000000000004
    vertex -26.71058285412306 29.99888802348055 18.499999999999993
    vertex -26.400000000000038 30.039777031933667 18.499999999999986
  endloop
endfacet
facet normal -0.13052619222004505 -0.9914448613738113 -1.159305471354744e-16
  outer loop
    vertex -26.400000000000038 30.039777031933667 18.499999999999986
    vertex -26.089417145877036 29.99888802348055 28.500000000000004
    vertex -26.40000000000006 30.039777031933667 28.500000000000004
  endloop
endfacet
facet normal -0.13052619222004505 -0.9914448613738113 -1.159305471354744e-16
  outer loop
    vertex -26.089417145877036 29.99888802348055 28.500000000000004
    vertex -26.400000000000038 30.039777031933667 18.499999999999986
    vertex -26.08941714587701 29.99888802348055 18.499999999999993
  endloop
endfacet
facet normal -0.3826834323650944 -0.9238795325112849 -3.398911662034493e-16
  outer loop
    vertex -26.08941714587701 29.99888802348055 18.499999999999993
    vertex -25.80000000000006 29.879007516474992 28.500000000000004
    vertex -26.089417145877036 29.99888802348055 28.500000000000004
  endloop
endfacet
facet normal -0.3826834323650944 -0.9238795325112849 -3.398911662034493e-16
  outer loop
    vertex -25.80000000000006 29.879007516474992 28.500000000000004
    vertex -26.08941714587701 29.99888802348055 18.499999999999993
    vertex -25.800000000000036 29.879007516474992 18.499999999999993
  endloop
endfacet
facet normal -0.6087614290087122 -0.7933533402912418 -5.40688763991348e-16
  outer loop
    vertex -25.800000000000036 29.879007516474992 18.499999999999993
    vertex -25.5514718625762 29.68830516935752 28.500000000000004
    vertex -25.80000000000006 29.879007516474992 28.500000000000004
  endloop
endfacet
facet normal -0.6087614290087122 -0.7933533402912418 -5.40688763991348e-16
  outer loop
    vertex -25.5514718625762 29.68830516935752 28.500000000000004
    vertex -25.800000000000036 29.879007516474992 18.499999999999993
    vertex -25.55147186257618 29.68830516935752 18.499999999999993
  endloop
endfacet
facet normal -0.7933533402912418 -0.6087614290087122 -7.046393160436909e-16
  outer loop
    vertex -25.5514718625762 29.68830516935752 28.500000000000004
    vertex -25.360769515458713 29.439777031933666 18.499999999999993
    vertex -25.360769515458735 29.439777031933666 28.500000000000004
  endloop
endfacet
facet normal -0.7933533402912418 -0.6087614290087122 -7.046393160436909e-16
  outer loop
    vertex -25.360769515458713 29.439777031933666 18.499999999999993
    vertex -25.5514718625762 29.68830516935752 28.500000000000004
    vertex -25.55147186257618 29.68830516935752 18.499999999999993
  endloop
endfacet
facet normal -0.9238795325112849 -0.3826834323650944 -8.205698631791635e-16
  outer loop
    vertex -25.360769515458735 29.439777031933666 28.500000000000004
    vertex -25.240889008453156 29.150359886056687 18.499999999999993
    vertex -25.240889008453177 29.150359886056687 28.500000000000004
  endloop
endfacet
facet normal -0.9238795325112849 -0.3826834323650944 -8.205698631791635e-16
  outer loop
    vertex -25.240889008453156 29.150359886056687 18.499999999999993
    vertex -25.360769515458735 29.439777031933666 28.500000000000004
    vertex -25.360769515458713 29.439777031933666 18.499999999999993
  endloop
endfacet
facet normal -0.9914448613738113 -0.13052619222004505 -8.805799301948014e-16
  outer loop
    vertex -25.240889008453177 29.150359886056687 28.500000000000004
    vertex -25.200000000000042 28.839777031933668 18.499999999999993
    vertex -25.20000000000006 28.839777031933668 28.500000000000004
  endloop
endfacet
facet normal -0.9914448613738113 -0.13052619222004505 -8.805799301948014e-16
  outer loop
    vertex -25.200000000000042 28.839777031933668 18.499999999999993
    vertex -25.240889008453177 29.150359886056687 28.500000000000004
    vertex -25.240889008453156 29.150359886056687 18.499999999999993
  endloop
endfacet
facet normal -0.9914448613738113 0.13052619222004505 -8.805799301948014e-16
  outer loop
    vertex -25.20000000000006 28.839777031933668 28.500000000000004
    vertex -25.240889008453156 28.529194177810638 18.499999999999993
    vertex -25.240889008453177 28.529194177810638 28.500000000000004
  endloop
endfacet
facet normal -0.9914448613738113 0.13052619222004505 -8.805799301948014e-16
  outer loop
    vertex -25.240889008453156 28.529194177810638 18.499999999999993
    vertex -25.20000000000006 28.839777031933668 28.500000000000004
    vertex -25.200000000000042 28.839777031933668 18.499999999999993
  endloop
endfacet
facet normal -0.9238795325112849 0.3826834323650944 -8.205698631791635e-16
  outer loop
    vertex -25.240889008453177 28.529194177810638 28.500000000000004
    vertex -25.360769515458713 28.23977703193367 18.499999999999993
    vertex -25.360769515458735 28.23977703193367 28.500000000000004
  endloop
endfacet
facet normal -0.9238795325112849 0.3826834323650944 -8.205698631791635e-16
  outer loop
    vertex -25.360769515458713 28.23977703193367 18.499999999999993
    vertex -25.240889008453177 28.529194177810638 28.500000000000004
    vertex -25.240889008453156 28.529194177810638 18.499999999999993
  endloop
endfacet
facet normal -0.7933533402912418 0.6087614290087122 -7.046393160436909e-16
  outer loop
    vertex -25.360769515458735 28.23977703193367 28.500000000000004
    vertex -25.55147186257618 27.991248894509805 18.499999999999993
    vertex -25.5514718625762 27.991248894509805 28.500000000000004
  endloop
endfacet
facet normal -0.7933533402912418 0.6087614290087122 -7.046393160436909e-16
  outer loop
    vertex -25.55147186257618 27.991248894509805 18.499999999999993
    vertex -25.360769515458735 28.23977703193367 28.500000000000004
    vertex -25.360769515458713 28.23977703193367 18.499999999999993
  endloop
endfacet
facet normal -0.6087614290087122 0.7933533402912418 -5.40688763991348e-16
  outer loop
    vertex -25.55147186257618 27.991248894509805 18.499999999999993
    vertex -25.80000000000006 27.800546547392344 28.500000000000004
    vertex -25.5514718625762 27.991248894509805 28.500000000000004
  endloop
endfacet
facet normal -0.6087614290087122 0.7933533402912418 -5.40688763991348e-16
  outer loop
    vertex -25.80000000000006 27.800546547392344 28.500000000000004
    vertex -25.55147186257618 27.991248894509805 18.499999999999993
    vertex -25.800000000000036 27.800546547392344 18.499999999999993
  endloop
endfacet
facet normal -0.3826834323650944 0.9238795325112849 -3.398911662034493e-16
  outer loop
    vertex -25.800000000000036 27.800546547392344 18.499999999999993
    vertex -26.089417145877036 27.680666040386786 28.500000000000004
    vertex -25.80000000000006 27.800546547392344 28.500000000000004
  endloop
endfacet
facet normal -0.3826834323650944 0.9238795325112849 -3.398911662034493e-16
  outer loop
    vertex -26.089417145877036 27.680666040386786 28.500000000000004
    vertex -25.800000000000036 27.800546547392344 18.499999999999993
    vertex -26.08941714587701 27.680666040386786 18.499999999999993
  endloop
endfacet
facet normal -8.881784197001252e-16 0.0 1.0
  outer loop
    vertex -23.900000000000045 41.339777031933664 29.499999999999968
    vertex -24.900000000000052 39.33977703193366 29.499999999999957
    vertex -23.900000000000045 14.339777031933664 29.499999999999968
  endloop
endfacet
facet normal -8.881784197001252e-16 0.0 1.0
  outer loop
    vertex -24.900000000000052 39.33977703193366 29.499999999999957
    vertex -23.900000000000045 41.339777031933664 29.499999999999968
    vertex -24.934074173710982 39.598596077036184 29.499999999999968
  endloop
endfacet
facet normal -8.881784197001252e-16 0.0 1.0
  outer loop
    vertex -24.934074173710982 39.598596077036184 29.499999999999968
    vertex -23.900000000000045 41.339777031933664 29.499999999999968
    vertex -25.03397459621561 39.83977703193366 29.499999999999968
  endloop
endfacet
facet normal -8.881784197001252e-16 0.0 1.0
  outer loop
    vertex -25.03397459621561 39.83977703193366 29.499999999999968
    vertex -23.900000000000045 41.339777031933664 29.499999999999968
    vertex -25.192893218813506 40.04688381312021 29.499999999999968
  endloop
endfacet
facet normal -8.881784197001252e-16 0.0 1.0
  outer loop
    vertex -25.192893218813506 40.04688381312021 29.499999999999968
    vertex -23.900000000000045 41.339777031933664 29.499999999999968
    vertex -25.400000000000045 40.2058024357181 29.499999999999968
  endloop
endfacet
facet normal -8.881784197001252e-16 0.0 1.0
  outer loop
    vertex -25.400000000000045 40.2058024357181 29.499999999999968
    vertex -23.900000000000045 41.339777031933664 29.499999999999968
    vertex -25.641180954897532 40.30570285822273 29.499999999999968
  endloop
endfacet
facet normal -8.881784197001252e-16 0.0 1.0
  outer loop
    vertex -25.641180954897532 40.30570285822273 29.499999999999968
    vertex -23.900000000000045 41.339777031933664 29.499999999999968
    vertex -28.90000000000005 41.339777031933664 29.499999999999964
  endloop
endfacet
facet normal -8.881784197001252e-16 0.0 1.0
  outer loop
    vertex -25.641180954897532 40.30570285822273 29.499999999999968
    vertex -28.90000000000005 41.339777031933664 29.499999999999964
    vertex -25.90000000000004 40.33977703193366 29.499999999999968
  endloop
endfacet
facet normal -8.881784197001252e-16 0.0 1.0
  outer loop
    vertex -25.90000000000004 40.33977703193366 29.499999999999968
    vertex -28.90000000000005 41.339777031933664 29.499999999999964
    vertex -26.158819045102565 40.30570285822273 29.499999999999968
  endloop
endfacet
facet normal -8.881784197001252e-16 0.0 1.0
  outer loop
    vertex -26.158819045102565 40.30570285822273 29.499999999999968
    vertex -28.90000000000005 41.339777031933664 29.499999999999964
    vertex -26.40000000000004 40.2058024357181 29.499999999999968
  endloop
endfacet
facet normal -8.881784197001252e-16 0.0 1.0
  outer loop
    vertex -26.40000000000004 40.2058024357181 29.499999999999968
    vertex -28.90000000000005 41.339777031933664 29.499999999999964
    vertex -26.60710678118659 40.0468838131202 29.499999999999968
  endloop
endfacet
facet normal -8.881784197001252e-16 0.0 1.0
  outer loop
    vertex -26.60710678118659 40.0468838131202 29.499999999999968
    vertex -28.90000000000005 41.339777031933664 29.499999999999964
    vertex -26.76602540378449 39.83977703193366 29.499999999999968
  endloop
endfacet
facet normal -8.881784197001252e-16 0.0 1.0
  outer loop
    vertex -26.76602540378449 39.83977703193366 29.499999999999968
    vertex -28.90000000000005 41.339777031933664 29.499999999999964
    vertex -26.865925826289114 39.598596077036184 29.499999999999968
  endloop
endfacet
facet normal -8.881784197001252e-16 0.0 1.0
  outer loop
    vertex -26.865925826289114 39.598596077036184 29.499999999999968
    vertex -28.90000000000005 41.339777031933664 29.499999999999964
    vertex -26.90000000000004 39.33977703193366 29.499999999999968
  endloop
endfacet
facet normal -8.881784197001252e-16 0.0 1.0
  outer loop
    vertex -26.90000000000004 39.33977703193366 29.499999999999968
    vertex -28.90000000000005 41.339777031933664 29.499999999999964
    vertex -26.90000000000004 16.339777031933664 29.499999999999968
  endloop
endfacet
facet normal -8.881784197001252e-16 0.0 1.0
  outer loop
    vertex -23.900000000000045 14.339777031933664 29.499999999999968
    vertex -25.64118095489752 15.373851205644595 29.499999999999968
    vertex -28.90000000000005 14.339777031933664 29.499999999999964
  endloop
endfacet
facet normal -8.881784197001252e-16 0.0 1.0
  outer loop
    vertex -25.64118095489752 15.373851205644595 29.499999999999968
    vertex -23.900000000000045 14.339777031933664 29.499999999999968
    vertex -25.400000000000045 15.473751628149223 29.499999999999968
  endloop
endfacet
facet normal -8.881784197001252e-16 0.0 1.0
  outer loop
    vertex -25.400000000000045 15.473751628149223 29.499999999999968
    vertex -23.900000000000045 14.339777031933664 29.499999999999968
    vertex -25.1928932188135 15.632670250747115 29.499999999999968
  endloop
endfacet
facet normal -8.881784197001252e-16 0.0 1.0
  outer loop
    vertex -25.1928932188135 15.632670250747115 29.499999999999968
    vertex -23.900000000000045 14.339777031933664 29.499999999999968
    vertex -25.03397459621561 15.839777031933664 29.499999999999968
  endloop
endfacet
facet normal -8.881784197001252e-16 0.0 1.0
  outer loop
    vertex -25.03397459621561 15.839777031933664 29.499999999999968
    vertex -23.900000000000045 14.339777031933664 29.499999999999968
    vertex -24.934074173710975 16.080957986831145 29.499999999999968
  endloop
endfacet
facet normal -8.881784197001252e-16 0.0 1.0
  outer loop
    vertex -24.934074173710975 16.080957986831145 29.499999999999968
    vertex -23.900000000000045 14.339777031933664 29.499999999999968
    vertex -24.900000000000052 16.339777031933664 29.499999999999957
  endloop
endfacet
facet normal -8.881784197001252e-16 0.0 1.0
  outer loop
    vertex -24.900000000000052 16.339777031933664 29.499999999999957
    vertex -23.900000000000045 14.339777031933664 29.499999999999968
    vertex -24.900000000000052 39.33977703193366 29.499999999999957
  endloop
endfacet
facet normal -8.881784197001252e-16 0.0 1.0
  outer loop
    vertex -28.90000000000005 14.339777031933664 29.499999999999964
    vertex -25.64118095489752 15.373851205644595 29.499999999999968
    vertex -25.90000000000004 15.339777031933663 29.499999999999968
  endloop
endfacet
facet normal -8.881784197001252e-16 0.0 1.0
  outer loop
    vertex -28.90000000000005 14.339777031933664 29.499999999999964
    vertex -25.90000000000004 15.339777031933663 29.499999999999968
    vertex -26.158819045102565 15.373851205644595 29.499999999999968
  endloop
endfacet
facet normal -8.881784197001252e-16 0.0 1.0
  outer loop
    vertex -28.90000000000005 14.339777031933664 29.499999999999964
    vertex -26.158819045102565 15.373851205644595 29.499999999999968
    vertex -26.40000000000004 15.473751628149223 29.499999999999968
  endloop
endfacet
facet normal -8.881784197001252e-16 0.0 1.0
  outer loop
    vertex -28.90000000000005 14.339777031933664 29.499999999999964
    vertex -26.40000000000004 15.473751628149223 29.499999999999968
    vertex -26.60710678118659 15.632670250747115 29.499999999999968
  endloop
endfacet
facet normal -8.881784197001252e-16 0.0 1.0
  outer loop
    vertex -28.90000000000005 14.339777031933664 29.499999999999964
    vertex -26.60710678118659 15.632670250747115 29.499999999999968
    vertex -26.76602540378449 15.83977703193366 29.499999999999968
  endloop
endfacet
facet normal -8.881784197001252e-16 0.0 1.0
  outer loop
    vertex -28.90000000000005 14.339777031933664 29.499999999999964
    vertex -26.76602540378449 15.83977703193366 29.499999999999968
    vertex -26.865925826289114 16.08095798683114 29.499999999999968
  endloop
endfacet
facet normal -8.881784197001252e-16 0.0 1.0
  outer loop
    vertex -28.90000000000005 14.339777031933664 29.499999999999964
    vertex -26.865925826289114 16.08095798683114 29.499999999999968
    vertex -26.90000000000004 16.339777031933664 29.499999999999968
  endloop
endfacet
facet normal -8.881784197001252e-16 0.0 1.0
  outer loop
    vertex -28.90000000000005 14.339777031933664 29.499999999999964
    vertex -26.90000000000004 16.339777031933664 29.499999999999968
    vertex -28.90000000000005 41.339777031933664 29.499999999999964
  endloop
endfacet
facet normal -8.881784197001252e-16 0.0 1.0
  outer loop
    vertex -24.934074173710982 39.080957986831145 29.499999999999968
    vertex -24.900000000000052 16.339777031933664 29.499999999999957
    vertex -24.900000000000052 39.33977703193366 29.499999999999957
  endloop
endfacet
facet normal -8.881784197001252e-16 0.0 1.0
  outer loop
    vertex -24.900000000000052 16.339777031933664 29.499999999999957
    vertex -24.934074173710982 39.080957986831145 29.499999999999968
    vertex -24.934074173710975 16.598596077036184 29.499999999999968
  endloop
endfacet
facet normal -8.881784197001252e-16 0.0 1.0
  outer loop
    vertex -24.934074173710975 16.598596077036184 29.499999999999968
    vertex -24.934074173710982 39.080957986831145 29.499999999999968
    vertex -25.03397459621561 16.839777031933664 29.499999999999968
  endloop
endfacet
facet normal -8.881784197001252e-16 0.0 1.0
  outer loop
    vertex -25.03397459621561 16.839777031933664 29.499999999999968
    vertex -24.934074173710982 39.080957986831145 29.499999999999968
    vertex -25.03397459621561 38.839777031933664 29.499999999999968
  endloop
endfacet
facet normal -8.881784197001252e-16 0.0 1.0
  outer loop
    vertex -25.03397459621561 16.839777031933664 29.499999999999968
    vertex -25.03397459621561 38.839777031933664 29.499999999999968
    vertex -25.192893218813506 38.63267025074712 29.499999999999968
  endloop
endfacet
facet normal -8.881784197001252e-16 0.0 1.0
  outer loop
    vertex -25.03397459621561 16.839777031933664 29.499999999999968
    vertex -25.192893218813506 38.63267025074712 29.499999999999968
    vertex -25.1928932188135 17.046883813120214 29.499999999999968
  endloop
endfacet
facet normal -8.881784197001252e-16 0.0 1.0
  outer loop
    vertex -25.1928932188135 17.046883813120214 29.499999999999968
    vertex -25.192893218813506 38.63267025074712 29.499999999999968
    vertex -25.400000000000045 17.205802435718102 29.499999999999968
  endloop
endfacet
facet normal -8.881784197001252e-16 0.0 1.0
  outer loop
    vertex -25.400000000000045 17.205802435718102 29.499999999999968
    vertex -25.192893218813506 38.63267025074712 29.499999999999968
    vertex -25.400000000000045 38.47375162814922 29.499999999999968
  endloop
endfacet
facet normal -8.881784197001252e-16 0.0 1.0
  outer loop
    vertex -25.400000000000045 17.205802435718102 29.499999999999968
    vertex -25.400000000000045 38.47375162814922 29.499999999999968
    vertex -25.64118095489752 38.37385120564459 29.499999999999968
  endloop
endfacet
facet normal -8.881784197001252e-16 0.0 1.0
  outer loop
    vertex -25.400000000000045 17.205802435718102 29.499999999999968
    vertex -25.64118095489752 38.37385120564459 29.499999999999968
    vertex -25.64118095489752 17.305702858222734 29.499999999999968
  endloop
endfacet
facet normal -8.881784197001252e-16 0.0 1.0
  outer loop
    vertex -25.64118095489752 17.305702858222734 29.499999999999968
    vertex -25.64118095489752 38.37385120564459 29.499999999999968
    vertex -25.90000000000004 38.339777031933664 29.499999999999968
  endloop
endfacet
facet normal -8.881784197001252e-16 0.0 1.0
  outer loop
    vertex -25.64118095489752 17.305702858222734 29.499999999999968
    vertex -25.90000000000004 38.339777031933664 29.499999999999968
    vertex -25.90000000000004 17.339777031933664 29.499999999999968
  endloop
endfacet
facet normal -8.881784197001252e-16 0.0 1.0
  outer loop
    vertex -25.90000000000004 17.339777031933664 29.499999999999968
    vertex -25.90000000000004 38.339777031933664 29.499999999999968
    vertex -26.158819045102565 38.37385120564459 29.499999999999968
  endloop
endfacet
facet normal -8.881784197001252e-16 0.0 1.0
  outer loop
    vertex -25.90000000000004 17.339777031933664 29.499999999999968
    vertex -26.158819045102565 38.37385120564459 29.499999999999968
    vertex -26.158819045102565 17.305702858222734 29.499999999999968
  endloop
endfacet
facet normal -8.881784197001252e-16 0.0 1.0
  outer loop
    vertex -26.158819045102565 17.305702858222734 29.499999999999968
    vertex -26.158819045102565 38.37385120564459 29.499999999999968
    vertex -26.40000000000004 38.47375162814922 29.499999999999968
  endloop
endfacet
facet normal -8.881784197001252e-16 0.0 1.0
  outer loop
    vertex -26.158819045102565 17.305702858222734 29.499999999999968
    vertex -26.40000000000004 38.47375162814922 29.499999999999968
    vertex -26.40000000000004 17.205802435718102 29.499999999999968
  endloop
endfacet
facet normal -8.881784197001252e-16 0.0 1.0
  outer loop
    vertex -26.40000000000004 17.205802435718102 29.499999999999968
    vertex -26.40000000000004 38.47375162814922 29.499999999999968
    vertex -26.60710678118659 38.63267025074712 29.499999999999968
  endloop
endfacet
facet normal -8.881784197001252e-16 0.0 1.0
  outer loop
    vertex -26.40000000000004 17.205802435718102 29.499999999999968
    vertex -26.60710678118659 38.63267025074712 29.499999999999968
    vertex -26.60710678118659 17.046883813120214 29.499999999999968
  endloop
endfacet
facet normal -8.881784197001252e-16 0.0 1.0
  outer loop
    vertex -26.60710678118659 17.046883813120214 29.499999999999968
    vertex -26.60710678118659 38.63267025074712 29.499999999999968
    vertex -26.76602540378449 38.839777031933664 29.499999999999968
  endloop
endfacet
facet normal -8.881784197001252e-16 0.0 1.0
  outer loop
    vertex -26.60710678118659 17.046883813120214 29.499999999999968
    vertex -26.76602540378449 38.839777031933664 29.499999999999968
    vertex -26.76602540378449 16.83977703193366 29.499999999999968
  endloop
endfacet
facet normal -8.881784197001252e-16 0.0 1.0
  outer loop
    vertex -26.76602540378449 16.83977703193366 29.499999999999968
    vertex -26.76602540378449 38.839777031933664 29.499999999999968
    vertex -26.865925826289114 39.08095798683114 29.499999999999968
  endloop
endfacet
facet normal -8.881784197001252e-16 0.0 1.0
  outer loop
    vertex -26.76602540378449 16.83977703193366 29.499999999999968
    vertex -26.865925826289114 39.08095798683114 29.499999999999968
    vertex -26.865925826289114 16.598596077036184 29.499999999999968
  endloop
endfacet
facet normal -8.881784197001252e-16 0.0 1.0
  outer loop
    vertex -26.865925826289114 16.598596077036184 29.499999999999968
    vertex -26.865925826289114 39.08095798683114 29.499999999999968
    vertex -26.90000000000004 39.33977703193366 29.499999999999968
  endloop
endfacet
facet normal -8.881784197001252e-16 0.0 1.0
  outer loop
    vertex -26.865925826289114 16.598596077036184 29.499999999999968
    vertex -26.90000000000004 39.33977703193366 29.499999999999968
    vertex -26.90000000000004 16.339777031933664 29.499999999999968
  endloop
endfacet
facet normal -1.0 0.0 -8.881784197001252e-16
  outer loop
    vertex -28.90000000000005 41.339777031933664 29.499999999999964
    vertex -28.900000000000038 14.339777031933664 18.499999999999993
    vertex -28.90000000000005 14.339777031933664 29.499999999999964
  endloop
endfacet
facet normal -1.0 0.0 -8.881784197001252e-16
  outer loop
    vertex -28.900000000000038 14.339777031933664 18.499999999999993
    vertex -28.90000000000005 41.339777031933664 29.499999999999964
    vertex -28.900000000000038 41.339777031933664 18.499999999999993
  endloop
endfacet
facet normal 0.0 1.0 0.0
  outer loop
    vertex -23.900000000000038 41.339777031933664 18.500000000000004
    vertex -28.90000000000005 41.339777031933664 29.499999999999964
    vertex -23.900000000000045 41.339777031933664 29.499999999999968
  endloop
endfacet
facet normal 0.0 1.0 0.0
  outer loop
    vertex -28.90000000000005 41.339777031933664 29.499999999999964
    vertex -23.900000000000038 41.339777031933664 18.500000000000004
    vertex -28.900000000000038 41.339777031933664 18.499999999999993
  endloop
endfacet
facet normal 0.0 0.0 1.0
  outer loop
    vertex -25.127259338968795 39.54683226801568 31.49999999999997
    vertex -25.127259338968802 39.132721795851644 31.49999999999997
    vertex -25.10000000000005 39.33977703193366 31.49999999999997
  endloop
endfacet
facet normal 0.0 0.0 1.0
  outer loop
    vertex -25.127259338968802 39.132721795851644 31.49999999999997
    vertex -25.127259338968795 39.54683226801568 31.49999999999997
    vertex -25.207179676972498 39.73977703193366 31.49999999999997
  endloop
endfacet
facet normal 0.0 0.0 1.0
  outer loop
    vertex -25.127259338968802 39.132721795851644 31.49999999999997
    vertex -25.207179676972498 39.73977703193366 31.49999999999997
    vertex -25.207179676972498 38.93977703193366 31.49999999999997
  endloop
endfacet
facet normal 0.0 0.0 1.0
  outer loop
    vertex -25.207179676972498 38.93977703193366 31.49999999999997
    vertex -25.207179676972498 39.73977703193366 31.49999999999997
    vertex -25.33431457505081 39.905462456882894 31.49999999999997
  endloop
endfacet
facet normal 0.0 0.0 1.0
  outer loop
    vertex -25.207179676972498 38.93977703193366 31.49999999999997
    vertex -25.33431457505081 39.905462456882894 31.49999999999997
    vertex -25.334314575050815 38.77409160698442 31.49999999999997
  endloop
endfacet
facet normal 0.0 0.0 1.0
  outer loop
    vertex -25.334314575050815 38.77409160698442 31.49999999999997
    vertex -25.33431457505081 39.905462456882894 31.49999999999997
    vertex -25.50000000000005 40.03259735496121 31.49999999999997
  endloop
endfacet
facet normal 0.0 0.0 1.0
  outer loop
    vertex -25.334314575050815 38.77409160698442 31.49999999999997
    vertex -25.50000000000005 40.03259735496121 31.49999999999997
    vertex -25.50000000000005 38.64695670890611 31.49999999999997
  endloop
endfacet
facet normal 0.0 0.0 1.0
  outer loop
    vertex -25.50000000000005 38.64695670890611 31.49999999999997
    vertex -25.50000000000005 40.03259735496121 31.49999999999997
    vertex -25.69294476391803 40.112517692964914 31.49999999999997
  endloop
endfacet
facet normal 0.0 0.0 1.0
  outer loop
    vertex -25.50000000000005 38.64695670890611 31.49999999999997
    vertex -25.69294476391803 40.112517692964914 31.49999999999997
    vertex -25.69294476391803 38.56703637090241 31.49999999999997
  endloop
endfacet
facet normal 0.0 0.0 1.0
  outer loop
    vertex -25.69294476391803 38.56703637090241 31.49999999999997
    vertex -25.69294476391803 40.112517692964914 31.49999999999997
    vertex -25.90000000000005 40.13977703193366 31.49999999999997
  endloop
endfacet
facet normal 0.0 0.0 1.0
  outer loop
    vertex -25.69294476391803 38.56703637090241 31.49999999999997
    vertex -25.90000000000005 40.13977703193366 31.49999999999997
    vertex -25.90000000000005 38.53977703193366 31.49999999999997
  endloop
endfacet
facet normal 0.0 0.0 1.0
  outer loop
    vertex -25.90000000000005 38.53977703193366 31.49999999999997
    vertex -25.90000000000005 40.13977703193366 31.49999999999997
    vertex -26.107055236082065 40.112517692964914 31.49999999999997
  endloop
endfacet
facet normal 0.0 0.0 1.0
  outer loop
    vertex -25.90000000000005 38.53977703193366 31.49999999999997
    vertex -26.107055236082065 40.112517692964914 31.49999999999997
    vertex -26.10705523608207 38.56703637090241 31.49999999999997
  endloop
endfacet
facet normal 0.0 0.0 1.0
  outer loop
    vertex -26.10705523608207 38.56703637090241 31.49999999999997
    vertex -26.107055236082065 40.112517692964914 31.49999999999997
    vertex -26.300000000000047 40.03259735496121 31.49999999999997
  endloop
endfacet
facet normal 0.0 0.0 1.0
  outer loop
    vertex -26.10705523608207 38.56703637090241 31.49999999999997
    vertex -26.300000000000047 40.03259735496121 31.49999999999997
    vertex -26.300000000000047 38.64695670890611 31.49999999999997
  endloop
endfacet
facet normal 0.0 0.0 1.0
  outer loop
    vertex -26.300000000000047 38.64695670890611 31.49999999999997
    vertex -26.300000000000047 40.03259735496121 31.49999999999997
    vertex -26.46568542494928 39.9054624568829 31.49999999999997
  endloop
endfacet
facet normal 0.0 0.0 1.0
  outer loop
    vertex -26.300000000000047 38.64695670890611 31.49999999999997
    vertex -26.46568542494928 39.9054624568829 31.49999999999997
    vertex -26.46568542494929 38.77409160698443 31.49999999999997
  endloop
endfacet
facet normal 0.0 0.0 1.0
  outer loop
    vertex -26.46568542494929 38.77409160698443 31.49999999999997
    vertex -26.46568542494928 39.9054624568829 31.49999999999997
    vertex -26.592820323027603 39.73977703193366 31.49999999999997
  endloop
endfacet
facet normal 0.0 0.0 1.0
  outer loop
    vertex -26.46568542494929 38.77409160698443 31.49999999999997
    vertex -26.592820323027603 39.73977703193366 31.49999999999997
    vertex -26.592820323027603 38.93977703193366 31.49999999999997
  endloop
endfacet
facet normal 0.0 0.0 1.0
  outer loop
    vertex -26.592820323027603 38.93977703193366 31.49999999999997
    vertex -26.592820323027603 39.73977703193366 31.49999999999997
    vertex -26.672740661031305 39.54683226801568 31.49999999999997
  endloop
endfacet
facet normal 0.0 0.0 1.0
  outer loop
    vertex -26.592820323027603 38.93977703193366 31.49999999999997
    vertex -26.672740661031305 39.54683226801568 31.49999999999997
    vertex -26.672740661031305 39.132721795851644 31.49999999999997
  endloop
endfacet
facet normal 0.0 0.0 1.0
  outer loop
    vertex -26.672740661031305 39.132721795851644 31.49999999999997
    vertex -26.672740661031305 39.54683226801568 31.49999999999997
    vertex -26.700000000000045 39.33977703193366 31.49999999999997
  endloop
endfacet
facet normal -0.3808163674545141 0.9193720390823542 0.0986607725101664
  outer loop
    vertex -26.158819045102565 40.30570285822273 29.499999999999968
    vertex -26.300000000000047 40.03259735496121 31.49999999999997
    vertex -26.107055236082065 40.112517692964914 31.49999999999997
  endloop
endfacet
facet normal -0.3808163674545141 0.9193720390823542 0.0986607725101664
  outer loop
    vertex -26.300000000000047 40.03259735496121 31.49999999999997
    vertex -26.158819045102565 40.30570285822273 29.499999999999968
    vertex -26.40000000000004 40.2058024357181 29.499999999999968
  endloop
endfacet
facet normal -0.6057913576471705 0.7894826679336889 0.0986607725101657
  outer loop
    vertex -26.40000000000004 40.2058024357181 29.499999999999968
    vertex -26.46568542494928 39.9054624568829 31.49999999999997
    vertex -26.300000000000047 40.03259735496121 31.49999999999997
  endloop
endfacet
facet normal -0.6057913576471705 0.7894826679336889 0.0986607725101657
  outer loop
    vertex -26.46568542494928 39.9054624568829 31.49999999999997
    vertex -26.40000000000004 40.2058024357181 29.499999999999968
    vertex -26.60710678118659 40.0468838131202 29.499999999999968
  endloop
endfacet
facet normal -0.7894826679336878 0.605791357647172 0.09866077251016592
  outer loop
    vertex -26.46568542494928 39.9054624568829 31.49999999999997
    vertex -26.76602540378449 39.83977703193366 29.499999999999968
    vertex -26.592820323027603 39.73977703193366 31.49999999999997
  endloop
endfacet
facet normal -0.7894826679336878 0.605791357647172 0.09866077251016592
  outer loop
    vertex -26.76602540378449 39.83977703193366 29.499999999999968
    vertex -26.46568542494928 39.9054624568829 31.49999999999997
    vertex -26.60710678118659 40.0468838131202 29.499999999999968
  endloop
endfacet
facet normal -0.9193720390823542 0.3808163674545141 0.09866077251016636
  outer loop
    vertex -26.592820323027603 39.73977703193366 31.49999999999997
    vertex -26.865925826289114 39.598596077036184 29.499999999999968
    vertex -26.672740661031305 39.54683226801568 31.49999999999997
  endloop
endfacet
facet normal -0.9193720390823542 0.3808163674545141 0.09866077251016636
  outer loop
    vertex -26.865925826289114 39.598596077036184 29.499999999999968
    vertex -26.592820323027603 39.73977703193366 31.49999999999997
    vertex -26.76602540378449 39.83977703193366 29.499999999999968
  endloop
endfacet
facet normal -0.9866077251016768 0.12988937114864807 0.09866077251016657
  outer loop
    vertex -26.672740661031305 39.54683226801568 31.49999999999997
    vertex -26.90000000000004 39.33977703193366 29.499999999999968
    vertex -26.700000000000045 39.33977703193366 31.49999999999997
  endloop
endfacet
facet normal -0.9866077251016768 0.12988937114864807 0.09866077251016657
  outer loop
    vertex -26.90000000000004 39.33977703193366 29.499999999999968
    vertex -26.672740661031305 39.54683226801568 31.49999999999997
    vertex -26.865925826289114 39.598596077036184 29.499999999999968
  endloop
endfacet
facet normal -0.9866077251016768 -0.12988937114864801 0.09866077251016657
  outer loop
    vertex -26.672740661031305 39.132721795851644 31.49999999999997
    vertex -26.90000000000004 39.33977703193366 29.499999999999968
    vertex -26.865925826289114 39.08095798683114 29.499999999999968
  endloop
endfacet
facet normal -0.9866077251016768 -0.12988937114864801 0.09866077251016657
  outer loop
    vertex -26.90000000000004 39.33977703193366 29.499999999999968
    vertex -26.672740661031305 39.132721795851644 31.49999999999997
    vertex -26.700000000000045 39.33977703193366 31.49999999999997
  endloop
endfacet
facet normal -0.9193720390823542 -0.380816367454514 0.09866077251016636
  outer loop
    vertex -26.592820323027603 38.93977703193366 31.49999999999997
    vertex -26.865925826289114 39.08095798683114 29.499999999999968
    vertex -26.76602540378449 38.839777031933664 29.499999999999968
  endloop
endfacet
facet normal -0.9193720390823542 -0.380816367454514 0.09866077251016636
  outer loop
    vertex -26.865925826289114 39.08095798683114 29.499999999999968
    vertex -26.592820323027603 38.93977703193366 31.49999999999997
    vertex -26.672740661031305 39.132721795851644 31.49999999999997
  endloop
endfacet
facet normal -0.7894826679336889 -0.6057913576471705 0.0986607725101657
  outer loop
    vertex -26.46568542494929 38.77409160698443 31.49999999999997
    vertex -26.76602540378449 38.839777031933664 29.499999999999968
    vertex -26.60710678118659 38.63267025074712 29.499999999999968
  endloop
endfacet
facet normal -0.7894826679336889 -0.6057913576471705 0.0986607725101657
  outer loop
    vertex -26.76602540378449 38.839777031933664 29.499999999999968
    vertex -26.46568542494929 38.77409160698443 31.49999999999997
    vertex -26.592820323027603 38.93977703193366 31.49999999999997
  endloop
endfacet
facet normal -0.605791357647172 -0.7894826679336878 0.09866077251016592
  outer loop
    vertex -26.60710678118659 38.63267025074712 29.499999999999968
    vertex -26.300000000000047 38.64695670890611 31.49999999999997
    vertex -26.46568542494929 38.77409160698443 31.49999999999997
  endloop
endfacet
facet normal -0.605791357647172 -0.7894826679336878 0.09866077251016592
  outer loop
    vertex -26.300000000000047 38.64695670890611 31.49999999999997
    vertex -26.60710678118659 38.63267025074712 29.499999999999968
    vertex -26.40000000000004 38.47375162814922 29.499999999999968
  endloop
endfacet
facet normal -0.3808163674545088 -0.9193720390823562 0.09866077251016714
  outer loop
    vertex -26.40000000000004 38.47375162814922 29.499999999999968
    vertex -26.10705523608207 38.56703637090241 31.49999999999997
    vertex -26.300000000000047 38.64695670890611 31.49999999999997
  endloop
endfacet
facet normal -0.3808163674545088 -0.9193720390823562 0.09866077251016714
  outer loop
    vertex -26.10705523608207 38.56703637090241 31.49999999999997
    vertex -26.40000000000004 38.47375162814922 29.499999999999968
    vertex -26.158819045102565 38.37385120564459 29.499999999999968
  endloop
endfacet
facet normal -0.12988937114865695 -0.9866077251016756 0.09866077251016778
  outer loop
    vertex -26.158819045102565 38.37385120564459 29.499999999999968
    vertex -25.90000000000005 38.53977703193366 31.49999999999997
    vertex -26.10705523608207 38.56703637090241 31.49999999999997
  endloop
endfacet
facet normal -0.12988937114865695 -0.9866077251016756 0.09866077251016778
  outer loop
    vertex -25.90000000000005 38.53977703193366 31.49999999999997
    vertex -26.158819045102565 38.37385120564459 29.499999999999968
    vertex -25.90000000000004 38.339777031933664 29.499999999999968
  endloop
endfacet
facet normal 0.12988937114864807 -0.9866077251016768 0.09866077251016657
  outer loop
    vertex -25.90000000000004 38.339777031933664 29.499999999999968
    vertex -25.69294476391803 38.56703637090241 31.49999999999997
    vertex -25.90000000000005 38.53977703193366 31.49999999999997
  endloop
endfacet
facet normal 0.12988937114864807 -0.9866077251016768 0.09866077251016657
  outer loop
    vertex -25.69294476391803 38.56703637090241 31.49999999999997
    vertex -25.90000000000004 38.339777031933664 29.499999999999968
    vertex -25.64118095489752 38.37385120564459 29.499999999999968
  endloop
endfacet
facet normal 0.380816367454514 -0.9193720390823542 0.09866077251016636
  outer loop
    vertex -25.64118095489752 38.37385120564459 29.499999999999968
    vertex -25.50000000000005 38.64695670890611 31.49999999999997
    vertex -25.69294476391803 38.56703637090241 31.49999999999997
  endloop
endfacet
facet normal 0.380816367454514 -0.9193720390823542 0.09866077251016636
  outer loop
    vertex -25.50000000000005 38.64695670890611 31.49999999999997
    vertex -25.64118095489752 38.37385120564459 29.499999999999968
    vertex -25.400000000000045 38.47375162814922 29.499999999999968
  endloop
endfacet
facet normal 0.6057913576471705 -0.7894826679336889 0.0986607725101657
  outer loop
    vertex -25.400000000000045 38.47375162814922 29.499999999999968
    vertex -25.334314575050815 38.77409160698442 31.49999999999997
    vertex -25.50000000000005 38.64695670890611 31.49999999999997
  endloop
endfacet
facet normal 0.6057913576471705 -0.7894826679336889 0.0986607725101657
  outer loop
    vertex -25.334314575050815 38.77409160698442 31.49999999999997
    vertex -25.400000000000045 38.47375162814922 29.499999999999968
    vertex -25.192893218813506 38.63267025074712 29.499999999999968
  endloop
endfacet
facet normal 0.789482667933688 -0.6057913576471718 0.09866077251016594
  outer loop
    vertex -25.03397459621561 38.839777031933664 29.499999999999968
    vertex -25.334314575050815 38.77409160698442 31.49999999999997
    vertex -25.192893218813506 38.63267025074712 29.499999999999968
  endloop
endfacet
facet normal 0.789482667933688 -0.6057913576471718 0.09866077251016594
  outer loop
    vertex -25.334314575050815 38.77409160698442 31.49999999999997
    vertex -25.03397459621561 38.839777031933664 29.499999999999968
    vertex -25.207179676972498 38.93977703193366 31.49999999999997
  endloop
endfacet
facet normal 0.9193720390823599 -0.38081636745450054 0.09866077251016714
  outer loop
    vertex -24.934074173710982 39.080957986831145 29.499999999999968
    vertex -25.207179676972498 38.93977703193366 31.49999999999997
    vertex -25.03397459621561 38.839777031933664 29.499999999999968
  endloop
endfacet
facet normal 0.9193720390823599 -0.38081636745450054 0.09866077251016714
  outer loop
    vertex -25.207179676972498 38.93977703193366 31.49999999999997
    vertex -24.934074173710982 39.080957986831145 29.499999999999968
    vertex -25.127259338968802 39.132721795851644 31.49999999999997
  endloop
endfacet
facet normal 0.9866077251016754 -0.12988937114865873 0.09866077251016764
  outer loop
    vertex -24.900000000000052 39.33977703193366 29.499999999999957
    vertex -25.127259338968802 39.132721795851644 31.49999999999997
    vertex -24.934074173710982 39.080957986831145 29.499999999999968
  endloop
endfacet
facet normal 0.9866077251016754 -0.12988937114865873 0.09866077251016764
  outer loop
    vertex -25.127259338968802 39.132721795851644 31.49999999999997
    vertex -24.900000000000052 39.33977703193366 29.499999999999957
    vertex -25.10000000000005 39.33977703193366 31.49999999999997
  endloop
endfacet
facet normal 0.986607725101677 0.1298893711486467 0.09866077251016643
  outer loop
    vertex -24.934074173710982 39.598596077036184 29.499999999999968
    vertex -25.10000000000005 39.33977703193366 31.49999999999997
    vertex -24.900000000000052 39.33977703193366 29.499999999999957
  endloop
endfacet
facet normal 0.986607725101677 0.1298893711486467 0.09866077251016643
  outer loop
    vertex -25.10000000000005 39.33977703193366 31.49999999999997
    vertex -24.934074173710982 39.598596077036184 29.499999999999968
    vertex -25.127259338968795 39.54683226801568 31.49999999999997
  endloop
endfacet
facet normal 0.9193720390823542 0.380816367454514 0.09866077251016636
  outer loop
    vertex -24.934074173710982 39.598596077036184 29.499999999999968
    vertex -25.207179676972498 39.73977703193366 31.49999999999997
    vertex -25.127259338968795 39.54683226801568 31.49999999999997
  endloop
endfacet
facet normal 0.9193720390823542 0.380816367454514 0.09866077251016636
  outer loop
    vertex -25.207179676972498 39.73977703193366 31.49999999999997
    vertex -24.934074173710982 39.598596077036184 29.499999999999968
    vertex -25.03397459621561 39.83977703193366 29.499999999999968
  endloop
endfacet
facet normal 0.7894826679336937 0.6057913576471641 0.09866077251016653
  outer loop
    vertex -25.03397459621561 39.83977703193366 29.499999999999968
    vertex -25.33431457505081 39.905462456882894 31.49999999999997
    vertex -25.207179676972498 39.73977703193366 31.49999999999997
  endloop
endfacet
facet normal 0.7894826679336937 0.6057913576471641 0.09866077251016653
  outer loop
    vertex -25.33431457505081 39.905462456882894 31.49999999999997
    vertex -25.03397459621561 39.83977703193366 29.499999999999968
    vertex -25.192893218813506 40.04688381312021 29.499999999999968
  endloop
endfacet
facet normal 0.6057913576471636 0.7894826679336943 0.09866077251016707
  outer loop
    vertex -25.192893218813506 40.04688381312021 29.499999999999968
    vertex -25.50000000000005 40.03259735496121 31.49999999999997
    vertex -25.33431457505081 39.905462456882894 31.49999999999997
  endloop
endfacet
facet normal 0.6057913576471636 0.7894826679336943 0.09866077251016707
  outer loop
    vertex -25.50000000000005 40.03259735496121 31.49999999999997
    vertex -25.192893218813506 40.04688381312021 29.499999999999968
    vertex -25.400000000000045 40.2058024357181 29.499999999999968
  endloop
endfacet
facet normal 0.38081636745450054 0.9193720390823599 0.09866077251016714
  outer loop
    vertex -25.400000000000045 40.2058024357181 29.499999999999968
    vertex -25.69294476391803 40.112517692964914 31.49999999999997
    vertex -25.50000000000005 40.03259735496121 31.49999999999997
  endloop
endfacet
facet normal 0.38081636745450054 0.9193720390823599 0.09866077251016714
  outer loop
    vertex -25.69294476391803 40.112517692964914 31.49999999999997
    vertex -25.400000000000045 40.2058024357181 29.499999999999968
    vertex -25.641180954897532 40.30570285822273 29.499999999999968
  endloop
endfacet
facet normal 0.12988937114866 0.9866077251016752 0.09866077251016776
  outer loop
    vertex -25.641180954897532 40.30570285822273 29.499999999999968
    vertex -25.90000000000005 40.13977703193366 31.49999999999997
    vertex -25.69294476391803 40.112517692964914 31.49999999999997
  endloop
endfacet
facet normal 0.12988937114866 0.9866077251016752 0.09866077251016776
  outer loop
    vertex -25.90000000000005 40.13977703193366 31.49999999999997
    vertex -25.641180954897532 40.30570285822273 29.499999999999968
    vertex -25.90000000000004 40.33977703193366 29.499999999999968
  endloop
endfacet
facet normal -0.12988937114864807 0.9866077251016768 0.09866077251016657
  outer loop
    vertex -25.90000000000004 40.33977703193366 29.499999999999968
    vertex -26.107055236082065 40.112517692964914 31.49999999999997
    vertex -25.90000000000005 40.13977703193366 31.49999999999997
  endloop
endfacet
facet normal -0.12988937114864807 0.9866077251016768 0.09866077251016657
  outer loop
    vertex -26.107055236082065 40.112517692964914 31.49999999999997
    vertex -25.90000000000004 40.33977703193366 29.499999999999968
    vertex -26.158819045102565 40.30570285822273 29.499999999999968
  endloop
endfacet
facet normal 0.0 0.0 1.0
  outer loop
    vertex -25.127259338968802 16.54683226801568 31.49999999999997
    vertex -25.127259338968802 16.132721795851648 31.49999999999997
    vertex -25.10000000000005 16.339777031933664 31.49999999999997
  endloop
endfacet
facet normal 0.0 0.0 1.0
  outer loop
    vertex -25.127259338968802 16.132721795851648 31.49999999999997
    vertex -25.127259338968802 16.54683226801568 31.49999999999997
    vertex -25.207179676972498 16.739777031933667 31.49999999999997
  endloop
endfacet
facet normal 0.0 0.0 1.0
  outer loop
    vertex -25.127259338968802 16.132721795851648 31.49999999999997
    vertex -25.207179676972498 16.739777031933667 31.49999999999997
    vertex -25.207179676972498 15.939777031933664 31.49999999999997
  endloop
endfacet
facet normal 0.0 0.0 1.0
  outer loop
    vertex -25.207179676972498 15.939777031933664 31.49999999999997
    vertex -25.207179676972498 16.739777031933667 31.49999999999997
    vertex -25.33431457505081 16.9054624568829 31.49999999999997
  endloop
endfacet
facet normal 0.0 0.0 1.0
  outer loop
    vertex -25.207179676972498 15.939777031933664 31.49999999999997
    vertex -25.33431457505081 16.9054624568829 31.49999999999997
    vertex -25.33431457505081 15.774091606984426 31.49999999999997
  endloop
endfacet
facet normal 0.0 0.0 1.0
  outer loop
    vertex -25.33431457505081 15.774091606984426 31.49999999999997
    vertex -25.33431457505081 16.9054624568829 31.49999999999997
    vertex -25.50000000000005 17.032597354961215 31.49999999999997
  endloop
endfacet
facet normal 0.0 0.0 1.0
  outer loop
    vertex -25.33431457505081 15.774091606984426 31.49999999999997
    vertex -25.50000000000005 17.032597354961215 31.49999999999997
    vertex -25.50000000000005 15.646956708906112 31.49999999999997
  endloop
endfacet
facet normal 0.0 0.0 1.0
  outer loop
    vertex -25.50000000000005 15.646956708906112 31.49999999999997
    vertex -25.50000000000005 17.032597354961215 31.49999999999997
    vertex -25.69294476391803 17.112517692964918 31.49999999999997
  endloop
endfacet
facet normal 0.0 0.0 1.0
  outer loop
    vertex -25.50000000000005 15.646956708906112 31.49999999999997
    vertex -25.69294476391803 17.112517692964918 31.49999999999997
    vertex -25.69294476391803 15.567036370902407 31.49999999999997
  endloop
endfacet
facet normal 0.0 0.0 1.0
  outer loop
    vertex -25.69294476391803 15.567036370902407 31.49999999999997
    vertex -25.69294476391803 17.112517692964918 31.49999999999997
    vertex -25.90000000000005 17.13977703193366 31.49999999999997
  endloop
endfacet
facet normal 0.0 0.0 1.0
  outer loop
    vertex -25.69294476391803 15.567036370902407 31.49999999999997
    vertex -25.90000000000005 17.13977703193366 31.49999999999997
    vertex -25.90000000000005 15.539777031933665 31.49999999999997
  endloop
endfacet
facet normal 0.0 0.0 1.0
  outer loop
    vertex -25.90000000000005 15.539777031933665 31.49999999999997
    vertex -25.90000000000005 17.13977703193366 31.49999999999997
    vertex -26.107055236082065 17.11251769296492 31.49999999999997
  endloop
endfacet
facet normal 0.0 0.0 1.0
  outer loop
    vertex -25.90000000000005 15.539777031933665 31.49999999999997
    vertex -26.107055236082065 17.11251769296492 31.49999999999997
    vertex -26.107055236082065 15.567036370902407 31.49999999999997
  endloop
endfacet
facet normal 0.0 0.0 1.0
  outer loop
    vertex -26.107055236082065 15.567036370902407 31.49999999999997
    vertex -26.107055236082065 17.11251769296492 31.49999999999997
    vertex -26.300000000000047 17.032597354961215 31.49999999999997
  endloop
endfacet
facet normal 0.0 0.0 1.0
  outer loop
    vertex -26.107055236082065 15.567036370902407 31.49999999999997
    vertex -26.300000000000047 17.032597354961215 31.49999999999997
    vertex -26.300000000000047 15.646956708906112 31.49999999999997
  endloop
endfacet
facet normal 0.0 0.0 1.0
  outer loop
    vertex -26.300000000000047 15.646956708906112 31.49999999999997
    vertex -26.300000000000047 17.032597354961215 31.49999999999997
    vertex -26.46568542494929 16.9054624568829 31.49999999999997
  endloop
endfacet
facet normal 0.0 0.0 1.0
  outer loop
    vertex -26.300000000000047 15.646956708906112 31.49999999999997
    vertex -26.46568542494929 16.9054624568829 31.49999999999997
    vertex -26.46568542494929 15.774091606984426 31.49999999999997
  endloop
endfacet
facet normal 0.0 0.0 1.0
  outer loop
    vertex -26.46568542494929 15.774091606984426 31.49999999999997
    vertex -26.46568542494929 16.9054624568829 31.49999999999997
    vertex -26.592820323027603 16.739777031933667 31.49999999999997
  endloop
endfacet
facet normal 0.0 0.0 1.0
  outer loop
    vertex -26.46568542494929 15.774091606984426 31.49999999999997
    vertex -26.592820323027603 16.739777031933667 31.49999999999997
    vertex -26.592820323027603 15.93977703193366 31.49999999999997
  endloop
endfacet
facet normal 0.0 0.0 1.0
  outer loop
    vertex -26.592820323027603 15.93977703193366 31.49999999999997
    vertex -26.592820323027603 16.739777031933667 31.49999999999997
    vertex -26.6727406610313 16.54683226801568 31.49999999999997
  endloop
endfacet
facet normal 0.0 0.0 1.0
  outer loop
    vertex -26.592820323027603 15.93977703193366 31.49999999999997
    vertex -26.6727406610313 16.54683226801568 31.49999999999997
    vertex -26.6727406610313 16.132721795851648 31.49999999999997
  endloop
endfacet
facet normal 0.0 0.0 1.0
  outer loop
    vertex -26.6727406610313 16.132721795851648 31.49999999999997
    vertex -26.6727406610313 16.54683226801568 31.49999999999997
    vertex -26.700000000000045 16.339777031933664 31.49999999999997
  endloop
endfacet
facet normal 0.6057913576471506 -0.7894826679337039 0.09866077251016789
  outer loop
    vertex -25.400000000000045 15.473751628149223 29.499999999999968
    vertex -25.33431457505081 15.774091606984426 31.49999999999997
    vertex -25.50000000000005 15.646956708906112 31.49999999999997
  endloop
endfacet
facet normal 0.6057913576471506 -0.7894826679337039 0.09866077251016789
  outer loop
    vertex -25.33431457505081 15.774091606984426 31.49999999999997
    vertex -25.400000000000045 15.473751628149223 29.499999999999968
    vertex -25.1928932188135 15.632670250747115 29.499999999999968
  endloop
endfacet
facet normal 0.7894826679337021 -0.6057913576471533 0.09866077251016722
  outer loop
    vertex -25.03397459621561 15.839777031933664 29.499999999999968
    vertex -25.33431457505081 15.774091606984426 31.49999999999997
    vertex -25.1928932188135 15.632670250747115 29.499999999999968
  endloop
endfacet
facet normal 0.7894826679337021 -0.6057913576471533 0.09866077251016722
  outer loop
    vertex -25.33431457505081 15.774091606984426 31.49999999999997
    vertex -25.03397459621561 15.839777031933664 29.499999999999968
    vertex -25.207179676972498 15.939777031933664 31.49999999999997
  endloop
endfacet
facet normal 0.9193720390823539 -0.3808163674545139 0.09866077251016867
  outer loop
    vertex -24.934074173710975 16.080957986831145 29.499999999999968
    vertex -25.207179676972498 15.939777031933664 31.49999999999997
    vertex -25.03397459621561 15.839777031933664 29.499999999999968
  endloop
endfacet
facet normal 0.9193720390823539 -0.3808163674545139 0.09866077251016867
  outer loop
    vertex -25.207179676972498 15.939777031933664 31.49999999999997
    vertex -24.934074173710975 16.080957986831145 29.499999999999968
    vertex -25.127259338968802 16.132721795851648 31.49999999999997
  endloop
endfacet
facet normal 0.986607725101677 -0.129889371148645 0.09866077251016912
  outer loop
    vertex -24.900000000000052 16.339777031933664 29.499999999999957
    vertex -25.127259338968802 16.132721795851648 31.49999999999997
    vertex -24.934074173710975 16.080957986831145 29.499999999999968
  endloop
endfacet
facet normal 0.986607725101677 -0.129889371148645 0.09866077251016912
  outer loop
    vertex -25.127259338968802 16.132721795851648 31.49999999999997
    vertex -24.900000000000052 16.339777031933664 29.499999999999957
    vertex -25.10000000000005 16.339777031933664 31.49999999999997
  endloop
endfacet
facet normal 0.986607725101677 0.1298893711486443 0.09866077251016901
  outer loop
    vertex -24.934074173710975 16.598596077036184 29.499999999999968
    vertex -25.10000000000005 16.339777031933664 31.49999999999997
    vertex -24.900000000000052 16.339777031933664 29.499999999999957
  endloop
endfacet
facet normal 0.986607725101677 0.1298893711486443 0.09866077251016901
  outer loop
    vertex -25.10000000000005 16.339777031933664 31.49999999999997
    vertex -24.934074173710975 16.598596077036184 29.499999999999968
    vertex -25.127259338968802 16.54683226801568 31.49999999999997
  endloop
endfacet
facet normal 0.919372039082355 0.3808163674545117 0.0986607725101684
  outer loop
    vertex -24.934074173710975 16.598596077036184 29.499999999999968
    vertex -25.207179676972498 16.739777031933667 31.49999999999997
    vertex -25.127259338968802 16.54683226801568 31.49999999999997
  endloop
endfacet
facet normal 0.919372039082355 0.3808163674545117 0.0986607725101684
  outer loop
    vertex -25.207179676972498 16.739777031933667 31.49999999999997
    vertex -24.934074173710975 16.598596077036184 29.499999999999968
    vertex -25.03397459621561 16.839777031933664 29.499999999999968
  endloop
endfacet
facet normal 0.7894826679336976 0.605791357647159 0.09866077251016721
  outer loop
    vertex -25.03397459621561 16.839777031933664 29.499999999999968
    vertex -25.33431457505081 16.9054624568829 31.49999999999997
    vertex -25.207179676972498 16.739777031933667 31.49999999999997
  endloop
endfacet
facet normal 0.7894826679336976 0.605791357647159 0.09866077251016721
  outer loop
    vertex -25.33431457505081 16.9054624568829 31.49999999999997
    vertex -25.03397459621561 16.839777031933664 29.499999999999968
    vertex -25.1928932188135 17.046883813120214 29.499999999999968
  endloop
endfacet
facet normal 0.6057913576471505 0.7894826679337039 0.09866077251016786
  outer loop
    vertex -25.1928932188135 17.046883813120214 29.499999999999968
    vertex -25.50000000000005 17.032597354961215 31.49999999999997
    vertex -25.33431457505081 16.9054624568829 31.49999999999997
  endloop
endfacet
facet normal 0.6057913576471505 0.7894826679337039 0.09866077251016786
  outer loop
    vertex -25.50000000000005 17.032597354961215 31.49999999999997
    vertex -25.1928932188135 17.046883813120214 29.499999999999968
    vertex -25.400000000000045 17.205802435718102 29.499999999999968
  endloop
endfacet
facet normal 0.3808163674545197 0.9193720390823518 0.0986607725101683
  outer loop
    vertex -25.400000000000045 17.205802435718102 29.499999999999968
    vertex -25.69294476391803 17.112517692964918 31.49999999999997
    vertex -25.50000000000005 17.032597354961215 31.49999999999997
  endloop
endfacet
facet normal 0.3808163674545197 0.9193720390823518 0.0986607725101683
  outer loop
    vertex -25.69294476391803 17.112517692964918 31.49999999999997
    vertex -25.400000000000045 17.205802435718102 29.499999999999968
    vertex -25.64118095489752 17.305702858222734 29.499999999999968
  endloop
endfacet
facet normal 0.12988937114865318 0.9866077251016759 0.09866077251016867
  outer loop
    vertex -25.64118095489752 17.305702858222734 29.499999999999968
    vertex -25.90000000000005 17.13977703193366 31.49999999999997
    vertex -25.69294476391803 17.112517692964918 31.49999999999997
  endloop
endfacet
facet normal 0.12988937114865318 0.9866077251016759 0.09866077251016867
  outer loop
    vertex -25.90000000000005 17.13977703193366 31.49999999999997
    vertex -25.64118095489752 17.305702858222734 29.499999999999968
    vertex -25.90000000000004 17.339777031933664 29.499999999999968
  endloop
endfacet
facet normal -0.12988937114864807 0.9866077251016768 0.09866077251016797
  outer loop
    vertex -25.90000000000004 17.339777031933664 29.499999999999968
    vertex -26.107055236082065 17.11251769296492 31.49999999999997
    vertex -25.90000000000005 17.13977703193366 31.49999999999997
  endloop
endfacet
facet normal -0.12988937114864807 0.9866077251016768 0.09866077251016797
  outer loop
    vertex -26.107055236082065 17.11251769296492 31.49999999999997
    vertex -25.90000000000004 17.339777031933664 29.499999999999968
    vertex -26.158819045102565 17.305702858222734 29.499999999999968
  endloop
endfacet
facet normal -0.38081636745452413 0.9193720390823499 0.09866077251016765
  outer loop
    vertex -26.158819045102565 17.305702858222734 29.499999999999968
    vertex -26.300000000000047 17.032597354961215 31.49999999999997
    vertex -26.107055236082065 17.11251769296492 31.49999999999997
  endloop
endfacet
facet normal -0.38081636745452413 0.9193720390823499 0.09866077251016765
  outer loop
    vertex -26.300000000000047 17.032597354961215 31.49999999999997
    vertex -26.158819045102565 17.305702858222734 29.499999999999968
    vertex -26.40000000000004 17.205802435718102 29.499999999999968
  endloop
endfacet
facet normal -0.6057913576471506 0.7894826679337039 0.09866077251016789
  outer loop
    vertex -26.40000000000004 17.205802435718102 29.499999999999968
    vertex -26.46568542494929 16.9054624568829 31.49999999999997
    vertex -26.300000000000047 17.032597354961215 31.49999999999997
  endloop
endfacet
facet normal -0.6057913576471506 0.7894826679337039 0.09866077251016789
  outer loop
    vertex -26.46568542494929 16.9054624568829 31.49999999999997
    vertex -26.40000000000004 17.205802435718102 29.499999999999968
    vertex -26.60710678118659 17.046883813120214 29.499999999999968
  endloop
endfacet
facet normal -0.7894826679337003 0.6057913576471557 0.09866077251016678
  outer loop
    vertex -26.46568542494929 16.9054624568829 31.49999999999997
    vertex -26.76602540378449 16.83977703193366 29.499999999999968
    vertex -26.592820323027603 16.739777031933667 31.49999999999997
  endloop
endfacet
facet normal -0.7894826679337003 0.6057913576471557 0.09866077251016678
  outer loop
    vertex -26.76602540378449 16.83977703193366 29.499999999999968
    vertex -26.46568542494929 16.9054624568829 31.49999999999997
    vertex -26.60710678118659 17.046883813120214 29.499999999999968
  endloop
endfacet
facet normal -0.9193720390823548 0.3808163674545121 0.09866077251016843
  outer loop
    vertex -26.592820323027603 16.739777031933667 31.49999999999997
    vertex -26.865925826289114 16.598596077036184 29.499999999999968
    vertex -26.6727406610313 16.54683226801568 31.49999999999997
  endloop
endfacet
facet normal -0.9193720390823548 0.3808163674545121 0.09866077251016843
  outer loop
    vertex -26.865925826289114 16.598596077036184 29.499999999999968
    vertex -26.592820323027603 16.739777031933667 31.49999999999997
    vertex -26.76602540378449 16.83977703193366 29.499999999999968
  endloop
endfacet
facet normal -0.9866077251016768 0.1298893711486463 0.09866077251016923
  outer loop
    vertex -26.6727406610313 16.54683226801568 31.49999999999997
    vertex -26.90000000000004 16.339777031933664 29.499999999999968
    vertex -26.700000000000045 16.339777031933664 31.49999999999997
  endloop
endfacet
facet normal -0.9866077251016768 0.1298893711486463 0.09866077251016923
  outer loop
    vertex -26.90000000000004 16.339777031933664 29.499999999999968
    vertex -26.6727406610313 16.54683226801568 31.49999999999997
    vertex -26.865925826289114 16.598596077036184 29.499999999999968
  endloop
endfacet
facet normal -0.9866077251016754 -0.1298893711486583 0.09866077251016794
  outer loop
    vertex -26.6727406610313 16.132721795851648 31.49999999999997
    vertex -26.90000000000004 16.339777031933664 29.499999999999968
    vertex -26.865925826289114 16.08095798683114 29.499999999999968
  endloop
endfacet
facet normal -0.9866077251016754 -0.1298893711486583 0.09866077251016794
  outer loop
    vertex -26.90000000000004 16.339777031933664 29.499999999999968
    vertex -26.6727406610313 16.132721795851648 31.49999999999997
    vertex -26.700000000000045 16.339777031933664 31.49999999999997
  endloop
endfacet
facet normal -0.9193720390823594 -0.3808163674545009 0.09866077251016767
  outer loop
    vertex -26.592820323027603 15.93977703193366 31.49999999999997
    vertex -26.865925826289114 16.08095798683114 29.499999999999968
    vertex -26.76602540378449 15.83977703193366 29.499999999999968
  endloop
endfacet
facet normal -0.9193720390823594 -0.3808163674545009 0.09866077251016767
  outer loop
    vertex -26.865925826289114 16.08095798683114 29.499999999999968
    vertex -26.592820323027603 15.93977703193366 31.49999999999997
    vertex -26.6727406610313 16.132721795851648 31.49999999999997
  endloop
endfacet
facet normal -0.7894826679336976 -0.605791357647159 0.09866077251016721
  outer loop
    vertex -26.46568542494929 15.774091606984426 31.49999999999997
    vertex -26.76602540378449 15.83977703193366 29.499999999999968
    vertex -26.60710678118659 15.632670250747115 29.499999999999968
  endloop
endfacet
facet normal -0.7894826679336976 -0.605791357647159 0.09866077251016721
  outer loop
    vertex -26.76602540378449 15.83977703193366 29.499999999999968
    vertex -26.46568542494929 15.774091606984426 31.49999999999997
    vertex -26.592820323027603 15.93977703193366 31.49999999999997
  endloop
endfacet
facet normal -0.6057913576471505 -0.7894826679337039 0.09866077251016786
  outer loop
    vertex -26.60710678118659 15.632670250747115 29.499999999999968
    vertex -26.300000000000047 15.646956708906112 31.49999999999997
    vertex -26.46568542494929 15.774091606984426 31.49999999999997
  endloop
endfacet
facet normal -0.6057913576471505 -0.7894826679337039 0.09866077251016786
  outer loop
    vertex -26.300000000000047 15.646956708906112 31.49999999999997
    vertex -26.60710678118659 15.632670250747115 29.499999999999968
    vertex -26.40000000000004 15.473751628149223 29.499999999999968
  endloop
endfacet
facet normal -0.38081636745452413 -0.9193720390823499 0.09866077251016765
  outer loop
    vertex -26.40000000000004 15.473751628149223 29.499999999999968
    vertex -26.107055236082065 15.567036370902407 31.49999999999997
    vertex -26.300000000000047 15.646956708906112 31.49999999999997
  endloop
endfacet
facet normal -0.38081636745452413 -0.9193720390823499 0.09866077251016765
  outer loop
    vertex -26.107055236082065 15.567036370902407 31.49999999999997
    vertex -26.40000000000004 15.473751628149223 29.499999999999968
    vertex -26.158819045102565 15.373851205644595 29.499999999999968
  endloop
endfacet
facet normal -0.12988937114864801 -0.9866077251016768 0.09866077251016797
  outer loop
    vertex -26.158819045102565 15.373851205644595 29.499999999999968
    vertex -25.90000000000005 15.539777031933665 31.49999999999997
    vertex -26.107055236082065 15.567036370902407 31.49999999999997
  endloop
endfacet
facet normal -0.12988937114864801 -0.9866077251016768 0.09866077251016797
  outer loop
    vertex -25.90000000000005 15.539777031933665 31.49999999999997
    vertex -26.158819045102565 15.373851205644595 29.499999999999968
    vertex -25.90000000000004 15.339777031933663 29.499999999999968
  endloop
endfacet
facet normal 0.12988937114864807 -0.9866077251016768 0.09866077251016797
  outer loop
    vertex -25.90000000000004 15.339777031933663 29.499999999999968
    vertex -25.69294476391803 15.567036370902407 31.49999999999997
    vertex -25.90000000000005 15.539777031933665 31.49999999999997
  endloop
endfacet
facet normal 0.12988937114864807 -0.9866077251016768 0.09866077251016797
  outer loop
    vertex -25.69294476391803 15.567036370902407 31.49999999999997
    vertex -25.90000000000004 15.339777031933663 29.499999999999968
    vertex -25.64118095489752 15.373851205644595 29.499999999999968
  endloop
endfacet
facet normal 0.38081636745452413 -0.9193720390823499 0.09866077251016765
  outer loop
    vertex -25.64118095489752 15.373851205644595 29.499999999999968
    vertex -25.50000000000005 15.646956708906112 31.49999999999997
    vertex -25.69294476391803 15.567036370902407 31.49999999999997
  endloop
endfacet
facet normal 0.38081636745452413 -0.9193720390823499 0.09866077251016765
  outer loop
    vertex -25.50000000000005 15.646956708906112 31.49999999999997
    vertex -25.64118095489752 15.373851205644595 29.499999999999968
    vertex -25.400000000000045 15.473751628149223 29.499999999999968
  endloop
endfacet
endsolid TickTackBoom
