solid TickTackBoom
facet normal -0.1305261922200541 0.99144486137381 0.0
  outer loop
    vertex -24.06468570296135 52.75620807046829 43.50000000000001
    vertex -22.900000000000013 52.9095418521675 36.5
    vertex -24.06468570296135 52.75620807046829 36.5
  endloop
endfacet
facet normal -0.1305261922200541 0.99144486137381 0.0
  outer loop
    vertex -22.900000000000013 52.9095418521675 36.5
    vertex -24.06468570296135 52.75620807046829 43.50000000000001
    vertex -22.900000000000013 52.9095418521675 43.50000000000001
  endloop
endfacet
facet normal 0.7933533402912354 0.6087614290087203 0.0
  outer loop
    vertex -19.71801948466054 51.591522367506954 36.5
    vertex -19.002885682970042 50.65954185216749 43.50000000000001
    vertex -19.002885682970042 50.65954185216749 36.5
  endloop
endfacet
facet normal 0.7933533402912354 0.6087614290087203 0.0
  outer loop
    vertex -19.002885682970042 50.65954185216749 43.50000000000001
    vertex -19.71801948466054 51.591522367506954 36.5
    vertex -19.71801948466054 51.591522367506954 43.50000000000001
  endloop
endfacet
facet normal -0.3826834323650902 0.9238795325112867 0.0
  outer loop
    vertex -25.15000000000001 52.30665616919746 43.50000000000001
    vertex -24.06468570296135 52.75620807046829 36.5
    vertex -25.15000000000001 52.30665616919746 36.5
  endloop
endfacet
facet normal -0.3826834323650902 0.9238795325112867 0.0
  outer loop
    vertex -24.06468570296135 52.75620807046829 36.5
    vertex -25.15000000000001 52.30665616919746 43.50000000000001
    vertex -24.06468570296135 52.75620807046829 43.50000000000001
  endloop
endfacet
facet normal -0.6087614290087195 0.7933533402912359 0.0
  outer loop
    vertex -26.081980515339474 51.591522367506954 43.50000000000001
    vertex -25.15000000000001 52.30665616919746 36.5
    vertex -26.081980515339474 51.591522367506954 36.5
  endloop
endfacet
facet normal -0.6087614290087195 0.7933533402912359 0.0
  outer loop
    vertex -25.15000000000001 52.30665616919746 36.5
    vertex -26.081980515339474 51.591522367506954 43.50000000000001
    vertex -25.15000000000001 52.30665616919746 43.50000000000001
  endloop
endfacet
facet normal 0.9238795325112873 -0.3826834323650885 0.0
  outer loop
    vertex -18.55333378169921 47.24485614920615 36.5
    vertex -19.002885682970042 46.15954185216749 43.50000000000001
    vertex -19.002885682970042 46.15954185216749 36.5
  endloop
endfacet
facet normal 0.9238795325112873 -0.3826834323650885 0.0
  outer loop
    vertex -19.002885682970042 46.15954185216749 43.50000000000001
    vertex -18.55333378169921 47.24485614920615 36.5
    vertex -18.55333378169921 47.24485614920615 43.50000000000001
  endloop
endfacet
facet normal 0.13052619222004938 0.9914448613738107 0.0
  outer loop
    vertex -22.900000000000013 52.9095418521675 43.50000000000001
    vertex -21.735314297038666 52.756208070468304 36.5
    vertex -22.900000000000013 52.9095418521675 36.5
  endloop
endfacet
facet normal 0.13052619222004938 0.9914448613738107 0.0
  outer loop
    vertex -21.735314297038666 52.756208070468304 36.5
    vertex -22.900000000000013 52.9095418521675 43.50000000000001
    vertex -21.735314297038666 52.756208070468304 43.50000000000001
  endloop
endfacet
facet normal 0.3826834323650901 0.9238795325112867 0.0
  outer loop
    vertex -21.735314297038666 52.756208070468304 43.50000000000001
    vertex -20.650000000000006 52.30665616919747 36.5
    vertex -21.735314297038666 52.756208070468304 36.5
  endloop
endfacet
facet normal 0.3826834323650901 0.9238795325112867 0.0
  outer loop
    vertex -20.650000000000006 52.30665616919747 36.5
    vertex -21.735314297038666 52.756208070468304 43.50000000000001
    vertex -20.650000000000006 52.30665616919747 43.50000000000001
  endloop
endfacet
facet normal 0.6087614290087224 0.7933533402912337 0.0
  outer loop
    vertex -20.650000000000006 52.30665616919747 43.50000000000001
    vertex -19.71801948466054 51.591522367506954 36.5
    vertex -20.650000000000006 52.30665616919747 36.5
  endloop
endfacet
facet normal 0.6087614290087224 0.7933533402912337 0.0
  outer loop
    vertex -19.71801948466054 51.591522367506954 36.5
    vertex -20.650000000000006 52.30665616919747 43.50000000000001
    vertex -19.71801948466054 51.591522367506954 43.50000000000001
  endloop
endfacet
facet normal 0.9914448613738105 0.13052619222005202 0.0
  outer loop
    vertex -18.55333378169921 49.574227555128836 36.5
    vertex -18.400000000000013 48.40954185216749 43.50000000000001
    vertex -18.400000000000013 48.40954185216749 36.5
  endloop
endfacet
facet normal 0.9914448613738105 0.13052619222005202 0.0
  outer loop
    vertex -18.400000000000013 48.40954185216749 43.50000000000001
    vertex -18.55333378169921 49.574227555128836 36.5
    vertex -18.55333378169921 49.574227555128836 43.50000000000001
  endloop
endfacet
facet normal 0.9914448613738105 -0.13052619222005202 0.0
  outer loop
    vertex -18.400000000000013 48.40954185216749 36.5
    vertex -18.55333378169921 47.24485614920615 43.50000000000001
    vertex -18.55333378169921 47.24485614920615 36.5
  endloop
endfacet
facet normal 0.9914448613738105 -0.13052619222005202 0.0
  outer loop
    vertex -18.55333378169921 47.24485614920615 43.50000000000001
    vertex -18.400000000000013 48.40954185216749 36.5
    vertex -18.400000000000013 48.40954185216749 43.50000000000001
  endloop
endfacet
facet normal 0.9238795325112868 0.3826834323650897 0.0
  outer loop
    vertex -19.002885682970042 50.65954185216749 36.5
    vertex -18.55333378169921 49.574227555128836 43.50000000000001
    vertex -18.55333378169921 49.574227555128836 36.5
  endloop
endfacet
facet normal 0.9238795325112868 0.3826834323650897 0.0
  outer loop
    vertex -18.55333378169921 49.574227555128836 43.50000000000001
    vertex -19.002885682970042 50.65954185216749 36.5
    vertex -19.002885682970042 50.65954185216749 43.50000000000001
  endloop
endfacet
facet normal 0.7933533402912339 -0.6087614290087223 0.0
  outer loop
    vertex -19.002885682970042 46.15954185216749 36.5
    vertex -19.71801948466054 45.22756133682803 43.50000000000001
    vertex -19.71801948466054 45.22756133682803 36.5
  endloop
endfacet
facet normal 0.7933533402912339 -0.6087614290087223 0.0
  outer loop
    vertex -19.71801948466054 45.22756133682803 43.50000000000001
    vertex -19.002885682970042 46.15954185216749 36.5
    vertex -19.002885682970042 46.15954185216749 43.50000000000001
  endloop
endfacet
facet normal 0.3826834323650903 -0.9238795325112865 0.0
  outer loop
    vertex -20.650000000000006 44.51242753513752 43.50000000000001
    vertex -21.735314297038666 44.06287563386669 36.5
    vertex -20.650000000000006 44.51242753513752 36.5
  endloop
endfacet
facet normal 0.3826834323650903 -0.9238795325112865 0.0
  outer loop
    vertex -21.735314297038666 44.06287563386669 36.5
    vertex -20.650000000000006 44.51242753513752 43.50000000000001
    vertex -21.735314297038666 44.06287563386669 43.50000000000001
  endloop
endfacet
facet normal 0.1305261922200495 -0.9914448613738108 0.0
  outer loop
    vertex -21.735314297038666 44.06287563386669 43.50000000000001
    vertex -22.900000000000013 43.9095418521675 36.5
    vertex -21.735314297038666 44.06287563386669 36.5
  endloop
endfacet
facet normal 0.1305261922200495 -0.9914448613738108 0.0
  outer loop
    vertex -22.900000000000013 43.9095418521675 36.5
    vertex -21.735314297038666 44.06287563386669 43.50000000000001
    vertex -22.900000000000013 43.9095418521675 43.50000000000001
  endloop
endfacet
facet normal 0.6087614290087224 -0.7933533402912337 0.0
  outer loop
    vertex -19.71801948466054 45.22756133682803 43.50000000000001
    vertex -20.650000000000006 44.51242753513752 36.5
    vertex -19.71801948466054 45.22756133682803 36.5
  endloop
endfacet
facet normal 0.6087614290087224 -0.7933533402912337 0.0
  outer loop
    vertex -20.650000000000006 44.51242753513752 36.5
    vertex -19.71801948466054 45.22756133682803 43.50000000000001
    vertex -20.650000000000006 44.51242753513752 43.50000000000001
  endloop
endfacet
facet normal -0.13052619222005335 -0.9914448613738102 -0.0
  outer loop
    vertex -22.900000000000013 43.9095418521675 43.50000000000001
    vertex -24.064685702961363 44.062875633866696 36.5
    vertex -22.900000000000013 43.9095418521675 36.5
  endloop
endfacet
facet normal -0.13052619222005335 -0.9914448613738102 -0.0
  outer loop
    vertex -24.064685702961363 44.062875633866696 36.5
    vertex -22.900000000000013 43.9095418521675 43.50000000000001
    vertex -24.064685702961363 44.062875633866696 43.50000000000001
  endloop
endfacet
facet normal -0.9914448613738105 0.1305261922200514 0.0
  outer loop
    vertex -27.24666621830082 49.574227555128836 43.50000000000001
    vertex -27.400000000000006 48.40954185216749 36.5
    vertex -27.400000000000006 48.40954185216749 43.50000000000001
  endloop
endfacet
facet normal -0.9914448613738105 0.1305261922200514 0.0
  outer loop
    vertex -27.400000000000006 48.40954185216749 36.5
    vertex -27.24666621830082 49.574227555128836 43.50000000000001
    vertex -27.24666621830082 49.574227555128836 36.5
  endloop
endfacet
facet normal -0.9914448613738105 -0.1305261922200514 -0.0
  outer loop
    vertex -27.400000000000006 48.40954185216749 43.50000000000001
    vertex -27.24666621830082 47.24485614920615 36.5
    vertex -27.24666621830082 47.24485614920615 43.50000000000001
  endloop
endfacet
facet normal -0.9914448613738105 -0.1305261922200514 -0.0
  outer loop
    vertex -27.24666621830082 47.24485614920615 36.5
    vertex -27.400000000000006 48.40954185216749 43.50000000000001
    vertex -27.400000000000006 48.40954185216749 36.5
  endloop
endfacet
facet normal -0.9238795325112868 0.3826834323650897 0.0
  outer loop
    vertex -26.797114317029987 50.65954185216749 43.50000000000001
    vertex -27.24666621830082 49.574227555128836 36.5
    vertex -27.24666621830082 49.574227555128836 43.50000000000001
  endloop
endfacet
facet normal -0.9238795325112868 0.3826834323650897 0.0
  outer loop
    vertex -27.24666621830082 49.574227555128836 36.5
    vertex -26.797114317029987 50.65954185216749 43.50000000000001
    vertex -26.797114317029987 50.65954185216749 36.5
  endloop
endfacet
facet normal -0.793353340291236 0.6087614290087197 0.0
  outer loop
    vertex -26.081980515339474 51.591522367506954 43.50000000000001
    vertex -26.797114317029987 50.65954185216749 36.5
    vertex -26.797114317029987 50.65954185216749 43.50000000000001
  endloop
endfacet
facet normal -0.793353340291236 0.6087614290087197 0.0
  outer loop
    vertex -26.797114317029987 50.65954185216749 36.5
    vertex -26.081980515339474 51.591522367506954 43.50000000000001
    vertex -26.081980515339474 51.591522367506954 36.5
  endloop
endfacet
facet normal -0.6087614290087203 -0.7933533402912355 -0.0
  outer loop
    vertex -25.15000000000001 44.512427535137526 43.50000000000001
    vertex -26.081980515339474 45.22756133682803 36.5
    vertex -25.15000000000001 44.512427535137526 36.5
  endloop
endfacet
facet normal -0.6087614290087203 -0.7933533402912355 -0.0
  outer loop
    vertex -26.081980515339474 45.22756133682803 36.5
    vertex -25.15000000000001 44.512427535137526 43.50000000000001
    vertex -26.081980515339474 45.22756133682803 43.50000000000001
  endloop
endfacet
facet normal -0.38268343236509084 -0.9238795325112863 -0.0
  outer loop
    vertex -24.064685702961363 44.062875633866696 43.50000000000001
    vertex -25.15000000000001 44.512427535137526 36.5
    vertex -24.064685702961363 44.062875633866696 36.5
  endloop
endfacet
facet normal -0.38268343236509084 -0.9238795325112863 -0.0
  outer loop
    vertex -25.15000000000001 44.512427535137526 36.5
    vertex -24.064685702961363 44.062875633866696 43.50000000000001
    vertex -25.15000000000001 44.512427535137526 43.50000000000001
  endloop
endfacet
facet normal -0.7933533402912363 -0.6087614290087192 -0.0
  outer loop
    vertex -26.797114317029987 46.1595418521675 43.50000000000001
    vertex -26.081980515339474 45.22756133682803 36.5
    vertex -26.081980515339474 45.22756133682803 43.50000000000001
  endloop
endfacet
facet normal -0.7933533402912363 -0.6087614290087192 -0.0
  outer loop
    vertex -26.081980515339474 45.22756133682803 36.5
    vertex -26.797114317029987 46.1595418521675 43.50000000000001
    vertex -26.797114317029987 46.1595418521675 36.5
  endloop
endfacet
facet normal -0.9238795325112871 -0.38268343236508917 -0.0
  outer loop
    vertex -27.24666621830082 47.24485614920615 43.50000000000001
    vertex -26.797114317029987 46.1595418521675 36.5
    vertex -26.797114317029987 46.1595418521675 43.50000000000001
  endloop
endfacet
facet normal -0.9238795325112871 -0.38268343236508917 -0.0
  outer loop
    vertex -26.797114317029987 46.1595418521675 36.5
    vertex -27.24666621830082 47.24485614920615 43.50000000000001
    vertex -27.24666621830082 47.24485614920615 36.5
  endloop
endfacet
facet normal 0.0 0.0 -1.0
  outer loop
    vertex -27.24666621830082 49.574227555128836 36.5
    vertex -27.24666621830082 47.24485614920615 36.5
    vertex -27.400000000000006 48.40954185216749 36.5
  endloop
endfacet
facet normal 0.0 0.0 -1.0
  outer loop
    vertex -27.24666621830082 47.24485614920615 36.5
    vertex -27.24666621830082 49.574227555128836 36.5
    vertex -26.797114317029987 50.65954185216749 36.5
  endloop
endfacet
facet normal 0.0 0.0 -1.0
  outer loop
    vertex -27.24666621830082 47.24485614920615 36.5
    vertex -26.797114317029987 50.65954185216749 36.5
    vertex -26.797114317029987 46.1595418521675 36.5
  endloop
endfacet
facet normal 0.0 0.0 -1.0
  outer loop
    vertex -26.797114317029987 46.1595418521675 36.5
    vertex -26.797114317029987 50.65954185216749 36.5
    vertex -26.081980515339474 51.591522367506954 36.5
  endloop
endfacet
facet normal 0.0 0.0 -1.0
  outer loop
    vertex -26.797114317029987 46.1595418521675 36.5
    vertex -26.081980515339474 51.591522367506954 36.5
    vertex -26.081980515339474 45.22756133682803 36.5
  endloop
endfacet
facet normal 0.0 0.0 -1.0
  outer loop
    vertex -26.081980515339474 45.22756133682803 36.5
    vertex -26.081980515339474 51.591522367506954 36.5
    vertex -25.15000000000001 52.30665616919746 36.5
  endloop
endfacet
facet normal 0.0 0.0 -1.0
  outer loop
    vertex -26.081980515339474 45.22756133682803 36.5
    vertex -25.15000000000001 52.30665616919746 36.5
    vertex -25.15000000000001 44.512427535137526 36.5
  endloop
endfacet
facet normal 0.0 0.0 -1.0
  outer loop
    vertex -25.15000000000001 44.512427535137526 36.5
    vertex -25.15000000000001 52.30665616919746 36.5
    vertex -24.06468570296135 52.75620807046829 36.5
  endloop
endfacet
facet normal 0.0 0.0 -1.0
  outer loop
    vertex -25.15000000000001 44.512427535137526 36.5
    vertex -24.06468570296135 52.75620807046829 36.5
    vertex -24.064685702961363 44.062875633866696 36.5
  endloop
endfacet
facet normal 0.0 0.0 -1.0
  outer loop
    vertex -24.064685702961363 44.062875633866696 36.5
    vertex -24.06468570296135 52.75620807046829 36.5
    vertex -22.900000000000013 43.9095418521675 36.5
  endloop
endfacet
facet normal 0.0 0.0 -1.0
  outer loop
    vertex -22.900000000000013 43.9095418521675 36.5
    vertex -24.06468570296135 52.75620807046829 36.5
    vertex -22.900000000000013 52.9095418521675 36.5
  endloop
endfacet
facet normal 0.0 0.0 -1.0
  outer loop
    vertex -22.900000000000013 43.9095418521675 36.5
    vertex -22.900000000000013 52.9095418521675 36.5
    vertex -21.735314297038666 52.756208070468304 36.5
  endloop
endfacet
facet normal 0.0 0.0 -1.0
  outer loop
    vertex -22.900000000000013 43.9095418521675 36.5
    vertex -21.735314297038666 52.756208070468304 36.5
    vertex -21.735314297038666 44.06287563386669 36.5
  endloop
endfacet
facet normal 0.0 0.0 -1.0
  outer loop
    vertex -21.735314297038666 44.06287563386669 36.5
    vertex -21.735314297038666 52.756208070468304 36.5
    vertex -20.650000000000006 52.30665616919747 36.5
  endloop
endfacet
facet normal 0.0 0.0 -1.0
  outer loop
    vertex -21.735314297038666 44.06287563386669 36.5
    vertex -20.650000000000006 52.30665616919747 36.5
    vertex -20.650000000000006 44.51242753513752 36.5
  endloop
endfacet
facet normal 0.0 0.0 -1.0
  outer loop
    vertex -20.650000000000006 44.51242753513752 36.5
    vertex -20.650000000000006 52.30665616919747 36.5
    vertex -19.71801948466054 51.591522367506954 36.5
  endloop
endfacet
facet normal 0.0 0.0 -1.0
  outer loop
    vertex -20.650000000000006 44.51242753513752 36.5
    vertex -19.71801948466054 51.591522367506954 36.5
    vertex -19.71801948466054 45.22756133682803 36.5
  endloop
endfacet
facet normal 0.0 0.0 -1.0
  outer loop
    vertex -19.71801948466054 45.22756133682803 36.5
    vertex -19.71801948466054 51.591522367506954 36.5
    vertex -19.002885682970042 50.65954185216749 36.5
  endloop
endfacet
facet normal 0.0 0.0 -1.0
  outer loop
    vertex -19.71801948466054 45.22756133682803 36.5
    vertex -19.002885682970042 50.65954185216749 36.5
    vertex -19.002885682970042 46.15954185216749 36.5
  endloop
endfacet
facet normal 0.0 0.0 -1.0
  outer loop
    vertex -19.002885682970042 46.15954185216749 36.5
    vertex -19.002885682970042 50.65954185216749 36.5
    vertex -18.55333378169921 49.574227555128836 36.5
  endloop
endfacet
facet normal 0.0 0.0 -1.0
  outer loop
    vertex -19.002885682970042 46.15954185216749 36.5
    vertex -18.55333378169921 49.574227555128836 36.5
    vertex -18.55333378169921 47.24485614920615 36.5
  endloop
endfacet
facet normal 0.0 0.0 -1.0
  outer loop
    vertex -18.55333378169921 47.24485614920615 36.5
    vertex -18.55333378169921 49.574227555128836 36.5
    vertex -18.400000000000013 48.40954185216749 36.5
  endloop
endfacet
facet normal 0.0 0.0 1.0
  outer loop
    vertex -27.24666621830082 47.24485614920615 43.50000000000001
    vertex -27.24666621830082 49.574227555128836 43.50000000000001
    vertex -27.400000000000006 48.40954185216749 43.50000000000001
  endloop
endfacet
facet normal 0.0 0.0 1.0
  outer loop
    vertex -27.24666621830082 49.574227555128836 43.50000000000001
    vertex -27.24666621830082 47.24485614920615 43.50000000000001
    vertex -26.797114317029987 46.1595418521675 43.50000000000001
  endloop
endfacet
facet normal 0.0 0.0 1.0
  outer loop
    vertex -27.24666621830082 49.574227555128836 43.50000000000001
    vertex -26.797114317029987 46.1595418521675 43.50000000000001
    vertex -26.797114317029987 50.65954185216749 43.50000000000001
  endloop
endfacet
facet normal 0.0 0.0 1.0
  outer loop
    vertex -26.797114317029987 50.65954185216749 43.50000000000001
    vertex -26.797114317029987 46.1595418521675 43.50000000000001
    vertex -26.081980515339474 45.22756133682803 43.50000000000001
  endloop
endfacet
facet normal 0.0 0.0 1.0
  outer loop
    vertex -26.797114317029987 50.65954185216749 43.50000000000001
    vertex -26.081980515339474 45.22756133682803 43.50000000000001
    vertex -26.081980515339474 51.591522367506954 43.50000000000001
  endloop
endfacet
facet normal 0.0 0.0 1.0
  outer loop
    vertex -26.081980515339474 51.591522367506954 43.50000000000001
    vertex -26.081980515339474 45.22756133682803 43.50000000000001
    vertex -25.15000000000001 44.512427535137526 43.50000000000001
  endloop
endfacet
facet normal 0.0 0.0 1.0
  outer loop
    vertex -26.081980515339474 51.591522367506954 43.50000000000001
    vertex -25.15000000000001 44.512427535137526 43.50000000000001
    vertex -25.40000000000001 48.40954185216749 43.50000000000001
  endloop
endfacet
facet normal 0.0 0.0 1.0
  outer loop
    vertex -25.40000000000001 48.40954185216749 43.50000000000001
    vertex -25.15000000000001 44.512427535137526 43.50000000000001
    vertex -25.314814565722678 47.76249423941119 43.50000000000001
  endloop
endfacet
facet normal 0.0 0.0 1.0
  outer loop
    vertex -25.314814565722678 47.76249423941119 43.50000000000001
    vertex -25.15000000000001 44.512427535137526 43.50000000000001
    vertex -25.06506350946111 47.1595418521675 43.50000000000001
  endloop
endfacet
facet normal 0.0 0.0 1.0
  outer loop
    vertex -25.06506350946111 47.1595418521675 43.50000000000001
    vertex -25.15000000000001 44.512427535137526 43.50000000000001
    vertex -24.064685702961363 44.062875633866696 43.50000000000001
  endloop
endfacet
facet normal 0.0 0.0 1.0
  outer loop
    vertex -25.06506350946111 47.1595418521675 43.50000000000001
    vertex -24.064685702961363 44.062875633866696 43.50000000000001
    vertex -24.667766952966378 46.641774899201124 43.50000000000001
  endloop
endfacet
facet normal 0.0 0.0 1.0
  outer loop
    vertex -24.667766952966378 46.641774899201124 43.50000000000001
    vertex -24.064685702961363 44.062875633866696 43.50000000000001
    vertex -24.150000000000013 46.2444783427064 43.50000000000001
  endloop
endfacet
facet normal 0.0 0.0 1.0
  outer loop
    vertex -24.150000000000013 46.2444783427064 43.50000000000001
    vertex -24.064685702961363 44.062875633866696 43.50000000000001
    vertex -23.547047612756316 45.99472728644483 43.50000000000001
  endloop
endfacet
facet normal 0.0 0.0 1.0
  outer loop
    vertex -23.547047612756316 45.99472728644483 43.50000000000001
    vertex -24.064685702961363 44.062875633866696 43.50000000000001
    vertex -22.900000000000013 43.9095418521675 43.50000000000001
  endloop
endfacet
facet normal 0.0 0.0 1.0
  outer loop
    vertex -23.547047612756316 45.99472728644483 43.50000000000001
    vertex -22.900000000000013 43.9095418521675 43.50000000000001
    vertex -22.900000000000013 45.90954185216749 43.50000000000001
  endloop
endfacet
facet normal 0.0 0.0 1.0
  outer loop
    vertex -22.900000000000013 45.90954185216749 43.50000000000001
    vertex -22.900000000000013 43.9095418521675 43.50000000000001
    vertex -21.735314297038666 44.06287563386669 43.50000000000001
  endloop
endfacet
facet normal 0.0 0.0 1.0
  outer loop
    vertex -22.900000000000013 45.90954185216749 43.50000000000001
    vertex -21.735314297038666 44.06287563386669 43.50000000000001
    vertex -22.252952387243703 45.99472728644483 43.50000000000001
  endloop
endfacet
facet normal 0.0 0.0 1.0
  outer loop
    vertex -22.252952387243703 45.99472728644483 43.50000000000001
    vertex -21.735314297038666 44.06287563386669 43.50000000000001
    vertex -21.650000000000006 46.2444783427064 43.50000000000001
  endloop
endfacet
facet normal 0.0 0.0 1.0
  outer loop
    vertex -21.650000000000006 46.2444783427064 43.50000000000001
    vertex -21.735314297038666 44.06287563386669 43.50000000000001
    vertex -20.650000000000006 44.51242753513752 43.50000000000001
  endloop
endfacet
facet normal 0.0 0.0 1.0
  outer loop
    vertex -21.650000000000006 46.2444783427064 43.50000000000001
    vertex -20.650000000000006 44.51242753513752 43.50000000000001
    vertex -21.13223304703364 46.641774899201124 43.50000000000001
  endloop
endfacet
facet normal 0.0 0.0 1.0
  outer loop
    vertex -21.13223304703364 46.641774899201124 43.50000000000001
    vertex -20.650000000000006 44.51242753513752 43.50000000000001
    vertex -20.734936490538907 47.1595418521675 43.50000000000001
  endloop
endfacet
facet normal 0.0 0.0 1.0
  outer loop
    vertex -20.734936490538907 47.1595418521675 43.50000000000001
    vertex -20.650000000000006 44.51242753513752 43.50000000000001
    vertex -20.48518543427734 47.76249423941119 43.50000000000001
  endloop
endfacet
facet normal 0.0 0.0 1.0
  outer loop
    vertex -20.48518543427734 47.76249423941119 43.50000000000001
    vertex -20.650000000000006 44.51242753513752 43.50000000000001
    vertex -19.71801948466054 45.22756133682803 43.50000000000001
  endloop
endfacet
facet normal 0.0 0.0 1.0
  outer loop
    vertex -20.48518543427734 47.76249423941119 43.50000000000001
    vertex -19.71801948466054 45.22756133682803 43.50000000000001
    vertex -20.40000000000001 48.40954185216749 43.50000000000001
  endloop
endfacet
facet normal 0.0 0.0 1.0
  outer loop
    vertex -25.40000000000001 48.40954185216749 43.50000000000001
    vertex -25.15000000000001 52.30665616919746 43.50000000000001
    vertex -26.081980515339474 51.591522367506954 43.50000000000001
  endloop
endfacet
facet normal 0.0 0.0 1.0
  outer loop
    vertex -25.15000000000001 52.30665616919746 43.50000000000001
    vertex -25.40000000000001 48.40954185216749 43.50000000000001
    vertex -25.314814565722678 49.056589464923796 43.50000000000001
  endloop
endfacet
facet normal 0.0 0.0 1.0
  outer loop
    vertex -25.15000000000001 52.30665616919746 43.50000000000001
    vertex -25.314814565722678 49.056589464923796 43.50000000000001
    vertex -25.065063509461098 49.6595418521675 43.50000000000001
  endloop
endfacet
facet normal 0.0 0.0 1.0
  outer loop
    vertex -25.15000000000001 52.30665616919746 43.50000000000001
    vertex -25.065063509461098 49.6595418521675 43.50000000000001
    vertex -24.06468570296135 52.75620807046829 43.50000000000001
  endloop
endfacet
facet normal 0.0 0.0 1.0
  outer loop
    vertex -24.06468570296135 52.75620807046829 43.50000000000001
    vertex -25.065063509461098 49.6595418521675 43.50000000000001
    vertex -24.667766952966378 50.17730880513386 43.50000000000001
  endloop
endfacet
facet normal 0.0 0.0 1.0
  outer loop
    vertex -24.06468570296135 52.75620807046829 43.50000000000001
    vertex -24.667766952966378 50.17730880513386 43.50000000000001
    vertex -24.150000000000002 50.57460536162859 43.50000000000001
  endloop
endfacet
facet normal 0.0 0.0 1.0
  outer loop
    vertex -24.06468570296135 52.75620807046829 43.50000000000001
    vertex -24.150000000000002 50.57460536162859 43.50000000000001
    vertex -23.547047612756305 50.82435641789017 43.50000000000001
  endloop
endfacet
facet normal 0.0 0.0 1.0
  outer loop
    vertex -24.06468570296135 52.75620807046829 43.50000000000001
    vertex -23.547047612756305 50.82435641789017 43.50000000000001
    vertex -22.900000000000013 52.9095418521675 43.50000000000001
  endloop
endfacet
facet normal 0.0 0.0 1.0
  outer loop
    vertex -22.900000000000013 52.9095418521675 43.50000000000001
    vertex -23.547047612756305 50.82435641789017 43.50000000000001
    vertex -22.900000000000013 50.9095418521675 43.50000000000001
  endloop
endfacet
facet normal 0.0 0.0 1.0
  outer loop
    vertex -22.900000000000013 52.9095418521675 43.50000000000001
    vertex -22.900000000000013 50.9095418521675 43.50000000000001
    vertex -22.252952387243703 50.82435641789017 43.50000000000001
  endloop
endfacet
facet normal 0.0 0.0 1.0
  outer loop
    vertex -22.900000000000013 52.9095418521675 43.50000000000001
    vertex -22.252952387243703 50.82435641789017 43.50000000000001
    vertex -21.735314297038666 52.756208070468304 43.50000000000001
  endloop
endfacet
facet normal 0.0 0.0 1.0
  outer loop
    vertex -21.735314297038666 52.756208070468304 43.50000000000001
    vertex -22.252952387243703 50.82435641789017 43.50000000000001
    vertex -21.650000000000006 50.57460536162859 43.50000000000001
  endloop
endfacet
facet normal 0.0 0.0 1.0
  outer loop
    vertex -21.735314297038666 52.756208070468304 43.50000000000001
    vertex -21.650000000000006 50.57460536162859 43.50000000000001
    vertex -20.650000000000006 52.30665616919747 43.50000000000001
  endloop
endfacet
facet normal 0.0 0.0 1.0
  outer loop
    vertex -20.650000000000006 52.30665616919747 43.50000000000001
    vertex -21.650000000000006 50.57460536162859 43.50000000000001
    vertex -21.13223304703364 50.17730880513386 43.50000000000001
  endloop
endfacet
facet normal 0.0 0.0 1.0
  outer loop
    vertex -20.650000000000006 52.30665616919747 43.50000000000001
    vertex -21.13223304703364 50.17730880513386 43.50000000000001
    vertex -20.734936490538907 49.65954185216749 43.50000000000001
  endloop
endfacet
facet normal 0.0 0.0 1.0
  outer loop
    vertex -20.650000000000006 52.30665616919747 43.50000000000001
    vertex -20.734936490538907 49.65954185216749 43.50000000000001
    vertex -20.48518543427734 49.056589464923796 43.50000000000001
  endloop
endfacet
facet normal 0.0 0.0 1.0
  outer loop
    vertex -20.650000000000006 52.30665616919747 43.50000000000001
    vertex -20.48518543427734 49.056589464923796 43.50000000000001
    vertex -19.71801948466054 51.591522367506954 43.50000000000001
  endloop
endfacet
facet normal 0.0 0.0 1.0
  outer loop
    vertex -19.71801948466054 51.591522367506954 43.50000000000001
    vertex -20.48518543427734 49.056589464923796 43.50000000000001
    vertex -20.40000000000001 48.40954185216749 43.50000000000001
  endloop
endfacet
facet normal 0.0 0.0 1.0
  outer loop
    vertex -19.71801948466054 51.591522367506954 43.50000000000001
    vertex -20.40000000000001 48.40954185216749 43.50000000000001
    vertex -19.71801948466054 45.22756133682803 43.50000000000001
  endloop
endfacet
facet normal 0.0 0.0 1.0
  outer loop
    vertex -19.71801948466054 51.591522367506954 43.50000000000001
    vertex -19.71801948466054 45.22756133682803 43.50000000000001
    vertex -19.002885682970042 46.15954185216749 43.50000000000001
  endloop
endfacet
facet normal 0.0 0.0 1.0
  outer loop
    vertex -19.71801948466054 51.591522367506954 43.50000000000001
    vertex -19.002885682970042 46.15954185216749 43.50000000000001
    vertex -19.002885682970042 50.65954185216749 43.50000000000001
  endloop
endfacet
facet normal 0.0 0.0 1.0
  outer loop
    vertex -19.002885682970042 50.65954185216749 43.50000000000001
    vertex -19.002885682970042 46.15954185216749 43.50000000000001
    vertex -18.55333378169921 47.24485614920615 43.50000000000001
  endloop
endfacet
facet normal 0.0 0.0 1.0
  outer loop
    vertex -19.002885682970042 50.65954185216749 43.50000000000001
    vertex -18.55333378169921 47.24485614920615 43.50000000000001
    vertex -18.55333378169921 49.574227555128836 43.50000000000001
  endloop
endfacet
facet normal 0.0 0.0 1.0
  outer loop
    vertex -18.55333378169921 49.574227555128836 43.50000000000001
    vertex -18.55333378169921 47.24485614920615 43.50000000000001
    vertex -18.400000000000013 48.40954185216749 43.50000000000001
  endloop
endfacet
facet normal 0.6087614290087239 -0.7933533402912327 4.486338225744732e-31
  outer loop
    vertex -21.13223304703364 46.641774899201124 48.999999999999986
    vertex -21.650000000000006 46.2444783427064 43.50000000000001
    vertex -21.13223304703364 46.641774899201124 43.50000000000001
  endloop
endfacet
facet normal 0.6087614290087239 -0.7933533402912327 4.486338225744732e-31
  outer loop
    vertex -21.650000000000006 46.2444783427064 43.50000000000001
    vertex -21.13223304703364 46.641774899201124 48.999999999999986
    vertex -21.650000000000006 46.2444783427064 48.999999999999986
  endloop
endfacet
facet normal -0.9238795325112897 -0.38268343236508295 0.0
  outer loop
    vertex -25.314814565722678 47.76249423941119 48.999999999999986
    vertex -25.06506350946111 47.1595418521675 43.50000000000001
    vertex -25.06506350946111 47.1595418521675 48.999999999999986
  endloop
endfacet
facet normal -0.9238795325112897 -0.38268343236508295 0.0
  outer loop
    vertex -25.06506350946111 47.1595418521675 43.50000000000001
    vertex -25.314814565722678 47.76249423941119 48.999999999999986
    vertex -25.314814565722678 47.76249423941119 43.50000000000001
  endloop
endfacet
facet normal 0.793353340291232 -0.6087614290087251 -1.5140224087525523e-18
  outer loop
    vertex -20.734936490538907 47.1595418521675 43.50000000000001
    vertex -21.13223304703364 46.641774899201124 48.999999999999986
    vertex -21.13223304703364 46.641774899201124 43.50000000000001
  endloop
endfacet
facet normal 0.793353340291232 -0.6087614290087251 -1.5140224087525523e-18
  outer loop
    vertex -21.13223304703364 46.641774899201124 48.999999999999986
    vertex -20.734936490538907 47.1595418521675 43.50000000000001
    vertex -20.734936490538907 47.1595418521675 48.999999999999986
  endloop
endfacet
facet normal -0.9914448613738098 -0.13052619222005613 0.0
  outer loop
    vertex -25.40000000000001 48.40954185216749 48.999999999999986
    vertex -25.314814565722678 47.76249423941119 43.50000000000001
    vertex -25.314814565722678 47.76249423941119 48.999999999999986
  endloop
endfacet
facet normal -0.9914448613738098 -0.13052619222005613 0.0
  outer loop
    vertex -25.314814565722678 47.76249423941119 43.50000000000001
    vertex -25.40000000000001 48.40954185216749 48.999999999999986
    vertex -25.40000000000001 48.40954185216749 43.50000000000001
  endloop
endfacet
facet normal 0.38268343236509034 -0.9238795325112867 5.224451517613864e-31
  outer loop
    vertex -21.650000000000006 46.2444783427064 48.999999999999986
    vertex -22.252952387243703 45.99472728644483 43.50000000000001
    vertex -21.650000000000006 46.2444783427064 43.50000000000001
  endloop
endfacet
facet normal 0.38268343236509034 -0.9238795325112867 5.224451517613864e-31
  outer loop
    vertex -22.252952387243703 45.99472728644483 43.50000000000001
    vertex -21.650000000000006 46.2444783427064 48.999999999999986
    vertex -22.252952387243703 45.99472728644483 48.999999999999986
  endloop
endfacet
facet normal -0.38268343236509034 -0.9238795325112867 -5.224451517613864e-31
  outer loop
    vertex -23.547047612756316 45.99472728644483 48.999999999999986
    vertex -24.150000000000013 46.2444783427064 43.50000000000001
    vertex -23.547047612756316 45.99472728644483 43.50000000000001
  endloop
endfacet
facet normal -0.38268343236509034 -0.9238795325112867 -5.224451517613864e-31
  outer loop
    vertex -24.150000000000013 46.2444783427064 43.50000000000001
    vertex -23.547047612756316 45.99472728644483 48.999999999999986
    vertex -24.150000000000013 46.2444783427064 48.999999999999986
  endloop
endfacet
facet normal 0.9238795325112897 0.38268343236508295 0.0
  outer loop
    vertex -20.734936490538907 49.65954185216749 43.50000000000001
    vertex -20.48518543427734 49.056589464923796 48.999999999999986
    vertex -20.48518543427734 49.056589464923796 43.50000000000001
  endloop
endfacet
facet normal 0.9238795325112897 0.38268343236508295 0.0
  outer loop
    vertex -20.48518543427734 49.056589464923796 48.999999999999986
    vertex -20.734936490538907 49.65954185216749 43.50000000000001
    vertex -20.734936490538907 49.65954185216749 48.999999999999986
  endloop
endfacet
facet normal -0.6087614290087239 -0.7933533402912327 -4.486338225744732e-31
  outer loop
    vertex -24.150000000000013 46.2444783427064 48.999999999999986
    vertex -24.667766952966378 46.641774899201124 43.50000000000001
    vertex -24.150000000000013 46.2444783427064 43.50000000000001
  endloop
endfacet
facet normal -0.6087614290087239 -0.7933533402912327 -4.486338225744732e-31
  outer loop
    vertex -24.667766952966378 46.641774899201124 43.50000000000001
    vertex -24.150000000000013 46.2444783427064 48.999999999999986
    vertex -24.667766952966378 46.641774899201124 48.999999999999986
  endloop
endfacet
facet normal 0.9914448613738098 -0.13052619222005613 0.0
  outer loop
    vertex -20.40000000000001 48.40954185216749 43.50000000000001
    vertex -20.48518543427734 47.76249423941119 48.999999999999986
    vertex -20.48518543427734 47.76249423941119 43.50000000000001
  endloop
endfacet
facet normal 0.9914448613738098 -0.13052619222005613 0.0
  outer loop
    vertex -20.48518543427734 47.76249423941119 48.999999999999986
    vertex -20.40000000000001 48.40954185216749 43.50000000000001
    vertex -20.40000000000001 48.40954185216749 48.999999999999986
  endloop
endfacet
facet normal 0.1305261922200539 -0.9914448613738103 0.0
  outer loop
    vertex -22.252952387243703 45.99472728644483 48.999999999999986
    vertex -22.900000000000013 45.90954185216749 43.50000000000001
    vertex -22.252952387243703 45.99472728644483 43.50000000000001
  endloop
endfacet
facet normal 0.1305261922200539 -0.9914448613738103 0.0
  outer loop
    vertex -22.900000000000013 45.90954185216749 43.50000000000001
    vertex -22.252952387243703 45.99472728644483 48.999999999999986
    vertex -22.900000000000013 45.90954185216749 48.999999999999986
  endloop
endfacet
facet normal -0.13052619222005613 -0.9914448613738098 0.0
  outer loop
    vertex -22.900000000000013 45.90954185216749 48.999999999999986
    vertex -23.547047612756316 45.99472728644483 43.50000000000001
    vertex -22.900000000000013 45.90954185216749 43.50000000000001
  endloop
endfacet
facet normal -0.13052619222005613 -0.9914448613738098 0.0
  outer loop
    vertex -23.547047612756316 45.99472728644483 43.50000000000001
    vertex -22.900000000000013 45.90954185216749 48.999999999999986
    vertex -23.547047612756316 45.99472728644483 48.999999999999986
  endloop
endfacet
facet normal 0.9914448613738098 0.13052619222005613 1.4762265837382865e-31
  outer loop
    vertex -20.48518543427734 49.056589464923796 43.50000000000001
    vertex -20.40000000000001 48.40954185216749 48.999999999999986
    vertex -20.40000000000001 48.40954185216749 43.50000000000001
  endloop
endfacet
facet normal 0.9914448613738098 0.13052619222005613 1.4762265837382865e-31
  outer loop
    vertex -20.40000000000001 48.40954185216749 48.999999999999986
    vertex -20.48518543427734 49.056589464923796 43.50000000000001
    vertex -20.48518543427734 49.056589464923796 48.999999999999986
  endloop
endfacet
facet normal -0.793353340291232 -0.6087614290087251 1.5140224087525523e-18
  outer loop
    vertex -25.06506350946111 47.1595418521675 48.999999999999986
    vertex -24.667766952966378 46.641774899201124 43.50000000000001
    vertex -24.667766952966378 46.641774899201124 48.999999999999986
  endloop
endfacet
facet normal -0.793353340291232 -0.6087614290087251 1.5140224087525523e-18
  outer loop
    vertex -24.667766952966378 46.641774899201124 43.50000000000001
    vertex -25.06506350946111 47.1595418521675 48.999999999999986
    vertex -25.06506350946111 47.1595418521675 43.50000000000001
  endloop
endfacet
facet normal 0.9238795325112897 -0.38268343236508295 0.0
  outer loop
    vertex -20.48518543427734 47.76249423941119 43.50000000000001
    vertex -20.734936490538907 47.1595418521675 48.999999999999986
    vertex -20.734936490538907 47.1595418521675 43.50000000000001
  endloop
endfacet
facet normal 0.9238795325112897 -0.38268343236508295 0.0
  outer loop
    vertex -20.734936490538907 47.1595418521675 48.999999999999986
    vertex -20.48518543427734 47.76249423941119 43.50000000000001
    vertex -20.48518543427734 47.76249423941119 48.999999999999986
  endloop
endfacet
facet normal -0.7933533402912369 0.6087614290087184 0.0
  outer loop
    vertex -24.667766952966378 50.17730880513386 48.999999999999986
    vertex -25.065063509461098 49.6595418521675 43.50000000000001
    vertex -25.065063509461098 49.6595418521675 48.999999999999986
  endloop
endfacet
facet normal -0.7933533402912369 0.6087614290087184 0.0
  outer loop
    vertex -25.065063509461098 49.6595418521675 43.50000000000001
    vertex -24.667766952966378 50.17730880513386 48.999999999999986
    vertex -24.667766952966378 50.17730880513386 43.50000000000001
  endloop
endfacet
facet normal 0.3826834323650976 0.9238795325112835 0.0
  outer loop
    vertex -22.252952387243703 50.82435641789017 48.999999999999986
    vertex -21.650000000000006 50.57460536162859 43.50000000000001
    vertex -22.252952387243703 50.82435641789017 43.50000000000001
  endloop
endfacet
facet normal 0.3826834323650976 0.9238795325112835 0.0
  outer loop
    vertex -21.650000000000006 50.57460536162859 43.50000000000001
    vertex -22.252952387243703 50.82435641789017 48.999999999999986
    vertex -21.650000000000006 50.57460536162859 48.999999999999986
  endloop
endfacet
facet normal -0.9238795325112849 0.3826834323650946 -2.1640386745563883e-31
  outer loop
    vertex -25.065063509461098 49.6595418521675 48.999999999999986
    vertex -25.314814565722678 49.056589464923796 43.50000000000001
    vertex -25.314814565722678 49.056589464923796 48.999999999999986
  endloop
endfacet
facet normal -0.9238795325112849 0.3826834323650946 -2.1640386745563883e-31
  outer loop
    vertex -25.314814565722678 49.056589464923796 43.50000000000001
    vertex -25.065063509461098 49.6595418521675 48.999999999999986
    vertex -25.065063509461098 49.6595418521675 43.50000000000001
  endloop
endfacet
facet normal 0.6087614290087239 0.7933533402912327 -4.486338225744732e-31
  outer loop
    vertex -21.650000000000006 50.57460536162859 48.999999999999986
    vertex -21.13223304703364 50.17730880513386 43.50000000000001
    vertex -21.650000000000006 50.57460536162859 43.50000000000001
  endloop
endfacet
facet normal 0.6087614290087239 0.7933533402912327 -4.486338225744732e-31
  outer loop
    vertex -21.13223304703364 50.17730880513386 43.50000000000001
    vertex -21.650000000000006 50.57460536162859 48.999999999999986
    vertex -21.13223304703364 50.17730880513386 48.999999999999986
  endloop
endfacet
facet normal -0.6087614290087154 0.7933533402912392 -4.486338225744769e-31
  outer loop
    vertex -24.667766952966378 50.17730880513386 48.999999999999986
    vertex -24.150000000000002 50.57460536162859 43.50000000000001
    vertex -24.667766952966378 50.17730880513386 43.50000000000001
  endloop
endfacet
facet normal -0.6087614290087154 0.7933533402912392 -4.486338225744769e-31
  outer loop
    vertex -24.150000000000002 50.57460536162859 43.50000000000001
    vertex -24.667766952966378 50.17730880513386 48.999999999999986
    vertex -24.150000000000002 50.57460536162859 48.999999999999986
  endloop
endfacet
facet normal 0.793353340291232 0.608761429008725 -1.5140224087525517e-18
  outer loop
    vertex -21.13223304703364 50.17730880513386 43.50000000000001
    vertex -20.734936490538907 49.65954185216749 48.999999999999986
    vertex -20.734936490538907 49.65954185216749 43.50000000000001
  endloop
endfacet
facet normal 0.793353340291232 0.608761429008725 -1.5140224087525517e-18
  outer loop
    vertex -20.734936490538907 49.65954185216749 48.999999999999986
    vertex -21.13223304703364 50.17730880513386 43.50000000000001
    vertex -21.13223304703364 50.17730880513386 48.999999999999986
  endloop
endfacet
facet normal -0.3826834323650976 0.9238795325112835 0.0
  outer loop
    vertex -24.150000000000002 50.57460536162859 48.999999999999986
    vertex -23.547047612756305 50.82435641789017 43.50000000000001
    vertex -24.150000000000002 50.57460536162859 43.50000000000001
  endloop
endfacet
facet normal -0.3826834323650976 0.9238795325112835 0.0
  outer loop
    vertex -23.547047612756305 50.82435641789017 43.50000000000001
    vertex -24.150000000000002 50.57460536162859 48.999999999999986
    vertex -23.547047612756305 50.82435641789017 48.999999999999986
  endloop
endfacet
facet normal 0.1305261922200539 0.9914448613738103 0.0
  outer loop
    vertex -22.900000000000013 50.9095418521675 48.999999999999986
    vertex -22.252952387243703 50.82435641789017 43.50000000000001
    vertex -22.900000000000013 50.9095418521675 43.50000000000001
  endloop
endfacet
facet normal 0.1305261922200539 0.9914448613738103 0.0
  outer loop
    vertex -22.252952387243703 50.82435641789017 43.50000000000001
    vertex -22.900000000000013 50.9095418521675 48.999999999999986
    vertex -22.252952387243703 50.82435641789017 48.999999999999986
  endloop
endfacet
facet normal -0.13052619222005835 0.9914448613738096 0.0
  outer loop
    vertex -23.547047612756305 50.82435641789017 48.999999999999986
    vertex -22.900000000000013 50.9095418521675 43.50000000000001
    vertex -23.547047612756305 50.82435641789017 43.50000000000001
  endloop
endfacet
facet normal -0.13052619222005835 0.9914448613738096 0.0
  outer loop
    vertex -22.900000000000013 50.9095418521675 43.50000000000001
    vertex -23.547047612756305 50.82435641789017 48.999999999999986
    vertex -22.900000000000013 50.9095418521675 48.999999999999986
  endloop
endfacet
facet normal -0.7040625922196443 0.09269159872357302 0.7040625922196286
  outer loop
    vertex -24.831851652578152 48.92717994237253 49.49999999999999
    vertex -25.40000000000001 48.40954185216749 48.999999999999986
    vertex -24.900000000000013 48.40954185216749 49.49999999999999
  endloop
endfacet
facet normal -0.7040625922196443 0.09269159872357302 0.7040625922196286
  outer loop
    vertex -25.40000000000001 48.40954185216749 48.999999999999986
    vertex -24.831851652578152 48.92717994237253 49.49999999999999
    vertex -25.314814565722678 49.056589464923796 48.999999999999986
  endloop
endfacet
facet normal -0.7040625922196435 -0.09269159872357402 0.7040625922196293
  outer loop
    vertex -24.831851652578152 47.891903761962446 49.49999999999999
    vertex -25.40000000000001 48.40954185216749 48.999999999999986
    vertex -25.314814565722678 47.76249423941119 48.999999999999986
  endloop
endfacet
facet normal -0.7040625922196435 -0.09269159872357402 0.7040625922196293
  outer loop
    vertex -25.40000000000001 48.40954185216749 48.999999999999986
    vertex -24.831851652578152 47.891903761962446 49.49999999999999
    vertex -24.900000000000013 48.40954185216749 49.49999999999999
  endloop
endfacet
facet normal -0.6560818900783226 -0.2717580168978121 0.7040625922196294
  outer loop
    vertex -25.06506350946111 47.1595418521675 48.999999999999986
    vertex -24.831851652578152 47.891903761962446 49.49999999999999
    vertex -25.314814565722678 47.76249423941119 48.999999999999986
  endloop
endfacet
facet normal -0.6560818900783226 -0.2717580168978121 0.7040625922196294
  outer loop
    vertex -24.831851652578152 47.891903761962446 49.49999999999999
    vertex -25.06506350946111 47.1595418521675 48.999999999999986
    vertex -24.63205080756889 47.40954185216749 49.49999999999999
  endloop
endfacet
facet normal -0.5633902913547504 -0.43230457532182903 0.7040625922196284
  outer loop
    vertex -24.667766952966378 46.641774899201124 48.999999999999986
    vertex -24.63205080756889 47.40954185216749 49.49999999999999
    vertex -25.06506350946111 47.1595418521675 48.999999999999986
  endloop
endfacet
facet normal -0.5633902913547504 -0.43230457532182903 0.7040625922196284
  outer loop
    vertex -24.63205080756889 47.40954185216749 49.49999999999999
    vertex -24.667766952966378 46.641774899201124 48.999999999999986
    vertex -24.314213562373112 46.995328289794394 49.49999999999999
  endloop
endfacet
facet normal -0.4323045753218303 -0.5633902913547503 0.7040625922196275
  outer loop
    vertex -24.150000000000013 46.2444783427064 48.999999999999986
    vertex -24.314213562373112 46.995328289794394 49.49999999999999
    vertex -24.667766952966378 46.641774899201124 48.999999999999986
  endloop
endfacet
facet normal -0.4323045753218303 -0.5633902913547503 0.7040625922196275
  outer loop
    vertex -24.314213562373112 46.995328289794394 49.49999999999999
    vertex -24.150000000000013 46.2444783427064 48.999999999999986
    vertex -23.90000000000002 46.67749104459862 49.49999999999999
  endloop
endfacet
facet normal -0.27175801689781554 -0.6560818900783212 0.7040625922196296
  outer loop
    vertex -23.547047612756316 45.99472728644483 48.999999999999986
    vertex -23.90000000000002 46.67749104459862 49.49999999999999
    vertex -24.150000000000013 46.2444783427064 48.999999999999986
  endloop
endfacet
facet normal -0.27175801689781554 -0.6560818900783212 0.7040625922196296
  outer loop
    vertex -23.90000000000002 46.67749104459862 49.49999999999999
    vertex -23.547047612756316 45.99472728644483 48.999999999999986
    vertex -23.41763809020506 46.477690199589354 49.49999999999999
  endloop
endfacet
facet normal -0.09269159872357081 -0.7040625922196401 0.7040625922196332
  outer loop
    vertex -22.900000000000016 46.4095418521675 49.49999999999999
    vertex -23.547047612756316 45.99472728644483 48.999999999999986
    vertex -22.900000000000013 45.90954185216749 48.999999999999986
  endloop
endfacet
facet normal -0.09269159872357081 -0.7040625922196401 0.7040625922196332
  outer loop
    vertex -23.547047612756316 45.99472728644483 48.999999999999986
    vertex -22.900000000000016 46.4095418521675 49.49999999999999
    vertex -23.41763809020506 46.477690199589354 49.49999999999999
  endloop
endfacet
facet normal 0.09269159872356969 -0.7040625922196391 0.7040625922196342
  outer loop
    vertex -22.382361909794973 46.477690199589354 49.49999999999999
    vertex -22.900000000000013 45.90954185216749 48.999999999999986
    vertex -22.252952387243703 45.99472728644483 48.999999999999986
  endloop
endfacet
facet normal 0.09269159872356969 -0.7040625922196391 0.7040625922196342
  outer loop
    vertex -22.900000000000013 45.90954185216749 48.999999999999986
    vertex -22.382361909794973 46.477690199589354 49.49999999999999
    vertex -22.900000000000016 46.4095418521675 49.49999999999999
  endloop
endfacet
facet normal 0.27175801689781326 -0.6560818900783174 0.7040625922196339
  outer loop
    vertex -22.252952387243703 45.99472728644483 48.999999999999986
    vertex -21.900000000000013 46.67749104459862 49.49999999999999
    vertex -22.382361909794973 46.477690199589354 49.49999999999999
  endloop
endfacet
facet normal 0.27175801689781326 -0.6560818900783174 0.7040625922196339
  outer loop
    vertex -21.900000000000013 46.67749104459862 49.49999999999999
    vertex -22.252952387243703 45.99472728644483 48.999999999999986
    vertex -21.650000000000006 46.2444783427064 48.999999999999986
  endloop
endfacet
facet normal 0.43230457532182764 -0.563390291354743 0.7040625922196352
  outer loop
    vertex -21.650000000000006 46.2444783427064 48.999999999999986
    vertex -21.485786437626917 46.9953282897944 49.49999999999999
    vertex -21.900000000000013 46.67749104459862 49.49999999999999
  endloop
endfacet
facet normal 0.43230457532182764 -0.563390291354743 0.7040625922196352
  outer loop
    vertex -21.485786437626917 46.9953282897944 49.49999999999999
    vertex -21.650000000000006 46.2444783427064 48.999999999999986
    vertex -21.13223304703364 46.641774899201124 48.999999999999986
  endloop
endfacet
facet normal 0.5633902913547417 -0.4323045753218284 0.7040625922196355
  outer loop
    vertex -21.13223304703364 46.641774899201124 48.999999999999986
    vertex -21.167949192431138 47.40954185216749 49.49999999999999
    vertex -21.485786437626917 46.9953282897944 49.49999999999999
  endloop
endfacet
facet normal 0.5633902913547417 -0.4323045753218284 0.7040625922196355
  outer loop
    vertex -21.167949192431138 47.40954185216749 49.49999999999999
    vertex -21.13223304703364 46.641774899201124 48.999999999999986
    vertex -20.734936490538907 47.1595418521675 48.999999999999986
  endloop
endfacet
facet normal 0.6560818900783171 -0.2717580168978088 0.7040625922196361
  outer loop
    vertex -20.734936490538907 47.1595418521675 48.999999999999986
    vertex -20.968148347421877 47.89190376196245 49.49999999999999
    vertex -21.167949192431138 47.40954185216749 49.49999999999999
  endloop
endfacet
facet normal 0.6560818900783171 -0.2717580168978088 0.7040625922196361
  outer loop
    vertex -20.968148347421877 47.89190376196245 49.49999999999999
    vertex -20.734936490538907 47.1595418521675 48.999999999999986
    vertex -20.48518543427734 47.76249423941119 48.999999999999986
  endloop
endfacet
facet normal 0.7040625922196373 -0.0926915987235736 0.7040625922196355
  outer loop
    vertex -20.40000000000001 48.40954185216749 48.999999999999986
    vertex -20.968148347421877 47.89190376196245 49.49999999999999
    vertex -20.48518543427734 47.76249423941119 48.999999999999986
  endloop
endfacet
facet normal 0.7040625922196373 -0.0926915987235736 0.7040625922196355
  outer loop
    vertex -20.968148347421877 47.89190376196245 49.49999999999999
    vertex -20.40000000000001 48.40954185216749 48.999999999999986
    vertex -20.900000000000013 48.40954185216749 49.49999999999999
  endloop
endfacet
facet normal 0.7040625922196365 0.09269159872357458 0.7040625922196363
  outer loop
    vertex -20.48518543427734 49.056589464923796 48.999999999999986
    vertex -20.900000000000013 48.40954185216749 49.49999999999999
    vertex -20.40000000000001 48.40954185216749 48.999999999999986
  endloop
endfacet
facet normal 0.7040625922196365 0.09269159872357458 0.7040625922196363
  outer loop
    vertex -20.900000000000013 48.40954185216749 49.49999999999999
    vertex -20.48518543427734 49.056589464923796 48.999999999999986
    vertex -20.968148347421877 48.92717994237254 49.49999999999999
  endloop
endfacet
facet normal 0.6560818900783159 0.2717580168978093 0.7040625922196371
  outer loop
    vertex -20.968148347421877 48.92717994237254 49.49999999999999
    vertex -20.734936490538907 49.65954185216749 48.999999999999986
    vertex -21.167949192431138 49.40954185216749 49.49999999999999
  endloop
endfacet
facet normal 0.6560818900783159 0.2717580168978093 0.7040625922196371
  outer loop
    vertex -20.734936490538907 49.65954185216749 48.999999999999986
    vertex -20.968148347421877 48.92717994237254 49.49999999999999
    vertex -20.48518543427734 49.056589464923796 48.999999999999986
  endloop
endfacet
facet normal 0.5633902913547453 0.43230457532182504 0.7040625922196349
  outer loop
    vertex -21.167949192431138 49.40954185216749 49.49999999999999
    vertex -21.13223304703364 50.17730880513386 48.999999999999986
    vertex -21.485786437626917 49.82375541454059 49.49999999999999
  endloop
endfacet
facet normal 0.5633902913547453 0.43230457532182504 0.7040625922196349
  outer loop
    vertex -21.13223304703364 50.17730880513386 48.999999999999986
    vertex -21.167949192431138 49.40954185216749 49.49999999999999
    vertex -20.734936490538907 49.65954185216749 48.999999999999986
  endloop
endfacet
facet normal 0.4323045753218263 0.5633902913547465 0.704062592219633
  outer loop
    vertex -21.485786437626917 49.82375541454059 49.49999999999999
    vertex -21.650000000000006 50.57460536162859 48.999999999999986
    vertex -21.900000000000013 50.141592659736375 49.49999999999999
  endloop
endfacet
facet normal 0.4323045753218263 0.5633902913547465 0.704062592219633
  outer loop
    vertex -21.650000000000006 50.57460536162859 48.999999999999986
    vertex -21.485786437626917 49.82375541454059 49.49999999999999
    vertex -21.13223304703364 50.17730880513386 48.999999999999986
  endloop
endfacet
facet normal 0.2717580168978158 0.6560818900783144 0.7040625922196359
  outer loop
    vertex -21.900000000000013 50.141592659736375 49.49999999999999
    vertex -22.252952387243703 50.82435641789017 48.999999999999986
    vertex -22.382361909794973 50.34139350474563 49.49999999999999
  endloop
endfacet
facet normal 0.2717580168978158 0.6560818900783144 0.7040625922196359
  outer loop
    vertex -22.252952387243703 50.82435641789017 48.999999999999986
    vertex -21.900000000000013 50.141592659736375 49.49999999999999
    vertex -21.650000000000006 50.57460536162859 48.999999999999986
  endloop
endfacet
facet normal 0.0926915987235726 0.7040625922196369 0.7040625922196361
  outer loop
    vertex -22.900000000000013 50.40954185216749 49.49999999999999
    vertex -22.252952387243703 50.82435641789017 48.999999999999986
    vertex -22.900000000000013 50.9095418521675 48.999999999999986
  endloop
endfacet
facet normal 0.0926915987235726 0.7040625922196369 0.7040625922196361
  outer loop
    vertex -22.252952387243703 50.82435641789017 48.999999999999986
    vertex -22.900000000000013 50.40954185216749 49.49999999999999
    vertex -22.382361909794973 50.34139350474563 49.49999999999999
  endloop
endfacet
facet normal -0.09269159872357445 0.7040625922196379 0.7040625922196349
  outer loop
    vertex -23.417638090205056 50.34139350474563 49.49999999999999
    vertex -22.900000000000013 50.9095418521675 48.999999999999986
    vertex -23.547047612756305 50.82435641789017 48.999999999999986
  endloop
endfacet
facet normal -0.09269159872357445 0.7040625922196379 0.7040625922196349
  outer loop
    vertex -22.900000000000013 50.9095418521675 48.999999999999986
    vertex -23.417638090205056 50.34139350474563 49.49999999999999
    vertex -22.900000000000013 50.40954185216749 49.49999999999999
  endloop
endfacet
facet normal -0.2717580168978188 0.6560818900783201 0.7040625922196292
  outer loop
    vertex -23.900000000000016 50.141592659736375 49.49999999999999
    vertex -23.547047612756305 50.82435641789017 48.999999999999986
    vertex -24.150000000000002 50.57460536162859 48.999999999999986
  endloop
endfacet
facet normal -0.2717580168978188 0.6560818900783201 0.7040625922196292
  outer loop
    vertex -23.547047612756305 50.82435641789017 48.999999999999986
    vertex -23.900000000000016 50.141592659736375 49.49999999999999
    vertex -23.417638090205056 50.34139350474563 49.49999999999999
  endloop
endfacet
facet normal -0.4323045753218284 0.5633902913547514 0.7040625922196279
  outer loop
    vertex -24.31421356237311 49.823755414540585 49.49999999999999
    vertex -24.150000000000002 50.57460536162859 48.999999999999986
    vertex -24.667766952966378 50.17730880513386 48.999999999999986
  endloop
endfacet
facet normal -0.4323045753218284 0.5633902913547514 0.7040625922196279
  outer loop
    vertex -24.150000000000002 50.57460536162859 48.999999999999986
    vertex -24.31421356237311 49.823755414540585 49.49999999999999
    vertex -23.900000000000016 50.141592659736375 49.49999999999999
  endloop
endfacet
facet normal -0.5633902913547505 0.4323045753218306 0.7040625922196273
  outer loop
    vertex -24.63205080756889 49.4095418521675 49.49999999999999
    vertex -24.667766952966378 50.17730880513386 48.999999999999986
    vertex -25.065063509461098 49.6595418521675 48.999999999999986
  endloop
endfacet
facet normal -0.5633902913547505 0.4323045753218306 0.7040625922196273
  outer loop
    vertex -24.667766952966378 50.17730880513386 48.999999999999986
    vertex -24.63205080756889 49.4095418521675 49.49999999999999
    vertex -24.31421356237311 49.823755414540585 49.49999999999999
  endloop
endfacet
facet normal -0.6560818900783245 0.2717580168978178 0.7040625922196256
  outer loop
    vertex -24.831851652578152 48.92717994237253 49.49999999999999
    vertex -25.065063509461098 49.6595418521675 48.999999999999986
    vertex -25.314814565722678 49.056589464923796 48.999999999999986
  endloop
endfacet
facet normal -0.6560818900783245 0.2717580168978178 0.7040625922196256
  outer loop
    vertex -25.065063509461098 49.6595418521675 48.999999999999986
    vertex -24.831851652578152 48.92717994237253 49.49999999999999
    vertex -24.63205080756889 49.4095418521675 49.49999999999999
  endloop
endfacet
facet normal -0.9914448613738098 0.13052619222005613 -1.4762265837382865e-31
  outer loop
    vertex -25.314814565722678 49.056589464923796 48.999999999999986
    vertex -25.40000000000001 48.40954185216749 43.50000000000001
    vertex -25.40000000000001 48.40954185216749 48.999999999999986
  endloop
endfacet
facet normal -0.9914448613738098 0.13052619222005613 -1.4762265837382865e-31
  outer loop
    vertex -25.40000000000001 48.40954185216749 43.50000000000001
    vertex -25.314814565722678 49.056589464923796 48.999999999999986
    vertex -25.314814565722678 49.056589464923796 43.50000000000001
  endloop
endfacet
facet normal 0.0 0.0 1.0
  outer loop
    vertex -24.831851652578152 47.891903761962446 49.49999999999999
    vertex -24.831851652578152 48.92717994237253 49.49999999999999
    vertex -24.900000000000013 48.40954185216749 49.49999999999999
  endloop
endfacet
facet normal 0.0 0.0 1.0
  outer loop
    vertex -24.831851652578152 48.92717994237253 49.49999999999999
    vertex -24.831851652578152 47.891903761962446 49.49999999999999
    vertex -24.63205080756889 49.4095418521675 49.49999999999999
  endloop
endfacet
facet normal 0.0 0.0 1.0
  outer loop
    vertex -24.63205080756889 49.4095418521675 49.49999999999999
    vertex -24.831851652578152 47.891903761962446 49.49999999999999
    vertex -24.63205080756889 47.40954185216749 49.49999999999999
  endloop
endfacet
facet normal 0.0 0.0 1.0
  outer loop
    vertex -24.63205080756889 49.4095418521675 49.49999999999999
    vertex -24.63205080756889 47.40954185216749 49.49999999999999
    vertex -24.314213562373112 46.995328289794394 49.49999999999999
  endloop
endfacet
facet normal 0.0 0.0 1.0
  outer loop
    vertex -24.63205080756889 49.4095418521675 49.49999999999999
    vertex -24.314213562373112 46.995328289794394 49.49999999999999
    vertex -24.31421356237311 49.823755414540585 49.49999999999999
  endloop
endfacet
facet normal 0.0 0.0 1.0
  outer loop
    vertex -24.31421356237311 49.823755414540585 49.49999999999999
    vertex -24.314213562373112 46.995328289794394 49.49999999999999
    vertex -23.90000000000002 46.67749104459862 49.49999999999999
  endloop
endfacet
facet normal 0.0 0.0 1.0
  outer loop
    vertex -24.31421356237311 49.823755414540585 49.49999999999999
    vertex -23.90000000000002 46.67749104459862 49.49999999999999
    vertex -23.900000000000016 50.141592659736375 49.49999999999999
  endloop
endfacet
facet normal 0.0 0.0 1.0
  outer loop
    vertex -23.900000000000016 50.141592659736375 49.49999999999999
    vertex -23.90000000000002 46.67749104459862 49.49999999999999
    vertex -23.41763809020506 46.477690199589354 49.49999999999999
  endloop
endfacet
facet normal 0.0 0.0 1.0
  outer loop
    vertex -23.900000000000016 50.141592659736375 49.49999999999999
    vertex -23.41763809020506 46.477690199589354 49.49999999999999
    vertex -23.417638090205056 50.34139350474563 49.49999999999999
  endloop
endfacet
facet normal 0.0 0.0 1.0
  outer loop
    vertex -23.417638090205056 50.34139350474563 49.49999999999999
    vertex -23.41763809020506 46.477690199589354 49.49999999999999
    vertex -22.900000000000016 46.4095418521675 49.49999999999999
  endloop
endfacet
facet normal 0.0 0.0 1.0
  outer loop
    vertex -23.417638090205056 50.34139350474563 49.49999999999999
    vertex -22.900000000000016 46.4095418521675 49.49999999999999
    vertex -22.900000000000013 50.40954185216749 49.49999999999999
  endloop
endfacet
facet normal 0.0 0.0 1.0
  outer loop
    vertex -22.900000000000013 50.40954185216749 49.49999999999999
    vertex -22.900000000000016 46.4095418521675 49.49999999999999
    vertex -22.382361909794973 46.477690199589354 49.49999999999999
  endloop
endfacet
facet normal 0.0 0.0 1.0
  outer loop
    vertex -22.900000000000013 50.40954185216749 49.49999999999999
    vertex -22.382361909794973 46.477690199589354 49.49999999999999
    vertex -22.382361909794973 50.34139350474563 49.49999999999999
  endloop
endfacet
facet normal 0.0 0.0 1.0
  outer loop
    vertex -22.382361909794973 50.34139350474563 49.49999999999999
    vertex -22.382361909794973 46.477690199589354 49.49999999999999
    vertex -21.900000000000013 46.67749104459862 49.49999999999999
  endloop
endfacet
facet normal 0.0 0.0 1.0
  outer loop
    vertex -22.382361909794973 50.34139350474563 49.49999999999999
    vertex -21.900000000000013 46.67749104459862 49.49999999999999
    vertex -21.900000000000013 50.141592659736375 49.49999999999999
  endloop
endfacet
facet normal 0.0 0.0 1.0
  outer loop
    vertex -21.900000000000013 50.141592659736375 49.49999999999999
    vertex -21.900000000000013 46.67749104459862 49.49999999999999
    vertex -21.485786437626917 46.9953282897944 49.49999999999999
  endloop
endfacet
facet normal 0.0 0.0 1.0
  outer loop
    vertex -21.900000000000013 50.141592659736375 49.49999999999999
    vertex -21.485786437626917 46.9953282897944 49.49999999999999
    vertex -21.485786437626917 49.82375541454059 49.49999999999999
  endloop
endfacet
facet normal 0.0 0.0 1.0
  outer loop
    vertex -21.485786437626917 49.82375541454059 49.49999999999999
    vertex -21.485786437626917 46.9953282897944 49.49999999999999
    vertex -21.167949192431138 47.40954185216749 49.49999999999999
  endloop
endfacet
facet normal 0.0 0.0 1.0
  outer loop
    vertex -21.485786437626917 49.82375541454059 49.49999999999999
    vertex -21.167949192431138 47.40954185216749 49.49999999999999
    vertex -21.167949192431138 49.40954185216749 49.49999999999999
  endloop
endfacet
facet normal 0.0 0.0 1.0
  outer loop
    vertex -21.167949192431138 49.40954185216749 49.49999999999999
    vertex -21.167949192431138 47.40954185216749 49.49999999999999
    vertex -20.968148347421877 47.89190376196245 49.49999999999999
  endloop
endfacet
facet normal 0.0 0.0 1.0
  outer loop
    vertex -21.167949192431138 49.40954185216749 49.49999999999999
    vertex -20.968148347421877 47.89190376196245 49.49999999999999
    vertex -20.968148347421877 48.92717994237254 49.49999999999999
  endloop
endfacet
facet normal 0.0 0.0 1.0
  outer loop
    vertex -20.968148347421877 48.92717994237254 49.49999999999999
    vertex -20.968148347421877 47.89190376196245 49.49999999999999
    vertex -20.900000000000013 48.40954185216749 49.49999999999999
  endloop
endfacet
endsolid TickTackBoom
