  0
SECTION
  2
HEADER
  9
$ACADVER
  1
AC1014
  9
$ACADMAINTVER
 70
     9
  9
$DWGCODEPAGE
  3
ANSI_1252
  9
$INSBASE
 10
0.0
 20
0.0
 30
0.0
  9
$EXTMIN
 10
1.000000000000000E+20
 20
1.000000000000000E+20
 30
1.000000000000000E+20
  9
$EXTMAX
 10
-1.000000000000000E+20
 20
-1.000000000000000E+20
 30
-1.000000000000000E+20
  9
$LIMMIN
 10
0.0
 20
0.0
  9
$LIMMAX
 10
12.0
 20
9.0
  9
$ORTHOMODE
 70
     0
  9
$REGENMODE
 70
     1
  9
$FILLMODE
 70
     1
  9
$QTEXTMODE
 70
     0
  9
$MIRRTEXT
 70
     1
  9
$DRAGMODE
 70
     2
  9
$LTSCALE
 40
1.0
  9
$OSMODE
 70
    37
  9
$ATTMODE
 70
     1
  9
$TEXTSIZE
 40
0.2
  9
$TRACEWID
 40
0.05
  9
$TEXTSTYLE
  7
STANDARD
  9
$CLAYER
  8
0
  9
$CELTYPE
  6
BYLAYER
  9
$CECOLOR
 62
   256
  9
$CELTSCALE
 40
1.0
  9
$DELOBJ
 70
     1
  9
$DISPSILH
 70
     0
  9
$DIMSCALE
 40
1.0
  9
$DIMASZ
 40
0.18
  9
$DIMEXO
 40
0.0625
  9
$DIMDLI
 40
0.38
  9
$DIMRND
 40
0.0
  9
$DIMDLE
 40
0.0
  9
$DIMEXE
 40
0.18
  9
$DIMTP
 40
0.0
  9
$DIMTM
 40
0.0
  9
$DIMTXT
 40
0.18
  9
$DIMCEN
 40
0.09
  9
$DIMTSZ
 40
0.0
  9
$DIMTOL
 70
     0
  9
$DIMLIM
 70
     0
  9
$DIMTIH
 70
     1
  9
$DIMTOH
 70
     1
  9
$DIMSE1
 70
     0
  9
$DIMSE2
 70
     0
  9
$DIMTAD
 70
     0
  9
$DIMZIN
 70
     0
  9
$DIMBLK
  1

  9
$DIMASO
 70
     1
  9
$DIMSHO
 70
     1
  9
$DIMPOST
  1

  9
$DIMAPOST
  1

  9
$DIMALT
 70
     0
  9
$DIMALTD
 70
     2
  9
$DIMALTF
 40
25.4
  9
$DIMLFAC
 40
1.0
  9
$DIMTOFL
 70
     0
  9
$DIMTVP
 40
0.0
  9
$DIMTIX
 70
     0
  9
$DIMSOXD
 70
     0
  9
$DIMSAH
 70
     0
  9
$DIMBLK1
  1

  9
$DIMBLK2
  1

  9
$DIMSTYLE
  2
STANDARD
  9
$DIMCLRD
 70
     0
  9
$DIMCLRE
 70
     0
  9
$DIMCLRT
 70
     0
  9
$DIMTFAC
 40
1.0
  9
$DIMGAP
 40
0.09
  9
$DIMJUST
 70
     0
  9
$DIMSD1
 70
     0
  9
$DIMSD2
 70
     0
  9
$DIMTOLJ
 70
     1
  9
$DIMTZIN
 70
     0
  9
$DIMALTZ
 70
     0
  9
$DIMALTTZ
 70
     0
  9
$DIMFIT
 70
     3
  9
$DIMUPT
 70
     0
  9
$DIMUNIT
 70
     2
  9
$DIMDEC
 70
     4
  9
$DIMTDEC
 70
     4
  9
$DIMALTU
 70
     2
  9
$DIMALTTD
 70
     2
  9
$DIMTXSTY
  7
STANDARD
  9
$DIMAUNIT
 70
     0
  9
$LUNITS
 70
     2
  9
$LUPREC
 70
     4
  9
$SKETCHINC
 40
0.1
  9
$FILLETRAD
 40
0.5
  9
$AUNITS
 70
     0
  9
$AUPREC
 70
     0
  9
$MENU
  1
.
  9
$ELEVATION
 40
0.0
  9
$PELEVATION
 40
0.0
  9
$THICKNESS
 40
0.0
  9
$LIMCHECK
 70
     0
  9
$CHAMFERA
 40
0.0
  9
$CHAMFERB
 40
0.0
  9
$CHAMFERC
 40
0.0
  9
$CHAMFERD
 40
0.0
  9
$SKPOLY
 70
     0
  9
$TDCREATE
 40
2458162.580110984
  9
$TDUPDATE
 40
2458162.580111481
  9
$TDINDWG
 40
0.0000000116
  9
$TDUSRTIMER
 40
0.0000000116
  9
$USRTIMER
 70
     1
  9
$ANGBASE
 50
0.0
  9
$ANGDIR
 70
     0
  9
$PDMODE
 70
     0
  9
$PDSIZE
 40
0.0
  9
$PLINEWID
 40
0.0
  9
$COORDS
 70
     1
  9
$SPLFRAME
 70
     0
  9
$SPLINETYPE
 70
     6
  9
$SPLINESEGS
 70
     8
  9
$ATTDIA
 70
     0
  9
$ATTREQ
 70
     1
  9
$HANDLING
 70
     1
  9
$HANDSEED
  5
146
  9
$SURFTAB1
 70
     6
  9
$SURFTAB2
 70
     6
  9
$SURFTYPE
 70
     6
  9
$SURFU
 70
     6
  9
$SURFV
 70
     6
  9
$UCSNAME
  2

  9
$UCSORG
 10
0.0
 20
0.0
 30
0.0
  9
$UCSXDIR
 10
1.0
 20
0.0
 30
0.0
  9
$UCSYDIR
 10
0.0
 20
1.0
 30
0.0
  9
$PUCSNAME
  2

  9
$PUCSORG
 10
0.0
 20
0.0
 30
0.0
  9
$PUCSXDIR
 10
1.0
 20
0.0
 30
0.0
  9
$PUCSYDIR
 10
0.0
 20
1.0
 30
0.0
  9
$USERI1
 70
     0
  9
$USERI2
 70
     0
  9
$USERI3
 70
     0
  9
$USERI4
 70
     0
  9
$USERI5
 70
     0
  9
$USERR1
 40
0.0
  9
$USERR2
 40
0.0
  9
$USERR3
 40
0.0
  9
$USERR4
 40
0.0
  9
$USERR5
 40
0.0
  9
$WORLDVIEW
 70
     1
  9
$SHADEDGE
 70
     3
  9
$SHADEDIF
 70
    70
  9
$TILEMODE
 70
     1
  9
$MAXACTVP
 70
    64
  9
$PINSBASE
 10
0.0
 20
0.0
 30
0.0
  9
$PLIMCHECK
 70
     0
  9
$PEXTMIN
 10
1.000000000000000E+20
 20
1.000000000000000E+20
 30
1.000000000000000E+20
  9
$PEXTMAX
 10
-1.000000000000000E+20
 20
-1.000000000000000E+20
 30
-1.000000000000000E+20
  9
$PLIMMIN
 10
0.0
 20
0.0
  9
$PLIMMAX
 10
12.0
 20
9.0
  9
$UNITMODE
 70
     0
  9
$VISRETAIN
 70
     1
  9
$PLINEGEN
 70
     0
  9
$PSLTSCALE
 70
     1
  9
$TREEDEPTH
 70
  3020
  9
$PICKSTYLE
 70
     1
  9
$CMLSTYLE
  2
STANDARD
  9
$CMLJUST
 70
     0
  9
$CMLSCALE
 40
1.0
  9
$PROXYGRAPHICS
 70
     1
  9
$MEASUREMENT
 70
     1
  0
ENDSEC
  0
SECTION
  2
CLASSES
  0
CLASS
  1
ACDBDICTIONARYWDFLT
  2
AcDbDictionaryWithDefault
  3
ObjectDBX Classes
 90
        0
280
     0
281
     0
  0
CLASS
  1
VISUALSTYLE
  2
AcDbVisualStyle
  3
ObjectDBX Classes
 90
     4095
280
     0
281
     0
  0
CLASS
  1
MATERIAL
  2
AcDbMaterial
  3
ObjectDBX Classes
 90
     1153
280
     0
281
     0
  0
CLASS
  1
SCALE
  2
AcDbScale
  3
ObjectDBX Classes
 90
     1153
280
     0
281
     0
  0
CLASS
  1
TABLESTYLE
  2
AcDbTableStyle
  3
ObjectDBX Classes
 90
     4095
280
     0
281
     0
  0
CLASS
  1
MLEADERSTYLE
  2
AcDbMLeaderStyle
  3
ACDB_MLEADERSTYLE_CLASS
 90
     4095
280
     0
281
     0
  0
CLASS
  1
SUN
  2
AcDbSun
  3
SCENEOE
 90
     1153
280
     0
281
     0
  0
CLASS
  1
DICTIONARYVAR
  2
AcDbDictionaryVar
  3
ObjectDBX Classes
 90
        0
280
     0
281
     0
  0
CLASS
  1
XRECORD
  2
AcDbXrecord
  3
ObjectDBX Classes
 90
        0
280
     0
281
     0
  0
CLASS
  1
LWPOLYLINE
  2
AcDbPolyline
  3
ObjectDBX Classes
 90
        0
280
     0
281
     1
  0
CLASS
  1
HATCH
  2
AcDbHatch
  3
ObjectDBX Classes
 90
        0
280
     0
281
     1
  0
CLASS
  1
ACDBPLACEHOLDER
  2
AcDbPlaceHolder
  3
ObjectDBX Classes
 90
        0
280
     0
281
     0
  0
CLASS
  1
LAYOUT
  2
AcDbLayout
  3
ObjectDBX Classes
 90
        0
280
     0
281
     0
  0
ENDSEC
  0
SECTION
  2
TABLES
  0
TABLE
  2
VPORT
  5
8
102
{ACAD_XDICTIONARY
360
13B
102
}
330
0
100
AcDbSymbolTable
 70
     1
  0
VPORT
  5
29
330
8
100
AcDbSymbolTableRecord
100
AcDbViewportTableRecord
  2
*ACTIVE
 70
     0
 10
0.0
 20
0.0
 11
1.0
 21
1.0
 12
0.0
 22
0.0
 13
0.0
 23
0.0
 14
0.5
 24
0.5
 15
0.5
 25
0.5
 16
0.0
 26
0.0
 36
1.0
 17
0.0
 27
0.0
 37
-1000.0
 40
136.7654084972716
 41
1.523378582202112
 42
50.0
 43
129.2380165771331
 44
274.4262114649947
 50
0.0
 51
0.0
 71
     0
 72
   100
 73
     1
 74
     3
 75
     0
 76
     0
 77
     0
 78
     0
  0
ENDTAB
  0
TABLE
  2
LTYPE
  5
5
330
0
100
AcDbSymbolTable
 70
     1
  0
LTYPE
  5
14
330
5
100
AcDbSymbolTableRecord
100
AcDbLinetypeTableRecord
  2
BYBLOCK
 70
     0
  3

 72
    65
 73
     0
 40
0.0
  0
LTYPE
  5
15
330
5
100
AcDbSymbolTableRecord
100
AcDbLinetypeTableRecord
  2
BYLAYER
 70
     0
  3

 72
    65
 73
     0
 40
0.0
  0
LTYPE
  5
16
330
5
100
AcDbSymbolTableRecord
100
AcDbLinetypeTableRecord
  2
CONTINUOUS
 70
     0
  3
Solid line
 72
    65
 73
     0
 40
0.0
  0
ENDTAB
  0
TABLE
  2
LAYER
  5
2
330
0
100
AcDbSymbolTable
 70
     3
  0
LAYER
  5
10
330
2
100
AcDbSymbolTableRecord
100
AcDbLayerTableRecord
  2
0
 70
     0
 62
     7
  6
CONTINUOUS
  0
LAYER
  5
6E
330
2
100
AcDbSymbolTableRecord
100
AcDbLayerTableRecord
  2
PROFILEEDGES
 70
     0
 62
     7
  6
CONTINUOUS
  0
LAYER
  5
6F
330
2
100
AcDbSymbolTableRecord
100
AcDbLayerTableRecord
  2
SECTIONCUTEDGES
 70
     0
 62
     7
  6
CONTINUOUS
  0
ENDTAB
  0
TABLE
  2
STYLE
  5
3
330
0
100
AcDbSymbolTable
 70
     1
  0
STYLE
  5
11
330
3
100
AcDbSymbolTableRecord
100
AcDbTextStyleTableRecord
  2
STANDARD
 70
     0
 40
0.0
 41
1.0
 50
0.0
 71
     0
 42
0.2
  3
txt
  4

  0
ENDTAB
  0
TABLE
  2
VIEW
  5
6
330
0
100
AcDbSymbolTable
 70
     0
  0
ENDTAB
  0
TABLE
  2
UCS
  5
7
330
0
100
AcDbSymbolTable
 70
     0
  0
ENDTAB
  0
TABLE
  2
APPID
  5
9
330
0
100
AcDbSymbolTable
 70
     2
  0
APPID
  5
12
330
9
100
AcDbSymbolTableRecord
100
AcDbRegAppTableRecord
  2
ACAD
 70
     0
  0
APPID
  5
145
330
9
100
AcDbSymbolTableRecord
100
AcDbRegAppTableRecord
  2
ACAD_MLEADERVER
 70
     0
  0
ENDTAB
  0
TABLE
  2
DIMSTYLE
  5
A
330
0
100
AcDbSymbolTable
 70
     1
  0
DIMSTYLE
105
27
330
A
100
AcDbSymbolTableRecord
100
AcDbDimStyleTableRecord
  2
STANDARD
 70
     0
  3

  4

  5

  6

  7

 40
1.0
 41
0.18
 42
0.0625
 43
0.38
 44
0.18
 45
0.0
 46
0.0
 47
0.0
 48
0.0
140
0.18
141
0.09
142
0.0
143
25.4
144
1.0
145
0.0
146
1.0
147
0.09
 71
     0
 72
     0
 73
     1
 74
     1
 75
     0
 76
     0
 77
     0
 78
     0
170
     0
171
     2
172
     0
173
     0
174
     0
175
     0
176
     0
177
     0
178
     0
270
     2
271
     4
272
     4
273
     2
274
     2
340
11
275
     0
280
     0
281
     0
282
     0
283
     1
284
     0
285
     0
286
     0
287
     3
288
     0
  0
ENDTAB
  0
TABLE
  2
BLOCK_RECORD
  5
1
330
0
100
AcDbSymbolTable
 70
     1
  0
BLOCK_RECORD
  5
1F
330
1
100
AcDbSymbolTableRecord
100
AcDbBlockTableRecord
  2
*MODEL_SPACE
  0
BLOCK_RECORD
  5
1B
330
1
100
AcDbSymbolTableRecord
100
AcDbBlockTableRecord
  2
*PAPER_SPACE
  0
ENDTAB
  0
ENDSEC
  0
SECTION
  2
BLOCKS
  0
BLOCK
  5
20
330
1F
100
AcDbEntity
  8
0
100
AcDbBlockBegin
  2
*MODEL_SPACE
 70
     0
 10
0.0
 20
0.0
 30
0.0
  3
*MODEL_SPACE
  1

  0
ENDBLK
  5
21
330
1F
100
AcDbEntity
  8
0
100
AcDbBlockEnd
  0
BLOCK
  5
1C
330
1B
100
AcDbEntity
 67
     1
  8
0
100
AcDbBlockBegin
  2
*PAPER_SPACE
 70
     0
 10
0.0
 20
0.0
 30
0.0
  3
*PAPER_SPACE
  1

  0
ENDBLK
  5
1D
330
1B
100
AcDbEntity
 67
     1
  8
0
100
AcDbBlockEnd
  0
ENDSEC
  0
SECTION
  2
ENTITIES
  0
LINE
  5
70
330
1F
100
AcDbEntity
  8
0
100
AcDbLine
 10
-7.981098048731833
 20
-27.32365641116299
 30
0.0
 11
-8.284021328083083
 21
-27.19818148049718
 31
0.0
  0
LINE
  5
71
330
1F
100
AcDbEntity
  8
0
100
AcDbLine
 10
-7.656021328083086
 20
-27.36645357334391
 30
0.0
 11
-7.981098048731833
 21
-27.32365641116299
 31
0.0
  0
LINE
  5
72
330
1F
100
AcDbEntity
  8
0
100
AcDbLine
 10
-7.330944607434317
 20
-27.32365641116299
 30
0.0
 11
-7.656021328083086
 21
-27.36645357334391
 31
0.0
  0
LINE
  5
73
330
1F
100
AcDbEntity
  8
0
100
AcDbLine
 10
-7.028021328083043
 20
-27.19818148049715
 30
0.0
 11
-7.330944607434317
 21
-27.32365641116299
 31
0.0
  0
LINE
  5
74
330
1F
100
AcDbEntity
  8
0
100
AcDbLine
 10
-6.767895210912737
 20
-26.99857969051426
 30
0.0
 11
-7.028021328083043
 21
-27.19818148049715
 31
0.0
  0
LINE
  5
75
330
1F
100
AcDbEntity
  8
0
100
AcDbLine
 10
-6.568293420929778
 20
-26.73845357334394
 30
0.0
 11
-6.767895210912737
 21
-26.99857969051426
 31
0.0
  0
LINE
  5
76
330
1F
100
AcDbEntity
  8
0
100
AcDbLine
 10
-6.442818490264059
 20
-26.43553029399268
 30
0.0
 11
-6.568293420929778
 21
-26.73845357334394
 31
0.0
  0
LINE
  5
77
330
1F
100
AcDbEntity
  8
0
100
AcDbLine
 10
-6.400021328083113
 20
-26.11045357334394
 30
0.0
 11
-6.442818490264059
 21
-26.43553029399268
 31
0.0
  0
LINE
  5
78
330
1F
100
AcDbEntity
  8
0
100
AcDbLine
 10
-6.442818490264036
 20
-25.78537685269517
 30
0.0
 11
-6.400021328083113
 21
-26.11045357334394
 31
0.0
  0
LINE
  5
79
330
1F
100
AcDbEntity
  8
0
100
AcDbLine
 10
-6.5682934209298
 20
-25.48245357334392
 30
0.0
 11
-6.442818490264036
 21
-25.78537685269517
 31
0.0
  0
LINE
  5
7A
330
1F
100
AcDbEntity
  8
0
100
AcDbLine
 10
-6.767895210912806
 20
-25.22232745617361
 30
0.0
 11
-6.5682934209298
 21
-25.48245357334392
 31
0.0
  0
LINE
  5
7B
330
1F
100
AcDbEntity
  8
0
100
AcDbLine
 10
-7.028021328083021
 20
-25.02272566619072
 30
0.0
 11
-6.767895210912806
 21
-25.22232745617361
 31
0.0
  0
LINE
  5
7C
330
1F
100
AcDbEntity
  8
0
100
AcDbLine
 10
-7.330944607434295
 20
-24.89725073552484
 30
0.0
 11
-7.028021328083021
 21
-25.02272566619072
 31
0.0
  0
LINE
  5
7D
330
1F
100
AcDbEntity
  8
0
100
AcDbLine
 10
-7.656021328083086
 20
-24.85445357334392
 30
0.0
 11
-7.330944607434295
 21
-24.89725073552484
 31
0.0
  0
LINE
  5
7E
330
1F
100
AcDbEntity
  8
0
100
AcDbLine
 10
-7.981098048731833
 20
-24.89725073552486
 30
0.0
 11
-7.656021328083086
 21
-24.85445357334392
 31
0.0
  0
LINE
  5
7F
330
1F
100
AcDbEntity
  8
0
100
AcDbLine
 10
-8.869224165902182
 20
-25.78537685269514
 30
0.0
 11
-8.743749235236349
 21
-25.48245357334394
 31
0.0
  0
LWPOLYLINE
  5
80
330
1F
100
AcDbEntity
  8
PROFILEEDGES
100
AcDbPolyline
 90
        2
 70
     0
 43
0.4125653348333984
 10
21.34397867191684
 20
-30.11045357334373
 10
21.34397867191697
 20
-22.11045357334373
  0
LWPOLYLINE
  5
81
330
1F
100
AcDbEntity
  8
PROFILEEDGES
100
AcDbPolyline
 90
        2
 70
     0
 43
0.4125653348333984
 10
33.94397867191687
 20
-30.11045357334374
 10
33.54397867191687
 20
-30.11045357334374
  0
LWPOLYLINE
  5
82
330
1F
100
AcDbEntity
  8
PROFILEEDGES
100
AcDbPolyline
 90
        2
 70
     0
 43
0.4125653348333984
 10
31.34397867191687
 20
-30.11045357334374
 10
21.34397867191684
 20
-30.11045357334373
  0
LWPOLYLINE
  5
83
330
1F
100
AcDbEntity
  8
PROFILEEDGES
100
AcDbPolyline
 90
        2
 70
     0
 43
0.4125653348333984
 10
-10.55566778511933
 20
-37.41964188254763
 10
-10.98474806613364
 20
-36.86045357334395
  0
LWPOLYLINE
  5
84
330
1F
100
AcDbEntity
  8
PROFILEEDGES
100
AcDbPolyline
 90
        2
 70
     0
 43
0.4125653348333984
 10
-9.996479475915628
 20
-37.84872216356197
 10
-10.55566778511933
 20
-37.41964188254763
  0
LWPOLYLINE
  5
85
330
1F
100
AcDbEntity
  8
PROFILEEDGES
100
AcDbPolyline
 90
        2
 70
     0
 43
0.4125653348333984
 10
-9.345290897692461
 20
-38.11845330432445
 10
-9.996479475915628
 20
-37.84872216356197
  0
LWPOLYLINE
  5
86
330
1F
100
AcDbEntity
  8
PROFILEEDGES
100
AcDbPolyline
 90
        2
 70
     0
 43
0.4125653348333984
 10
-8.646479475915642
 20
-38.21045357334396
 10
-9.345290897692461
 20
-38.11845330432445
  0
LWPOLYLINE
  5
87
330
1F
100
AcDbEntity
  8
PROFILEEDGES
100
AcDbPolyline
 90
        2
 70
     0
 43
0.4125653348333984
 10
-7.947668054138846
 20
-38.11845330432443
 10
-8.646479475915642
 20
-38.21045357334396
  0
LWPOLYLINE
  5
88
330
1F
100
AcDbEntity
  8
PROFILEEDGES
100
AcDbPolyline
 90
        2
 70
     0
 43
0.4125653348333984
 10
-7.296479475915656
 20
-37.84872216356194
 10
-7.947668054138846
 20
-38.11845330432443
  0
LWPOLYLINE
  5
89
330
1F
100
AcDbEntity
  8
PROFILEEDGES
100
AcDbPolyline
 90
        2
 70
     0
 43
0.4125653348333984
 10
31.34397867191699
 20
-22.11045357334373
 10
21.34397867191697
 20
-22.11045357334373
  0
LWPOLYLINE
  5
8A
330
1F
100
AcDbEntity
  8
PROFILEEDGES
100
AcDbPolyline
 90
        2
 70
     0
 43
0.4125653348333984
 10
-10.98474806613364
 20
-36.86045357334395
 10
-11.25447920689615
 20
-36.20926499512075
  0
LWPOLYLINE
  5
8B
330
1F
100
AcDbEntity
  8
PROFILEEDGES
100
AcDbPolyline
 90
        2
 70
     0
 43
0.4125653348333984
 10
-11.25447920689615
 20
-36.20926499512075
 10
-11.34647947591564
 20
-35.51045357334396
  0
LWPOLYLINE
  5
8C
330
1F
100
AcDbEntity
  8
PROFILEEDGES
100
AcDbPolyline
 90
        2
 70
     0
 43
0.4125653348333984
 10
-7.947668054138783
 20
-32.90245384236346
 10
-7.296479475915594
 20
-33.17218498312597
  0
LWPOLYLINE
  5
8D
330
1F
100
AcDbEntity
  8
PROFILEEDGES
100
AcDbPolyline
 90
        2
 70
     0
 43
0.4125653348333984
 10
-8.64647947591558
 20
-32.81045357334397
 10
-7.947668054138783
 20
-32.90245384236346
  0
LWPOLYLINE
  5
8E
330
1F
100
AcDbEntity
  8
PROFILEEDGES
100
AcDbPolyline
 90
        2
 70
     0
 43
0.4125653348333984
 10
-9.345290897692399
 20
-32.90245384236346
 10
-8.64647947591558
 20
-32.81045357334397
  0
LWPOLYLINE
  5
8F
330
1F
100
AcDbEntity
  8
PROFILEEDGES
100
AcDbPolyline
 90
        2
 70
     0
 43
0.4125653348333984
 10
-9.996479475915589
 20
-33.17218498312597
 10
-9.345290897692399
 20
-32.90245384236346
  0
LWPOLYLINE
  5
90
330
1F
100
AcDbEntity
  8
PROFILEEDGES
100
AcDbPolyline
 90
        2
 70
     0
 43
0.4125653348333984
 10
-10.55566778511927
 20
-33.60126526414028
 10
-9.996479475915589
 20
-33.17218498312597
  0
LWPOLYLINE
  5
91
330
1F
100
AcDbEntity
  8
PROFILEEDGES
100
AcDbPolyline
 90
        2
 70
     0
 43
0.4125653348333984
 10
-10.98474806613358
 20
-34.16045357334395
 10
-10.55566778511927
 20
-33.60126526414028
  0
LWPOLYLINE
  5
92
330
1F
100
AcDbEntity
  8
PROFILEEDGES
100
AcDbPolyline
 90
        2
 70
     0
 43
0.4125653348333984
 10
-11.25447920689615
 20
-34.81164215156714
 10
-10.98474806613358
 20
-34.16045357334395
  0
LWPOLYLINE
  5
93
330
1F
100
AcDbEntity
  8
PROFILEEDGES
100
AcDbPolyline
 90
        2
 70
     0
 43
0.4125653348333984
 10
-11.34647947591564
 20
-35.51045357334396
 10
-11.25447920689615
 20
-34.81164215156714
  0
LWPOLYLINE
  5
94
330
1F
100
AcDbEntity
  8
PROFILEEDGES
100
AcDbPolyline
 90
        2
 70
     0
 43
0.4125653348333984
 10
-7.296479475915594
 20
-33.17218498312597
 10
-6.737291166711915
 20
-33.60126526414028
  0
LWPOLYLINE
  5
95
330
1F
100
AcDbEntity
  8
PROFILEEDGES
100
AcDbPolyline
 90
        2
 70
     0
 43
0.4125653348333984
 10
-6.737291166711915
 20
-33.60126526414028
 10
-6.308210885697605
 20
-34.16045357334396
  0
LWPOLYLINE
  5
96
330
1F
100
AcDbEntity
  8
PROFILEEDGES
100
AcDbPolyline
 90
        2
 70
     0
 43
0.4125653348333984
 10
-6.308210885697605
 20
-34.16045357334396
 10
-6.038479744935181
 20
-34.81164215156715
  0
LWPOLYLINE
  5
97
330
1F
100
AcDbEntity
  8
PROFILEEDGES
100
AcDbPolyline
 90
        2
 70
     0
 43
0.4125653348333984
 10
-6.038479744935181
 20
-34.81164215156715
 10
-5.946479475915647
 20
-35.51045357334397
  0
LWPOLYLINE
  5
98
330
1F
100
AcDbEntity
  8
PROFILEEDGES
100
AcDbPolyline
 90
        2
 70
     0
 43
0.4125653348333984
 10
-5.946479475915647
 20
-35.51045357334397
 10
-6.038479744935181
 20
-36.20926499512076
  0
LWPOLYLINE
  5
99
330
1F
100
AcDbEntity
  8
PROFILEEDGES
100
AcDbPolyline
 90
        2
 70
     0
 43
0.4125653348333984
 10
-6.038479744935181
 20
-36.20926499512076
 10
-6.308210885697667
 20
-36.86045357334395
  0
LWPOLYLINE
  5
9A
330
1F
100
AcDbEntity
  8
PROFILEEDGES
100
AcDbPolyline
 90
        2
 70
     0
 43
0.4125653348333984
 10
-6.308210885697667
 20
-36.86045357334395
 10
-6.737291166711977
 20
-37.41964188254763
  0
LWPOLYLINE
  5
9B
330
1F
100
AcDbEntity
  8
PROFILEEDGES
100
AcDbPolyline
 90
        2
 70
     0
 43
0.4125653348333984
 10
-6.737291166711977
 20
-37.41964188254763
 10
-7.296479475915656
 20
-37.84872216356194
  0
LWPOLYLINE
  5
9C
330
1F
100
AcDbEntity
  8
PROFILEEDGES
100
AcDbPolyline
 90
        2
 70
     0
 43
0.4125653348333984
 10
-3.656021328083133
 20
-28.61045357334393
 10
-3.656021328083009
 20
-23.61045357334392
  0
LWPOLYLINE
  5
9D
330
1F
100
AcDbEntity
  8
PROFILEEDGES
100
AcDbPolyline
 90
        2
 70
     0
 43
0.4125653348333984
 10
-3.656021328083009
 20
-23.61045357334392
 10
-11.65602132808308
 20
-23.61045357334392
  0
LWPOLYLINE
  5
9E
330
1F
100
AcDbEntity
  8
PROFILEEDGES
100
AcDbPolyline
 90
        2
 70
     0
 43
0.4125653348333984
 10
-11.65602132808308
 20
-23.61045357334392
 10
-11.65602132808308
 20
-28.61045357334393
  0
LWPOLYLINE
  5
9F
330
1F
100
AcDbEntity
  8
PROFILEEDGES
100
AcDbPolyline
 90
        2
 70
     0
 43
0.4125653348333984
 10
-11.65602132808308
 20
-28.61045357334393
 10
-3.656021328083133
 20
-28.61045357334393
  0
LWPOLYLINE
  5
A0
330
1F
100
AcDbEntity
  8
PROFILEEDGES
100
AcDbPolyline
 90
        2
 70
     0
 43
0.4125653348333984
 10
31.34397867191687
 20
-41.51045357334372
 10
-53.45602132808315
 20
-41.51045357334369
  0
LWPOLYLINE
  5
A1
330
1F
100
AcDbEntity
  8
PROFILEEDGES
100
AcDbPolyline
 90
        2
 70
     0
 43
0.4125653348333984
 10
31.34397867191688
 20
-10.71045357334371
 10
31.34397867191699
 20
-22.11045357334373
  0
LWPOLYLINE
  5
A2
330
1F
100
AcDbEntity
  8
PROFILEEDGES
100
AcDbPolyline
 90
        2
 70
     0
 43
0.4125653348333984
 10
-16.71624429614945
 20
-17.71045357334393
 10
-16.71624429614947
 20
-30.71045357334392
  0
LWPOLYLINE
  5
A3
330
1F
100
AcDbEntity
  8
PROFILEEDGES
100
AcDbPolyline
 90
        2
 70
     0
 43
0.4125653348333984
 10
33.54397867191699
 20
-22.11045357334373
 10
33.54397867191687
 20
-30.11045357334374
  0
LWPOLYLINE
  5
A4
330
1F
100
AcDbEntity
  8
PROFILEEDGES
100
AcDbPolyline
 90
        2
 70
     0
 43
0.4125653348333984
 10
-39.71624429614936
 20
-17.7104535733437
 10
-16.71624429614945
 20
-17.71045357334393
  0
LWPOLYLINE
  5
A5
330
1F
100
AcDbEntity
  8
PROFILEEDGES
100
AcDbPolyline
 90
        2
 70
     0
 43
0.4125653348333984
 10
-16.71624429614947
 20
-30.71045357334392
 10
-39.71624429614948
 20
-30.71045357334369
  0
LWPOLYLINE
  5
A6
330
1F
100
AcDbEntity
  8
PROFILEEDGES
100
AcDbPolyline
 90
        2
 70
     0
 43
0.4125653348333984
 10
-39.71624429614948
 20
-30.71045357334369
 10
-39.71624429614936
 20
-17.7104535733437
  0
LWPOLYLINE
  5
A7
330
1F
100
AcDbEntity
  8
PROFILEEDGES
100
AcDbPolyline
 90
        2
 70
     0
 43
0.4125653348333984
 10
-4.879368753388237
 20
-34.50105929744413
 10
-4.74647947591565
 20
-35.51045357334397
  0
LWPOLYLINE
  5
A8
330
1F
100
AcDbEntity
  8
PROFILEEDGES
100
AcDbPolyline
 90
        2
 70
     0
 43
0.4125653348333984
 10
-5.268980401156281
 20
-33.56045357334396
 10
-4.879368753388237
 20
-34.50105929744413
  0
LWPOLYLINE
  5
A9
330
1F
100
AcDbEntity
  8
PROFILEEDGES
100
AcDbPolyline
 90
        2
 70
     0
 43
0.4125653348333984
 10
-5.888763029288052
 20
-32.75273712671644
 10
-5.268980401156281
 20
-33.56045357334396
  0
LWPOLYLINE
  5
AA
330
1F
100
AcDbEntity
  8
PROFILEEDGES
100
AcDbPolyline
 90
        2
 70
     0
 43
0.4125653348333984
 10
-6.696479475915595
 20
-32.13295449858467
 10
-5.888763029288052
 20
-32.75273712671644
  0
LWPOLYLINE
  5
AB
330
1F
100
AcDbEntity
  8
PROFILEEDGES
100
AcDbPolyline
 90
        2
 70
     0
 43
0.4125653348333984
 10
-7.637085200015765
 20
-31.7433428508166
 10
-6.696479475915595
 20
-32.13295449858467
  0
LWPOLYLINE
  5
AC
330
1F
100
AcDbEntity
  8
PROFILEEDGES
100
AcDbPolyline
 90
        2
 70
     0
 43
0.4125653348333984
 10
-8.64647947591558
 20
-31.61045357334397
 10
-7.637085200015765
 20
-31.7433428508166
  0
LWPOLYLINE
  5
AD
330
1F
100
AcDbEntity
  8
PROFILEEDGES
100
AcDbPolyline
 90
        2
 70
     0
 43
0.4125653348333984
 10
-9.655873751815395
 20
-31.7433428508166
 10
-8.64647947591558
 20
-31.61045357334397
  0
LWPOLYLINE
  5
AE
330
1F
100
AcDbEntity
  8
PROFILEEDGES
100
AcDbPolyline
 90
        2
 70
     0
 43
0.4125653348333984
 10
-10.59647947591557
 20
-32.13295449858467
 10
-9.655873751815395
 20
-31.7433428508166
  0
LWPOLYLINE
  5
AF
330
1F
100
AcDbEntity
  8
PROFILEEDGES
100
AcDbPolyline
 90
        2
 70
     0
 43
0.4125653348333984
 10
-11.40419592254311
 20
-32.75273712671643
 10
-10.59647947591557
 20
-32.13295449858467
  0
LWPOLYLINE
  5
B0
330
1F
100
AcDbEntity
  8
PROFILEEDGES
100
AcDbPolyline
 90
        2
 70
     0
 43
0.4125653348333984
 10
-12.02397855067488
 20
-33.56045357334395
 10
-11.40419592254311
 20
-32.75273712671643
  0
LWPOLYLINE
  5
B1
330
1F
100
AcDbEntity
  8
PROFILEEDGES
100
AcDbPolyline
 90
        2
 70
     0
 43
0.4125653348333984
 10
-12.41359019844295
 20
-34.50105929744412
 10
-12.02397855067488
 20
-33.56045357334395
  0
LWPOLYLINE
  5
B2
330
1F
100
AcDbEntity
  8
PROFILEEDGES
100
AcDbPolyline
 90
        2
 70
     0
 43
0.4125653348333984
 10
-12.54647947591564
 20
-35.51045357334396
 10
-12.41359019844295
 20
-34.50105929744412
  0
LWPOLYLINE
  5
B3
330
1F
100
AcDbEntity
  8
PROFILEEDGES
100
AcDbPolyline
 90
        2
 70
     0
 43
0.4125653348333984
 10
-12.41359019844301
 20
-36.5198478492438
 10
-12.54647947591564
 20
-35.51045357334396
  0
LWPOLYLINE
  5
B4
330
1F
100
AcDbEntity
  8
PROFILEEDGES
100
AcDbPolyline
 90
        2
 70
     0
 43
0.4125653348333984
 10
-12.02397855067494
 20
-37.46045357334395
 10
-12.41359019844301
 20
-36.5198478492438
  0
LWPOLYLINE
  5
B5
330
1F
100
AcDbEntity
  8
PROFILEEDGES
100
AcDbPolyline
 90
        2
 70
     0
 43
0.4125653348333984
 10
-11.40419592254312
 20
-38.26817001997149
 10
-12.02397855067494
 20
-37.46045357334395
  0
LWPOLYLINE
  5
B6
330
1F
100
AcDbEntity
  8
PROFILEEDGES
100
AcDbPolyline
 90
        2
 70
     0
 43
0.4125653348333984
 10
-10.59647947591557
 20
-38.88795264810327
 10
-11.40419592254312
 20
-38.26817001997149
  0
LWPOLYLINE
  5
B7
330
1F
100
AcDbEntity
  8
PROFILEEDGES
100
AcDbPolyline
 90
        2
 70
     0
 43
0.4125653348333984
 10
-9.6558737518154
 20
-39.27756429587133
 10
-10.59647947591557
 20
-38.88795264810327
  0
LWPOLYLINE
  5
B8
330
1F
100
AcDbEntity
  8
PROFILEEDGES
100
AcDbPolyline
 90
        2
 70
     0
 43
0.4125653348333984
 10
-8.646479475915585
 20
-39.41045357334396
 10
-9.6558737518154
 20
-39.27756429587133
  0
LWPOLYLINE
  5
B9
330
1F
100
AcDbEntity
  8
PROFILEEDGES
100
AcDbPolyline
 90
        2
 70
     0
 43
0.4125653348333984
 10
-7.637085200015771
 20
-39.27756429587133
 10
-8.646479475915585
 20
-39.41045357334396
  0
LWPOLYLINE
  5
BA
330
1F
100
AcDbEntity
  8
PROFILEEDGES
100
AcDbPolyline
 90
        2
 70
     0
 43
0.4125653348333984
 10
-6.6964794759156
 20
-38.88795264810327
 10
-7.637085200015771
 20
-39.27756429587133
  0
LWPOLYLINE
  5
BB
330
1F
100
AcDbEntity
  8
PROFILEEDGES
100
AcDbPolyline
 90
        2
 70
     0
 43
0.4125653348333984
 10
-5.888763029288057
 20
-38.26817001997149
 10
-6.6964794759156
 20
-38.88795264810327
  0
LWPOLYLINE
  5
BC
330
1F
100
AcDbEntity
  8
PROFILEEDGES
100
AcDbPolyline
 90
        2
 70
     0
 43
0.4125653348333984
 10
-5.268980401156343
 20
-37.46045357334395
 10
-5.888763029288057
 20
-38.26817001997149
  0
LWPOLYLINE
  5
BD
330
1F
100
AcDbEntity
  8
PROFILEEDGES
100
AcDbPolyline
 90
        2
 70
     0
 43
0.4125653348333984
 10
-4.879368753388299
 20
-36.5198478492438
 10
-5.268980401156343
 20
-37.46045357334395
  0
LWPOLYLINE
  5
BE
330
1F
100
AcDbEntity
  8
PROFILEEDGES
100
AcDbPolyline
 90
        2
 70
     0
 43
0.4125653348333984
 10
-4.74647947591565
 20
-35.51045357334397
 10
-4.879368753388299
 20
-36.5198478492438
  0
LWPOLYLINE
  5
BF
330
1F
100
AcDbEntity
  8
PROFILEEDGES
100
AcDbPolyline
 90
        2
 70
     0
 43
0.4125653348333984
 10
-43.45602132808315
 20
-28.61045357334369
 10
-43.45602132808303
 20
-23.6104535733437
  0
LWPOLYLINE
  5
C0
330
1F
100
AcDbEntity
  8
PROFILEEDGES
100
AcDbPolyline
 90
        2
 70
     0
 43
0.4125653348333984
 10
-43.45602132808303
 20
-23.6104535733437
 10
-53.45602132808303
 20
-23.6104535733437
  0
LWPOLYLINE
  5
C1
330
1F
100
AcDbEntity
  8
PROFILEEDGES
100
AcDbPolyline
 90
        2
 70
     0
 43
0.4125653348333984
 10
-7.716244296149489
 20
-20.71045357334393
 10
-7.716244296149426
 20
-14.71045357334394
  0
LWPOLYLINE
  5
C2
330
1F
100
AcDbEntity
  8
PROFILEEDGES
100
AcDbPolyline
 90
        2
 70
     0
 43
0.4125653348333984
 10
-8.716244296149487
 20
-20.71045357334392
 10
-7.716244296149489
 20
-20.71045357334393
  0
LWPOLYLINE
  5
C3
330
1F
100
AcDbEntity
  8
PROFILEEDGES
100
AcDbPolyline
 90
        2
 70
     0
 43
0.4125653348333984
 10
-8.716244296149425
 20
-14.71045357334394
 10
-8.716244296149487
 20
-20.71045357334392
  0
LWPOLYLINE
  5
C4
330
1F
100
AcDbEntity
  8
PROFILEEDGES
100
AcDbPolyline
 90
        2
 70
     0
 43
0.4125653348333984
 10
-7.716244296149426
 20
-14.71045357334394
 10
-8.716244296149425
 20
-14.71045357334394
  0
LWPOLYLINE
  5
C5
330
1F
100
AcDbEntity
  8
PROFILEEDGES
100
AcDbPolyline
 90
        2
 70
     0
 43
0.4125653348333984
 10
-5.716244296149492
 20
-20.71045357334393
 10
-5.71624429614943
 20
-14.71045357334394
  0
LWPOLYLINE
  5
C6
330
1F
100
AcDbEntity
  8
PROFILEEDGES
100
AcDbPolyline
 90
        2
 70
     0
 43
0.4125653348333984
 10
-6.71624429614949
 20
-20.71045357334393
 10
-5.716244296149492
 20
-20.71045357334393
  0
LWPOLYLINE
  5
C7
330
1F
100
AcDbEntity
  8
PROFILEEDGES
100
AcDbPolyline
 90
        2
 70
     0
 43
0.4125653348333984
 10
-6.716244296149428
 20
-14.71045357334394
 10
-6.71624429614949
 20
-20.71045357334393
  0
LWPOLYLINE
  5
C8
330
1F
100
AcDbEntity
  8
PROFILEEDGES
100
AcDbPolyline
 90
        2
 70
     0
 43
0.4125653348333984
 10
-5.71624429614943
 20
-14.71045357334394
 10
-6.716244296149428
 20
-14.71045357334394
  0
LWPOLYLINE
  5
C9
330
1F
100
AcDbEntity
  8
PROFILEEDGES
100
AcDbPolyline
 90
        2
 70
     0
 43
0.4125653348333984
 10
-3.71624429614949
 20
-20.71045357334393
 10
-3.71624429614949
 20
-14.71045357334394
  0
LWPOLYLINE
  5
CA
330
1F
100
AcDbEntity
  8
PROFILEEDGES
100
AcDbPolyline
 90
        2
 70
     0
 43
0.4125653348333984
 10
-4.716244296149494
 20
-20.71045357334393
 10
-3.71624429614949
 20
-20.71045357334393
  0
LWPOLYLINE
  5
CB
330
1F
100
AcDbEntity
  8
PROFILEEDGES
100
AcDbPolyline
 90
        2
 70
     0
 43
0.4125653348333984
 10
-4.716244296149433
 20
-14.71045357334394
 10
-4.716244296149494
 20
-20.71045357334393
  0
LWPOLYLINE
  5
CC
330
1F
100
AcDbEntity
  8
PROFILEEDGES
100
AcDbPolyline
 90
        2
 70
     0
 43
0.4125653348333984
 10
-3.71624429614949
 20
-14.71045357334394
 10
-4.716244296149433
 20
-14.71045357334394
  0
LWPOLYLINE
  5
CD
330
1F
100
AcDbEntity
  8
PROFILEEDGES
100
AcDbPolyline
 90
        2
 70
     0
 43
0.4125653348333984
 10
-53.45602132808315
 20
-28.61045357334369
 10
-43.45602132808315
 20
-28.61045357334369
  0
LWPOLYLINE
  5
CE
330
1F
100
AcDbEntity
  8
PROFILEEDGES
100
AcDbPolyline
 90
        2
 70
     0
 43
0.4125653348333984
 10
-53.45602132808315
 20
-10.71045357334368
 10
31.34397867191688
 20
-10.71045357334371
  0
LWPOLYLINE
  5
CF
330
1F
100
AcDbEntity
  8
PROFILEEDGES
100
AcDbPolyline
 90
        2
 70
     0
 43
0.4125653348333984
 10
31.34397867191687
 20
-30.11045357334374
 10
31.34397867191687
 20
-41.51045357334372
  0
LWPOLYLINE
  5
D0
330
1F
100
AcDbEntity
  8
PROFILEEDGES
100
AcDbPolyline
 90
        2
 70
     0
 43
0.4125653348333984
 10
-53.45602132808315
 20
-41.51045357334369
 10
-53.45602132808315
 20
-28.61045357334369
  0
LWPOLYLINE
  5
D1
330
1F
100
AcDbEntity
  8
PROFILEEDGES
100
AcDbPolyline
 90
        2
 70
     0
 43
0.4125653348333984
 10
-53.45602132808303
 20
-23.6104535733437
 10
-53.45602132808315
 20
-10.71045357334368
  0
LWPOLYLINE
  5
D2
330
1F
100
AcDbEntity
  8
PROFILEEDGES
100
AcDbPolyline
 90
        2
 70
     0
 43
0.4125653348333984
 10
-48.79248608671639
 20
-27.3661571475195
 10
-49.10602132808308
 20
-27.2362865982635
  0
LWPOLYLINE
  5
D3
330
1F
100
AcDbEntity
  8
PROFILEEDGES
100
AcDbPolyline
 90
        2
 70
     0
 43
0.4125653348333984
 10
-49.10602132808308
 20
-27.2362865982635
 10
-49.3752601436256
 20
-27.0296923888862
  0
LWPOLYLINE
  5
D4
330
1F
100
AcDbEntity
  8
PROFILEEDGES
100
AcDbPolyline
 90
        2
 70
     0
 43
0.4125653348333984
 10
-49.3752601436256
 20
-27.0296923888862
 10
-49.58185435300271
 20
-26.76045357334368
  0
LWPOLYLINE
  5
D5
330
1F
100
AcDbEntity
  8
PROFILEEDGES
100
AcDbPolyline
 90
        2
 70
     0
 43
0.4125653348333984
 10
-49.58185435300271
 20
-26.76045357334368
 10
-49.7117249022588
 20
-26.44691833197695
  0
LWPOLYLINE
  5
D6
330
1F
100
AcDbEntity
  8
PROFILEEDGES
100
AcDbPolyline
 90
        2
 70
     0
 43
0.4125653348333984
 10
-49.7117249022588
 20
-26.44691833197695
 10
-49.75602132808316
 20
-26.11045357334374
  0
LWPOLYLINE
  5
D7
330
1F
100
AcDbEntity
  8
PROFILEEDGES
100
AcDbPolyline
 90
        2
 70
     0
 43
0.4125653348333984
 10
-49.75602132808316
 20
-26.11045357334374
 10
-49.7117249022588
 20
-25.7739888147104
  0
LWPOLYLINE
  5
D8
330
1F
100
AcDbEntity
  8
PROFILEEDGES
100
AcDbPolyline
 90
        2
 70
     0
 43
0.4125653348333984
 10
-49.7117249022588
 20
-25.7739888147104
 10
-49.58185435300278
 20
-25.46045357334366
  0
LWPOLYLINE
  5
D9
330
1F
100
AcDbEntity
  8
PROFILEEDGES
100
AcDbPolyline
 90
        2
 70
     0
 43
0.4125653348333984
 10
-49.58185435300278
 20
-25.46045357334366
 10
-49.37526014362555
 20
-25.19121475780114
  0
LWPOLYLINE
  5
DA
330
1F
100
AcDbEntity
  8
PROFILEEDGES
100
AcDbPolyline
 90
        2
 70
     0
 43
0.4125653348333984
 10
-49.37526014362555
 20
-25.19121475780114
 10
-49.10602132808305
 20
-24.98462054842398
  0
LWPOLYLINE
  5
DB
330
1F
100
AcDbEntity
  8
PROFILEEDGES
100
AcDbPolyline
 90
        2
 70
     0
 43
0.4125653348333984
 10
-49.10602132808305
 20
-24.98462054842398
 10
-48.79248608671624
 20
-24.85474999916789
  0
LWPOLYLINE
  5
DC
330
1F
100
AcDbEntity
  8
PROFILEEDGES
100
AcDbPolyline
 90
        2
 70
     0
 43
0.4125653348333984
 10
-48.79248608671624
 20
-24.85474999916789
 10
-48.45602132808309
 20
-24.81045357334363
  0
LWPOLYLINE
  5
DD
330
1F
100
AcDbEntity
  8
PROFILEEDGES
100
AcDbPolyline
 90
        2
 70
     0
 43
0.4125653348333984
 10
-48.45602132808309
 20
-24.81045357334363
 10
-48.11955656944973
 20
-24.85474999916789
  0
LWPOLYLINE
  5
DE
330
1F
100
AcDbEntity
  8
PROFILEEDGES
100
AcDbPolyline
 90
        2
 70
     0
 43
0.4125653348333984
 10
-48.11955656944973
 20
-24.85474999916789
 10
-47.80602132808306
 20
-24.9846205484238
  0
LWPOLYLINE
  5
DF
330
1F
100
AcDbEntity
  8
PROFILEEDGES
100
AcDbPolyline
 90
        2
 70
     0
 43
0.4125653348333984
 10
-47.80602132808306
 20
-24.9846205484238
 10
-47.5367825125404
 20
-25.19121475780119
  0
LWPOLYLINE
  5
E0
330
1F
100
AcDbEntity
  8
PROFILEEDGES
100
AcDbPolyline
 90
        2
 70
     0
 43
0.4125653348333984
 10
-47.5367825125404
 20
-25.19121475780119
 10
-47.33018830316337
 20
-25.46045357334371
  0
LWPOLYLINE
  5
E1
330
1F
100
AcDbEntity
  8
PROFILEEDGES
100
AcDbPolyline
 90
        2
 70
     0
 43
0.4125653348333984
 10
-47.33018830316337
 20
-25.46045357334371
 10
-47.20031775390733
 20
-25.77398881471036
  0
LWPOLYLINE
  5
E2
330
1F
100
AcDbEntity
  8
PROFILEEDGES
100
AcDbPolyline
 90
        2
 70
     0
 43
0.4125653348333984
 10
-47.20031775390733
 20
-25.77398881471036
 10
-47.15602132808298
 20
-26.11045357334365
  0
LWPOLYLINE
  5
E3
330
1F
100
AcDbEntity
  8
PROFILEEDGES
100
AcDbPolyline
 90
        2
 70
     0
 43
0.4125653348333984
 10
-47.15602132808298
 20
-26.11045357334365
 10
-47.2003177539072
 20
-26.44691833197703
  0
LWPOLYLINE
  5
E4
330
1F
100
AcDbEntity
  8
PROFILEEDGES
100
AcDbPolyline
 90
        2
 70
     0
 43
0.4125653348333984
 10
-47.2003177539072
 20
-26.44691833197703
 10
-47.33018830316331
 20
-26.76045357334368
  0
LWPOLYLINE
  5
E5
330
1F
100
AcDbEntity
  8
PROFILEEDGES
100
AcDbPolyline
 90
        2
 70
     0
 43
0.4125653348333984
 10
-47.33018830316331
 20
-26.76045357334368
 10
-47.53678251254049
 20
-27.02969238888612
  0
LWPOLYLINE
  5
E6
330
1F
100
AcDbEntity
  8
PROFILEEDGES
100
AcDbPolyline
 90
        2
 70
     0
 43
0.4125653348333984
 10
-47.53678251254049
 20
-27.02969238888612
 10
-47.80602132808308
 20
-27.2362865982635
  0
LWPOLYLINE
  5
E7
330
1F
100
AcDbEntity
  8
PROFILEEDGES
100
AcDbPolyline
 90
        2
 70
     0
 43
0.4125653348333984
 10
-47.80602132808308
 20
-27.2362865982635
 10
-48.11955656944984
 20
-27.3661571475195
  0
LWPOLYLINE
  5
E8
330
1F
100
AcDbEntity
  8
PROFILEEDGES
100
AcDbPolyline
 90
        2
 70
     0
 43
0.4125653348333984
 10
-48.11955656944984
 20
-27.3661571475195
 10
-48.45602132808303
 20
-27.41045357334362
  0
LWPOLYLINE
  5
E9
330
1F
100
AcDbEntity
  8
PROFILEEDGES
100
AcDbPolyline
 90
        2
 70
     0
 43
0.4125653348333984
 10
-48.45602132808303
 20
-27.41045357334362
 10
-48.79248608671639
 20
-27.3661571475195
  0
LINE
  5
EA
330
1F
100
AcDbEntity
  8
0
100
AcDbLine
 10
-8.912021328083082
 20
-26.11045357334391
 30
0.0
 11
-8.869224165902182
 21
-25.78537685269514
 31
0.0
  0
LINE
  5
EB
330
1F
100
AcDbEntity
  8
0
100
AcDbLine
 10
-8.869224165902136
 20
-26.4355302939927
 30
0.0
 11
-8.912021328083082
 21
-26.11045357334391
 31
0.0
  0
LINE
  5
EC
330
1F
100
AcDbEntity
  8
0
100
AcDbLine
 10
-8.743749235236328
 20
-26.73845357334393
 30
0.0
 11
-8.869224165902136
 21
-26.4355302939927
 31
0.0
  0
LINE
  5
ED
330
1F
100
AcDbEntity
  8
0
100
AcDbLine
 10
-8.544147445253344
 20
-26.99857969051421
 30
0.0
 11
-8.743749235236328
 21
-26.73845357334393
 31
0.0
  0
LINE
  5
EE
330
1F
100
AcDbEntity
  8
0
100
AcDbLine
 10
-8.284021328083107
 20
-25.02272566619065
 30
0.0
 11
-7.981098048731833
 21
-24.89725073552486
 31
0.0
  0
LINE
  5
EF
330
1F
100
AcDbEntity
  8
0
100
AcDbLine
 10
-8.544147445253344
 20
-25.22232745617363
 30
0.0
 11
-8.284021328083107
 21
-25.02272566619065
 31
0.0
  0
LINE
  5
F0
330
1F
100
AcDbEntity
  8
0
100
AcDbLine
 10
-8.743749235236349
 20
-25.48245357334394
 30
0.0
 11
-8.544147445253344
 21
-25.22232745617363
 31
0.0
  0
LINE
  5
F1
330
1F
100
AcDbEntity
  8
0
100
AcDbLine
 10
-8.284021328083083
 20
-27.19818148049718
 30
0.0
 11
-8.544147445253344
 21
-26.99857969051421
 31
0.0
  0
LWPOLYLINE
  5
F2
330
1F
100
AcDbEntity
  8
PROFILEEDGES
100
AcDbPolyline
 90
        2
 70
     0
 43
0.4125653348333984
 10
-6.616790843541739
 20
-26.71045357334392
 10
-6.807493190659223
 20
-26.95898171076778
  0
LWPOLYLINE
  5
F3
330
1F
100
AcDbEntity
  8
PROFILEEDGES
100
AcDbPolyline
 90
        2
 70
     0
 43
0.4125653348333984
 10
-6.496910336536204
 20
-26.42103642746696
 10
-6.616790843541739
 20
-26.71045357334392
  0
LWPOLYLINE
  5
F4
330
1F
100
AcDbEntity
  8
PROFILEEDGES
100
AcDbPolyline
 90
        2
 70
     0
 43
0.4125653348333984
 10
-6.456021328083088
 20
-26.11045357334391
 10
-6.496910336536204
 20
-26.42103642746696
  0
LWPOLYLINE
  5
F5
330
1F
100
AcDbEntity
  8
PROFILEEDGES
100
AcDbPolyline
 90
        2
 70
     0
 43
0.4125653348333984
 10
-6.496910336536204
 20
-25.7998707192209
 10
-6.456021328083088
 20
-26.11045357334391
  0
LWPOLYLINE
  5
F6
330
1F
100
AcDbEntity
  8
PROFILEEDGES
100
AcDbPolyline
 90
        2
 70
     0
 43
0.4125653348333984
 10
-6.616790843541762
 20
-25.51045357334392
 10
-6.496910336536204
 20
-25.7998707192209
  0
LWPOLYLINE
  5
F7
330
1F
100
AcDbEntity
  8
PROFILEEDGES
100
AcDbPolyline
 90
        2
 70
     0
 43
0.4125653348333984
 10
-6.807493190659223
 20
-25.26192543592007
 10
-6.616790843541762
 20
-25.51045357334392
  0
LWPOLYLINE
  5
F8
330
1F
100
AcDbEntity
  8
PROFILEEDGES
100
AcDbPolyline
 90
        2
 70
     0
 43
0.4125653348333984
 10
-7.056021328083087
 20
-25.07122308880259
 10
-6.807493190659223
 20
-25.26192543592007
  0
LWPOLYLINE
  5
F9
330
1F
100
AcDbEntity
  8
PROFILEEDGES
100
AcDbPolyline
 90
        2
 70
     0
 43
0.4125653348333984
 10
-7.345438473960045
 20
-24.95134258179703
 10
-7.056021328083087
 20
-25.07122308880259
  0
LWPOLYLINE
  5
FA
330
1F
100
AcDbEntity
  8
PROFILEEDGES
100
AcDbPolyline
 90
        2
 70
     0
 43
0.4125653348333984
 10
-7.656021328083086
 20
-24.91045357334392
 10
-7.345438473960045
 20
-24.95134258179703
  0
LWPOLYLINE
  5
FB
330
1F
100
AcDbEntity
  8
PROFILEEDGES
100
AcDbPolyline
 90
        2
 70
     0
 43
0.4125653348333984
 10
-7.966604182206105
 20
-24.95134258179703
 10
-7.656021328083086
 20
-24.91045357334392
  0
LWPOLYLINE
  5
FC
330
1F
100
AcDbEntity
  8
PROFILEEDGES
100
AcDbPolyline
 90
        2
 70
     0
 43
0.4125653348333984
 10
-8.256021328083085
 20
-25.07122308880259
 10
-7.966604182206105
 20
-24.95134258179703
  0
LWPOLYLINE
  5
FD
330
1F
100
AcDbEntity
  8
PROFILEEDGES
100
AcDbPolyline
 90
        2
 70
     0
 43
0.4125653348333984
 10
-8.504549465506928
 20
-25.26192543592007
 10
-8.256021328083085
 20
-25.07122308880259
  0
LWPOLYLINE
  5
FE
330
1F
100
AcDbEntity
  8
PROFILEEDGES
100
AcDbPolyline
 90
        2
 70
     0
 43
0.4125653348333984
 10
-8.695251812624411
 20
-25.51045357334391
 10
-8.504549465506928
 20
-25.26192543592007
  0
LWPOLYLINE
  5
FF
330
1F
100
AcDbEntity
  8
PROFILEEDGES
100
AcDbPolyline
 90
        2
 70
     0
 43
0.4125653348333984
 10
-8.815132319629969
 20
-25.79987071922089
 10
-8.695251812624411
 20
-25.51045357334391
  0
LWPOLYLINE
  5
100
330
1F
100
AcDbEntity
  8
PROFILEEDGES
100
AcDbPolyline
 90
        2
 70
     0
 43
0.4125653348333984
 10
-8.856021328083084
 20
-26.11045357334391
 10
-8.815132319629969
 20
-25.79987071922089
  0
LWPOLYLINE
  5
101
330
1F
100
AcDbEntity
  8
PROFILEEDGES
100
AcDbPolyline
 90
        2
 70
     0
 43
0.4125653348333984
 10
-8.815132319629969
 20
-26.42103642746695
 10
-8.856021328083084
 20
-26.11045357334391
  0
LWPOLYLINE
  5
102
330
1F
100
AcDbEntity
  8
PROFILEEDGES
100
AcDbPolyline
 90
        2
 70
     0
 43
0.4125653348333984
 10
-8.695251812624411
 20
-26.71045357334391
 10
-8.815132319629969
 20
-26.42103642746695
  0
LWPOLYLINE
  5
103
330
1F
100
AcDbEntity
  8
PROFILEEDGES
100
AcDbPolyline
 90
        2
 70
     0
 43
0.4125653348333984
 10
-8.504549465506928
 20
-26.95898171076777
 10
-8.695251812624411
 20
-26.71045357334391
  0
LWPOLYLINE
  5
104
330
1F
100
AcDbEntity
  8
PROFILEEDGES
100
AcDbPolyline
 90
        2
 70
     0
 43
0.4125653348333984
 10
-8.256021328083085
 20
-27.14968405788524
 10
-8.504549465506928
 20
-26.95898171076777
  0
LWPOLYLINE
  5
105
330
1F
100
AcDbEntity
  8
PROFILEEDGES
100
AcDbPolyline
 90
        2
 70
     0
 43
0.4125653348333984
 10
-7.966604182206105
 20
-27.2695645648908
 10
-8.256021328083085
 20
-27.14968405788524
  0
LWPOLYLINE
  5
106
330
1F
100
AcDbEntity
  8
PROFILEEDGES
100
AcDbPolyline
 90
        2
 70
     0
 43
0.4125653348333984
 10
-7.656021328083086
 20
-27.31045357334391
 10
-7.966604182206105
 20
-27.2695645648908
  0
LWPOLYLINE
  5
107
330
1F
100
AcDbEntity
  8
PROFILEEDGES
100
AcDbPolyline
 90
        2
 70
     0
 43
0.4125653348333984
 10
-7.345438473960045
 20
-27.2695645648908
 10
-7.656021328083086
 20
-27.31045357334391
  0
LWPOLYLINE
  5
108
330
1F
100
AcDbEntity
  8
PROFILEEDGES
100
AcDbPolyline
 90
        2
 70
     0
 43
0.4125653348333984
 10
-7.056021328083087
 20
-27.14968405788524
 10
-7.345438473960045
 20
-27.2695645648908
  0
LWPOLYLINE
  5
109
330
1F
100
AcDbEntity
  8
PROFILEEDGES
100
AcDbPolyline
 90
        2
 70
     0
 43
0.4125653348333984
 10
-6.807493190659223
 20
-26.95898171076778
 10
-7.056021328083087
 20
-27.14968405788524
  0
LWPOLYLINE
  5
10A
330
1F
100
AcDbEntity
  8
PROFILEEDGES
100
AcDbPolyline
 90
        2
 70
     0
 43
0.4125653348333984
 10
-56.05602132808315
 20
-44.11045357334368
 10
33.94397867191687
 20
-44.11045357334371
  0
LWPOLYLINE
  5
10B
330
1F
100
AcDbEntity
  8
PROFILEEDGES
100
AcDbPolyline
 90
        2
 70
     0
 43
0.4125653348333984
 10
-56.05602132808314
 20
-8.110453573343683
 10
-56.05602132808315
 20
-44.11045357334368
  0
LWPOLYLINE
  5
10C
330
1F
100
AcDbEntity
  8
PROFILEEDGES
100
AcDbPolyline
 90
        2
 70
     0
 43
0.4125653348333984
 10
33.94397867191687
 20
-44.11045357334371
 10
33.94397867191687
 20
-30.11045357334374
  0
LWPOLYLINE
  5
10D
330
1F
100
AcDbEntity
  8
PROFILEEDGES
100
AcDbPolyline
 90
        2
 70
     0
 43
0.4125653348333984
 10
33.94397867191699
 20
-22.11045357334373
 10
33.54397867191699
 20
-22.11045357334373
  0
LWPOLYLINE
  5
10E
330
1F
100
AcDbEntity
  8
PROFILEEDGES
100
AcDbPolyline
 90
        2
 70
     0
 43
0.4125653348333984
 10
33.54397867191699
 20
-22.11045357334373
 10
31.34397867191699
 20
-22.11045357334373
  0
LWPOLYLINE
  5
10F
330
1F
100
AcDbEntity
  8
PROFILEEDGES
100
AcDbPolyline
 90
        2
 70
     0
 43
0.4125653348333984
 10
33.54397867191687
 20
-30.11045357334374
 10
31.34397867191687
 20
-30.11045357334374
  0
LWPOLYLINE
  5
110
330
1F
100
AcDbEntity
  8
PROFILEEDGES
100
AcDbPolyline
 90
        2
 70
     0
 43
0.4125653348333984
 10
33.94397867191699
 20
-22.11045357334373
 10
33.94397867191689
 20
-8.110453573343712
  0
LWPOLYLINE
  5
111
330
1F
100
AcDbEntity
  8
PROFILEEDGES
100
AcDbPolyline
 90
        2
 70
     0
 43
0.4125653348333984
 10
-56.05602132808314
 20
-8.110453573343683
 10
33.94397867191689
 20
-8.110453573343712
  0
LWPOLYLINE
  5
112
330
1F
100
AcDbEntity
  8
PROFILEEDGES
100
AcDbPolyline
 90
        2
 70
     0
 43
0.4125653348333984
 10
53.94397867191697
 20
-9.110453573343705
 10
53.94397867191697
 20
-9.51045357334368
  0
ENDSEC
  0
SECTION
  2
OBJECTS
  0
DICTIONARY
  5
C
330
0
100
AcDbDictionary
  3
ACAD_GROUP
350
D
  3
ACAD_LAYOUT
350
1A
  3
ACAD_MATERIAL
350
43
  3
ACAD_MLEADERSTYLE
350
6B
  3
ACAD_MLINESTYLE
350
17
  3
ACAD_PLOTSETTINGS
350
19
  3
ACAD_SCALELIST
350
47
  3
ACAD_VISUALSTYLE
350
2A
  3
ACDBHEADERROUNDTRIPXREC
350
113
  3
ACDBVARIABLEDICTIONARY
350
134
  0
DICTIONARY
  5
13B
330
8
100
AcDbDictionary
280
     1
  3
ACAD_XREC_ROUNDTRIP
360
13C
  0
DICTIONARY
  5
D
102
{ACAD_REACTORS
330
C
102
}
330
C
100
AcDbDictionary
  0
DICTIONARY
  5
1A
102
{ACAD_REACTORS
330
C
102
}
330
C
100
AcDbDictionary
  0
DICTIONARY
  5
43
102
{ACAD_REACTORS
330
C
102
}
330
C
100
AcDbDictionary
  3
BYBLOCK
350
45
  3
BYLAYER
350
44
  3
GLOBAL
350
46
  0
DICTIONARY
  5
6B
102
{ACAD_REACTORS
330
C
102
}
330
C
100
AcDbDictionary
  3
STANDARD
350
6C
  0
DICTIONARY
  5
17
102
{ACAD_REACTORS
330
C
102
}
330
C
100
AcDbDictionary
  3
STANDARD
350
18
  0
DICTIONARY
  5
19
102
{ACAD_REACTORS
330
C
102
}
330
C
100
AcDbDictionary
  0
DICTIONARY
  5
47
102
{ACAD_REACTORS
330
C
102
}
330
C
100
AcDbDictionary
  3
A0
350
48
  3
A1
350
49
  3
A2
350
4A
  3
A3
350
4B
  3
A4
350
4C
  3
A5
350
4D
  3
A6
350
4E
  3
A7
350
4F
  3
A8
350
50
  3
A9
350
51
  3
B0
350
52
  3
B1
350
53
  3
B2
350
54
  3
B3
350
55
  3
B4
350
56
  3
B5
350
57
  3
B6
350
58
  3
B7
350
59
  3
B8
350
5A
  3
B9
350
5B
  3
C0
350
5C
  3
C1
350
5D
  3
C2
350
5E
  3
C3
350
5F
  3
C4
350
60
  3
C5
350
61
  3
C6
350
62
  3
C7
350
63
  3
C8
350
64
  3
C9
350
65
  3
D0
350
66
  3
D1
350
67
  3
D2
350
68
  0
DICTIONARY
  5
2A
102
{ACAD_REACTORS
330
C
102
}
330
C
100
AcDbDictionary
  3
2DWIREFRAME
350
2F
  3
BASIC
350
32
  3
BRIGHTEN
350
36
  3
COLORCHANGE
350
3A
  3
CONCEPTUAL
350
34
  3
DIM
350
35
  3
EDGECOLOROFF
350
3D
  3
FACEPATTERN
350
39
  3
FLAT
350
2B
  3
FLATWITHEDGES
350
2C
  3
GOURAUD
350
2D
  3
GOURAUDWITHEDGES
350
2E
  3
HIDDEN
350
31
  3
JITTEROFF
350
3B
  3
LINEPATTERN
350
38
  3
OVERHANGOFF
350
3C
  3
REALISTIC
350
33
  3
SHADED
350
42
  3
SHADED_WITH_EDGES
350
41
  3
SHADES_OF_GRAY
350
3E
  3
SKETCHY
350
3F
  3
THICKEN
350
37
  3
WIREFRAME
350
30
  3
X-RAY
350
40
  0
DICTIONARY
  5
113
102
{ACAD_REACTORS
330
C
102
}
330
C
100
AcDbDictionary
  3
CEPSNID
350
11D
  3
CEPSNTYPE
350
11C
  3
DIMSTYLEDATA
350
133
  3
FINGERPRINTGUID
350
11E
  3
HYPERLINKBASE
350
116
  3
INSUNITS
350
11B
  3
LAYOUTDICT
350
118
  3
LWETCUNION
350
11A
  3
PLOTSETDICT
350
119
  3
PSVPSCALE
350
120
  3
PUCSBASE
350
123
  3
PUCSORGBACK
350
129
  3
PUCSORGBOTTOM
350
125
  3
PUCSORGFRONT
350
128
  3
PUCSORGLEFT
350
126
  3
PUCSORGRIGHT
350
127
  3
PUCSORGTOP
350
124
  3
PUCSORTHOREF
350
121
  3
PUCSORTHOVIEW
350
122
  3
STYLESHEET
350
117
  3
TSTACKALIGN
350
114
  3
TSTACKSIZE
350
115
  3
UCSBASE
350
12C
  3
UCSORGBACK
350
132
  3
UCSORGBOTTOM
350
12E
  3
UCSORGFRONT
350
131
  3
UCSORGLEFT
350
12F
  3
UCSORGRIGHT
350
130
  3
UCSORGTOP
350
12D
  3
UCSORTHOREF
350
12A
  3
UCSORTHOVIEW
350
12B
  3
VERSIONGUID
350
11F
  0
DICTIONARY
  5
134
102
{ACAD_REACTORS
330
C
102
}
330
C
100
AcDbDictionary
  3
CANNOSCALE
350
13D
  3
CMLEADERSTYLE
350
136
  3
CTABLESTYLE
350
135
  3
DIMASSOC
350
139
  3
HIDETEXT
350
13A
  3
MSLTSCALE
350
13E
  0
XRECORD
  5
13C
102
{ACAD_REACTORS
330
13B
102
}
330
13B
100
AcDbXrecord
102
VTR_0.000_0.000_1.000_1.000_VISUALSTYLE
340
2F
102
VTR_0.000_0.000_1.000_1.000_GRIDDISPLAY
 70
     3
102
VTR_0.000_0.000_1.000_1.000_GRIDMAJOR
 70
     5
102
VTR_0.000_0.000_1.000_1.000_DEFAULTLIGHTING
280
     1
102
VTR_0.000_0.000_1.000_1.000_DEFAULTLIGHTINGTYPE
 70
     1
102
VTR_0.000_0.000_1.000_1.000_BRIGHTNESS
141
0.0
102
VTR_0.000_0.000_1.000_1.000_CONTRAST
142
0.0
  0
MATERIAL
  5
45
102
{ACAD_REACTORS
330
43
102
}
102
{ACAD_XDICTIONARY
360
141
102
}
330
43
100
AcDbMaterial
  1
BYBLOCK
  0
MATERIAL
  5
44
102
{ACAD_REACTORS
330
43
102
}
102
{ACAD_XDICTIONARY
360
13F
102
}
330
43
100
AcDbMaterial
  1
BYLAYER
  0
MATERIAL
  5
46
102
{ACAD_REACTORS
330
43
102
}
102
{ACAD_XDICTIONARY
360
143
102
}
330
43
100
AcDbMaterial
  1
GLOBAL
  0
ACAD_PROXY_OBJECT
  5
6C
102
{ACAD_REACTORS
330
6B
102
}
330
6B
100
AcDbProxyObject
 90
      499
 91
      505
 93
      610
310
40901902A4063FBFFFFFE056BD1B81E855B9FC0AD7A3703D0AD73F4214DD185B99185C9900AD7A3703D0AC73F90141901A02B5E8DC0F42B1CFC02B5E8DC0F42B1CFE5764000000000000300FC0
340
14
340
0
340
11
340
0
 94
        0
1001
ACAD_MLEADERVER
1070
     2
  0
MLINESTYLE
  5
18
102
{ACAD_REACTORS
330
17
102
}
330
17
100
AcDbMlineStyle
  2
Standard
 70
     0
  3

 62
   256
 51
90.0
 52
90.0
 71
     2
 49
0.5
 62
   256
  6
BYLAYER
 49
-0.5
 62
   256
  6
BYLAYER
  0
ACAD_PROXY_OBJECT
  5
48
102
{ACAD_REACTORS
330
47
102
}
330
47
100
AcDbProxyObject
 90
      499
 91
      503
 93
       41
310
903313A31580
  0
ACAD_PROXY_OBJECT
  5
49
102
{ACAD_REACTORS
330
47
102
}
330
47
100
AcDbProxyObject
 90
      499
 91
      503
 93
      105
310
903313A324000000000000004000
  0
ACAD_PROXY_OBJECT
  5
4A
102
{ACAD_REACTORS
330
47
102
}
330
47
100
AcDbProxyObject
 90
      499
 91
      503
 93
      105
310
903313A344000000000000104000
  0
ACAD_PROXY_OBJECT
  5
4B
102
{ACAD_REACTORS
330
47
102
}
330
47
100
AcDbProxyObject
 90
      499
 91
      503
 93
      105
310
903313A354000000000000144000
  0
ACAD_PROXY_OBJECT
  5
4C
102
{ACAD_REACTORS
330
47
102
}
330
47
100
AcDbProxyObject
 90
      499
 91
      503
 93
      105
310
903313A384000000000000204000
  0
ACAD_PROXY_OBJECT
  5
4D
102
{ACAD_REACTORS
330
47
102
}
330
47
100
AcDbProxyObject
 90
      499
 91
      503
 93
      113
310
904313A31304000000000000244000
  0
ACAD_PROXY_OBJECT
  5
4E
102
{ACAD_REACTORS
330
47
102
}
330
47
100
AcDbProxyObject
 90
      499
 91
      503
 93
      113
310
904313A31364000000000000304000
  0
ACAD_PROXY_OBJECT
  5
4F
102
{ACAD_REACTORS
330
47
102
}
330
47
100
AcDbProxyObject
 90
      499
 91
      503
 93
      113
310
904313A32304000000000000344000
  0
ACAD_PROXY_OBJECT
  5
50
102
{ACAD_REACTORS
330
47
102
}
330
47
100
AcDbProxyObject
 90
      499
 91
      503
 93
      113
310
904313A333040000000000003E4000
  0
ACAD_PROXY_OBJECT
  5
51
102
{ACAD_REACTORS
330
47
102
}
330
47
100
AcDbProxyObject
 90
      499
 91
      503
 93
      113
310
904313A34304000000000000444000
  0
ACAD_PROXY_OBJECT
  5
52
102
{ACAD_REACTORS
330
47
102
}
330
47
100
AcDbProxyObject
 90
      499
 91
      503
 93
      113
310
904313A35304000000000000494000
  0
ACAD_PROXY_OBJECT
  5
53
102
{ACAD_REACTORS
330
47
102
}
330
47
100
AcDbProxyObject
 90
      499
 91
      503
 93
      121
310
905313A3130304000000000000594000
  0
ACAD_PROXY_OBJECT
  5
54
102
{ACAD_REACTORS
330
47
102
}
330
47
100
AcDbProxyObject
 90
      499
 91
      503
 93
      105
310
903323A310000000000000010100
  0
ACAD_PROXY_OBJECT
  5
55
102
{ACAD_REACTORS
330
47
102
}
330
47
100
AcDbProxyObject
 90
      499
 91
      503
 93
      105
310
903343A310000000000000410100
  0
ACAD_PROXY_OBJECT
  5
56
102
{ACAD_REACTORS
330
47
102
}
330
47
100
AcDbProxyObject
 90
      499
 91
      503
 93
      105
310
903383A310000000000000810100
  0
ACAD_PROXY_OBJECT
  5
57
102
{ACAD_REACTORS
330
47
102
}
330
47
100
AcDbProxyObject
 90
      499
 91
      503
 93
      113
310
90431303A310000000000000910100
  0
ACAD_PROXY_OBJECT
  5
58
102
{ACAD_REACTORS
330
47
102
}
330
47
100
AcDbProxyObject
 90
      499
 91
      503
 93
      121
310
9053130303A310000000000001650100
  0
ACAD_PROXY_OBJECT
  5
59
102
{ACAD_REACTORS
330
47
102
}
330
47
100
AcDbProxyObject
 90
      499
 91
      503
 93
      257
310
90E312F31323822203D2031272D3022000000000000200FC000000000000284000
  0
ACAD_PROXY_OBJECT
  5
5A
102
{ACAD_REACTORS
330
47
102
}
330
47
100
AcDbProxyObject
 90
      499
 91
      503
 93
      249
310
90D312F363422203D2031272D3022000000000000240FC000000000000284000
  0
ACAD_PROXY_OBJECT
  5
5B
102
{ACAD_REACTORS
330
47
102
}
330
47
100
AcDbProxyObject
 90
      499
 91
      503
 93
      249
310
90D312F333222203D2031272D3022000000000000280FC000000000000284000
  0
ACAD_PROXY_OBJECT
  5
5C
102
{ACAD_REACTORS
330
47
102
}
330
47
100
AcDbProxyObject
 90
      499
 91
      503
 93
      249
310
90D312F313622203D2031272D30220000000000002C0FC000000000000284000
  0
ACAD_PROXY_OBJECT
  5
5D
102
{ACAD_REACTORS
330
47
102
}
330
47
100
AcDbProxyObject
 90
      499
 91
      503
 93
      249
310
90D332F333222203D2031272D30220000000000002E0FC000000000000284000
  0
ACAD_PROXY_OBJECT
  5
5E
102
{ACAD_REACTORS
330
47
102
}
330
47
100
AcDbProxyObject
 90
      499
 91
      503
 93
      241
310
90C312F3822203D2031272D3022000000000000300FC000000000000284000
  0
ACAD_PROXY_OBJECT
  5
5F
102
{ACAD_REACTORS
330
47
102
}
330
47
100
AcDbProxyObject
 90
      499
 91
      503
 93
      249
310
90D332F313622203D2031272D3022000000000000320FC000000000000284000
  0
ACAD_PROXY_OBJECT
  5
60
102
{ACAD_REACTORS
330
47
102
}
330
47
100
AcDbProxyObject
 90
      499
 91
      503
 93
      241
310
90C312F3422203D2031272D3022000000000000340FC000000000000284000
  0
ACAD_PROXY_OBJECT
  5
61
102
{ACAD_REACTORS
330
47
102
}
330
47
100
AcDbProxyObject
 90
      499
 91
      503
 93
      241
310
90C332F3822203D2031272D3022000000000000360FC000000000000284000
  0
ACAD_PROXY_OBJECT
  5
62
102
{ACAD_REACTORS
330
47
102
}
330
47
100
AcDbProxyObject
 90
      499
 91
      503
 93
      241
310
90C312F3222203D2031272D3022000000000000380FC000000000000284000
  0
ACAD_PROXY_OBJECT
  5
63
102
{ACAD_REACTORS
330
47
102
}
330
47
100
AcDbProxyObject
 90
      499
 91
      503
 93
      241
310
90C332F3422203D2031272D30220000000000003A0FC000000000000284000
  0
ACAD_PROXY_OBJECT
  5
64
102
{ACAD_REACTORS
330
47
102
}
330
47
100
AcDbProxyObject
 90
      499
 91
      503
 93
      161
310
90A3122203D2031272D30224000000000000284000
  0
ACAD_PROXY_OBJECT
  5
65
102
{ACAD_REACTORS
330
47
102
}
330
47
100
AcDbProxyObject
 90
      499
 91
      503
 93
      257
310
90E312D312F3222203D2031272D30220000000000003E0FC000000000000284000
  0
ACAD_PROXY_OBJECT
  5
66
102
{ACAD_REACTORS
330
47
102
}
330
47
100
AcDbProxyObject
 90
      499
 91
      503
 93
      225
310
90A3322203D2031272D302200000000000002100000000000000284000
  0
ACAD_PROXY_OBJECT
  5
67
102
{ACAD_REACTORS
330
47
102
}
330
47
100
AcDbProxyObject
 90
      499
 91
      503
 93
      225
310
90A3622203D2031272D302200000000000006100000000000000284000
  0
ACAD_PROXY_OBJECT
  5
68
102
{ACAD_REACTORS
330
47
102
}
330
47
100
AcDbProxyObject
 90
      499
 91
      503
 93
      249
310
90D31272D3022203D2031272D30220000000000000A100000000000000284000
  0
ACAD_PROXY_OBJECT
  5
2F
102
{ACAD_REACTORS
330
2A
102
}
330
2A
100
AcDbProxyObject
 90
      499
 91
      501
 93
      436
310
42CC9915DA5C99599C985B595049028333333333333E33F0000000000000F90107901411070040501600405405064090741402480A0340
1001
ACAD
1000
AcDbSavedByObjectVersion
1070
     0
  0
ACAD_PROXY_OBJECT
  5
32
102
{ACAD_REACTORS
330
2A
102
}
330
2A
100
AcDbProxyObject
 90
      499
 91
      501
 93
      388
310
4150985CDA58D07406404333333333333E33F0000000000000F90107A41107004050150841D405064090741402480A0350
1001
ACAD
1000
AcDbSavedByObjectVersion
1070
     0
  0
ACAD_PROXY_OBJECT
  5
36
102
{ACAD_REACTORS
330
2A
102
}
330
2A
100
AcDbProxyObject
 90
      499
 91
      501
 93
      428
310
42109C9A59DA1D195B90C409028333333333333E33F0000000000000F9010790141107004050150841D405064090741402480A029950
1001
ACAD
1000
AcDbSavedByObjectVersion
1070
     0
  0
ACAD_PROXY_OBJECT
  5
3A
102
{ACAD_REACTORS
330
2A
102
}
330
2A
100
AcDbProxyObject
 90
      499
 91
      501
 93
      452
310
42D0DBDB1BDC90DA185B99D95104090240C333333333333E33F0000000000000F90108901411070040501508421405064090741402480A0350
1001
ACAD
1000
AcDbSavedByObjectVersion
1070
     0
  0
ACAD_PROXY_OBJECT
  5
34
102
{ACAD_REACTORS
330
2A
102
}
330
2A
100
AcDbProxyObject
 90
      499
 91
      501
 93
      500
310
4290DBDB98D95C1D1D585B10940D028333333333333E33F0000000000000F90107902409070040501000000000018199010841D405064090740C02480A0340
1001
ACAD
1000
AcDbSavedByObjectVersion
1070
     0
  0
ACAD_PROXY_OBJECT
  5
35
102
{ACAD_REACTORS
330
2A
102
}
330
2A
100
AcDbProxyObject
 90
      499
 91
      501
 93
      412
310
40D11A5B50B409028333333333333E33F0000000000000F9010790141107004050150841D405064090741402480A02677FFFFFD0
1001
ACAD
1000
AcDbSavedByObjectVersion
1070
     0
  0
ACAD_PROXY_OBJECT
  5
3D
102
{ACAD_REACTORS
330
2A
102
}
330
2A
100
AcDbProxyObject
 90
      499
 91
      501
 93
      452
310
43115919D950DBDB1BDC93D999916409028333333333333E33F0000000000000F9010790141107004050150841D405064090741402480A0350
1001
ACAD
1000
AcDbSavedByObjectVersion
1070
     0
  0
ACAD_PROXY_OBJECT
  5
39
102
{ACAD_REACTORS
330
2A
102
}
330
2A
100
AcDbProxyObject
 90
      499
 91
      501
 93
      444
310
42D19858D95C185D1D195C9B90F409028333333333333E33F0000000000000F9010790141107004050150841D405064090741402480A0350
1001
ACAD
1000
AcDbSavedByObjectVersion
1070
     0
  0
ACAD_PROXY_OBJECT
  5
2B
102
{ACAD_REACTORS
330
2A
102
}
330
2A
100
AcDbProxyObject
 90
      499
 91
      501
 93
      380
310
41119B185D240901404333333333333E33F0000000000000F9010740A907004050150841D405064090741402480A1B50
1001
ACAD
1000
AcDbSavedByObjectVersion
1070
     0
  0
ACAD_PROXY_OBJECT
  5
2C
102
{ACAD_REACTORS
330
2A
102
}
330
2A
100
AcDbProxyObject
 90
      499
 91
      501
 93
      468
310
43519B185D15DA5D1A115919D95CD0140901404333333333333E33F0000000000000F90107409019070040501600405405064090741402480A1B50
1001
ACAD
1000
AcDbSavedByObjectVersion
1070
     0
  0
ACAD_PROXY_OBJECT
  5
2D
102
{ACAD_REACTORS
330
2A
102
}
330
2A
100
AcDbProxyObject
 90
      499
 91
      501
 93
      404
310
41D1DBDD5C985D5910240902404333333333333E33F0000000000000F9010740A9070040501641D405064090741402480A1B50
1001
ACAD
1000
AcDbSavedByObjectVersion
1070
     0
  0
ACAD_PROXY_OBJECT
  5
2E
102
{ACAD_REACTORS
330
2A
102
}
330
2A
100
AcDbProxyObject
 90
      499
 91
      501
 93
      492
310
4411DBDD5C985D5915DA5D1A115919D95CD0340902404333333333333E33F0000000000000F90107409019070040501600405405064090741402480A1B50
1001
ACAD
1000
AcDbSavedByObjectVersion
1070
     0
  0
ACAD_PROXY_OBJECT
  5
31
102
{ACAD_REACTORS
330
2A
102
}
330
2A
100
AcDbProxyObject
 90
      499
 91
      501
 93
      476
310
41921A5919195B90640502408333333333333E33F0000000000000F901079024090700405020000000000001110200405405064090740C02480A0340
1001
ACAD
1000
AcDbSavedByObjectVersion
1070
     0
  0
ACAD_PROXY_OBJECT
  5
3B
102
{ACAD_REACTORS
330
2A
102
}
330
2A
100
AcDbProxyObject
 90
      499
 91
      501
 93
      428
310
42529A5D1D195C93D999914409028333333333333E33F0000000000000F9010790141107004050150A41D405064090741402480A0350
1001
ACAD
1000
AcDbSavedByObjectVersion
1070
     0
  0
ACAD_PROXY_OBJECT
  5
38
102
{ACAD_REACTORS
330
2A
102
}
330
2A
100
AcDbProxyObject
 90
      499
 91
      501
 93
      444
310
42D31A5B995C185D1D195C9B90E409028333333333333E33F0000000000000F9010790141107004050750841D405064090741402483A0350
1001
ACAD
1000
AcDbSavedByObjectVersion
1070
     0
  0
ACAD_PROXY_OBJECT
  5
3C
102
{ACAD_REACTORS
330
2A
102
}
330
2A
100
AcDbProxyObject
 90
      499
 91
      501
 93
      444
310
42D3DD995C9A185B99D3D999915409028333333333333E33F0000000000000F9010790141107004050150941D405064090741402480A0350
1001
ACAD
1000
AcDbSavedByObjectVersion
1070
     0
  0
ACAD_PROXY_OBJECT
  5
33
102
{ACAD_REACTORS
330
2A
102
}
330
2A
100
AcDbProxyObject
 90
      499
 91
      501
 93
      428
310
425499585B1A5CDD1A58D08409038333333333333E33F0000000000000F9010740A907004050150800405405064090740C02480A1B40
1001
ACAD
1000
AcDbSavedByObjectVersion
1070
     0
  0
ACAD_PROXY_OBJECT
  5
42
102
{ACAD_REACTORS
330
2A
102
}
330
2A
100
AcDbProxyObject
 90
      499
 91
      501
 93
      420
310
4194DA1859195911B40902404333333333333E33F0000000000000F9010740A41107004050150800405405064090840C02480A0B40
1001
ACAD
1000
AcDbSavedByObjectVersion
1070
     0
  0
ACAD_PROXY_OBJECT
  5
41
102
{ACAD_REACTORS
330
2A
102
}
330
2A
100
AcDbProxyObject
 90
      499
 91
      501
 93
      516
310
4454DA18591959081DDA5D1A08195919D95CD1A40902404333333333333E33F0000000000000F901074090142907004050250800405405064090740C02480A0B40
1001
ACAD
1000
AcDbSavedByObjectVersion
1070
     0
  0
ACAD_PROXY_OBJECT
  5
3E
102
{ACAD_REACTORS
330
2A
102
}
330
2A
100
AcDbProxyObject
 90
      499
 91
      501
 93
      532
310
4394DA1859195CC81BD98811DC985E5174090240C333333333333E33F0000000000000F901079024090741D01000000000000111010841D405064090740C02480A0340
1001
ACAD
1000
AcDbSavedByObjectVersion
1070
     0
  0
ACAD_PROXY_OBJECT
  5
3F
102
{ACAD_REACTORS
330
2A
102
}
330
2A
100
AcDbProxyObject
 90
      499
 91
      501
 93
      476
310
41D4DAD95D18DA1E51840502408333333333333E33F0000000000000F901079024090741D01000000000000111010B41D405064090741802480A0340
1001
ACAD
1000
AcDbSavedByObjectVersion
1070
     0
  0
ACAD_PROXY_OBJECT
  5
37
102
{ACAD_REACTORS
330
2A
102
}
330
2A
100
AcDbProxyObject
 90
      499
 91
      501
 93
      412
310
41D51A1A58DAD95B90D409028333333333333E33F0000000000000F9010790141107004050150C41D405064090741402480A0350
1001
ACAD
1000
AcDbSavedByObjectVersion
1070
     0
  0
ACAD_PROXY_OBJECT
  5
30
102
{ACAD_REACTORS
330
2A
102
}
330
2A
100
AcDbProxyObject
 90
      499
 91
      501
 93
      420
310
4255DA5C99599C985B595059028333333333333E33F0000000000000F90107901411070040501600405405064090740C02480A0340
1001
ACAD
1000
AcDbSavedByObjectVersion
1070
     0
  0
ACAD_PROXY_OBJECT
  5
40
102
{ACAD_REACTORS
330
2A
102
}
330
2A
100
AcDbProxyObject
 90
      499
 91
      501
 93
      404
310
41560B54985E51940902404000000000000E03F0000000000000F9010740501907004050150841D405064090740C02480A1B40
1001
ACAD
1000
AcDbSavedByObjectVersion
1070
     0
  0
XRECORD
  5
11D
102
{ACAD_REACTORS
330
113
102
}
330
113
100
AcDbXrecord
340
0
  0
XRECORD
  5
11C
102
{ACAD_REACTORS
330
113
102
}
330
113
100
AcDbXrecord
 90
        0
  0
XRECORD
  5
133
102
{ACAD_REACTORS
330
113
102
}
330
113
100
AcDbXrecord
1000
DSTYLE
1002
{
1070
   171
 70
     2
1070
   143
 40
25.4
1070
   274
 70
     2
1070
    41
 40
0.18
1070
   141
 40
0.09
1070
   271
 70
     4
1070
    43
 40
0.38
1070
   278
 70
    46
1070
    44
 40
0.18
1070
    42
 40
0.0625
1070
   147
 40
0.09
1070
    77
 70
     0
1070
   272
 70
     4
1070
    73
 70
     1
1070
   172
 70
     0
1070
    74
 70
     1
1070
   283
 70
     1
1070
   340
340
11
1070
   140
 40
0.18
1070
   284
 70
     0
1070
    78
 70
     0
1002
}
  0
XRECORD
  5
11E
102
{ACAD_REACTORS
330
113
102
}
330
113
100
AcDbXrecord
  1
{F92E5514-E785-4DF6-8CF3-26EBB1164D06}
  0
XRECORD
  5
116
102
{ACAD_REACTORS
330
113
102
}
330
113
100
AcDbXrecord
  1

  0
XRECORD
  5
11B
102
{ACAD_REACTORS
330
113
102
}
330
113
100
AcDbXrecord
 90
        4
  0
XRECORD
  5
118
102
{ACAD_REACTORS
330
113
102
}
330
113
100
AcDbXrecord
340
1A
  0
XRECORD
  5
11A
102
{ACAD_REACTORS
330
113
102
}
330
113
100
AcDbXrecord
 90
    10781
  0
XRECORD
  5
119
102
{ACAD_REACTORS
330
113
102
}
330
113
100
AcDbXrecord
340
19
  0
XRECORD
  5
120
102
{ACAD_REACTORS
330
113
102
}
330
113
100
AcDbXrecord
 40
0.0
  0
XRECORD
  5
123
102
{ACAD_REACTORS
330
113
102
}
330
113
100
AcDbXrecord
340
0
  0
XRECORD
  5
129
102
{ACAD_REACTORS
330
113
102
}
330
113
100
AcDbXrecord
 10
0.0
 20
0.0
 30
0.0
  0
XRECORD
  5
125
102
{ACAD_REACTORS
330
113
102
}
330
113
100
AcDbXrecord
 10
0.0
 20
0.0
 30
0.0
  0
XRECORD
  5
128
102
{ACAD_REACTORS
330
113
102
}
330
113
100
AcDbXrecord
 10
0.0
 20
0.0
 30
0.0
  0
XRECORD
  5
126
102
{ACAD_REACTORS
330
113
102
}
330
113
100
AcDbXrecord
 10
0.0
 20
0.0
 30
0.0
  0
XRECORD
  5
127
102
{ACAD_REACTORS
330
113
102
}
330
113
100
AcDbXrecord
 10
0.0
 20
0.0
 30
0.0
  0
XRECORD
  5
124
102
{ACAD_REACTORS
330
113
102
}
330
113
100
AcDbXrecord
 10
0.0
 20
0.0
 30
0.0
  0
XRECORD
  5
121
102
{ACAD_REACTORS
330
113
102
}
330
113
100
AcDbXrecord
340
0
  0
XRECORD
  5
122
102
{ACAD_REACTORS
330
113
102
}
330
113
100
AcDbXrecord
 70
     0
  0
XRECORD
  5
117
102
{ACAD_REACTORS
330
113
102
}
330
113
100
AcDbXrecord
  1

  0
XRECORD
  5
114
102
{ACAD_REACTORS
330
113
102
}
330
113
100
AcDbXrecord
 90
        1
  0
XRECORD
  5
115
102
{ACAD_REACTORS
330
113
102
}
330
113
100
AcDbXrecord
 90
       70
  0
XRECORD
  5
12C
102
{ACAD_REACTORS
330
113
102
}
330
113
100
AcDbXrecord
340
0
  0
XRECORD
  5
132
102
{ACAD_REACTORS
330
113
102
}
330
113
100
AcDbXrecord
 10
0.0
 20
0.0
 30
0.0
  0
XRECORD
  5
12E
102
{ACAD_REACTORS
330
113
102
}
330
113
100
AcDbXrecord
 10
0.0
 20
0.0
 30
0.0
  0
XRECORD
  5
131
102
{ACAD_REACTORS
330
113
102
}
330
113
100
AcDbXrecord
 10
0.0
 20
0.0
 30
0.0
  0
XRECORD
  5
12F
102
{ACAD_REACTORS
330
113
102
}
330
113
100
AcDbXrecord
 10
0.0
 20
0.0
 30
0.0
  0
XRECORD
  5
130
102
{ACAD_REACTORS
330
113
102
}
330
113
100
AcDbXrecord
 10
0.0
 20
0.0
 30
0.0
  0
XRECORD
  5
12D
102
{ACAD_REACTORS
330
113
102
}
330
113
100
AcDbXrecord
 10
0.0
 20
0.0
 30
0.0
  0
XRECORD
  5
12A
102
{ACAD_REACTORS
330
113
102
}
330
113
100
AcDbXrecord
340
0
  0
XRECORD
  5
12B
102
{ACAD_REACTORS
330
113
102
}
330
113
100
AcDbXrecord
 70
     0
  0
XRECORD
  5
11F
102
{ACAD_REACTORS
330
113
102
}
330
113
100
AcDbXrecord
  1
{FAEB1C32-E019-11D5-929B-00C0DF256EC4}
  0
DICTIONARYVAR
  5
13D
102
{ACAD_REACTORS
330
134
102
}
330
134
100
DictionaryVariables
280
     0
  1
1:1
  0
DICTIONARYVAR
  5
136
102
{ACAD_REACTORS
330
134
102
}
330
134
100
DictionaryVariables
280
     0
  1
Standard
  0
DICTIONARYVAR
  5
135
102
{ACAD_REACTORS
330
134
102
}
330
134
100
DictionaryVariables
280
     0
  1
Standard
  0
DICTIONARYVAR
  5
139
102
{ACAD_REACTORS
330
134
102
}
330
134
100
DictionaryVariables
280
     0
  1
2
  0
DICTIONARYVAR
  5
13A
102
{ACAD_REACTORS
330
134
102
}
330
134
100
DictionaryVariables
280
     0
  1
1
  0
DICTIONARYVAR
  5
13E
102
{ACAD_REACTORS
330
134
102
}
330
134
100
DictionaryVariables
280
     0
  1
1
  0
DICTIONARY
  5
141
330
45
100
AcDbDictionary
280
     1
  3
ACAD_XREC_ROUNDTRIP
360
142
  0
DICTIONARY
  5
13F
330
44
100
AcDbDictionary
280
     1
  3
ACAD_XREC_ROUNDTRIP
360
140
  0
DICTIONARY
  5
143
330
46
100
AcDbDictionary
280
     1
  3
ACAD_XREC_ROUNDTRIP
360
144
  0
XRECORD
  5
142
102
{ACAD_REACTORS
330
141
102
}
330
141
100
AcDbXrecord
102
MATERIAL
148
0.0
149
0.0
149
0.0
 93
        0
 94
      127
282
     0
 72
     1
 77
     1
171
     1
175
     1
179
     1
273
     0
  0
XRECORD
  5
140
102
{ACAD_REACTORS
330
13F
102
}
330
13F
100
AcDbXrecord
102
MATERIAL
148
0.0
149
0.0
149
0.0
 93
        0
 94
      127
282
     0
 72
     1
 77
     1
171
     1
175
     1
179
     1
273
     0
  0
XRECORD
  5
144
102
{ACAD_REACTORS
330
143
102
}
330
143
100
AcDbXrecord
102
MATERIAL
148
0.0
149
0.0
149
0.0
 93
        0
 94
      127
282
     0
 72
     1
 77
     1
171
     1
175
     1
179
     1
273
     0
  0
ENDSEC
  0
EOF
