<?xml version="1.0" encoding="UTF-8" standalone="no"?>
<!-- Created with Fritzing (http://www.fritzing.org/) -->

<svg
   xmlns:dc="http://purl.org/dc/elements/1.1/"
   xmlns:cc="http://creativecommons.org/ns#"
   xmlns:rdf="http://www.w3.org/1999/02/22-rdf-syntax-ns#"
   xmlns:svg="http://www.w3.org/2000/svg"
   xmlns="http://www.w3.org/2000/svg"
   xmlns:sodipodi="http://sodipodi.sourceforge.net/DTD/sodipodi-0.dtd"
   xmlns:inkscape="http://www.inkscape.org/namespaces/inkscape"
   x="0in"
   version="1.2"
   viewBox="0 0 241.79 88.7184"
   width="3.35819in"
   y="0in"
   height="1.2322in"
   id="svg2750"
   sodipodi:docname="TickTackBoom_BESCHRIFTUNG.svg"
   inkscape:version="0.92.2 (5c3e80d, 2017-08-06)">
  <metadata
     id="metadata2756">
    <rdf:RDF>
      <cc:Work
         rdf:about="">
        <dc:format>image/svg+xml</dc:format>
        <dc:type
           rdf:resource="http://purl.org/dc/dcmitype/StillImage" />
        <dc:title></dc:title>
      </cc:Work>
    </rdf:RDF>
  </metadata>
  <defs
     id="defs2754" />
  <sodipodi:namedview
     pagecolor="#ffffff"
     bordercolor="#666666"
     borderopacity="1"
     objecttolerance="10"
     gridtolerance="10"
     guidetolerance="10"
     inkscape:pageopacity="0"
     inkscape:pageshadow="2"
     inkscape:window-width="1366"
     inkscape:window-height="749"
     id="namedview2752"
     showgrid="false"
     inkscape:zoom="1.9976038"
     inkscape:cx="130.62429"
     inkscape:cy="57.151044"
     inkscape:window-x="-4"
     inkscape:window-y="-4"
     inkscape:window-maximized="1"
     inkscape:current-layer="g2748" />
  <g
     transform="matrix(-1, 0, 0, 1, 241.79, 0)"
     id="g2748">
    <g
       partID="854668492"
       id="g2285"
       transform="matrix(1,0,0,-1,0,88.715008)">
      <g
         transform="translate(147.135,71.0713)"
         id="g2283">
        <g
           transform="rotate(-90)"
           id="g2281">
          <g
             id="g2279"
             gorn="0.2">
            <path
               style="stroke:#000000;stroke-width:0.72000003"
               d="M 0.72000003,0.72000003 V 87.120003"
               id="line2269" />
            <path
               style="stroke:#000000;stroke-width:0.72000003"
               d="M 0.72000003,87.120003 H 51.119999"
               id="line2271" />
            <path
               style="stroke:#000000;stroke-width:0.72000003"
               d="M 51.119999,87.120003 V 0.72000003"
               id="line2273" />
            <path
               style="stroke:#000000;stroke-width:0.72000003"
               d="M 0.72000003,0.72000003 H 22.32"
               id="line2275" />
            <path
               style="stroke:#000000;stroke-width:0.72000003"
               d="M 29.52,0.72000003 H 51.119999"
               id="line2277" />
          </g>
        </g>
      </g>
    </g>
    <g
       partID="854668552"
       id="g2551"
       transform="matrix(1,0,0,-1,0,88.715008)">
      <g
         transform="translate(56.0641,85.3386)"
         id="g2549">
        <g
           transform="rotate(-90)"
           id="g2547">
          <g
             id="g2545">
            <path
               style="stroke:#000000;stroke-width:0.72000003"
               d="M 1.4400001,1.4400001 V 30.24"
               id="line2535" />
            <path
               style="stroke:#000000;stroke-width:0.72000003"
               d="M 1.4400001,30.24 H 8.6400003"
               id="line2537" />
            <path
               style="stroke:#000000;stroke-width:0.72000003"
               d="M 8.6400003,30.24 V 1.4400001"
               id="line2539" />
            <path
               style="stroke:#000000;stroke-width:0.72000003"
               d="M 8.6400003,1.4400001 H 1.4400001"
               id="line2541" />
            <path
               style="stroke:#000000;stroke-width:0.36000001"
               d="M 1.4400001,3.96 3.96,1.4400001"
               id="line2543" />
            <!-- 120 -->
          </g>
        </g>
      </g>
    </g>
    <g
       partID="854702902"
       id="g2561"
       transform="matrix(1,0,0,-1,0,88.715008)">
      <g
         transform="translate(149.193,68.0022)"
         id="g2559">
        <g
           transform="rotate(135)"
           id="g2557">
          <g
             id="g2555">
            <path
               style="fill:none;stroke:#000000;stroke-width:0.57599998"
               d="M 33.736799,17.0124 A 16.7244,16.7244 0 0 1 17.0124,33.736799 16.7244,16.7244 0 0 1 0.28800011,17.0124 16.7244,16.7244 0 0 1 17.0124,0.28800011 16.7244,16.7244 0 0 1 33.736799,17.0124 Z"
               id="circle2553" />
          </g>
        </g>
      </g>
    </g>
    <g
       partID="854712182"
       id="g2577"
       transform="matrix(1,0,0,-1,0,88.715008)">
      <g
         transform="translate(200.386,33.9946)"
         id="g2575">
        <g
           id="g2573">
          <path
             style="stroke:#000000;stroke-width:0.57599998;stroke-linecap:round"
             d="M 18,0.43200001 H 5.7600002"
             id="line2563" />
          <path
             style="stroke:#000000;stroke-width:0.57599998;stroke-linecap:round"
             d="M 5.7600002,17.712 H 18"
             id="line2565" />
          <path
             style="stroke:#000000;stroke-width:0.57599998;stroke-linecap:round"
             d="M 20.52,6.2430201 V 11.952"
             id="line2567" />
          <path
             style="stroke:#000000;stroke-width:0.57599998;stroke-linecap:round"
             d="M 3.24,6.15798 V 11.952"
             id="line2569" />
          <path
             style="fill:none;stroke:#000000;stroke-width:0.57599998"
             d="M 16.92,9.0719995 A 5.04,5.04 0 0 1 11.88,14.112 5.04,5.04 0 0 1 6.8400002,9.0719995 5.04,5.04 0 0 1 11.88,4.0319996 5.04,5.04 0 0 1 16.92,9.0719995 Z"
             id="circle2571" />
        </g>
      </g>
    </g>
    <g
       partID="854704622"
       id="g2593"
       transform="matrix(1,0,0,-1,0,88.715008)">
      <g
         transform="translate(115.786,9.13912)"
         id="g2591">
        <g
           id="g2589">
          <path
             style="stroke:#000000;stroke-width:0.57599998;stroke-linecap:round"
             d="M 18,0.43200001 H 5.7600002"
             id="line2579" />
          <path
             style="stroke:#000000;stroke-width:0.57599998;stroke-linecap:round"
             d="M 5.7600002,17.712 H 18"
             id="line2581" />
          <path
             style="stroke:#000000;stroke-width:0.57599998;stroke-linecap:round"
             d="M 20.52,6.2430201 V 11.952"
             id="line2583" />
          <path
             style="stroke:#000000;stroke-width:0.57599998;stroke-linecap:round"
             d="M 3.24,6.15798 V 11.952"
             id="line2585" />
          <path
             style="fill:none;stroke:#000000;stroke-width:0.57599998"
             d="M 16.92,9.0719995 A 5.04,5.04 0 0 1 11.88,14.112 5.04,5.04 0 0 1 6.8400002,9.0719995 5.04,5.04 0 0 1 11.88,4.0319996 5.04,5.04 0 0 1 16.92,9.0719995 Z"
             id="circle2587" />
        </g>
      </g>
    </g>
    <g
       partID="854668550"
       id="partLabel"
       transform="matrix(-1,0,0,1,110.08709,-57.34316)">
      <g
         transform="translate(61.3974,65.2586)"
         id="g2600">
        <g
           id="g2598">
          <g
             font-size="7"
             font-weight="normal"
             font-style="normal"
             id="silkscreenLabel"
             style="font-style:normal;font-weight:normal;font-size:7px;font-family:OCRA;fill:#000000;fill-opacity:1;stroke:none">
            <g
               aria-label="OLED"
               style=""
               id="text2595">
              <path
                 d="m -0.14076738,-1.3381953 0.7226572,1.47265818 q 0.15234395,0.30078164 0.15234395,0.6523446 0,0.34375042 -0.15234395,0.64843832 l -0.7226572,1.4570332 q -0.23046905,0.4804694 -0.78125103,0.4804694 -0.26171909,0 -0.47265689,-0.136719 Q -1.6017068,3.0993105 -1.7071757,2.892279 L -2.4337391,1.4352458 q -0.1445315,-0.2851566 -0.1445315,-0.64843832 0,-0.36328172 0.1445315,-0.6523446 l 0.7265634,-1.47265818 q 0.2460941,-0.4804694 0.78515729,-0.4804694 0.54687572,0 0.78125103,0.4804694 z m -1.00000132,0.3281254 -0.6796884,1.38281434 q -0.09375,0.20703152 -0.09375,0.40625053 0,0.21484404 0.09375,0.41015683 l 0.6992197,1.3984393 q 0.054688,0.1289064 0.19921899,0.1289064 0.12500017,0 0.19140651,-0.1289064 L -0.02748598,1.1891518 Q 0.0701704,0.98212024 0.0701704,0.77899497 q 0,-0.21484403 -0.09765638,-0.40625053 l -0.6875009,-1.38281434 q -0.0664063,-0.1523439 -0.20703153,-0.1523439 -0.14062519,0 -0.21875029,0.1523439 z"
                 style="font-style:normal;font-variant:normal;font-weight:normal;font-stretch:normal;font-size:8.00001049px;font-family:'OCR A Extended';-inkscape-font-specification:'OCR A Extended'"
                 id="path3468" />
              <path
                 d="m 2.2576731,3.3727484 v -4.8632877 q 0,-0.1328126 0.097656,-0.230469 0.097656,-0.097656 0.2304691,-0.097656 0.1328126,0 0.230469,0.097656 0.097656,0.097656 0.097656,0.230469 v 4.2070368 h 2.3203155 q 0.136719,0 0.2343753,0.097656 0.1015627,0.09375 0.1015627,0.230469 0,0.136719 -0.1015627,0.2343754 -0.097656,0.09375 -0.2343753,0.09375 z"
                 style="font-style:normal;font-variant:normal;font-weight:normal;font-stretch:normal;font-size:8.00001049px;font-family:'OCR A Extended';-inkscape-font-specification:'OCR A Extended'"
                 id="path3470" />
              <path
                 d="M 10.062371,-1.1546013 H 7.7420552 v 1.59765833 h 1.0000013 q 0.1328127,0 0.2304691,0.0976564 0.097656,0.0976564 0.097656,0.23046905 0,0.14062519 -0.097656,0.23828154 -0.09375,0.097656 -0.2304691,0.097656 H 7.7420552 v 1.6093771 h 2.3281278 q 0.132813,0 0.230469,0.097656 0.09766,0.09375 0.09766,0.230469 0,0.136719 -0.101563,0.2343754 -0.09766,0.09375 -0.234375,0.09375 H 7.0858043 v -5.1914131 h 2.9765667 q 0.136719,0 0.234375,0.1015627 0.101563,0.097656 0.101563,0.2343753 0,0.1328126 -0.101563,0.230469 -0.09766,0.097656 -0.234375,0.097656 z"
                 style="font-style:normal;font-variant:normal;font-weight:normal;font-stretch:normal;font-size:8.00001049px;font-family:'OCR A Extended';-inkscape-font-specification:'OCR A Extended'"
                 id="path3472" />
              <path
                 d="m 12.234249,-1.8186647 h 1.296877 q 0.253906,0.00391 0.492188,0.1640627 0.242188,0.1601565 0.355469,0.3867193 l 0.648438,1.31250171 q 0.183594,0.35546922 0.183594,0.74218847 0,0.35937552 -0.195312,0.73828222 l -0.652345,1.2968767 q -0.125,0.2500003 -0.359376,0.4023443 -0.234375,0.1484377 -0.523438,0.1484377 h -1.253908 q -0.136719,0 -0.234375,-0.097656 -0.09375,-0.097656 -0.09375,-0.2304691 0,-0.1367189 0.09375,-0.2343753 0.09766,-0.1015626 0.234375,-0.1015626 h 0.343751 v -3.8632863 h -0.335938 q -0.136719,0 -0.234375,-0.097656 -0.09375,-0.1015626 -0.09375,-0.2382816 0,-0.1328126 0.09375,-0.230469 0.09766,-0.097656 0.234375,-0.097656 z m 0.992189,0.6640634 v 3.8710988 h 0.230469 q 0.21875,0 0.328125,-0.214844 l 0.648439,-1.2890642 q 0.121093,-0.25390659 0.121093,-0.42578182 0,-0.21484403 -0.09766,-0.40625053 L 13.785032,-0.9553823 q -0.105469,-0.199219 -0.34375,-0.199219 z"
                 style="font-style:normal;font-variant:normal;font-weight:normal;font-stretch:normal;font-size:8.00001049px;font-family:'OCR A Extended';-inkscape-font-specification:'OCR A Extended'"
                 id="path3474" />
            </g>
          </g>
        </g>
      </g>
    </g>
    <g
       partID="854702900"
       id="g2617"
       transform="matrix(-1,0,0,1,249.81524,-46.354086)">
      <g
         transform="translate(109.673,64.7865)"
         id="g2615">
        <g
           font-size="7"
           font-weight="normal"
           font-style="normal"
           id="g2613"
           style="font-style:normal;font-weight:normal;font-size:7px;font-family:OCRA;fill:#000000;fill-opacity:1;stroke:none">
          <g
             aria-label="BUZZER"
             style="font-style:normal;font-variant:normal;font-weight:normal;font-stretch:normal;font-size:8.00001049px;font-family:'OCR A Extended';-inkscape-font-specification:'OCR A Extended'"
             id="text2611">
            <path
               d="m 4.1132866,3.6406229 v 0.2890629 q 0,0.5429694 -0.3867192,0.9335949 Q 3.3437544,5.25 2.8007849,5.25 H 0.79296979 V 0.05858694 H 2.8007849 q 0.5429695,0 0.9257825,0.38671926 0.3867192,0.38671926 0.3867192,0.933595 v 0.2773441 q 0,0.582032 -0.4492193,0.9921888 0.4492193,0.4179693 0.4492193,0.9921888 z M 3.4414108,1.6484328 V 1.3789012 q 0,-0.2734379 -0.1953128,-0.46875064 Q 3.0546915,0.7148378 2.7851599,0.7148378 H 1.4492207 v 1.5898458 h 1.3359392 q 0.2656254,0 0.4609381,-0.1914065 0.1953128,-0.1953127 0.1953128,-0.4648443 z m 0,2.281253 V 3.6562479 q 0,-0.2734378 -0.1953128,-0.4687506 Q 3.0546915,2.9921845 2.7851599,2.9921845 H 1.4570332 v 1.5937521 h 1.3281267 q 0.2656254,0 0.4609381,-0.1914065 0.1953128,-0.1953127 0.1953128,-0.4648443 z"
               style="font-style:normal;font-variant:normal;font-weight:normal;font-stretch:normal;font-size:8.00001049px;font-family:'OCR A Extended';-inkscape-font-specification:'OCR A Extended'"
               id="path3424" />
            <path
               d="M 5.6289135,4.2656237 V 0.39452488 q 0,-0.13671893 0.097656,-0.2343753 0.097656,-0.10156264 0.230469,-0.10156264 0.1328127,0 0.2304691,0.09765638 0.097656,0.0976564 0.097656,0.23046905 V 4.2656237 q 0,0.1289064 0.097656,0.2265628 0.097656,0.09375 0.2304691,0.09375 h 1.3437518 q 0.1367189,0 0.230469,-0.09375 0.097656,-0.09375 0.097656,-0.2265628 V 0.39452488 q 0,-0.14062518 0.09375,-0.23828156 0.097656,-0.09765638 0.2343753,-0.09765638 0.1367189,0 0.2304691,0.09765638 0.097656,0.0976564 0.097656,0.23828156 V 4.2578112 q 0,0.4062505 -0.2929691,0.6992197 Q 8.3593858,5.25 7.9570416,5.25 H 6.6132898 Q 6.2070393,5.25 5.9179764,4.9609371 5.6289135,4.6718742 5.6289135,4.2656237 Z"
               style="font-style:normal;font-variant:normal;font-weight:normal;font-stretch:normal;font-size:8.00001049px;font-family:'OCR A Extended';-inkscape-font-specification:'OCR A Extended'"
               id="path3426" />
            <path
               d="m 10.777358,0.05858694 h 2.992191 V 0.4804625 L 11.35939,4.5937491 h 2.082034 q 0.136719,0 0.230469,0.097656 0.09766,0.09375 0.09766,0.2304691 0,0.1328126 -0.09766,0.230469 Q 13.574236,5.25 13.441424,5.25 H 10.457045 V 4.8164057 l 2.406253,-4.09375539 h -2.08594 q -0.132813,0 -0.226563,-0.0976564 -0.09375,-0.10156264 -0.09375,-0.23828157 0,-0.13281267 0.09375,-0.23046905 0.09375,-0.09765638 0.226563,-0.09765638 z"
               style="font-style:normal;font-variant:normal;font-weight:normal;font-stretch:normal;font-size:8.00001049px;font-family:'OCR A Extended';-inkscape-font-specification:'OCR A Extended'"
               id="path3428" />
            <path
               d="m 15.605489,0.05858694 h 2.992192 V 0.4804625 l -2.41016,4.1132866 h 2.082034 q 0.136719,0 0.230469,0.097656 0.09766,0.09375 0.09766,0.2304691 0,0.1328126 -0.09766,0.230469 Q 18.402368,5.25 18.269555,5.25 H 15.285176 V 4.8164057 L 17.69143,0.72265031 h -2.085941 q -0.132812,0 -0.226563,-0.0976564 -0.09375,-0.10156264 -0.09375,-0.23828157 0,-0.13281267 0.09375,-0.23046905 0.09375,-0.09765638 0.226563,-0.09765638 z"
               style="font-style:normal;font-variant:normal;font-weight:normal;font-stretch:normal;font-size:8.00001049px;font-family:'OCR A Extended';-inkscape-font-specification:'OCR A Extended'"
               id="path3430" />
            <path
               d="M 23.097686,0.72265031 H 20.77737 V 2.3203087 h 1.000002 q 0.132812,0 0.230469,0.097656 0.09766,0.097656 0.09766,0.2304691 0,0.1406252 -0.09766,0.2382816 -0.09375,0.097656 -0.230469,0.097656 H 20.77737 v 1.6093771 h 2.328129 q 0.132812,0 0.230469,0.097656 0.09766,0.09375 0.09766,0.2304691 0,0.1367189 -0.101563,0.2343753 Q 23.234405,5.25 23.097686,5.25 H 20.12112 V 0.05858694 h 2.976566 q 0.136719,0 0.234375,0.10156264 0.101563,0.0976564 0.101563,0.2343753 0,0.13281268 -0.101563,0.23046906 -0.09766,0.0976564 -0.234375,0.0976564 z"
               style="font-style:normal;font-variant:normal;font-weight:normal;font-stretch:normal;font-size:8.00001049px;font-family:'OCR A Extended';-inkscape-font-specification:'OCR A Extended'"
               id="path3432" />
            <path
               d="M 24.957063,4.9218746 V 0.05858694 h 2.320315 q 0.402345,0 0.691408,0.29296914 0.292969,0.29296913 0.292969,0.69921962 v 0.3750005 q 0,0.4101568 -0.289063,0.703126 -0.289063,0.2890628 -0.695314,0.2890628 h -0.417969 l 1.343752,2.3046906 q 0.0625,0.1015626 0.0625,0.2031252 0,0.1328127 -0.101563,0.2304691 Q 28.062536,5.25 27.933629,5.25 27.738316,5.25 27.636754,5.0742185 L 26.093783,2.417965 h -0.472657 v 2.5039096 q 0,0.1367189 -0.101562,0.2343753 Q 25.421907,5.25 25.285188,5.25 q -0.136719,0 -0.234375,-0.09375 -0.09375,-0.097656 -0.09375,-0.2343753 z m 0.656251,-3.1601604 h 1.664064 q 0.136719,0 0.230469,-0.09375 0.09766,-0.097656 0.09766,-0.2343754 v -0.382813 q 0,-0.13671889 -0.09766,-0.23046901 -0.09375,-0.0976564 -0.230469,-0.0976564 h -1.664064 z"
               style="font-style:normal;font-variant:normal;font-weight:normal;font-stretch:normal;font-size:8.00001049px;font-family:'OCR A Extended';-inkscape-font-specification:'OCR A Extended'"
               id="path3434" />
          </g>
        </g>
      </g>
    </g>
    <g
       aria-label="Tick Tack Boom
 by
 Mini Revollo
made in the
erfindergarden"
       transform="scale(-1,1)"
       style="font-style:normal;font-variant:normal;font-weight:normal;font-stretch:normal;font-size:22.00003052px;line-height:0.5;font-family:'OCR A Extended';-inkscape-font-specification:'OCR A Extended';font-variant-ligatures:normal;font-variant-caps:normal;font-variant-numeric:normal;font-feature-settings:normal;text-align:start;letter-spacing:0px;word-spacing:0px;writing-mode:lr-tb;text-anchor:start;fill:#000000;fill-opacity:1;stroke:none;stroke-width:0.75000101"
       id="text3305">
      <path
         d="m -102.27525,21.022606 v -1.1084 h 4.140633 v 1.118166 q 0,0.170899 -0.12207,0.292969 -0.122071,0.117188 -0.288087,0.117188 -0.170898,0 -0.297852,-0.122071 -0.12207,-0.12207 -0.12207,-0.288086 V 20.73452 h -0.830079 v 5.24903 q 0,0.170899 -0.122071,0.29297 -0.122074,0.117187 -0.288084,0.117187 -0.17578,0 -0.29785,-0.117187 -0.12207,-0.122071 -0.12207,-0.29297 v -5.24903 h -0.83008 v 0.288086 q 0,0.170899 -0.12207,0.292969 -0.11719,0.117188 -0.28809,0.117188 -0.1709,0 -0.29297,-0.117188 -0.11719,-0.12207 -0.11719,-0.292969 z"
         style="font-size:10.00001335px;line-height:0.5;text-align:center;text-anchor:middle;stroke-width:0.75000101"
         id="path3327" />
      <path
         d="m -94.58969,19.543112 h 0.429688 q 0.170899,0 0.288086,0.122071 0.122071,0.117187 0.122071,0.288086 v 0.351563 q 0,0.170899 -0.122071,0.297852 -0.117187,0.12207 -0.288086,0.12207 h -0.439454 q -0.175781,0 -0.297852,-0.126953 -0.117187,-0.126953 -0.112305,-0.283203 l 0.0098,-0.361329 q 0,-0.170899 0.117188,-0.288086 0.12207,-0.122071 0.292969,-0.122071 z m 1.669924,6.84083 h -2.500003 q -0.170899,0 -0.29297,-0.117188 -0.117187,-0.12207 -0.117187,-0.292969 0,-0.166016 0.117187,-0.288086 0.122071,-0.122071 0.29297,-0.122071 h 0.839844 v -3.061527 h -0.830079 q -0.170898,0 -0.292969,-0.122071 -0.117188,-0.12207 -0.117188,-0.288086 0,-0.170899 0.117188,-0.292969 0.122071,-0.126954 0.292969,-0.126954 h 1.250002 q 0.170899,0 0.288086,0.126954 0.122071,0.12207 0.122071,0.292969 v 3.471684 h 0.820313 q 0.170899,0 0.292969,0.122071 0.126954,0.117187 0.126954,0.288086 0,0.170899 -0.122071,0.292969 -0.12207,0.117188 -0.288086,0.117188 z"
         style="font-size:10.00001335px;line-height:0.5;text-align:center;text-anchor:middle;stroke-width:0.75000101"
         id="path3329" />
      <path
         d="m -86.464679,26.393707 h -1.752932 q -0.463868,0 -0.791017,-0.27832 l -0.795899,-0.693361 q -0.38086,-0.317383 -0.38086,-0.859376 v -1.069337 q -0.01953,-0.522462 0.429688,-0.908205 l 0.717774,-0.620118 q 0.34668,-0.283203 0.742189,-0.283203 h 1.840822 q 0.170899,0 0.288087,0.12207 0.12207,0.117188 0.12207,0.288087 0,0.175781 -0.12207,0.292969 -0.117188,0.117188 -0.288087,0.117188 h -1.762697 q -0.166016,0 -0.317384,0.131836 l -0.65918,0.561524 q -0.161133,0.136719 -0.161133,0.366211 v 1.000978 q 0,0.161133 0.126953,0.273438 l 0.722657,0.615235 q 0.136719,0.122071 0.361329,0.122071 h 1.67969 q 0.166016,0 0.288086,0.12207 0.122071,0.117188 0.122071,0.288086 0,0.170899 -0.122071,0.29297 -0.117188,0.117187 -0.288086,0.117187 z"
         style="font-size:10.00001335px;line-height:0.5;text-align:center;text-anchor:middle;stroke-width:0.75000101"
         id="path3331" />
      <path
         d="m -84.159988,25.98355 v -5.659187 q 0,-0.175781 0.117188,-0.297852 0.12207,-0.12207 0.292969,-0.12207 0.170898,0 0.288086,0.12207 0.12207,0.122071 0.12207,0.297852 v 3.349614 l 2.207035,-1.879885 q 0.141601,-0.117188 0.307617,-0.117188 0.175782,0 0.292969,0.126953 0.117188,0.122071 0.117188,0.29297 0,0.180664 -0.126953,0.288086 l -1.718753,1.459963 2.119144,1.860354 q 0.126953,0.102539 0.126953,0.268555 0,0.161133 -0.117187,0.292969 -0.117188,0.126953 -0.288087,0.126953 -0.170898,0 -0.302735,-0.112305 l -2.187502,-1.899416 -0.429689,0.361328 v 1.240236 q 0,0.170899 -0.12207,0.29297 -0.117188,0.117187 -0.288086,0.117187 -0.170899,0 -0.292969,-0.117187 -0.117188,-0.122071 -0.117188,-0.29297 z"
         style="font-size:10.00001335px;line-height:0.5;text-align:center;text-anchor:middle;stroke-width:0.75000101"
         id="path3333" />
      <path
         d="m -72.099426,21.022606 v -1.1084 h 4.140631 v 1.118166 q 0,0.170899 -0.122071,0.292969 -0.12207,0.117188 -0.288086,0.117188 -0.170899,0 -0.297852,-0.122071 -0.122071,-0.12207 -0.122071,-0.288086 V 20.73452 h -0.830079 v 5.24903 q 0,0.170899 -0.12207,0.29297 -0.122071,0.117187 -0.288087,0.117187 -0.175781,0 -0.297852,-0.117187 -0.12207,-0.122071 -0.12207,-0.29297 v -5.24903 h -0.830079 v 0.288086 q 0,0.170899 -0.122071,0.292969 -0.117188,0.117188 -0.288086,0.117188 -0.170899,0 -0.292969,-0.117188 -0.117188,-0.12207 -0.117188,-0.292969 z"
         style="font-size:10.00001335px;line-height:0.5;text-align:center;text-anchor:middle;stroke-width:0.75000101"
         id="path3335" />
      <path
         d="m -64.83379,23.434719 h 1.606448 q 0.131836,0 0.380859,0.05859 l -0.0098,-0.581056 q 0,-0.170898 -0.122071,-0.288086 -0.117187,-0.12207 -0.288086,-0.12207 h -1.557619 q -0.166016,0 -0.288087,-0.122071 -0.12207,-0.12207 -0.12207,-0.288086 0,-0.170899 0.117188,-0.288087 0.12207,-0.12207 0.292969,-0.12207 h 1.557619 q 0.507813,0 0.864259,0.356446 0.361329,0.356445 0.375977,0.874024 l 0.102539,3.071293 q 0,0.170899 -0.12207,0.29297 -0.122071,0.117187 -0.288087,0.117187 -0.175781,0 -0.297851,-0.117187 -0.122071,-0.122071 -0.122071,-0.29297 l -0.69336,0.410157 h -1.386721 q -0.517579,0 -0.878907,-0.361328 -0.361329,-0.361329 -0.361329,-0.878908 v -0.478516 q 0,-0.512696 0.361329,-0.874025 0.366211,-0.366211 0.878907,-0.366211 z m 2.050784,1.596682 -0.02441,-0.34668 q -0.0049,-0.175782 -0.12207,-0.29297 -0.117188,-0.117187 -0.288087,-0.117187 h -1.616213 q -0.170899,0 -0.292969,0.12207 -0.117188,0.117188 -0.117188,0.288087 v 0.458985 q 0,0.166015 0.122071,0.288086 0.12207,0.12207 0.288086,0.12207 h 1.157228 z"
         style="font-size:10.00001335px;line-height:0.5;text-align:center;text-anchor:middle;stroke-width:0.75000101"
         id="path3337" />
      <path
         d="m -56.288857,26.393707 h -1.752932 q -0.463868,0 -0.791017,-0.27832 l -0.795899,-0.693361 q -0.38086,-0.317383 -0.38086,-0.859376 v -1.069337 q -0.01953,-0.522462 0.429688,-0.908205 l 0.717774,-0.620118 q 0.346681,-0.283203 0.742189,-0.283203 h 1.840823 q 0.170898,0 0.288086,0.12207 0.12207,0.117188 0.12207,0.288087 0,0.175781 -0.12207,0.292969 -0.117188,0.117188 -0.288086,0.117188 h -1.762698 q -0.166016,0 -0.317383,0.131836 l -0.659181,0.561524 q -0.161133,0.136719 -0.161133,0.366211 v 1.000978 q 0,0.161133 0.126953,0.273438 l 0.722658,0.615235 q 0.136719,0.122071 0.361328,0.122071 h 1.67969 q 0.166016,0 0.288086,0.12207 0.122071,0.117188 0.122071,0.288086 0,0.170899 -0.122071,0.29297 -0.117187,0.117187 -0.288086,0.117187 z"
         style="font-size:10.00001335px;line-height:0.5;text-align:center;text-anchor:middle;stroke-width:0.75000101"
         id="path3339" />
      <path
         d="m -53.984167,25.98355 v -5.659187 q 0,-0.175781 0.117188,-0.297852 0.12207,-0.12207 0.292969,-0.12207 0.170899,0 0.288086,0.12207 0.122071,0.122071 0.122071,0.297852 v 3.349614 l 2.207034,-1.879885 q 0.141602,-0.117188 0.307618,-0.117188 0.175781,0 0.292969,0.126953 0.117187,0.122071 0.117187,0.29297 0,0.180664 -0.126953,0.288086 l -1.718752,1.459963 2.119143,1.860354 q 0.126954,0.102539 0.126954,0.268555 0,0.161133 -0.117188,0.292969 -0.117188,0.126953 -0.288086,0.126953 -0.170899,0 -0.302735,-0.112305 l -2.187503,-1.899416 -0.429688,0.361328 v 1.240236 q 0,0.170899 -0.122071,0.29297 -0.117187,0.117187 -0.288086,0.117187 -0.170899,0 -0.292969,-0.117187 -0.117188,-0.122071 -0.117188,-0.29297 z"
         style="font-size:10.00001335px;line-height:0.5;text-align:center;text-anchor:middle;stroke-width:0.75000101"
         id="path3341" />
      <path
         d="m -37.782974,24.381986 v 0.361328 q 0,0.678712 -0.483399,1.166994 -0.478517,0.483399 -1.157228,0.483399 h -2.509769 v -6.489266 h 2.509769 q 0.678711,0 1.157228,0.483399 0.483399,0.483399 0.483399,1.166994 v 0.34668 q 0,0.72754 -0.561524,1.240236 0.561524,0.522461 0.561524,1.240236 z m -0.839845,-2.490238 v -0.336914 q 0,-0.341798 -0.244141,-0.585939 -0.239258,-0.244141 -0.576173,-0.244141 h -1.669924 v 1.987308 h 1.669924 q 0.332032,0 0.576173,-0.239258 0.244141,-0.244141 0.244141,-0.581056 z m 0,2.851566 v -0.341797 q 0,-0.341797 -0.244141,-0.585938 -0.239258,-0.244141 -0.576173,-0.244141 h -1.660158 v 1.99219 h 1.660158 q 0.332032,0 0.576173,-0.239258 0.244141,-0.244141 0.244141,-0.581056 z"
         style="font-size:10.00001335px;line-height:0.5;text-align:center;text-anchor:middle;stroke-width:0.75000101"
         id="path3343" />
      <path
         d="m -31.747806,23.161281 v 1.733401 q 0,0.551758 -0.522462,1.020509 -0.517579,0.468751 -1.069337,0.468751 h -0.961916 q -0.561524,0 -1.07422,-0.473634 -0.512696,-0.478516 -0.512696,-1.015626 v -1.733401 q 0,-0.53711 0.498048,-1.010743 0.50293,-0.478517 1.088868,-0.478517 h 0.961916 q 0.551758,-0.0098 1.069337,0.458985 0.522462,0.468751 0.522462,1.030275 z m -3.310552,0.03418 v 1.660158 q 0,0.22461 0.161133,0.356446 l 0.307618,0.263672 q 0.102539,0.08789 0.288086,0.08789 h 0.95215 q 0.209961,0 0.38086,-0.151367 l 0.249024,-0.219727 q 0.151367,-0.117188 0.151367,-0.327149 v -1.660159 q 0,-0.24414 -0.151367,-0.361328 l -0.288087,-0.229493 q -0.146484,-0.12207 -0.341797,-0.12207 h -0.849611 q -0.27832,0 -0.429688,0.131836 l -0.27832,0.239258 q -0.151368,0.126953 -0.151368,0.332032 z"
         style="font-size:10.00001335px;line-height:0.5;text-align:center;text-anchor:middle;stroke-width:0.75000101"
         id="path3345" />
      <path
         d="m -25.712643,23.161281 v 1.733401 q 0,0.551758 -0.522461,1.020509 -0.517579,0.468751 -1.069338,0.468751 h -0.961915 q -0.561524,0 -1.07422,-0.473634 -0.512696,-0.478516 -0.512696,-1.015626 v -1.733401 q 0,-0.53711 0.498047,-1.010743 0.502931,-0.478517 1.088869,-0.478517 h 0.961915 q 0.551759,-0.0098 1.069338,0.458985 0.522461,0.468751 0.522461,1.030275 z m -3.310551,0.03418 v 1.660158 q 0,0.22461 0.161133,0.356446 l 0.307618,0.263672 q 0.102539,0.08789 0.288086,0.08789 h 0.95215 q 0.209961,0 0.38086,-0.151367 l 0.249023,-0.219727 q 0.151368,-0.117188 0.151368,-0.327149 v -1.660159 q 0,-0.24414 -0.151368,-0.361328 l -0.288086,-0.229493 q -0.146484,-0.12207 -0.341797,-0.12207 h -0.849611 q -0.27832,0 -0.429688,0.131836 l -0.278321,0.239258 q -0.151367,0.126953 -0.151367,0.332032 z"
         style="font-size:10.00001335px;line-height:0.5;text-align:center;text-anchor:middle;stroke-width:0.75000101"
         id="path3347" />
      <path
         d="m -23.910883,25.98355 v -3.891606 q 0,-0.170899 0.117188,-0.288087 0.12207,-0.12207 0.292969,-0.12207 0.317383,0 0.400391,0.3125 0.341797,-0.322266 0.76172,-0.322266 0.493165,0 0.810548,0.419923 0.390625,-0.419923 0.859376,-0.419923 0.38086,0 0.659181,0.273438 0.283203,0.268555 0.302734,0.688478 l 0.117188,3.349613 q 0,0.166016 -0.12207,0.288087 -0.122071,0.12207 -0.288087,0.12207 -0.170898,0 -0.292969,-0.12207 -0.12207,-0.122071 -0.126953,-0.288087 l -0.09766,-3.217777 q -0.0098,-0.263672 -0.161133,-0.263672 -0.08301,0 -0.170898,0.07324 l -0.488282,0.410157 v 2.99805 q 0,0.166016 -0.122071,0.283204 -0.117187,0.117188 -0.288086,0.117188 -0.166016,0 -0.288086,-0.117188 -0.122071,-0.12207 -0.122071,-0.292969 v -3.261723 q 0,-0.209961 -0.180664,-0.209961 -0.08789,0 -0.161133,0.06348 l -0.590821,0.498048 v 2.919925 q 0,0.166016 -0.117188,0.288087 -0.117188,0.12207 -0.283203,0.12207 -0.170899,0 -0.297852,-0.12207 -0.122071,-0.122071 -0.122071,-0.288087 z"
         style="font-size:10.00001335px;line-height:0.5;text-align:center;text-anchor:middle;stroke-width:0.75000101"
         id="path3349" />
      <path
         d="m -62.197069,31.756887 v 1.928714 l 0.361329,-0.288087 q 0.341797,-0.283203 0.708009,-0.283203 h 0.751954 q 0.415039,0 0.737305,0.283203 l 0.390626,0.336915 q 0.161133,0.141601 0.263672,0.405274 0.107422,0.263672 0.107422,0.517579 v 1.660158 q 0,0.22461 -0.09766,0.473633 -0.09766,0.249024 -0.22461,0.366212 l -0.356446,0.336914 q -0.136719,0.131836 -0.390625,0.239259 -0.253907,0.102539 -0.429688,0.102539 h -0.703126 q -0.512696,0 -1.118166,-0.57129 v 0.161133 q 0,0.170899 -0.12207,0.292969 -0.117188,0.117188 -0.288087,0.117188 -0.170898,0 -0.292969,-0.117188 -0.117187,-0.12207 -0.117187,-0.292969 v -5.668953 q 0,-0.170899 0.12207,-0.288086 0.122071,-0.122071 0.288086,-0.122071 0.170899,0 0.288087,0.122071 0.12207,0.117187 0.12207,0.288086 z m 1.757815,2.187503 h -0.566407 q -0.205078,0 -0.3125,0.09277 l -0.737306,0.629883 q -0.141602,0.126953 -0.141602,0.38086 v 0.927736 q 0,0.205078 0.161133,0.341797 l 0.659181,0.556641 q 0.141602,0.131836 0.297852,0.131836 h 0.668946 q 0.141602,0 0.244141,-0.08789 l 0.327149,-0.292969 q 0.131836,-0.09766 0.131836,-0.278321 v -1.728518 q 0,-0.205078 -0.131836,-0.3125 l -0.297852,-0.249024 q -0.136719,-0.112305 -0.302735,-0.112305 z"
         style="font-size:10.00001335px;line-height:0.5;text-align:center;text-anchor:middle;stroke-width:0.75000101"
         id="path3351" />
      <path
         d="m -52.861119,34.32525 -2.211917,5.000007 q -0.112305,0.268555 -0.390625,0.268555 h -1.137697 q -0.170899,0 -0.292969,-0.117188 -0.117188,-0.117188 -0.117188,-0.292969 0,-0.170899 0.117188,-0.288087 0.12207,-0.117187 0.292969,-0.117187 h 0.878907 l 0.561524,-1.303713 h -0.200195 q -0.278321,0 -0.400391,-0.288086 l -1.230471,-2.861332 v -0.791017 q 0,-0.170899 0.117188,-0.288086 0.117188,-0.122071 0.283204,-0.122071 0.170898,0 0.292969,0.122071 0.126953,0.117187 0.126953,0.288086 v 0.610353 l 1.079103,2.500003 h 0.288086 l 1.113283,-2.490238 v -0.629883 q 0,-0.161134 0.12207,-0.283204 0.126954,-0.126953 0.297852,-0.126953 0.166016,0 0.288087,0.12207 0.12207,0.122071 0.12207,0.288087 z"
         style="font-size:10.00001335px;line-height:0.5;text-align:center;text-anchor:middle;stroke-width:0.75000101"
         id="path3353" />
      <path
         d="M -91.562342,45.337851 V 45.12789 l -0.849611,-1.210939 v 4.951178 q 0,0.170899 -0.12207,0.292969 -0.117188,0.117188 -0.288087,0.117188 -0.170898,0 -0.292969,-0.12207 -0.117187,-0.122071 -0.117187,-0.288087 V 42.78902 h 1.059571 l 1.010744,1.469728 1.04004,-1.469728 h 1.040041 v 6.079109 q 0,0.170899 -0.126954,0.292969 -0.12207,0.117188 -0.292969,0.117188 -0.166016,0 -0.288086,-0.12207 -0.122071,-0.122071 -0.122071,-0.288087 v -4.931647 l -0.830079,1.171877 v 0.229492 q 0,0.166016 -0.12207,0.288087 -0.122071,0.12207 -0.288087,0.12207 -0.170898,0 -0.292969,-0.12207 -0.117187,-0.122071 -0.117187,-0.288087 z"
         style="font-size:10.00001335px;line-height:0.5;text-align:center;text-anchor:middle;stroke-width:0.75000101"
         id="path3355" />
      <path
         d="m -85.536944,42.427691 h 0.429688 q 0.170899,0 0.288087,0.122071 0.12207,0.117187 0.12207,0.288086 v 0.351563 q 0,0.170898 -0.12207,0.297852 -0.117188,0.12207 -0.288087,0.12207 h -0.439453 q -0.175782,0 -0.297852,-0.126953 -0.117188,-0.126953 -0.112305,-0.283204 l 0.0098,-0.361328 q 0,-0.170899 0.117187,-0.288086 0.122071,-0.122071 0.292969,-0.122071 z m 1.669924,6.840829 h -2.500003 q -0.170899,0 -0.292969,-0.117187 -0.117188,-0.122071 -0.117188,-0.292969 0,-0.166016 0.117188,-0.288087 0.12207,-0.12207 0.292969,-0.12207 h 0.839845 v -3.061528 h -0.830079 q -0.170899,0 -0.292969,-0.12207 -0.117188,-0.122071 -0.117188,-0.288086 0,-0.170899 0.117188,-0.29297 0.12207,-0.126953 0.292969,-0.126953 h 1.250001 q 0.170899,0 0.288087,0.126953 0.12207,0.122071 0.12207,0.29297 v 3.471684 h 0.820314 q 0.170898,0 0.292969,0.12207 0.126953,0.117188 0.126953,0.288087 0,0.170898 -0.12207,0.292969 -0.122071,0.117187 -0.288087,0.117187 z"
         style="font-size:10.00001335px;line-height:0.5;text-align:center;text-anchor:middle;stroke-width:0.75000101"
         id="path3357" />
      <path
         d="m -79.203927,45.518515 -1.118165,0.727541 v 2.622073 q 0,0.166016 -0.122071,0.288087 -0.12207,0.12207 -0.288086,0.12207 -0.166016,0 -0.288087,-0.12207 -0.12207,-0.122071 -0.12207,-0.288087 v -3.891606 q 0,-0.170899 0.117188,-0.29297 0.12207,-0.126953 0.292969,-0.126953 0.166016,0 0.288086,0.126953 0.122071,0.122071 0.122071,0.29297 v 0.273437 l 0.747071,-0.454102 q 0.375977,-0.239258 0.84961,-0.239258 h 0.38086 q 0.488282,0 0.844728,0.34668 0.356446,0.34668 0.375977,0.854494 l 0.112305,3.110355 q 0.0049,0.166016 -0.117188,0.288087 -0.12207,0.12207 -0.292969,0.12207 -0.161133,0 -0.283203,-0.107422 -0.122071,-0.112305 -0.126954,-0.302735 l -0.12207,-3.061527 q -0.01465,-0.429688 -0.44922,-0.429688 h -0.400391 q -0.185547,0 -0.400391,0.141601 z"
         style="font-size:10.00001335px;line-height:0.5;text-align:center;text-anchor:middle;stroke-width:0.75000101"
         id="path3359" />
      <path
         d="m -73.466615,42.427691 h 0.429688 q 0.170899,0 0.288086,0.122071 0.122071,0.117187 0.122071,0.288086 v 0.351563 q 0,0.170898 -0.122071,0.297852 -0.117187,0.12207 -0.288086,0.12207 h -0.439454 q -0.175781,0 -0.297852,-0.126953 -0.117187,-0.126953 -0.112304,-0.283204 l 0.0098,-0.361328 q 0,-0.170899 0.117188,-0.288086 0.12207,-0.122071 0.292969,-0.122071 z m 1.669924,6.840829 h -2.500003 q -0.170899,0 -0.292969,-0.117187 -0.117188,-0.122071 -0.117188,-0.292969 0,-0.166016 0.117188,-0.288087 0.12207,-0.12207 0.292969,-0.12207 h 0.839845 v -3.061528 h -0.83008 q -0.170898,0 -0.292969,-0.12207 -0.117187,-0.122071 -0.117187,-0.288086 0,-0.170899 0.117187,-0.29297 0.122071,-0.126953 0.292969,-0.126953 h 1.250002 q 0.170899,0 0.288086,0.126953 0.122071,0.122071 0.122071,0.29297 v 3.471684 h 0.820314 q 0.170898,0 0.292969,0.12207 0.126953,0.117188 0.126953,0.288087 0,0.170898 -0.12207,0.292969 -0.122071,0.117187 -0.288087,0.117187 z"
         style="font-size:10.00001335px;line-height:0.5;text-align:center;text-anchor:middle;stroke-width:0.75000101"
         id="path3361" />
      <path
         d="M -63.027147,48.868129 V 42.78902 h 2.900395 q 0.50293,0 0.864259,0.366211 0.366211,0.366212 0.366211,0.874025 v 0.46875 q 0,0.512696 -0.361329,0.878908 -0.361328,0.361328 -0.869141,0.361328 h -0.522462 l 1.67969,2.880864 q 0.07813,0.126953 0.07813,0.253906 0,0.166016 -0.126953,0.288086 -0.126954,0.117188 -0.288087,0.117188 -0.244141,0 -0.371094,-0.219727 l -1.928713,-3.320317 h -0.590822 v 3.129887 q 0,0.170899 -0.126953,0.292969 -0.12207,0.117188 -0.292969,0.117188 -0.170899,0 -0.292969,-0.117188 -0.117188,-0.12207 -0.117188,-0.292969 z m 0.820314,-3.9502 h 2.080081 q 0.170898,0 0.288086,-0.117188 0.12207,-0.12207 0.12207,-0.292969 v -0.478516 q 0,-0.170899 -0.12207,-0.288087 -0.117188,-0.12207 -0.288086,-0.12207 h -2.080081 z"
         style="font-size:10.00001335px;line-height:0.5;text-align:center;text-anchor:middle;stroke-width:0.75000101"
         id="path3363" />
      <path
         d="m -52.870884,46.109337 v 0.991212 q 0,0.166016 -0.12207,0.288086 -0.122071,0.122071 -0.288086,0.122071 h -2.900395 v 0.239258 q 0,0.209961 0.180664,0.356446 l 0.239258,0.200195 q 0.195313,0.151368 0.371095,0.151368 h 2.109378 q 0.166015,0 0.288086,0.12207 0.12207,0.117188 0.12207,0.288086 0,0.166016 -0.126953,0.288087 -0.12207,0.12207 -0.283203,0.12207 h -2.163089 q -0.214844,0 -0.454102,-0.08789 -0.234376,-0.09277 -0.346681,-0.19043 l -0.366211,-0.322266 q -0.170899,-0.136719 -0.288086,-0.380859 -0.112305,-0.244141 -0.112305,-0.44922 v -1.879885 q 0,-0.161133 0.12207,-0.434571 0.126954,-0.273438 0.317384,-0.424805 l 0.341797,-0.268555 q 0.336914,-0.273438 0.747071,-0.273438 h 1.152345 q 0.434571,0 0.820314,0.361328 l 0.307618,0.29297 q 0.332031,0.297851 0.332031,0.888673 z m -3.300785,-0.06348 v 0.634766 h 2.490237 v -0.571289 q 0,-0.229493 -0.141601,-0.351563 l -0.239259,-0.209962 q -0.185547,-0.151367 -0.332031,-0.151367 h -1.030275 q -0.19043,0 -0.34668,0.131836 l -0.239258,0.200196 q -0.161133,0.12207 -0.161133,0.317383 z"
         style="font-size:10.00001335px;line-height:0.5;text-align:center;text-anchor:middle;stroke-width:0.75000101"
         id="path3365" />
      <path
         d="m -46.83572,44.976523 v 0.781251 l -1.4209,3.232426 q -0.136719,0.288086 -0.361329,0.288086 h -0.527344 q -0.288087,0 -0.419923,-0.297852 l -1.411134,-3.212895 v -0.791016 q 0,-0.170899 0.117187,-0.288087 0.122071,-0.12207 0.292969,-0.12207 0.170899,0 0.288087,0.12207 0.12207,0.117188 0.12207,0.288087 v 0.629883 l 1.250002,2.812504 1.240236,-2.822269 v -0.620118 q 0,-0.170899 0.12207,-0.288087 0.122071,-0.12207 0.297852,-0.12207 0.170899,0 0.288087,0.12207 0.12207,0.117188 0.12207,0.288087 z"
         style="font-size:10.00001335px;line-height:0.5;text-align:center;text-anchor:middle;stroke-width:0.75000101"
         id="path3367" />
      <path
         d="m -40.800556,46.04586 v 1.733401 q 0,0.551758 -0.522462,1.020509 -0.517578,0.46875 -1.069337,0.46875 h -0.961915 q -0.561524,0 -1.07422,-0.473633 -0.512696,-0.478516 -0.512696,-1.015626 V 46.04586 q 0,-0.53711 0.498047,-1.010744 0.50293,-0.478516 1.088869,-0.478516 h 0.961915 q 0.551759,-0.0098 1.069337,0.458985 0.522462,0.468751 0.522462,1.030275 z m -3.310551,0.03418 v 1.660158 q 0,0.22461 0.161133,0.356446 l 0.307617,0.263672 q 0.10254,0.08789 0.288087,0.08789 h 0.952149 q 0.209962,0 0.38086,-0.151367 l 0.249024,-0.219727 q 0.151367,-0.117188 0.151367,-0.327149 v -1.660159 q 0,-0.244141 -0.151367,-0.361328 l -0.288086,-0.229493 q -0.146485,-0.12207 -0.341798,-0.12207 h -0.84961 q -0.278321,0 -0.429688,0.131836 l -0.278321,0.239258 q -0.151367,0.126953 -0.151367,0.332032 z"
         style="font-size:10.00001335px;line-height:0.5;text-align:center;text-anchor:middle;stroke-width:0.75000101"
         id="path3369" />
      <path
         d="m -35.585706,49.278286 h -2.480472 q -0.170898,0 -0.292969,-0.12207 -0.117187,-0.126954 -0.117187,-0.297852 0,-0.166016 0.117187,-0.288087 0.122071,-0.12207 0.292969,-0.12207 h 0.820314 v -4.838874 h -0.830079 q -0.170899,0 -0.292969,-0.117187 -0.117188,-0.122071 -0.117188,-0.29297 0,-0.170898 0.117188,-0.288086 0.12207,-0.12207 0.292969,-0.12207 h 1.250001 q 0.166016,0 0.288087,0.12207 0.12207,0.122071 0.12207,0.288086 v 5.249031 h 0.830079 q 0.166016,0 0.288087,0.12207 0.12207,0.122071 0.12207,0.288087 0,0.170898 -0.12207,0.297852 -0.117188,0.12207 -0.288087,0.12207 z"
         style="font-size:10.00001335px;line-height:0.5;text-align:center;text-anchor:middle;stroke-width:0.75000101"
         id="path3371" />
      <path
         d="m -29.550538,49.278286 h -2.480472 q -0.170899,0 -0.292969,-0.12207 -0.117188,-0.126954 -0.117188,-0.297852 0,-0.166016 0.117188,-0.288087 0.12207,-0.12207 0.292969,-0.12207 h 0.820314 v -4.838874 h -0.83008 q -0.170898,0 -0.292969,-0.117187 -0.117187,-0.122071 -0.117187,-0.29297 0,-0.170898 0.117187,-0.288086 0.122071,-0.12207 0.292969,-0.12207 h 1.250002 q 0.166016,0 0.288086,0.12207 0.122071,0.122071 0.122071,0.288086 v 5.249031 h 0.830079 q 0.166016,0 0.288086,0.12207 0.122071,0.122071 0.122071,0.288087 0,0.170898 -0.122071,0.297852 -0.117187,0.12207 -0.288086,0.12207 z"
         style="font-size:10.00001335px;line-height:0.5;text-align:center;text-anchor:middle;stroke-width:0.75000101"
         id="path3373" />
      <path
         d="m -22.69506,46.04586 v 1.733401 q 0,0.551758 -0.522462,1.020509 -0.517579,0.46875 -1.069337,0.46875 h -0.961916 q -0.561524,0 -1.07422,-0.473633 -0.512696,-0.478516 -0.512696,-1.015626 V 46.04586 q 0,-0.53711 0.498048,-1.010744 0.50293,-0.478516 1.088868,-0.478516 h 0.961916 q 0.551758,-0.0098 1.069337,0.458985 0.522462,0.468751 0.522462,1.030275 z m -3.310552,0.03418 v 1.660158 q 0,0.22461 0.161133,0.356446 l 0.307618,0.263672 q 0.102539,0.08789 0.288086,0.08789 h 0.95215 q 0.209961,0 0.38086,-0.151367 l 0.249024,-0.219727 q 0.151367,-0.117188 0.151367,-0.327149 v -1.660159 q 0,-0.244141 -0.151367,-0.361328 l -0.288087,-0.229493 q -0.146484,-0.12207 -0.341797,-0.12207 h -0.849611 q -0.27832,0 -0.429688,0.131836 l -0.27832,0.239258 q -0.151368,0.126953 -0.151368,0.332032 z"
         style="font-size:10.00001335px;line-height:0.5;text-align:center;text-anchor:middle;stroke-width:0.75000101"
         id="path3375" />
      <path
         d="m -93.315274,60.310419 v -3.891607 q 0,-0.170899 0.117187,-0.288086 0.122071,-0.122071 0.292969,-0.122071 0.317384,0 0.400392,0.312501 0.341797,-0.322266 0.761719,-0.322266 0.493165,0 0.810548,0.419922 0.390626,-0.419922 0.859376,-0.419922 0.38086,0 0.659181,0.273437 0.283203,0.268555 0.302735,0.688478 l 0.117187,3.349614 q 0,0.166016 -0.12207,0.288086 -0.122071,0.122071 -0.288086,0.122071 -0.170899,0 -0.29297,-0.122071 -0.12207,-0.12207 -0.126953,-0.288086 l -0.09766,-3.217778 q -0.0098,-0.263672 -0.161133,-0.263672 -0.08301,0 -0.170899,0.07324 l -0.488282,0.410157 v 2.998051 q 0,0.166016 -0.12207,0.283203 -0.117188,0.117188 -0.288087,0.117188 -0.166015,0 -0.288086,-0.117188 -0.12207,-0.12207 -0.12207,-0.292969 V 57.03893 q 0,-0.209961 -0.180665,-0.209961 -0.08789,0 -0.161133,0.06348 l -0.590821,0.498048 v 2.919926 q 0,0.166016 -0.117187,0.288086 -0.117188,0.122071 -0.283204,0.122071 -0.170899,0 -0.297852,-0.122071 -0.12207,-0.12207 -0.12207,-0.288086 z"
         style="font-size:10.00001335px;line-height:0.5;text-align:center;text-anchor:middle;stroke-width:0.75000101"
         id="path3377" />
      <path
         d="m -85.956866,57.761587 h 1.606447 q 0.131836,0 0.38086,0.05859 l -0.0098,-0.581055 q 0,-0.170899 -0.122071,-0.288087 -0.117188,-0.12207 -0.288086,-0.12207 H -85.9471 q -0.166016,0 -0.288087,-0.122071 -0.12207,-0.12207 -0.12207,-0.288086 0,-0.170899 0.117187,-0.288086 0.122071,-0.122071 0.29297,-0.122071 h 1.557619 q 0.507813,0 0.864259,0.356446 0.361328,0.356446 0.375977,0.874025 l 0.102539,3.071293 q 0,0.170898 -0.12207,0.292969 -0.122071,0.117188 -0.288087,0.117188 -0.175781,0 -0.297852,-0.117188 -0.12207,-0.122071 -0.12207,-0.292969 l -0.693361,0.410157 h -1.38672 q -0.517579,0 -0.878908,-0.361329 -0.361328,-0.361329 -0.361328,-0.878907 v -0.478517 q 0,-0.512696 0.361328,-0.874024 0.366212,-0.366212 0.878908,-0.366212 z m 2.050784,1.596682 -0.02441,-0.34668 q -0.0049,-0.175782 -0.122071,-0.292969 -0.117187,-0.117188 -0.288086,-0.117188 h -1.616213 q -0.170899,0 -0.292969,0.122071 -0.117188,0.117187 -0.117188,0.288086 v 0.458985 q 0,0.166016 0.122071,0.288086 0.12207,0.122071 0.288086,0.122071 h 1.157228 z"
         style="font-size:10.00001335px;line-height:0.5;text-align:center;text-anchor:middle;stroke-width:0.75000101"
         id="path3379" />
      <path
         d="m -77.841621,56.579945 v -1.938479 q 0,-0.170899 0.117188,-0.288086 0.117187,-0.122071 0.283203,-0.122071 0.170899,0 0.292969,0.122071 0.126954,0.117187 0.126954,0.288086 v 5.668953 q 0,0.170898 -0.122071,0.292969 -0.12207,0.117188 -0.288086,0.117188 -0.175782,0 -0.292969,-0.117188 -0.117188,-0.122071 -0.117188,-0.292969 v -0.180665 q -0.600587,0.590822 -1.123048,0.590822 h -0.698243 q -0.419923,0 -0.839845,-0.361329 l -0.341798,-0.288086 q -0.117187,-0.112305 -0.224609,-0.375977 -0.102539,-0.263673 -0.102539,-0.493165 v -1.669924 q 0,-0.278321 0.117187,-0.53711 0.117188,-0.263673 0.273438,-0.395509 l 0.336915,-0.288086 q 0.361328,-0.3125 0.84961,-0.3125 h 0.590821 q 0.483399,0 0.878908,0.341797 z m -1.191408,0.249024 h -0.57129 q -0.180664,0 -0.327148,0.131836 l -0.263673,0.229492 q -0.136719,0.122071 -0.136719,0.312501 v 1.738283 q 0,0.170899 0.161133,0.307618 l 0.268556,0.229492 q 0.126953,0.112305 0.268555,0.112305 h 0.668946 q 0.131836,0 0.3125,-0.151367 l 0.649415,-0.53711 q 0.161133,-0.141602 0.161133,-0.351563 v -0.888673 q 0,-0.297852 -0.170899,-0.439454 l -0.668946,-0.57129 q -0.131836,-0.12207 -0.351563,-0.12207 z"
         style="font-size:10.00001335px;line-height:0.5;text-align:center;text-anchor:middle;stroke-width:0.75000101"
         id="path3381" />
      <path
         d="m -70.976377,57.551626 v 0.991212 q 0,0.166016 -0.12207,0.288087 -0.122071,0.12207 -0.288087,0.12207 h -2.900394 v 0.239258 q 0,0.209961 0.180664,0.356446 l 0.239258,0.200196 q 0.195313,0.151367 0.371095,0.151367 h 2.109377 q 0.166016,0 0.288087,0.12207 0.12207,0.117188 0.12207,0.288087 0,0.166016 -0.126953,0.288086 -0.122071,0.122071 -0.283204,0.122071 h -2.163088 q -0.214844,0 -0.454103,-0.08789 -0.234375,-0.09277 -0.34668,-0.19043 l -0.366211,-0.322266 q -0.170899,-0.136719 -0.288086,-0.38086 -0.112305,-0.244141 -0.112305,-0.449219 v -1.879886 q 0,-0.161133 0.12207,-0.434571 0.126953,-0.273437 0.317383,-0.424805 l 0.341798,-0.268555 q 0.336914,-0.273438 0.747071,-0.273438 h 1.152345 q 0.434571,0 0.820314,0.361329 l 0.307618,0.292969 q 0.332031,0.297852 0.332031,0.888673 z m -3.300785,-0.06348 v 0.634767 h 2.490237 v -0.57129 q 0,-0.229492 -0.141602,-0.351563 l -0.239258,-0.209961 q -0.185547,-0.151368 -0.332031,-0.151368 h -1.030275 q -0.19043,0 -0.34668,0.131837 l -0.239258,0.200195 q -0.161133,0.122071 -0.161133,0.317383 z"
         style="font-size:10.00001335px;line-height:0.5;text-align:center;text-anchor:middle;stroke-width:0.75000101"
         id="path3383" />
      <path
         d="m -61.396287,53.86998 h 0.429688 q 0.170899,0 0.288087,0.122071 0.12207,0.117188 0.12207,0.288086 V 54.6317 q 0,0.170899 -0.12207,0.297852 -0.117188,0.122071 -0.288087,0.122071 h -0.439453 q -0.175782,0 -0.297852,-0.126954 -0.117188,-0.126953 -0.112305,-0.283203 l 0.0098,-0.361329 q 0,-0.170898 0.117188,-0.288086 0.122071,-0.122071 0.292969,-0.122071 z m 1.669924,6.84083 h -2.500003 q -0.170899,0 -0.292969,-0.117188 -0.117188,-0.12207 -0.117188,-0.292969 0,-0.166016 0.117188,-0.288086 0.12207,-0.122071 0.292969,-0.122071 h 0.839845 V 56.828969 H -62.2166 q -0.170899,0 -0.292969,-0.122071 -0.117188,-0.12207 -0.117188,-0.288086 0,-0.170899 0.117188,-0.292969 0.12207,-0.126953 0.292969,-0.126953 h 1.250001 q 0.170899,0 0.288087,0.126953 0.12207,0.12207 0.12207,0.292969 v 3.471684 h 0.820314 q 0.170898,0 0.292969,0.122071 0.126953,0.117187 0.126953,0.288086 0,0.170899 -0.12207,0.292969 -0.122071,0.117188 -0.288087,0.117188 z"
         style="font-size:10.00001335px;line-height:0.5;text-align:center;text-anchor:middle;stroke-width:0.75000101"
         id="path3385" />
      <path
         d="m -55.063269,56.960805 -1.118166,0.72754 v 2.622074 q 0,0.166016 -0.12207,0.288086 -0.12207,0.122071 -0.288086,0.122071 -0.166016,0 -0.288087,-0.122071 -0.12207,-0.12207 -0.12207,-0.288086 v -3.891607 q 0,-0.170899 0.117188,-0.292969 0.12207,-0.126953 0.292969,-0.126953 0.166016,0 0.288086,0.126953 0.12207,0.12207 0.12207,0.292969 v 0.273438 l 0.747072,-0.454102 q 0.375977,-0.239258 0.84961,-0.239258 h 0.38086 q 0.488282,0 0.844728,0.34668 0.356446,0.34668 0.375977,0.854493 l 0.112305,3.110356 q 0.0049,0.166016 -0.117188,0.288086 -0.12207,0.122071 -0.292969,0.122071 -0.161133,0 -0.283204,-0.107422 -0.12207,-0.112305 -0.126953,-0.302735 l -0.12207,-3.061528 q -0.01465,-0.429688 -0.44922,-0.429688 h -0.400391 q -0.185547,0 -0.400391,0.141602 z"
         style="font-size:10.00001335px;line-height:0.5;text-align:center;text-anchor:middle;stroke-width:0.75000101"
         id="path3387" />
      <path
         d="m -42.050557,60.720576 h -0.820314 q -0.507813,0 -0.874024,-0.361329 -0.366212,-0.361329 -0.366212,-0.869142 v -2.661136 h -0.419922 q -0.170899,0 -0.292969,-0.117188 -0.117188,-0.117188 -0.117188,-0.292969 0,-0.170899 0.117188,-0.288086 0.12207,-0.122071 0.292969,-0.122071 h 0.429688 v -1.005861 q 0,-0.170898 0.117188,-0.288086 0.12207,-0.12207 0.292969,-0.12207 0.161133,0 0.283203,0.12207 0.126953,0.122071 0.126953,0.288086 v 1.005861 h 1.650393 q 0.166016,0 0.288087,0.122071 0.12207,0.12207 0.12207,0.288086 0,0.170899 -0.12207,0.292969 -0.122071,0.117188 -0.288087,0.117188 h -1.660158 v 2.661136 q 0,0.166016 0.12207,0.288086 0.126954,0.122071 0.297852,0.122071 h 0.800783 q 0.327148,0 0.43457,-0.351563 0.107422,-0.356446 0.41504,-0.356446 0.180664,0 0.292969,0.122071 0.117188,0.117187 0.117188,0.297852 0,0.371094 -0.351563,0.742188 -0.34668,0.366212 -0.888673,0.366212 z"
         style="font-size:10.00001335px;line-height:0.5;text-align:center;text-anchor:middle;stroke-width:0.75000101"
         id="path3389" />
      <path
         d="m -38.906022,60.310419 v -5.668953 q 0,-0.166016 0.117188,-0.283204 0.12207,-0.117187 0.292969,-0.117187 0.170898,0 0.288086,0.12207 0.12207,0.117188 0.12207,0.288087 v 2.070315 l 0.659181,-0.429688 q 0.449219,-0.283204 0.800782,-0.283204 h 0.507814 q 0.50293,0 0.864258,0.361329 0.361329,0.356446 0.375978,0.869142 l 0.102539,3.071293 q 0.0049,0.170898 -0.117188,0.292969 -0.12207,0.117188 -0.292969,0.117188 -0.170899,0 -0.288086,-0.122071 -0.117188,-0.126953 -0.122071,-0.288086 L -35.69801,57.22936 q -0.0049,-0.166016 -0.126953,-0.288086 -0.122071,-0.122071 -0.292969,-0.122071 h -0.458985 q -0.156251,0 -0.341798,0.122071 l -1.166994,0.761719 v 2.607426 q 0,0.170898 -0.12207,0.292969 -0.117188,0.117188 -0.288086,0.117188 -0.170899,0 -0.292969,-0.117188 -0.117188,-0.122071 -0.117188,-0.292969 z"
         style="font-size:10.00001335px;line-height:0.5;text-align:center;text-anchor:middle;stroke-width:0.75000101"
         id="path3391" />
      <path
         d="m -28.730228,57.551626 v 0.991212 q 0,0.166016 -0.12207,0.288087 -0.122071,0.12207 -0.288087,0.12207 h -2.900394 v 0.239258 q 0,0.209961 0.180664,0.356446 l 0.239258,0.200196 q 0.195313,0.151367 0.371095,0.151367 h 2.109377 q 0.166016,0 0.288087,0.12207 0.12207,0.117188 0.12207,0.288087 0,0.166016 -0.126953,0.288086 -0.122071,0.122071 -0.283204,0.122071 h -2.163088 q -0.214844,0 -0.454103,-0.08789 -0.234375,-0.09277 -0.34668,-0.19043 l -0.366211,-0.322266 q -0.170899,-0.136719 -0.288086,-0.38086 -0.112305,-0.244141 -0.112305,-0.449219 v -1.879886 q 0,-0.161133 0.12207,-0.434571 0.126954,-0.273437 0.317383,-0.424805 l 0.341798,-0.268555 q 0.336914,-0.273438 0.747071,-0.273438 h 1.152345 q 0.434571,0 0.820314,0.361329 l 0.307618,0.292969 q 0.332031,0.297852 0.332031,0.888673 z m -3.300785,-0.06348 v 0.634767 h 2.490237 v -0.57129 q 0,-0.229492 -0.141601,-0.351563 l -0.239259,-0.209961 q -0.185547,-0.151368 -0.332031,-0.151368 h -1.030275 q -0.19043,0 -0.34668,0.131837 l -0.239258,0.200195 q -0.161133,0.122071 -0.161133,0.317383 z"
         style="font-size:10.00001335px;line-height:0.5;text-align:center;text-anchor:middle;stroke-width:0.75000101"
         id="path3393" />
      <path
         d="m -98.134617,68.993915 v 0.991213 q 0,0.166016 -0.12207,0.288086 -0.122071,0.12207 -0.288087,0.12207 h -2.900396 v 0.239259 q 0,0.209961 0.18067,0.356445 l 0.23925,0.200196 q 0.19532,0.151367 0.3711,0.151367 h 2.109376 q 0.166016,0 0.288087,0.122071 0.12207,0.117188 0.12207,0.288086 0,0.166016 -0.126953,0.288087 -0.122071,0.12207 -0.283204,0.12207 h -2.163086 q -0.21485,0 -0.4541,-0.08789 -0.23438,-0.09277 -0.34668,-0.19043 l -0.36622,-0.322266 q -0.17089,-0.136719 -0.28808,-0.38086 -0.11231,-0.244141 -0.11231,-0.449219 v -1.879885 q 0,-0.161133 0.12207,-0.434571 0.12696,-0.273438 0.31739,-0.424805 l 0.34179,-0.268556 q 0.33692,-0.273437 0.74708,-0.273437 h 1.15234 q 0.434571,0 0.820314,0.361328 l 0.307618,0.292969 q 0.332031,0.297852 0.332031,0.888673 z m -3.300783,-0.06348 v 0.634766 h 2.490235 v -0.57129 q 0,-0.229492 -0.141602,-0.351563 l -0.239258,-0.209961 q -0.185547,-0.151367 -0.332031,-0.151367 h -1.030274 q -0.19043,0 -0.34668,0.131836 l -0.23926,0.200196 q -0.16113,0.12207 -0.16113,0.317383 z"
         style="font-size:10.00001335px;line-height:0.5;text-align:center;text-anchor:middle;stroke-width:0.75000101"
         id="path3395" />
      <path
         d="m -96.230317,71.752708 v -3.891607 q 0,-0.170898 0.117187,-0.292969 0.122071,-0.126953 0.292969,-0.126953 0.170899,0 0.288087,0.12207 0.12207,0.122071 0.12207,0.297852 v 0.512696 l 0.668946,-0.571289 q 0.41504,-0.351563 0.810548,-0.351563 h 0.600587 q 0.507813,0 0.869142,0.361328 0.361329,0.361329 0.361329,0.869142 v 0.219727 q 0,0.175781 -0.122071,0.297852 -0.117188,0.12207 -0.288086,0.12207 -0.170899,0 -0.292969,-0.117187 -0.117188,-0.122071 -0.117188,-0.292969 v -0.229493 q 0,-0.170899 -0.122071,-0.288086 -0.117187,-0.122071 -0.288086,-0.122071 h -0.532227 q -0.170899,0 -0.38086,0.180665 l -1.166994,1.010743 v 2.290042 q 0,0.170899 -0.12207,0.292969 -0.122071,0.117188 -0.288087,0.117188 -0.170898,0 -0.292969,-0.117188 -0.117187,-0.12207 -0.117187,-0.292969 z"
         style="font-size:10.00001335px;line-height:0.5;text-align:center;text-anchor:middle;stroke-width:0.75000101"
         id="path3397" />
      <path
         d="m -88.325033,68.271258 v 3.48145 q 0,0.170899 -0.122071,0.292969 -0.12207,0.117188 -0.288086,0.117188 -0.175782,0 -0.297852,-0.117188 -0.122071,-0.12207 -0.122071,-0.292969 v -3.48145 h -0.419922 q -0.170899,0 -0.292969,-0.12207 -0.117188,-0.122071 -0.117188,-0.288087 0,-0.161133 0.107422,-0.283203 0.112305,-0.126953 0.302735,-0.126953 h 0.429688 v -0.317384 q 0,-0.629883 0.429688,-1.044923 0.434571,-0.415039 1.079103,-0.415039 h 0.961916 q 0.170898,0 0.288086,0.12207 0.12207,0.12207 0.12207,0.297852 0,0.166016 -0.12207,0.288086 -0.122071,0.122071 -0.288086,0.122071 h -0.961916 q -0.292969,0 -0.488282,0.175781 -0.19043,0.175782 -0.19043,0.454102 v 0.317384 h 0.820314 q 0.166016,-0.0049 0.288086,0.117187 0.122071,0.122071 0.122071,0.292969 0,0.166016 -0.122071,0.288087 -0.12207,0.12207 -0.288086,0.12207 z"
         style="font-size:10.00001335px;line-height:0.5;text-align:center;text-anchor:middle;stroke-width:0.75000101"
         id="path3399" />
      <path
         d="m -82.519361,65.31227 h 0.429688 q 0.170899,0 0.288086,0.12207 0.122071,0.117188 0.122071,0.288087 v 0.351563 q 0,0.170898 -0.122071,0.297852 -0.117187,0.12207 -0.288086,0.12207 h -0.439454 q -0.175781,0 -0.297852,-0.126953 -0.117187,-0.126953 -0.112304,-0.283204 l 0.0098,-0.361328 q 0,-0.170899 0.117188,-0.288087 0.12207,-0.12207 0.292969,-0.12207 z m 1.669924,6.840829 h -2.500003 q -0.170899,0 -0.292969,-0.117187 -0.117188,-0.122071 -0.117188,-0.292969 0,-0.166016 0.117188,-0.288087 0.12207,-0.12207 0.292969,-0.12207 h 0.839845 v -3.061528 h -0.83008 q -0.170898,0 -0.292969,-0.12207 -0.117187,-0.122071 -0.117187,-0.288087 0,-0.170898 0.117187,-0.292969 0.122071,-0.126953 0.292969,-0.126953 h 1.250002 q 0.170899,0 0.288086,0.126953 0.122071,0.122071 0.122071,0.292969 v 3.471685 h 0.820314 q 0.170898,0 0.292969,0.12207 0.126953,0.117188 0.126953,0.288087 0,0.170898 -0.122071,0.292969 -0.12207,0.117187 -0.288086,0.117187 z"
         style="font-size:10.00001335px;line-height:0.5;text-align:center;text-anchor:middle;stroke-width:0.75000101"
         id="path3401" />
      <path
         d="m -76.186345,68.403094 -1.118166,0.72754 v 2.622074 q 0,0.166016 -0.12207,0.288087 -0.122071,0.12207 -0.288086,0.12207 -0.166016,0 -0.288087,-0.12207 -0.12207,-0.122071 -0.12207,-0.288087 v -3.891607 q 0,-0.170898 0.117187,-0.292969 0.122071,-0.126953 0.29297,-0.126953 0.166015,0 0.288086,0.126953 0.12207,0.122071 0.12207,0.292969 v 0.273438 l 0.747072,-0.454102 q 0.375977,-0.239258 0.84961,-0.239258 h 0.38086 q 0.488282,0 0.844728,0.34668 0.356446,0.34668 0.375977,0.854493 l 0.112305,3.110356 q 0.0049,0.166016 -0.117188,0.288087 -0.122071,0.12207 -0.292969,0.12207 -0.161133,0 -0.283204,-0.107422 -0.12207,-0.112305 -0.126953,-0.302735 l -0.12207,-3.061527 q -0.01465,-0.429688 -0.44922,-0.429688 h -0.400391 q -0.185547,0 -0.400391,0.141601 z"
         style="font-size:10.00001335px;line-height:0.5;text-align:center;text-anchor:middle;stroke-width:0.75000101"
         id="path3403" />
      <path
         d="m -68.788875,68.022234 v -1.938479 q 0,-0.170898 0.117188,-0.288086 0.117188,-0.12207 0.283203,-0.12207 0.170899,0 0.29297,0.12207 0.126953,0.117188 0.126953,0.288086 v 5.668953 q 0,0.170899 -0.122071,0.292969 -0.12207,0.117188 -0.288086,0.117188 -0.175781,0 -0.292969,-0.117188 -0.117188,-0.12207 -0.117188,-0.292969 v -0.180664 q -0.600586,0.590821 -1.123048,0.590821 h -0.698243 q -0.419923,0 -0.839845,-0.361329 l -0.341797,-0.288086 q -0.117188,-0.112305 -0.22461,-0.375977 -0.102539,-0.263672 -0.102539,-0.493165 v -1.669924 q 0,-0.278321 0.117187,-0.53711 0.117188,-0.263672 0.273438,-0.395508 l 0.336915,-0.288087 q 0.361328,-0.3125 0.84961,-0.3125 h 0.590821 q 0.483399,0 0.878908,0.341797 z m -1.191408,0.249024 h -0.571289 q -0.180665,0 -0.327149,0.131836 l -0.263672,0.229493 q -0.136719,0.12207 -0.136719,0.3125 v 1.738284 q 0,0.170898 0.161133,0.307617 l 0.268555,0.229493 q 0.126953,0.112305 0.268555,0.112305 h 0.668946 q 0.131836,0 0.3125,-0.151368 l 0.649415,-0.53711 q 0.161133,-0.141601 0.161133,-0.351563 v -0.888673 q 0,-0.297852 -0.170898,-0.439453 l -0.668947,-0.57129 q -0.131836,-0.122071 -0.351563,-0.122071 z"
         style="font-size:10.00001335px;line-height:0.5;text-align:center;text-anchor:middle;stroke-width:0.75000101"
         id="path3405" />
      <path
         d="m -61.92363,68.993915 v 0.991213 q 0,0.166016 -0.12207,0.288086 -0.122071,0.12207 -0.288087,0.12207 h -2.900394 v 0.239259 q 0,0.209961 0.180664,0.356445 l 0.239258,0.200196 q 0.195313,0.151367 0.371095,0.151367 h 2.109377 q 0.166016,0 0.288087,0.122071 0.12207,0.117188 0.12207,0.288086 0,0.166016 -0.126953,0.288087 -0.12207,0.12207 -0.283204,0.12207 h -2.163088 q -0.214844,0 -0.454103,-0.08789 -0.234375,-0.09277 -0.34668,-0.19043 l -0.366211,-0.322266 q -0.170899,-0.136719 -0.288086,-0.38086 -0.112305,-0.244141 -0.112305,-0.449219 v -1.879885 q 0,-0.161133 0.12207,-0.434571 0.126954,-0.273438 0.317383,-0.424805 l 0.341798,-0.268556 q 0.336914,-0.273437 0.747071,-0.273437 h 1.152345 q 0.434571,0 0.820314,0.361328 l 0.307618,0.292969 q 0.332031,0.297852 0.332031,0.888673 z m -3.300785,-0.06348 v 0.634766 h 2.490237 v -0.57129 q 0,-0.229492 -0.141601,-0.351563 l -0.239259,-0.209961 q -0.185547,-0.151367 -0.332031,-0.151367 h -1.030275 q -0.19043,0 -0.34668,0.131836 l -0.239258,0.200196 q -0.161133,0.12207 -0.161133,0.317383 z"
         style="font-size:10.00001335px;line-height:0.5;text-align:center;text-anchor:middle;stroke-width:0.75000101"
         id="path3407" />
      <path
         d="m -60.019331,71.752708 v -3.891607 q 0,-0.170898 0.117188,-0.292969 0.12207,-0.126953 0.292969,-0.126953 0.170899,0 0.288086,0.12207 0.122071,0.122071 0.122071,0.297852 v 0.512696 l 0.668946,-0.571289 q 0.41504,-0.351563 0.810548,-0.351563 h 0.600587 q 0.507813,0 0.869142,0.361328 0.361328,0.361329 0.361328,0.869142 v 0.219727 q 0,0.175781 -0.12207,0.297852 -0.117188,0.12207 -0.288087,0.12207 -0.170898,0 -0.292969,-0.117187 -0.117187,-0.122071 -0.117187,-0.292969 v -0.229493 q 0,-0.170899 -0.122071,-0.288086 -0.117188,-0.122071 -0.288086,-0.122071 h -0.532227 q -0.170899,0 -0.38086,0.180665 l -1.166994,1.010743 v 2.290042 q 0,0.170899 -0.122071,0.292969 -0.12207,0.117188 -0.288086,0.117188 -0.170899,0 -0.292969,-0.117188 -0.117188,-0.12207 -0.117188,-0.292969 z"
         style="font-size:10.00001335px;line-height:0.5;text-align:center;text-anchor:middle;stroke-width:0.75000101"
         id="path3409" />
      <path
         d="m -51.406038,73.92068 h -1.777347 q -0.170898,0 -0.292969,-0.117188 -0.117187,-0.117187 -0.117187,-0.292969 0,-0.170899 0.117187,-0.288086 0.122071,-0.117188 0.292969,-0.117188 h 1.777347 q 0.161133,0 0.302734,-0.12207 l 0.278321,-0.239259 q 0.141602,-0.107422 0.141602,-0.283203 v -1.250002 q -0.576173,0.581056 -1.123049,0.581056 h -0.629883 q -0.488282,0 -0.878908,-0.336915 l -0.307617,-0.273438 q -0.151368,-0.126953 -0.263672,-0.371094 -0.107422,-0.244141 -0.107422,-0.478516 v -1.357424 q 0,-0.288086 0.107422,-0.546876 0.112304,-0.258789 0.263672,-0.385742 l 0.336914,-0.288087 q 0.361329,-0.3125 0.849611,-0.3125 h 0.590821 q 0.483399,0 0.878907,0.341797 l 0.283204,0.239258 -0.0098,-0.161133 q 0,-0.166015 0.122071,-0.288086 0.12207,-0.12207 0.288086,-0.12207 0.170899,0 0.292969,0.12207 0.126953,0.117188 0.126953,0.288086 v 4.599616 q 0,0.522462 -0.419922,0.893556 l -0.332032,0.288086 q -0.126953,0.112305 -0.361328,0.195313 -0.229493,0.08301 -0.429688,0.08301 z m -0.468751,-5.659187 h -0.551759 q -0.180664,0 -0.34668,0.141601 l -0.253906,0.209962 q -0.146485,0.12207 -0.146485,0.332031 v 1.36719 q 0,0.166015 0.161133,0.3125 l 0.268555,0.239258 q 0.126953,0.107422 0.268555,0.107422 h 0.668946 q 0.146485,0 0.322266,-0.146484 l 0.649415,-0.551759 q 0.151368,-0.131836 0.151368,-0.322266 V 69.33083 q 0,-0.22461 -0.170899,-0.366211 l -0.668946,-0.57129 q -0.141602,-0.131836 -0.351563,-0.131836 z"
         style="font-size:10.00001335px;line-height:0.5;text-align:center;text-anchor:middle;stroke-width:0.75000101"
         id="path3411" />
      <path
         d="m -46.728298,69.203877 h 1.606447 q 0.131836,0 0.38086,0.05859 l -0.0098,-0.581055 q 0,-0.170899 -0.12207,-0.288086 -0.117188,-0.122071 -0.288086,-0.122071 h -1.55762 q -0.166015,0 -0.288086,-0.12207 -0.12207,-0.122071 -0.12207,-0.288087 0,-0.170898 0.117187,-0.288086 0.122071,-0.12207 0.292969,-0.12207 h 1.55762 q 0.507813,0 0.864259,0.356445 0.361328,0.356446 0.375977,0.874025 l 0.102539,3.071293 q 0,0.170899 -0.122071,0.292969 -0.12207,0.117188 -0.288086,0.117188 -0.175781,0 -0.297852,-0.117188 -0.12207,-0.12207 -0.12207,-0.292969 l -0.693361,0.410157 h -1.38672 q -0.517579,0 -0.878908,-0.361329 -0.361328,-0.361328 -0.361328,-0.878907 v -0.478516 q 0,-0.512696 0.361328,-0.874025 0.366212,-0.366211 0.878908,-0.366211 z m 2.050784,1.596681 -0.02441,-0.34668 q -0.0049,-0.175781 -0.122071,-0.292969 -0.117187,-0.117187 -0.288086,-0.117187 h -1.616213 q -0.170899,0 -0.292969,0.12207 -0.117188,0.117188 -0.117188,0.288086 v 0.458985 q 0,0.166016 0.12207,0.288087 0.122071,0.12207 0.288087,0.12207 h 1.157228 z"
         style="font-size:10.00001335px;line-height:0.5;text-align:center;text-anchor:middle;stroke-width:0.75000101"
         id="path3413" />
      <path
         d="m -41.913839,71.752708 v -3.891607 q 0,-0.170898 0.117188,-0.292969 0.12207,-0.126953 0.292969,-0.126953 0.170898,0 0.288086,0.12207 0.122071,0.122071 0.122071,0.297852 v 0.512696 l 0.668946,-0.571289 q 0.415039,-0.351563 0.810548,-0.351563 h 0.600586 q 0.507814,0 0.869142,0.361328 0.361329,0.361329 0.361329,0.869142 v 0.219727 q 0,0.175781 -0.122071,0.297852 -0.117187,0.12207 -0.288086,0.12207 -0.170899,0 -0.292969,-0.117187 -0.117188,-0.122071 -0.117188,-0.292969 v -0.229493 q 0,-0.170899 -0.12207,-0.288086 -0.117188,-0.122071 -0.288087,-0.122071 h -0.532227 q -0.170899,0 -0.38086,0.180665 l -1.166993,1.010743 v 2.290042 q 0,0.170899 -0.122071,0.292969 -0.12207,0.117188 -0.288086,0.117188 -0.170899,0 -0.292969,-0.117188 -0.117188,-0.12207 -0.117188,-0.292969 z"
         style="font-size:10.00001335px;line-height:0.5;text-align:center;text-anchor:middle;stroke-width:0.75000101"
         id="path3415" />
      <path
         d="m -32.577886,68.022234 v -1.938479 q 0,-0.170898 0.117188,-0.288086 0.117188,-0.12207 0.283203,-0.12207 0.170899,0 0.29297,0.12207 0.126953,0.117188 0.126953,0.288086 v 5.668953 q 0,0.170899 -0.122071,0.292969 -0.12207,0.117188 -0.288086,0.117188 -0.175781,0 -0.292969,-0.117188 -0.117188,-0.12207 -0.117188,-0.292969 v -0.180664 q -0.600586,0.590821 -1.123048,0.590821 h -0.698243 q -0.419923,0 -0.839845,-0.361329 l -0.341797,-0.288086 q -0.117188,-0.112305 -0.22461,-0.375977 -0.102539,-0.263672 -0.102539,-0.493165 v -1.669924 q 0,-0.278321 0.117187,-0.53711 0.117188,-0.263672 0.273438,-0.395508 l 0.336915,-0.288087 q 0.361328,-0.3125 0.84961,-0.3125 h 0.590821 q 0.483399,0 0.878908,0.341797 z m -1.191408,0.249024 h -0.571289 q -0.180665,0 -0.327149,0.131836 l -0.263672,0.229493 q -0.136719,0.12207 -0.136719,0.3125 v 1.738284 q 0,0.170898 0.161133,0.307617 l 0.268555,0.229493 q 0.126953,0.112305 0.268555,0.112305 h 0.668946 q 0.131836,0 0.3125,-0.151368 l 0.649415,-0.53711 q 0.161133,-0.141601 0.161133,-0.351563 v -0.888673 q 0,-0.297852 -0.170898,-0.439453 l -0.668947,-0.57129 q -0.131836,-0.122071 -0.351563,-0.122071 z"
         style="font-size:10.00001335px;line-height:0.5;text-align:center;text-anchor:middle;stroke-width:0.75000101"
         id="path3417" />
      <path
         d="m -25.712643,68.993915 v 0.991213 q 0,0.166016 -0.12207,0.288086 -0.122071,0.12207 -0.288086,0.12207 h -2.900395 v 0.239259 q 0,0.209961 0.180664,0.356445 l 0.239259,0.200196 q 0.195312,0.151367 0.371094,0.151367 h 2.109378 q 0.166015,0 0.288086,0.122071 0.12207,0.117188 0.12207,0.288086 0,0.166016 -0.126953,0.288087 -0.12207,0.12207 -0.283203,0.12207 h -2.163089 q -0.214844,0 -0.454102,-0.08789 -0.234376,-0.09277 -0.346681,-0.19043 l -0.366211,-0.322266 q -0.170899,-0.136719 -0.288086,-0.38086 -0.112305,-0.244141 -0.112305,-0.449219 v -1.879885 q 0,-0.161133 0.12207,-0.434571 0.126954,-0.273438 0.317384,-0.424805 l 0.341797,-0.268556 q 0.336914,-0.273437 0.747071,-0.273437 h 1.152345 q 0.434571,0 0.820314,0.361328 l 0.307618,0.292969 q 0.332031,0.297852 0.332031,0.888673 z m -3.300785,-0.06348 v 0.634766 h 2.490237 v -0.57129 q 0,-0.229492 -0.141601,-0.351563 l -0.239258,-0.209961 q -0.185548,-0.151367 -0.332032,-0.151367 h -1.030275 q -0.19043,0 -0.34668,0.131836 l -0.239258,0.200196 q -0.161133,0.12207 -0.161133,0.317383 z"
         style="font-size:10.00001335px;line-height:0.5;text-align:center;text-anchor:middle;stroke-width:0.75000101"
         id="path3419" />
      <path
         d="m -21.869864,68.403094 -1.118166,0.72754 v 2.622074 q 0,0.166016 -0.122071,0.288087 -0.12207,0.12207 -0.288086,0.12207 -0.166016,0 -0.288086,-0.12207 -0.122071,-0.122071 -0.122071,-0.288087 v -3.891607 q 0,-0.170898 0.117188,-0.292969 0.122071,-0.126953 0.292969,-0.126953 0.166016,0 0.288086,0.126953 0.122071,0.122071 0.122071,0.292969 v 0.273438 l 0.747071,-0.454102 q 0.375977,-0.239258 0.849611,-0.239258 h 0.38086 q 0.488282,0 0.844727,0.34668 0.356446,0.34668 0.375977,0.854493 l 0.112305,3.110356 q 0.0049,0.166016 -0.117187,0.288087 -0.122071,0.12207 -0.29297,0.12207 -0.161133,0 -0.283203,-0.107422 -0.122071,-0.112305 -0.126953,-0.302735 l -0.122071,-3.061527 q -0.01465,-0.429688 -0.449219,-0.429688 h -0.400391 q -0.185547,0 -0.400391,0.141601 z"
         style="font-size:10.00001335px;line-height:0.5;text-align:center;text-anchor:middle;stroke-width:0.75000101"
         id="path3421" />
    </g>
    <g
       aria-label="Arduino
Micro Pro"
       transform="scale(-1,1)"
       style="font-style:normal;font-variant:normal;font-weight:normal;font-stretch:normal;font-size:22.00003052px;line-height:50%;font-family:'OCR A Extended';-inkscape-font-specification:'OCR A Extended';font-variant-ligatures:normal;font-variant-caps:normal;font-variant-numeric:normal;font-feature-settings:normal;text-align:start;letter-spacing:0px;word-spacing:0px;writing-mode:lr-tb;text-anchor:start;fill:#000000;fill-opacity:1;stroke:none;stroke-width:0.75000101"
       id="text3500">
      <path
         d="m -198.70441,34.833224 1.66016,-5.610359 q 0.0977,-0.307617 0.41016,-0.307617 0.30273,0 0.38086,0.258789 l 1.63574,5.69825 q 0.0195,0.06348 0.0195,0.122071 0,0.170898 -0.11719,0.292969 -0.11719,0.117187 -0.26856,0.117187 -0.32226,0 -0.41015,-0.297852 l -0.33204,-1.113282 h -1.87012 l -0.36132,1.191407 q -0.0146,0.07813 -0.12207,0.151368 -0.10743,0.06836 -0.23438,0.06836 -0.18066,0 -0.29785,-0.12207 -0.11719,-0.122071 -0.11719,-0.297852 0,-0.07324 0.0244,-0.151368 z m 2.06055,-4.01856 -0.70312,2.348636 h 1.38184 z"
         style="font-size:10.00001335px;line-height:50%;stroke-width:0.75000101"
         id="path3506" />
      <path
         d="m -192.69366,34.994358 v -3.891607 q 0,-0.170899 0.11719,-0.292969 0.12207,-0.126954 0.29297,-0.126954 0.1709,0 0.28809,0.122071 0.12207,0.12207 0.12207,0.297852 v 0.512696 l 0.66894,-0.57129 q 0.41504,-0.351563 0.81055,-0.351563 h 0.60059 q 0.50781,0 0.86914,0.361329 0.36133,0.361328 0.36133,0.869141 v 0.219727 q 0,0.175782 -0.12207,0.297852 -0.11719,0.122071 -0.28809,0.122071 -0.1709,0 -0.29297,-0.117188 -0.11718,-0.12207 -0.11718,-0.292969 v -0.229493 q 0,-0.170898 -0.12207,-0.288086 -0.11719,-0.12207 -0.28809,-0.12207 h -0.53223 q -0.1709,0 -0.38086,0.180664 l -1.16699,1.010743 v 2.290043 q 0,0.170898 -0.12207,0.292969 -0.12207,0.117187 -0.28809,0.117187 -0.1709,0 -0.29297,-0.117187 -0.11719,-0.122071 -0.11719,-0.292969 z"
         style="font-size:10.00001335px;line-height:50%;stroke-width:0.75000101"
         id="path3508" />
      <path
         d="m -183.35771,31.263884 v -1.938479 q 0,-0.170899 0.11719,-0.288087 0.11719,-0.12207 0.28321,-0.12207 0.17089,0 0.29297,0.12207 0.12695,0.117188 0.12695,0.288087 v 5.668953 q 0,0.170898 -0.12207,0.292969 -0.12207,0.117187 -0.28809,0.117187 -0.17578,0 -0.29297,-0.117187 -0.11719,-0.122071 -0.11719,-0.292969 v -0.180665 q -0.60058,0.590821 -1.12304,0.590821 h -0.69825 q -0.41992,0 -0.83984,-0.361328 l -0.3418,-0.288087 q -0.11719,-0.112304 -0.22461,-0.375977 -0.10254,-0.263672 -0.10254,-0.493164 v -1.669925 q 0,-0.27832 0.11719,-0.53711 0.11719,-0.263672 0.27344,-0.395508 l 0.33691,-0.288086 q 0.36133,-0.312501 0.84961,-0.312501 h 0.59082 q 0.4834,0 0.87891,0.341798 z m -1.1914,0.249024 h -0.57129 q -0.18067,0 -0.32715,0.131836 l -0.26367,0.229492 q -0.13672,0.122071 -0.13672,0.312501 v 1.738283 q 0,0.170899 0.16113,0.307618 l 0.26856,0.229492 q 0.12695,0.112305 0.26855,0.112305 h 0.66895 q 0.13183,0 0.3125,-0.151367 l 0.64941,-0.53711 q 0.16113,-0.141602 0.16113,-0.351563 v -0.888673 q 0,-0.297852 -0.17089,-0.439454 l -0.66895,-0.57129 q -0.13184,-0.12207 -0.35156,-0.12207 z"
         style="font-size:10.00001335px;line-height:50%;stroke-width:0.75000101"
         id="path3510" />
      <path
         d="m -178.67508,34.574435 1.38184,-0.878907 v -2.592777 q 0,-0.170899 0.11718,-0.292969 0.12207,-0.126954 0.29297,-0.126954 0.1709,0 0.28809,0.126954 0.12207,0.12207 0.12207,0.292969 v 3.891607 q 0,0.166015 -0.12207,0.288086 -0.12207,0.12207 -0.28809,0.12207 -0.16601,0 -0.28808,-0.12207 -0.12207,-0.122071 -0.12207,-0.288086 v -0.322267 l -0.71289,0.463868 q -0.41993,0.268555 -0.84962,0.268555 h -0.38086 q -0.50293,0 -0.86425,-0.351563 -0.36133,-0.351563 -0.38575,-0.859376 l -0.11718,-3.090824 q -0.01,-0.161133 0.1123,-0.283204 0.12695,-0.126953 0.29785,-0.126953 0.16602,0 0.28321,0.12207 0.12207,0.122071 0.12695,0.288087 l 0.10742,3.03223 q 0.0147,0.439454 0.50293,0.439454 z"
         style="font-size:10.00001335px;line-height:50%;stroke-width:0.75000101"
         id="path3512" />
      <path
         d="m -172.94753,28.553919 h 0.42968 q 0.1709,0 0.28809,0.122071 0.12207,0.117187 0.12207,0.288086 v 0.351563 q 0,0.170899 -0.12207,0.297852 -0.11719,0.12207 -0.28809,0.12207 h -0.43945 q -0.17578,0 -0.29785,-0.126953 -0.11719,-0.126953 -0.11231,-0.283203 l 0.01,-0.361329 q 0,-0.170899 0.11719,-0.288086 0.12207,-0.122071 0.29297,-0.122071 z m 1.66992,6.84083 h -2.5 q -0.1709,0 -0.29297,-0.117188 -0.11719,-0.12207 -0.11719,-0.292969 0,-0.166016 0.11719,-0.288086 0.12207,-0.122071 0.29297,-0.122071 h 0.83984 v -3.061527 h -0.83008 q -0.1709,0 -0.29297,-0.122071 -0.11719,-0.12207 -0.11719,-0.288086 0,-0.170899 0.11719,-0.292969 0.12207,-0.126954 0.29297,-0.126954 h 1.25 q 0.1709,0 0.28809,0.126954 0.12207,0.12207 0.12207,0.292969 v 3.471684 h 0.82031 q 0.1709,0 0.29297,0.122071 0.12696,0.117187 0.12696,0.288086 0,0.170899 -0.12207,0.292969 -0.12207,0.117188 -0.28809,0.117188 z"
         style="font-size:10.00001335px;line-height:50%;stroke-width:0.75000101"
         id="path3514" />
      <path
         d="m -166.61452,31.644744 -1.11816,0.72754 v 2.622074 q 0,0.166015 -0.12208,0.288086 -0.12207,0.12207 -0.28808,0.12207 -0.16602,0 -0.28809,-0.12207 -0.12207,-0.122071 -0.12207,-0.288086 v -3.891607 q 0,-0.170899 0.11719,-0.292969 0.12207,-0.126954 0.29297,-0.126954 0.16601,0 0.28808,0.126954 0.12208,0.12207 0.12208,0.292969 v 0.273438 l 0.74707,-0.454103 q 0.37597,-0.239258 0.84961,-0.239258 h 0.38086 q 0.48828,0 0.84472,0.34668 0.35645,0.346681 0.37598,0.854494 l 0.11231,3.110356 q 0.005,0.166015 -0.11719,0.288086 -0.12207,0.12207 -0.29297,0.12207 -0.16113,0 -0.2832,-0.107422 -0.12207,-0.112305 -0.12696,-0.302734 l -0.12207,-3.061528 q -0.0146,-0.429688 -0.44922,-0.429688 h -0.40039 q -0.18554,0 -0.40039,0.141602 z"
         style="font-size:10.00001335px;line-height:50%;stroke-width:0.75000101"
         id="path3516" />
      <path
         d="m -158.38697,32.172088 v 1.733401 q 0,0.551758 -0.52246,1.020509 -0.51758,0.468751 -1.06934,0.468751 h -0.96191 q -0.56153,0 -1.07422,-0.473634 -0.5127,-0.478516 -0.5127,-1.015626 v -1.733401 q 0,-0.53711 0.49805,-1.010743 0.50293,-0.478517 1.08887,-0.478517 h 0.96191 q 0.55176,-0.0098 1.06934,0.458985 0.52246,0.468751 0.52246,1.030275 z m -3.31055,0.03418 v 1.660158 q 0,0.22461 0.16113,0.356446 l 0.30762,0.263672 q 0.10254,0.08789 0.28809,0.08789 h 0.95215 q 0.20996,0 0.38086,-0.151367 l 0.24902,-0.219727 q 0.15137,-0.117188 0.15137,-0.327149 v -1.660159 q 0,-0.24414 -0.15137,-0.361328 l -0.28808,-0.229493 q -0.14649,-0.12207 -0.3418,-0.12207 h -0.84961 q -0.27832,0 -0.42969,0.131836 l -0.27832,0.239258 q -0.15137,0.126953 -0.15137,0.332032 z"
         style="font-size:10.00001335px;line-height:50%;stroke-width:0.75000101"
         id="path3518" />
      <path
         d="m -197.07843,42.906369 v -0.209961 l -0.84961,-1.21094 v 4.951179 q 0,0.170899 -0.12207,0.292969 -0.11719,0.117188 -0.28808,0.117188 -0.1709,0 -0.29297,-0.122071 -0.11719,-0.12207 -0.11719,-0.288086 v -6.07911 h 1.05957 l 1.01074,1.469729 1.04004,-1.469729 h 1.04005 v 6.07911 q 0,0.170899 -0.12696,0.292969 -0.12207,0.117188 -0.29297,0.117188 -0.16601,0 -0.28808,-0.122071 -0.12207,-0.12207 -0.12207,-0.288086 V 41.505 l -0.83008,1.171876 v 0.229493 q 0,0.166016 -0.12207,0.288086 -0.12207,0.122071 -0.28809,0.122071 -0.1709,0 -0.29297,-0.122071 -0.11719,-0.12207 -0.11719,-0.288086 z"
         style="font-size:10.00001335px;line-height:50%;stroke-width:0.75000101"
         id="path3520" />
      <path
         d="m -191.05303,39.996209 h 0.42969 q 0.1709,0 0.28809,0.12207 0.12207,0.117188 0.12207,0.288086 v 0.351563 q 0,0.170899 -0.12207,0.297852 -0.11719,0.122071 -0.28809,0.122071 h -0.43945 q -0.17579,0 -0.29786,-0.126953 -0.11718,-0.126954 -0.1123,-0.283204 l 0.01,-0.361329 q 0,-0.170898 0.11718,-0.288086 0.12207,-0.12207 0.29297,-0.12207 z m 1.66993,6.840829 h -2.50001 q -0.1709,0 -0.29297,-0.117188 -0.11718,-0.12207 -0.11718,-0.292969 0,-0.166016 0.11718,-0.288086 0.12207,-0.12207 0.29297,-0.12207 h 0.83985 v -3.061528 h -0.83008 q -0.1709,0 -0.29297,-0.12207 -0.11719,-0.122071 -0.11719,-0.288087 0,-0.170898 0.11719,-0.292969 0.12207,-0.126953 0.29297,-0.126953 h 1.25 q 0.1709,0 0.28809,0.126953 0.12207,0.122071 0.12207,0.292969 v 3.471685 h 0.82031 q 0.1709,0 0.29297,0.12207 0.12695,0.117188 0.12695,0.288086 0,0.170899 -0.12207,0.292969 -0.12207,0.117188 -0.28808,0.117188 z"
         style="font-size:10.00001335px;line-height:50%;stroke-width:0.75000101"
         id="path3522" />
      <path
         d="m -182.92802,46.846804 h -1.75293 q -0.46387,0 -0.79102,-0.278321 l -0.7959,-0.69336 q -0.38086,-0.317383 -0.38086,-0.859376 v -1.069338 q -0.0195,-0.522461 0.42969,-0.908204 l 0.71778,-0.620118 q 0.34668,-0.283204 0.74219,-0.283204 h 1.84082 q 0.1709,0 0.28808,0.122071 0.12208,0.117188 0.12208,0.288086 0,0.175782 -0.12208,0.292969 -0.11718,0.117188 -0.28808,0.117188 h -1.7627 q -0.16601,0 -0.31738,0.131836 l -0.65918,0.561524 q -0.16114,0.136719 -0.16114,0.366212 v 1.000978 q 0,0.161133 0.12696,0.273437 l 0.72265,0.615236 q 0.13672,0.12207 0.36133,0.12207 h 1.67969 q 0.16602,0 0.28809,0.122071 0.12207,0.117187 0.12207,0.288086 0,0.170899 -0.12207,0.292969 -0.11719,0.117188 -0.28809,0.117188 z"
         style="font-size:10.00001335px;line-height:50%;stroke-width:0.75000101"
         id="path3524" />
      <path
         d="M -180.62333,46.436647 V 42.54504 q 0,-0.170898 0.11719,-0.292969 0.12207,-0.126953 0.29297,-0.126953 0.1709,0 0.28809,0.12207 0.12207,0.122071 0.12207,0.297852 v 0.512696 l 0.66894,-0.57129 q 0.41504,-0.351563 0.81055,-0.351563 h 0.60059 q 0.50781,0 0.86914,0.361329 0.36133,0.361329 0.36133,0.869142 v 0.219727 q 0,0.175781 -0.12207,0.297852 -0.11719,0.12207 -0.28809,0.12207 -0.1709,0 -0.29297,-0.117188 -0.11718,-0.12207 -0.11718,-0.292969 v -0.229492 q 0,-0.170899 -0.12208,-0.288087 -0.11718,-0.12207 -0.28808,-0.12207 h -0.53223 q -0.1709,0 -0.38086,0.180664 l -1.16699,1.010744 v 2.290042 q 0,0.170899 -0.12207,0.292969 -0.12207,0.117188 -0.28809,0.117188 -0.1709,0 -0.29297,-0.117188 -0.11719,-0.12207 -0.11719,-0.292969 z"
         style="font-size:10.00001335px;line-height:50%;stroke-width:0.75000101"
         id="path3526" />
      <path
         d="m -170.4573,43.614378 v 1.7334 q 0,0.551759 -0.52246,1.020509 -0.51758,0.468751 -1.06934,0.468751 h -0.96191 q -0.56153,0 -1.07422,-0.473633 -0.5127,-0.478517 -0.5127,-1.015627 v -1.7334 q 0,-0.537111 0.49805,-1.010744 0.50293,-0.478516 1.08887,-0.478516 h 0.96191 q 0.55176,-0.0098 1.06934,0.458985 0.52246,0.46875 0.52246,1.030275 z m -3.31055,0.03418 v 1.660159 q 0,0.224609 0.16113,0.356446 l 0.30762,0.263672 q 0.10254,0.08789 0.28809,0.08789 h 0.95215 q 0.20996,0 0.38086,-0.151368 l 0.24902,-0.219727 q 0.15137,-0.117187 0.15137,-0.327149 v -1.660158 q 0,-0.244141 -0.15137,-0.361329 l -0.28808,-0.229492 q -0.14649,-0.122071 -0.3418,-0.122071 h -0.84961 q -0.27832,0 -0.42969,0.131836 l -0.27832,0.239259 q -0.15137,0.126953 -0.15137,0.332031 z"
         style="font-size:10.00001335px;line-height:50%;stroke-width:0.75000101"
         id="path3528" />
      <path
         d="m -162.51783,46.436647 v -6.07911 h 2.91016 q 0.50293,0 0.86426,0.366212 0.36621,0.366211 0.36621,0.874024 v 1.538088 q 0,0.507813 -0.36133,0.869142 -0.36133,0.361329 -0.86914,0.361329 h -2.08008 v 2.070315 q 0,0.170899 -0.12207,0.292969 -0.11719,0.117188 -0.28809,0.117188 -0.17578,0 -0.29785,-0.117188 -0.12207,-0.12207 -0.12207,-0.292969 z m 0.83008,-2.890629 h 2.08008 q 0.16601,0 0.28808,-0.117188 0.12207,-0.12207 0.12207,-0.292969 v -1.538088 q 0,-0.170898 -0.12207,-0.288086 -0.12207,-0.122071 -0.28808,-0.122071 h -2.08008 z"
         style="font-size:10.00001335px;line-height:50%;stroke-width:0.75000101"
         id="path3530" />
      <path
         d="M -156.48267,46.436647 V 42.54504 q 0,-0.170898 0.11719,-0.292969 0.12207,-0.126953 0.29297,-0.126953 0.1709,0 0.28808,0.12207 0.12208,0.122071 0.12208,0.297852 v 0.512696 l 0.66894,-0.57129 q 0.41504,-0.351563 0.81055,-0.351563 h 0.60059 q 0.50781,0 0.86914,0.361329 0.36133,0.361329 0.36133,0.869142 v 0.219727 q 0,0.175781 -0.12207,0.297852 -0.11719,0.12207 -0.28809,0.12207 -0.1709,0 -0.29297,-0.117188 -0.11719,-0.12207 -0.11719,-0.292969 v -0.229492 q 0,-0.170899 -0.12207,-0.288087 -0.11719,-0.12207 -0.28808,-0.12207 h -0.53223 q -0.1709,0 -0.38086,0.180664 l -1.16699,1.010744 v 2.290042 q 0,0.170899 -0.12208,0.292969 -0.12207,0.117188 -0.28808,0.117188 -0.1709,0 -0.29297,-0.117188 -0.11719,-0.12207 -0.11719,-0.292969 z"
         style="font-size:10.00001335px;line-height:50%;stroke-width:0.75000101"
         id="path3532" />
      <path
         d="m -146.31664,43.614378 v 1.7334 q 0,0.551759 -0.52246,1.020509 -0.51758,0.468751 -1.06934,0.468751 h -0.96191 q -0.56153,0 -1.07422,-0.473633 -0.5127,-0.478517 -0.5127,-1.015627 v -1.7334 q 0,-0.537111 0.49805,-1.010744 0.50293,-0.478516 1.08887,-0.478516 h 0.96191 q 0.55176,-0.0098 1.06934,0.458985 0.52246,0.46875 0.52246,1.030275 z m -3.31055,0.03418 v 1.660159 q 0,0.224609 0.16113,0.356446 l 0.30762,0.263672 q 0.10254,0.08789 0.28809,0.08789 h 0.95215 q 0.20996,0 0.38086,-0.151368 l 0.24902,-0.219727 q 0.15137,-0.117187 0.15137,-0.327149 v -1.660158 q 0,-0.244141 -0.15137,-0.361329 l -0.28809,-0.229492 q -0.14648,-0.122071 -0.34179,-0.122071 h -0.84961 q -0.27833,0 -0.42969,0.131836 l -0.27832,0.239259 q -0.15137,0.126953 -0.15137,0.332031 z"
         style="font-size:10.00001335px;line-height:50%;stroke-width:0.75000101"
         id="path3534" />
    </g>
  </g>
</svg>
